<svg width="24" height="24" viewBox="0 0 24 24" fill="none" xmlns="http://www.w3.org/2000/svg">
<path d="M14.1814 4.2755C14.5815 4.3827 14.819 4.79396 14.7117 5.19406L10.7381 20.0238C10.6309 20.4239 10.2197 20.6613 9.81958 20.5541C9.41948 20.4469 9.18204 20.0356 9.28925 19.6355L13.2629 4.80583C13.3701 4.40573 13.7813 4.16829 14.1814 4.2755Z" fill="#1C274C"/>
<path d="M16.443 7.32781C16.7201 7.01993 17.1943 6.99497 17.5022 7.27206L19.2397 8.8358C19.976 9.49847 20.5868 10.0482 21.0063 10.5467C21.4473 11.071 21.7608 11.6342 21.7608 12.3295C21.7608 13.0248 21.4473 13.5881 21.0063 14.1123C20.5868 14.6109 19.976 15.1606 19.2397 15.8233L17.5022 17.387C17.1943 17.6641 16.7201 17.6391 16.443 17.3313C16.1659 17.0234 16.1909 16.5492 16.4988 16.2721L18.1952 14.7452C18.9831 14.0362 19.5143 13.5558 19.8584 13.1467C20.1887 12.7541 20.2608 12.525 20.2608 12.3295C20.2608 12.1341 20.1887 11.9049 19.8584 11.5123C19.5143 11.1033 18.9831 10.6229 18.1952 9.91383L16.4988 8.387C16.1909 8.10991 16.1659 7.63569 16.443 7.32781Z" fill="#1C274C"/>
<path d="M7.50226 8.387C7.81015 8.10991 7.8351 7.63569 7.55801 7.32781C7.28092 7.01993 6.8067 6.99497 6.49882 7.27206L4.76133 8.8358C4.02499 9.49847 3.41418 10.0482 2.99477 10.5467C2.55374 11.071 2.24023 11.6342 2.24023 12.3295C2.24023 13.0248 2.55374 13.5881 2.99477 14.1123C3.41418 14.6109 4.02497 15.1606 4.76131 15.8232L6.49882 17.387C6.8067 17.6641 7.28092 17.6391 7.55801 17.3313C7.8351 17.0234 7.81015 16.5492 7.50226 16.2721L5.80579 14.7452C5.01792 14.0362 4.48672 13.5558 4.14262 13.1467C3.81237 12.7541 3.74023 12.525 3.74023 12.3295C3.74023 12.1341 3.81237 11.9049 4.14262 11.5123C4.48672 11.1033 5.01792 10.6229 5.80579 9.91383L7.50226 8.387Z" fill="#1C274C"/>
</svg>
