<svg width="24" height="24" viewBox="0 0 24 24" fill="none" xmlns="http://www.w3.org/2000/svg">
<circle cx="11.5" cy="4.5" r="2.5" stroke="#1C274C" stroke-width="1.5"/>
<path d="M9 17.5L6 22" stroke="#1C274C" stroke-width="1.5" stroke-linecap="round"/>
<path d="M10.3756 11.2464L11.1219 11.321V11.321L10.3756 11.2464ZM10.2135 12.8681L10.9598 12.9427L10.2135 12.8681ZM14.0033 11.336L13.5231 11.9122L13.5231 11.9122L14.0033 11.336ZM14.0846 11.4038L14.5648 10.8277L14.5648 10.8277L14.0846 11.4038ZM17.9159 11.4038L17.4358 10.8277V10.8277L17.9159 11.4038ZM19.4804 11.0764C19.7986 10.8112 19.8416 10.3383 19.5764 10.02C19.3113 9.70184 18.8383 9.65885 18.5201 9.92402L19.4804 11.0764ZM14.2284 20.0643L14.9755 19.9978V19.9978L14.2284 20.0643ZM13.6536 22.0667C13.6903 22.4792 14.0545 22.7839 14.4671 22.7472C14.8797 22.7105 15.1844 22.3463 15.1477 21.9337L13.6536 22.0667ZM15.3144 12.2755L15.0572 12.98L15.0572 12.98L15.3144 12.2755ZM16.6861 12.2755L16.9433 12.98L16.9433 12.98L16.6861 12.2755ZM12.0939 10.2424L11.9138 10.9704L11.9138 10.9704L12.0939 10.2424ZM12.2426 10.2986L12.0001 11.0083L12.0001 11.0083L12.2426 10.2986ZM13.4815 10.9258L13.9099 10.3101L13.9099 10.3101L13.4815 10.9258ZM11.8173 16.1358L12.2148 15.4998V15.4998L11.8173 16.1358ZM13.4814 17.372L12.8971 17.8422H12.8971L13.4814 17.372ZM13.8797 18.0209L13.1958 18.3289L13.1958 18.3289L13.8797 18.0209ZM10.2051 14.5597L9.4893 14.7835H9.4893L10.2051 14.5597ZM10.4741 15.1076L9.85911 15.5369L9.85911 15.5369L10.4741 15.1076ZM10.4857 10.6841L11.1679 10.9958V10.9958L10.4857 10.6841ZM11.309 10.1034L11.2443 9.35624V9.35624L11.309 10.1034ZM9.62936 11.1717L9.4672 12.7934L10.9598 12.9427L11.1219 11.321L9.62936 11.1717ZM13.5231 11.9122L13.6045 11.98L14.5648 10.8277L14.4834 10.7598L13.5231 11.9122ZM18.396 11.98L19.4804 11.0764L18.5201 9.92402L17.4358 10.8277L18.396 11.98ZM13.4814 20.1308L13.6536 22.0667L15.1477 21.9337L14.9755 19.9978L13.4814 20.1308ZM13.6045 11.98C14.1596 12.4426 14.5773 12.8048 15.0572 12.98L15.5716 11.571C15.3974 11.5074 15.2133 11.3681 14.5648 10.8277L13.6045 11.98ZM17.4358 10.8277C16.7872 11.3681 16.6031 11.5074 16.4289 11.571L16.9433 12.98C17.4232 12.8048 17.8409 12.4426 18.396 11.98L17.4358 10.8277ZM15.0572 12.98C15.6662 13.2024 16.3343 13.2024 16.9433 12.98L16.4289 11.571C16.1521 11.672 15.8484 11.672 15.5716 11.571L15.0572 12.98ZM11.9138 10.9704C11.915 10.9708 11.9159 10.971 11.9165 10.9711C11.9172 10.9713 11.9174 10.9713 11.9172 10.9713C11.9171 10.9713 11.916 10.971 11.9144 10.9706C11.913 10.9702 11.9094 10.9693 11.9047 10.968C11.9008 10.9669 11.8909 10.9642 11.8783 10.9602C11.8718 10.9582 11.8619 10.9549 11.8499 10.9506C11.8387 10.9466 11.8198 10.9395 11.7968 10.9292C11.785 10.9239 11.7697 10.9166 11.7522 10.9073C11.735 10.8982 11.7118 10.885 11.6855 10.8673C11.6599 10.8502 11.6237 10.8235 11.5847 10.786C11.5464 10.7493 11.4934 10.6905 11.4474 10.6071C11.3995 10.5202 11.3583 10.404 11.3545 10.2655C11.3527 10.1977 11.3601 10.1315 11.3754 10.0685C11.3905 10.006 11.4124 9.95064 11.4369 9.90285C11.4849 9.80936 11.5432 9.74406 11.5856 9.70342C11.6286 9.66228 11.6685 9.63391 11.6955 9.61638C11.7234 9.59827 11.7475 9.58523 11.764 9.57682C11.781 9.56818 11.7953 9.56172 11.805 9.55751C11.8228 9.54978 11.8373 9.54436 11.8382 9.54401C11.8446 9.5416 11.8358 9.54492 11.8313 9.54666C11.8244 9.54936 11.8108 9.55477 11.794 9.56238C11.7773 9.56995 11.7533 9.58157 11.7255 9.5978C11.6979 9.61389 11.6613 9.63761 11.6217 9.67084C11.5819 9.70416 11.5342 9.7512 11.4896 9.8148C11.4439 9.87981 11.403 9.96014 11.3781 10.0549C11.353 10.1502 11.3481 10.2452 11.3586 10.3341C11.3689 10.4211 11.393 10.4945 11.4187 10.552C11.4441 10.6089 11.4728 10.6542 11.4972 10.6877C11.5218 10.7214 11.5457 10.7483 11.5652 10.7685C11.6031 10.8076 11.6379 10.8349 11.6594 10.8508C11.6824 10.8677 11.7025 10.8805 11.7167 10.8891C11.7444 10.9058 11.7678 10.9176 11.781 10.9241C11.7957 10.9312 11.8086 10.9369 11.8183 10.9411C11.8375 10.9494 11.856 10.9566 11.8718 10.9626C11.9039 10.9748 11.9455 10.9896 12.0001 11.0083L12.4851 9.58887C12.437 9.5724 12.4134 9.5638 12.4042 9.56031C12.3994 9.55849 12.4033 9.55987 12.4121 9.56367C12.4167 9.56564 12.4255 9.56952 12.437 9.57509C12.447 9.57995 12.4681 9.59049 12.4941 9.60622C12.5074 9.61433 12.5268 9.62666 12.5493 9.64319C12.5703 9.65869 12.6046 9.68564 12.6422 9.7244C12.6765 9.75975 12.7397 9.83149 12.7882 9.94013C12.8138 9.99745 12.8379 10.0707 12.8482 10.1576C12.8587 10.2465 12.8538 10.3414 12.8287 10.4367C12.7777 10.6306 12.6639 10.7545 12.5854 10.8203C12.5107 10.8829 12.4412 10.9159 12.4135 10.9285C12.3861 10.9409 12.3568 10.9516 12.3698 10.9466C12.3709 10.9463 12.3854 10.9408 12.4032 10.9331C12.4178 10.9267 12.4616 10.9074 12.5129 10.8741C12.5399 10.8566 12.5798 10.8282 12.6228 10.787C12.6653 10.7464 12.7236 10.6811 12.7716 10.5875C12.8221 10.489 12.8578 10.3651 12.854 10.2249C12.8502 10.0863 12.809 9.97015 12.7611 9.88317C12.7151 9.79974 12.6621 9.74101 12.6238 9.70424C12.5847 9.6667 12.5485 9.64006 12.5229 9.62285C12.4737 9.58975 12.4313 9.5698 12.4113 9.56086C12.3705 9.54254 12.337 9.53206 12.3289 9.52949C12.3158 9.52538 12.3054 9.52249 12.3008 9.52122C12.2915 9.51868 12.2835 9.51669 12.2819 9.5163C12.2791 9.51559 12.2759 9.5148 12.274 9.51433L11.9138 10.9704ZM14.4834 10.7598C14.2569 10.5711 14.1187 10.4554 13.9099 10.3101L13.0532 11.5414C13.2008 11.6441 13.2916 11.7193 13.5231 11.9122L14.4834 10.7598ZM12.0001 11.0083C12.2969 11.1097 12.7957 11.3622 13.0532 11.5414L13.9099 10.3101C13.5379 10.0513 12.914 9.73542 12.4851 9.58887L12.0001 11.0083ZM11.4198 16.7718C12.3622 17.3608 12.6776 17.5695 12.8971 17.8422L14.0657 16.9017C13.6501 16.3854 13.0678 16.0329 12.2148 15.4998L11.4198 16.7718ZM14.9755 19.9978C14.8863 18.9959 14.8357 18.3172 14.5635 17.7128L13.1958 18.3289C13.3396 18.6481 13.3829 19.0238 13.4814 20.1308L14.9755 19.9978ZM12.8971 17.8422C13.017 17.9911 13.1174 18.1547 13.1958 18.3289L14.5635 17.7128C14.4327 17.4224 14.2654 17.1498 14.0657 16.9017L12.8971 17.8422ZM9.4672 12.7934C9.38706 13.5948 9.31086 14.2128 9.4893 14.7835L10.9209 14.3358C10.8557 14.1272 10.8663 13.8772 10.9598 12.9427L9.4672 12.7934ZM12.2148 15.4998C11.4184 15.0021 11.2142 14.8575 11.089 14.6783L9.85911 15.5369C10.2014 16.0272 10.7369 16.345 11.4198 16.7718L12.2148 15.4998ZM9.4893 14.7835C9.57329 15.0521 9.69801 15.3062 9.85911 15.5369L11.089 14.6783C11.0158 14.5734 10.9591 14.4579 10.9209 14.3358L9.4893 14.7835ZM11.1219 11.321C11.1366 11.1739 11.1442 11.1031 11.1536 11.0498C11.1604 11.0115 11.1649 11.0025 11.1679 10.9958L9.80358 10.3724C9.67298 10.6583 9.65363 10.9291 9.62936 11.1717L11.1219 11.321ZM12.274 9.51433C12.0754 9.4652 11.8978 9.42103 11.7497 9.39264C11.6 9.36394 11.4283 9.3403 11.2443 9.35624L11.3737 10.8506C11.3551 10.8523 11.3692 10.847 11.4674 10.8658C11.5671 10.8849 11.6994 10.9174 11.9138 10.9704L12.274 9.51433ZM11.1679 10.9958C11.1609 11.0112 11.1609 11.0049 11.1813 10.9824C11.2004 10.9613 11.2282 10.9361 11.2627 10.9118C11.2972 10.8874 11.3303 10.8697 11.3565 10.8588C11.3847 10.8471 11.3906 10.8492 11.3737 10.8506L11.2443 9.35624C10.9181 9.3845 10.6189 9.53026 10.3981 9.68601C10.1773 9.84176 9.93963 10.0747 9.80358 10.3724L11.1679 10.9958Z" fill="#1C274C"/>
<path d="M19 15V8M19 22V19" stroke="#1C274C" stroke-width="1.5" stroke-linecap="round"/>
<path d="M8 10L6.328 10.5573C5.53493 10.8217 5 11.5639 5 12.3998C5 12.7677 5.20781 13.1039 5.5368 13.2684L8 14.5" stroke="#1C274C" stroke-width="1.5" stroke-linecap="round"/>
</svg>
