<svg width="24" height="24" viewBox="0 0 24 24" fill="none" xmlns="http://www.w3.org/2000/svg">
<circle cx="18.5" cy="4.5" r="2.5" stroke="#1C274C" stroke-width="1.5"/>
<path d="M9 17L7.99923 18.2009C7.262 19.0856 6.89338 19.5279 6.38945 19.764C5.88552 20 5.30973 20 4.15813 20H3" stroke="#1C274C" stroke-width="1.5" stroke-linecap="round"/>
<path d="M13.6503 21.9999C13.6503 22.4141 13.9861 22.7499 14.4003 22.7499C14.8145 22.7499 15.1503 22.4141 15.1503 21.9999H13.6503ZM12.5649 16.2457L13.0178 15.6479L13.0178 15.6479L12.5649 16.2457ZM13.7493 17.261L14.3365 16.7945L14.3365 16.7945L13.7493 17.261ZM14.3062 18.3817L15.0327 18.1954L15.0327 18.1954L14.3062 18.3817ZM13.5045 11.555C13.811 11.2763 13.8336 10.802 13.555 10.4955C13.2763 10.189 12.802 10.1664 12.4955 10.445L13.5045 11.555ZM10.8523 13.1644L11.5555 13.4252L11.5555 13.4252L10.8523 13.1644ZM10.922 14.72L10.2449 15.0426H10.2449L10.922 14.72ZM13.6503 19.9389V21.9999H15.1503V19.9389H13.6503ZM12.112 16.8436C12.7756 17.3463 12.9992 17.5226 13.162 17.7276L14.3365 16.7945C14.0282 16.4065 13.6192 16.1035 13.0178 15.6479L12.112 16.8436ZM15.1503 19.9389C15.1503 19.1844 15.1558 18.6754 15.0327 18.1954L13.5797 18.5681C13.6448 18.8216 13.6503 19.1063 13.6503 19.9389H15.1503ZM13.162 17.7276C13.3588 17.9753 13.5011 18.2617 13.5797 18.5681L15.0327 18.1954C14.9017 17.6847 14.6645 17.2073 14.3365 16.7945L13.162 17.7276ZM12.4955 10.445C12.0759 10.8265 11.5507 11.2813 11.1415 11.6686C10.9321 11.8668 10.7317 12.0669 10.5681 12.2554C10.4196 12.4266 10.2415 12.6544 10.1491 12.9037L11.5555 13.4252C11.5478 13.4461 11.5696 13.39 11.7011 13.2385C11.8175 13.1044 11.9771 12.9431 12.1726 12.758C12.5731 12.3789 13.0371 11.9799 13.5045 11.555L12.4955 10.445ZM13.0178 15.6479C12.5303 15.2786 12.2 15.0277 11.9623 14.8161C11.7288 14.6083 11.6414 14.4864 11.5991 14.3975L10.2449 15.0426C10.412 15.3935 10.6684 15.6725 10.965 15.9366C11.2574 16.1969 11.6439 16.4889 12.112 16.8436L13.0178 15.6479ZM10.1491 12.9037C9.89078 13.6003 9.92532 14.3719 10.2449 15.0426L11.5991 14.3975C11.4538 14.0926 11.4381 13.7419 11.5555 13.4252L10.1491 12.9037Z" fill="#1C274C"/>
<path d="M5.80619 9.47277C6.16633 9.26814 6.2924 8.81031 6.08777 8.45017C5.88315 8.09002 5.42531 7.96395 5.06517 8.16858L5.80619 9.47277ZM3.62949 8.98431C3.26935 9.18893 3.14328 9.64677 3.34791 10.0069C3.55253 10.367 4.01037 10.4931 4.37051 10.2885L3.62949 8.98431ZM13.4066 7.35719L13.1211 8.05073V8.05073L13.4066 7.35719ZM10.4467 6.64289L10.3924 5.89487V5.89487L10.4467 6.64289ZM21 12.75C21.4142 12.75 21.75 12.4142 21.75 12C21.75 11.5858 21.4142 11.25 21 11.25V12.75ZM15.7681 9.53622L15.0973 9.87163V9.87163L15.7681 9.53622ZM8.73808 6.27294C8.34994 6.41759 8.15257 6.8495 8.29722 7.23764C8.44188 7.62577 8.87379 7.82315 9.26192 7.67849L8.73808 6.27294ZM5.06517 8.16858L3.62949 8.98431L4.37051 10.2885L5.80619 9.47277L5.06517 8.16858ZM13.6921 6.66365C12.3481 6.1104 11.6111 5.80624 10.3924 5.89487L10.5011 7.39092C11.3248 7.33103 11.7575 7.48943 13.1211 8.05073L13.6921 6.66365ZM19.7546 12.75H21V11.25H19.7546V12.75ZM15.0973 9.87163C15.9793 11.6357 17.7823 12.75 19.7546 12.75V11.25C18.3505 11.25 17.0669 10.4567 16.4389 9.20082L15.0973 9.87163ZM16.4389 9.20082C15.8611 8.0451 14.8765 7.15119 13.6921 6.66365L13.1211 8.05073C13.9811 8.40473 14.6864 9.04993 15.0973 9.87163L16.4389 9.20082ZM9.26192 7.67849C9.71397 7.51002 10.1059 7.41966 10.5011 7.39092L10.3924 5.89487C9.83019 5.93575 9.29773 6.06436 8.73808 6.27294L9.26192 7.67849Z" fill="#1C274C"/>
</svg>
