<svg width="24" height="24" viewBox="0 0 24 24" fill="none" xmlns="http://www.w3.org/2000/svg">
<path d="M9 22H15" stroke="#1C274C" stroke-width="1.5" stroke-linecap="round"/>
<path d="M12 22V15" stroke="#1C274C" stroke-width="1.5" stroke-linecap="round"/>
<path d="M11.9997 2C14.4228 2 15.6344 2 16.582 2.56616C16.8568 2.73028 17.1108 2.92678 17.3387 3.15144C18.1248 3.9264 18.4292 5.0991 19.0381 7.44451L19.1224 7.76898C19.9502 10.9576 20.3641 12.5519 19.6123 13.6719C19.5373 13.7837 19.4549 13.8902 19.3656 13.9909C18.4704 15 16.8232 15 13.5289 15H10.4704C7.17611 15 5.52896 15 4.63375 13.9909C4.54445 13.8902 4.46204 13.7837 4.38705 13.6719C3.63524 12.5519 4.04914 10.9576 4.87695 7.76897L4.96118 7.44451C5.57009 5.0991 5.87454 3.9264 6.66066 3.15144C6.88855 2.92678 7.14257 2.73028 7.41729 2.56616C7.59945 2.45733 7.79136 2.36942 7.99976 2.29841" stroke="#1C274C" stroke-width="1.5" stroke-linecap="round"/>
<path d="M17.5 15V17" stroke="#1C274C" stroke-width="1.5" stroke-linecap="round"/>
</svg>
