<svg width="24" height="24" viewBox="0 0 24 24" fill="none" xmlns="http://www.w3.org/2000/svg">
<path opacity="0.5" d="M20 12C20 16.4183 16.4183 20 12 20C7.58172 20 4 16.4183 4 12C4 7.58172 7.58172 4 12 4C16.4183 4 20 7.58172 20 12Z" fill="#1C274C"/>
<path d="M19.0087 6.78351C19.4212 6.74555 19.7247 6.3804 19.6868 5.96793C19.6488 5.55546 19.2837 5.25186 18.8712 5.28983C18.4474 5.32883 17.9972 5.39589 17.5262 5.48872C17.3266 5.52805 17.1612 5.6432 17.054 5.79836L18.1714 6.89509C18.4669 6.8448 18.7465 6.80765 19.0087 6.78351Z" fill="#1C274C"/>
<path fill-rule="evenodd" clip-rule="evenodd" d="M20.9366 5.37875C20.5336 5.28329 20.1294 5.53264 20.034 5.9357C19.9385 6.33876 20.1879 6.7429 20.5909 6.83837C20.985 6.9317 21.1368 7.07076 21.1932 7.16093C21.2565 7.2622 21.3262 7.52683 21.0363 8.10889C20.8516 8.47965 21.0025 8.92993 21.3732 9.11461C21.744 9.2993 22.1943 9.14845 22.379 8.77769C22.7566 8.01954 22.9422 7.12837 22.4648 6.36534C22.1206 5.81525 21.5416 5.52203 20.9366 5.37875ZM20.7118 10.9607C21.0037 10.6667 21.002 10.1918 20.708 9.9C20.4141 9.60817 19.9392 9.60987 19.6474 9.90382C18.9609 10.5952 18.0797 11.3332 17.0388 12.0748C16.7014 12.3152 16.6228 12.7835 16.8631 13.1208C17.1035 13.4582 17.5718 13.5368 17.9091 13.2965C19.0036 12.5167 19.9532 11.7247 20.7118 10.9607ZM3.58696 14.947C3.78849 14.6947 4.02429 14.4301 4.29315 14.1559L4.05526 12.8257C3.79996 12.7504 3.51253 12.8137 3.31137 13.0154C2.97651 13.3512 2.67596 13.6841 2.415 14.0108C2.15647 14.3344 2.20924 14.8064 2.53287 15.0649C2.8565 15.3234 3.32843 15.2707 3.58696 14.947ZM15.7504 14.7035C16.106 14.491 16.2218 14.0304 16.0093 13.6749C15.7967 13.3194 15.3362 13.2035 14.9807 13.4161C14.4991 13.704 13.9974 13.9877 13.4781 14.2643C12.9445 14.5486 12.4132 14.8144 11.8883 15.061C11.5134 15.2371 11.3522 15.6838 11.5283 16.0587C11.7044 16.4336 12.1511 16.5948 12.526 16.4187C13.0739 16.1613 13.6277 15.8842 14.1834 15.5882C14.7242 15.3 15.2474 15.0043 15.7504 14.7035ZM2.81481 16.2496C2.94057 15.855 2.72259 15.4331 2.32793 15.3073C1.93327 15.1816 1.51138 15.3996 1.38562 15.7942C1.19392 16.3958 1.17354 17.0568 1.53488 17.6344C1.98775 18.3582 2.84153 18.6408 3.68907 18.7219C4.1014 18.7614 4.46765 18.4591 4.50712 18.0468C4.54658 17.6345 4.24432 17.2682 3.83199 17.2288C3.13763 17.1623 2.88355 16.9619 2.80651 16.8388C2.75679 16.7593 2.70479 16.5949 2.81481 16.2496ZM10.083 17.4524C10.4708 17.3068 10.6671 16.8745 10.5216 16.4867C10.376 16.0989 9.94359 15.9025 9.55581 16.0481C8.33112 16.5079 7.19089 16.84 6.19417 17.0372C5.78783 17.1176 5.5236 17.5122 5.60398 17.9185C5.68437 18.3248 6.07894 18.5891 6.48528 18.5087C7.57781 18.2925 8.79786 17.9349 10.083 17.4524Z" fill="#1C274C"/>
</svg>
