<svg width="24" height="24" viewBox="0 0 24 24" fill="none" xmlns="http://www.w3.org/2000/svg">
<path opacity="0.5" fill-rule="evenodd" clip-rule="evenodd" d="M13.0863 5.04116L2.33263 10.3592C1.96134 10.5428 1.5115 10.3906 1.32788 10.0193C1.14427 9.64805 1.29641 9.1982 1.6677 9.01459L14.0956 2.86865L14.2406 3.8793C14.2411 3.88155 14.2418 3.88461 14.2427 3.88848C14.2475 3.90834 14.2584 3.9497 14.2796 4.01205C14.3219 4.13663 14.4058 4.34612 14.5646 4.63608C14.8823 5.21625 15.5014 6.12024 16.6907 7.30957C17.8801 8.49891 18.784 9.11785 19.364 9.43554C19.6539 9.59432 19.8634 9.67808 19.9879 9.72042C20.0502 9.74161 20.0916 9.75251 20.1114 9.75728C20.1153 9.75821 20.1183 9.7589 20.1206 9.7594L21.1314 9.9042L14.9857 22.3324C14.8021 22.7037 14.3523 22.8559 13.981 22.6723C13.6097 22.4887 13.4575 22.0389 13.6411 21.6676L18.9588 10.9137C18.8608 10.8665 18.7557 10.8126 18.6435 10.7511C18.0248 10.4123 17.193 9.84387 16.1696 8.8913L5.53049 19.5303C5.2376 19.8232 4.76273 19.8232 4.46983 19.5303C4.17694 19.2374 4.17694 18.7626 4.46984 18.4697L15.109 7.83065C14.1564 6.80732 13.5879 5.97546 13.249 5.35666C13.1875 5.24439 13.1336 5.13918 13.0863 5.04116Z" fill="#1C274C"/>
<path d="M20.8236 10.5271L21.1314 9.90469L20.1206 9.75989L20.1114 9.75777C20.0916 9.753 20.0502 9.7421 19.9879 9.72091C19.8634 9.67857 19.6539 9.5948 19.364 9.43602C18.784 9.11834 17.8801 8.4994 16.6907 7.31006C15.5014 6.12073 14.8823 5.21674 14.5646 4.63657C14.4058 4.34661 14.3219 4.13712 14.2796 4.01254C14.2584 3.95019 14.2475 3.90882 14.2427 3.88897L14.2406 3.87979L14.0956 2.86914L13.47 3.17854C15.522 1.49761 18.5545 1.61479 20.4698 3.53008C22.3842 5.4445 22.5022 8.47511 20.8236 10.5271Z" fill="#1C274C"/>
<path d="M18.3144 12.2174L18.9588 10.9142C18.8608 10.867 18.7557 10.8131 18.6435 10.7516C18.0248 10.4128 17.193 9.84435 16.1696 8.89179L13.6505 11.4109C15.01 12.4284 16.7525 12.6972 18.3144 12.2174Z" fill="#1C274C"/>
<path d="M12.5897 10.3504L15.109 7.83114C14.1564 6.80781 13.5879 5.97595 13.249 5.35715C13.1875 5.24488 13.1336 5.13967 13.0863 5.04165L11.782 5.68668C11.3026 7.24866 11.5718 8.99107 12.5897 10.3504Z" fill="#1C274C"/>
</svg>
