<svg width="24" height="24" viewBox="0 0 24 24" fill="none" xmlns="http://www.w3.org/2000/svg">
<path d="M11.58 4.77604C12.2747 3.00516 12.6221 2.11971 13.3486 2.01056C14.075 1.90141 14.6994 2.64083 15.9483 4.11967L16.2714 4.50226C16.6263 4.9225 16.8037 5.13263 17.045 5.25261C17.2863 5.37259 17.564 5.38884 18.1196 5.42135L18.6254 5.45095C20.5803 5.56537 21.5578 5.62258 21.897 6.26168C22.2362 6.90079 21.7125 7.69853 20.6651 9.29403L20.3941 9.7068C20.0965 10.1602 19.9477 10.3869 19.9075 10.6457C19.8673 10.9045 19.9402 11.1662 20.0862 11.6895L20.219 12.166C20.7325 14.0076 20.9893 14.9284 20.4725 15.4325C19.9557 15.9367 19.0076 15.6903 17.1114 15.1975L16.6208 15.07C16.082 14.93 15.8125 14.86 15.5464 14.8999C15.2803 14.9399 15.0476 15.0854 14.5823 15.3763L14.1586 15.6412C12.521 16.6649 11.7022 17.1768 11.0436 16.8493C10.385 16.5217 10.3227 15.5717 10.1982 13.6717L10.166 13.1801C10.1306 12.6402 10.1129 12.3702 9.98865 12.1361C9.86439 11.902 9.64763 11.7302 9.2141 11.3867L8.81941 11.0739C7.2938 9.86506 6.531 9.26062 6.64075 8.55405C6.75051 7.84748 7.66013 7.50672 9.47939 6.8252L9.95005 6.64888C10.467 6.45522 10.7255 6.35839 10.9148 6.17371C11.1041 5.98903 11.2029 5.73742 11.4003 5.23419L11.58 4.77604Z" fill="#1C274C"/>
<g opacity="0.5">
<path d="M5.31003 9.59229C2.87292 11.9208 1.27501 15.8053 2.33125 21.9997C3.27403 19.3961 5.85726 17.2402 8.91219 15.9523C8.80559 15.3596 8.7583 14.6359 8.70844 13.8728L8.66945 13.2777C8.66038 13.1393 8.65346 13.0342 8.64607 12.9439C8.643 12.9063 8.64012 12.8749 8.63743 12.8484C8.61421 12.8285 8.58591 12.8048 8.55117 12.7764C8.47874 12.7172 8.39377 12.6498 8.28278 12.5619L7.80759 12.1853C7.11448 11.6363 6.46884 11.1249 6.02493 10.6534C5.77182 10.3845 5.48876 10.0299 5.31003 9.59229Z" fill="#1C274C"/>
<path d="M10.3466 15.4226C10.3415 15.3852 10.3365 15.347 10.3316 15.3081L10.3877 15.4096C10.374 15.4139 10.3603 15.4182 10.3466 15.4226Z" fill="#1C274C"/>
</g>
</svg>
