<svg width="24" height="24" viewBox="0 0 24 24" fill="none" xmlns="http://www.w3.org/2000/svg">
<path fill-rule="evenodd" clip-rule="evenodd" d="M12.4508 2.75996C10.7345 2.67452 8.97514 3.06581 7.37533 3.98946C5.77628 4.91267 4.55715 6.24123 3.77282 7.77041C4.13802 8.00388 4.63846 8.35388 5.2146 8.83765C6.39095 9.8254 7.88509 11.3728 9.18554 13.6252C10.486 15.8777 11.079 17.9453 11.3462 19.458C11.4771 20.1989 11.53 20.8073 11.5496 21.2403C13.2661 21.3257 15.0263 20.9342 16.6253 20.0109C18.2251 19.0873 19.4437 17.7593 20.2278 16.2302C19.8626 15.9967 19.3621 15.6467 18.7858 15.1628C17.6094 14.1751 16.1152 12.6277 14.8147 10.3752C13.5142 8.12277 12.9213 6.0551 12.6541 4.54246C12.5232 3.80148 12.4704 3.19299 12.4508 2.75996ZM13.965 2.96115C13.9899 3.31027 14.0386 3.75699 14.1312 4.28154C14.3731 5.6508 14.9142 7.54757 16.1137 9.62523C17.3133 11.7029 18.6854 13.1199 19.7503 14.014C20.1583 14.3566 20.5208 14.6221 20.8107 14.8182C21.5767 12.4212 21.3675 9.72455 20.0111 7.37519C18.6547 5.02584 16.4239 3.4963 13.965 2.96115ZM10.0354 21.0391C10.0105 20.6901 9.96178 20.2434 9.86912 19.7189C9.6272 18.3497 9.08605 16.4529 7.8865 14.3752C6.68696 12.2976 5.31489 10.8805 4.25003 9.98639C3.8422 9.64394 3.47976 9.37848 3.18991 9.18235C2.42446 11.5781 2.63301 14.2755 3.9896 16.6252C5.34617 18.9748 7.57793 20.5042 10.0354 21.0391ZM6.62533 2.69042C8.72041 1.48083 11.0555 1.0564 13.2864 1.32681C16.5261 1.71951 19.5514 3.57896 21.3101 6.62519C23.0689 9.67143 23.1666 13.2211 21.8868 16.2231C21.0055 18.2903 19.4704 20.1004 17.3753 21.31C12.2337 24.2785 5.65909 22.5168 2.69056 17.3752C-0.277974 12.2335 1.48369 5.65895 6.62533 2.69042Z" fill="#1C274C"/>
</svg>
