<svg width="24" height="24" viewBox="0 0 24 24" fill="none" xmlns="http://www.w3.org/2000/svg">
<path d="M10.2773 16.5153C10.282 16.4054 10.4639 16.3618 10.5179 16.4576C10.7712 16.9073 11.2034 17.5687 11.6937 17.8694C12.1841 18.1701 12.9695 18.2554 13.4851 18.2773C13.595 18.282 13.6386 18.4639 13.5428 18.5179C13.0931 18.7712 12.4318 19.2034 12.1311 19.6937C11.8304 20.1841 11.745 20.9695 11.7232 21.4851C11.7185 21.595 11.5365 21.6386 11.4825 21.5428C11.2292 21.0931 10.7971 20.4318 10.3067 20.1311C9.81637 19.8304 9.03097 19.745 8.51529 19.7232C8.40544 19.7185 8.36182 19.5365 8.45761 19.4825C8.90731 19.2292 9.56866 18.7971 9.86938 18.3067C10.1701 17.8164 10.2554 17.031 10.2773 16.5153Z" fill="#1C274C"/>
<path opacity="0.5" d="M18.4924 15.5152C18.4839 15.4056 18.292 15.3596 18.2348 15.4535C18.0625 15.736 17.814 16.0769 17.5379 16.2463C17.2617 16.4157 16.8451 16.4825 16.5152 16.508C16.4056 16.5165 16.3596 16.7083 16.4535 16.7656C16.736 16.9379 17.0769 17.1863 17.2463 17.4625C17.4157 17.7387 17.4825 18.1552 17.508 18.4852C17.5165 18.5948 17.7083 18.6408 17.7656 18.5469C17.9379 18.2644 18.1863 17.9234 18.4625 17.7541C18.7387 17.5847 19.1552 17.5178 19.4852 17.4924C19.5948 17.4839 19.6408 17.292 19.5469 17.2348C19.2644 17.0625 18.9234 16.814 18.7541 16.5379C18.5847 16.2617 18.5178 15.8451 18.4924 15.5152Z" fill="#1C274C"/>
<path d="M14.7039 4.00181L14.4616 3.69574C13.5249 2.51266 13.0566 1.92112 12.5118 2.00845C11.9669 2.09577 11.7064 2.80412 11.1854 4.22083L11.0506 4.58735C10.9025 4.98993 10.8285 5.19122 10.6865 5.33897C10.5445 5.48671 10.3506 5.56417 9.96291 5.71911L9.60991 5.86016L9.36205 5.95933C8.16253 6.4406 7.5581 6.71331 7.48093 7.24324C7.39861 7.80849 7.97072 8.29205 9.11492 9.25915L9.41094 9.50935C9.73609 9.78417 9.89866 9.92158 9.99186 10.1089C10.0851 10.2962 10.0983 10.5121 10.1249 10.9441L10.149 11.3373C10.2424 12.8574 10.2891 13.6174 10.783 13.8794C11.277 14.1414 11.8911 13.7319 13.1193 12.9129L13.1193 12.9129L13.4371 12.701C13.7861 12.4683 13.9606 12.3519 14.1602 12.32C14.3598 12.288 14.5618 12.344 14.966 12.456L15.3339 12.558C16.756 12.9522 17.4671 13.1493 17.8547 12.746C18.2423 12.3427 18.0498 11.6061 17.6646 10.1328L17.565 9.75163C17.4555 9.33297 17.4008 9.12364 17.431 8.91657C17.4611 8.70951 17.5727 8.52816 17.796 8.16546L17.796 8.16544L17.9992 7.83522C18.7848 6.55883 19.1776 5.92063 18.9231 5.40935C18.6687 4.89806 17.9356 4.85229 16.4694 4.76076L16.09 4.73708C15.6734 4.71107 15.4651 4.69807 15.2841 4.60208C15.1032 4.5061 14.9701 4.338 14.7039 4.00181L14.7039 4.00181Z" fill="#1C274C"/>
<path opacity="0.5" d="M8.835 13.326C6.69772 14.3702 4.91931 16.024 4.24844 18.0002C3.49589 13.2926 4.53976 10.2526 6.21308 8.36328C6.35728 8.658 6.54466 8.902 6.71297 9.09269C7.06286 9.48911 7.56518 9.91347 8.07523 10.3444L8.44225 10.6545C8.51184 10.7134 8.56597 10.7592 8.61197 10.7989C8.61665 10.8632 8.62129 10.9383 8.62727 11.0357L8.65708 11.5212C8.69717 12.1761 8.7363 12.8155 8.835 13.326Z" fill="#1C274C"/>
</svg>
