<svg width="24" height="24" viewBox="0 0 24 24" fill="none" xmlns="http://www.w3.org/2000/svg">
<path d="M6 15C6 13.3431 7.34315 12 9 12C10.6569 12 12 13.3431 12 15C12 16.6569 10.6569 18 9 18C7.34315 18 6 16.6569 6 15Z" stroke="#1C274C" stroke-width="1.5"/>
<path d="M4.5 11.5L4.91406 10.5" stroke="#1C274C" stroke-width="1.5" stroke-linecap="round"/>
<path d="M14.4648 7.17146C14.4648 7.17146 15.7077 7.00007 16.5862 7.87857C17.4647 8.75706 17.2933 9.99989 17.2933 9.99989" stroke="#1C274C" stroke-width="1.5" stroke-linecap="round"/>
<path d="M9.00013 9.29303C9.00013 9.29303 7.7573 9.46441 6.87881 8.58592C6.00032 7.70743 6.1717 6.4646 6.1717 6.4646" stroke="#1C274C" stroke-width="1.5" stroke-linecap="round"/>
<path d="M18.9996 13.1362C18.9996 13.1362 17.8376 13.6092 17.516 14.8093C17.1945 16.0093 17.9643 16.9999 17.9643 16.9999" stroke="#1C274C" stroke-width="1.5" stroke-linecap="round"/>
<path d="M13.4209 17.772L14.9995 19" stroke="#1C274C" stroke-width="1.5" stroke-linecap="round"/>
<path d="M14.5 14V12" stroke="#1C274C" stroke-width="1.5" stroke-linecap="round"/>
<path d="M12 5L10 5" stroke="#1C274C" stroke-width="1.5" stroke-linecap="round"/>
<path d="M12.5 9.5L11.5 8.5" stroke="#1C274C" stroke-width="1.5" stroke-linecap="round"/>
<path d="M7 3.33782C8.47087 2.48697 10.1786 2 12 2C17.5228 2 22 6.47715 22 12C22 17.5228 17.5228 22 12 22C6.47715 22 2 17.5228 2 12C2 10.1786 2.48697 8.47087 3.33782 7" stroke="#1C274C" stroke-width="1.5" stroke-linecap="round"/>
</svg>
