<svg width="24" height="24" viewBox="0 0 24 24" fill="none" xmlns="http://www.w3.org/2000/svg">
<path d="M2.60045 6C2.92903 5.27154 3.39259 4.58912 3.99114 3.99057C6.64524 1.33648 10.9484 1.33648 13.6025 3.99057L20.01 10.3981C21.0296 11.4177 21.6575 12.6807 21.8937 14M2.10742 10C2.34364 11.3193 2.97155 12.5823 3.99114 13.6019L10.3987 20.0094C13.0528 22.6635 17.3559 22.6635 20.01 20.0094C20.6086 19.4109 21.0721 18.7285 21.4007 18" stroke="#1C274C" stroke-width="1.5" stroke-linecap="round"/>
<path d="M16.8057 7.19434C16.8057 7.19434 16.2649 9.99999 13.1322 13.1327C9.99952 16.2653 7.19434 16.8057 7.19434 16.8057" stroke="#1C274C" stroke-width="1.5"/>
</svg>
