<svg width="24" height="24" viewBox="0 0 24 24" fill="none" xmlns="http://www.w3.org/2000/svg">
<path d="M7 17.9983C4.82497 17.9862 3.64706 17.8897 2.87868 17.1213C2 16.2426 2 14.8284 2 12L2 8C2 5.17157 2 3.75736 2.87868 2.87868C3.75736 2 5.17157 2 8 2L16 2C18.8284 2 20.2426 2 21.1213 2.87868C22 3.75736 22 5.17157 22 8V12C22 14.8284 22 16.2426 21.1213 17.1213C20.3915 17.8512 19.2921 17.9748 17.3197 17.9957L16.5 17.9983" stroke="#1C274D" stroke-width="1.5"/>
<path d="M9 6L15 6" stroke="#1C274D" stroke-width="1.5" stroke-linecap="round"/>
<path d="M7 9.5H17" stroke="#1C274D" stroke-width="1.5" stroke-linecap="round"/>
<path d="M10.8905 13.9457C11.5297 13.4009 12.4699 13.4009 13.1092 13.9457C13.3831 14.1791 13.7237 14.3202 14.0824 14.3488C14.9197 14.4156 15.5845 15.0805 15.6513 15.9177C15.6799 16.2764 15.821 16.617 16.0544 16.891C16.5992 17.5302 16.5992 18.4704 16.0544 19.1096C15.821 19.3836 15.6799 19.7242 15.6513 20.0829C15.5845 20.9202 14.9197 21.585 14.0824 21.6518C13.7237 21.6804 13.3831 21.8215 13.1092 22.0549C12.4699 22.5997 11.5297 22.5997 10.8905 22.0549C10.6165 21.8215 10.276 21.6804 9.91719 21.6518C9.07997 21.585 8.41515 20.9202 8.34834 20.0829C8.31971 19.7242 8.17863 19.3836 7.94519 19.1096C7.40043 18.4704 7.40043 17.5302 7.94519 16.891C8.17863 16.617 8.31971 16.2764 8.34834 15.9177C8.41515 15.0805 9.07997 14.4156 9.91719 14.3488C10.276 14.3202 10.6165 14.1791 10.8905 13.9457Z" stroke="#1C274D" stroke-width="1.5"/>
<path d="M10.5 18.2L11.3571 19L13.5 17" stroke="#1C274D" stroke-width="1.5" stroke-linecap="round" stroke-linejoin="round"/>
</svg>
