<svg width="24" height="24" viewBox="0 0 24 24" fill="none" xmlns="http://www.w3.org/2000/svg">
<path opacity="0.5" d="M17 14.5C17 18.6421 13.6421 22 9.5 22C5.35786 22 2 18.6421 2 14.5C2 10.3579 5.35786 7 9.5 7C13.6421 7 17 10.3579 17 14.5Z" fill="#1C274C"/>
<path d="M16.671 3.16451C16.4857 2.79403 16.0352 2.64386 15.6647 2.8291C15.2942 3.01434 15.1441 3.46485 15.3293 3.83533L15.8293 4.83533C16.0146 5.20581 16.4651 5.35598 16.8355 5.17074C17.206 4.9855 17.3562 4.53499 17.171 4.16451L16.671 3.16451Z" fill="#1C274C"/>
<path d="M19.8355 6.8291C19.4651 6.64386 19.0146 6.79403 18.8293 7.16451C18.6441 7.53499 18.7942 7.9855 19.1647 8.17074L20.1647 8.67074C20.5352 8.85598 20.9857 8.70581 21.171 8.33533C21.3562 7.96485 21.206 7.51434 20.8355 7.3291L19.8355 6.8291Z" fill="#1C274C"/>
<path d="M20.5305 4.53025C20.8234 4.23736 20.8234 3.76248 20.5305 3.46959C20.2376 3.1767 19.7627 3.1767 19.4698 3.46959L18.4698 4.46959C18.1769 4.76248 18.1769 5.23736 18.4698 5.53025C18.7627 5.82314 19.2376 5.82314 19.5305 5.53025L20.5305 4.53025Z" fill="#1C274C"/>
<path d="M15.3073 9.75335L17.5304 7.53025C17.8233 7.23736 17.8233 6.76248 17.5304 6.46959C17.2375 6.1767 16.7626 6.1767 16.4697 6.46959L14.2466 8.69271C14.6344 9.01007 14.9899 9.36552 15.3073 9.75335Z" fill="#1C274C"/>
</svg>
