<svg width="24" height="24" viewBox="0 0 24 24" fill="none" xmlns="http://www.w3.org/2000/svg">
<path d="M12.7277 5.53569C14.2898 3.97359 16.8224 3.97351 18.3845 5.53561C19.9466 7.09771 19.9467 9.63044 18.3846 11.1925M3.57927 12.9792L2.9124 11.883C2.04035 10.1746 2.60058 7.96517 4.40748 7.01113C5.26129 6.56033 6.21821 6.13191 7.16909 5.86008C10.0286 5.04262 12.5345 5.34235 12.5345 5.34235L18.5777 11.3855C18.5777 11.3855 18.8774 13.8914 18.0599 16.7509C17.7881 17.7018 17.3597 18.6587 16.9089 19.5125C15.9549 21.3194 13.7454 21.8797 12.037 21.0076L10.9407 20.3407C7.93327 18.5112 5.40879 15.9867 3.57927 12.9792Z" stroke="#1C274C" stroke-width="1.5"/>
<path opacity="0.5" d="M20.5061 3.41406L18.3848 5.53538" stroke="#1C274C" stroke-width="1.5" stroke-linecap="round"/>
</svg>
