<svg width="24" height="24" viewBox="0 0 24 24" fill="none" xmlns="http://www.w3.org/2000/svg">
<path d="M4.01207 15.7618L5.70156 10.6933C6.46758 8.39525 6.85059 7.24623 7.75684 7.03229C8.6631 6.81835 9.51953 7.67478 11.2324 9.38764L14.6114 12.7666C16.3242 14.4795 17.1807 15.3359 16.9667 16.2422C16.7528 17.1484 15.6038 17.5314 13.3057 18.2975L8.23724 19.987C5.47183 20.9088 4.08912 21.3697 3.35924 20.6398C2.62936 19.9099 3.09026 18.5272 4.01207 15.7618Z" stroke="#1C274C" stroke-width="1.5" stroke-linecap="round"/>
<path opacity="0.5" d="M12.2356 18.3462C12.2356 18.3462 11.4774 16.0651 11.4774 14.5553C11.4774 13.0456 12.2356 10.7644 12.2356 10.7644M8.06566 19.4834C8.06566 19.4834 7.42533 16.7316 7.30749 14.9344C7.11278 11.9652 8.06566 7.35266 8.06566 7.35266" stroke="#1C274C" stroke-width="1.5" stroke-linecap="round"/>
<path d="M14.5098 10.0061L14.6538 9.28614C14.7991 8.55924 15.3229 7.96597 16.0261 7.73155C16.7294 7.49714 17.2531 6.90387 17.3985 6.17697L17.5425 5.45703" stroke="#1C274C" stroke-width="1.5" stroke-linecap="round"/>
<path d="M17.5693 12.2536L17.7822 12.3765C18.4393 12.7558 19.2655 12.6722 19.8332 12.1688C20.3473 11.7129 21.0794 11.5973 21.709 11.8725L22.0005 12" stroke="#1C274C" stroke-width="1.5" stroke-linecap="round"/>
<path d="M10.5347 3C10.1973 3.55206 10.2818 4.26344 10.7394 4.72097L10.8373 4.81885C11.2304 5.21201 11.3754 5.78959 11.2145 6.32182" stroke="#1C274C" stroke-width="1.5" stroke-linecap="round"/>
<g opacity="0.5">
<path d="M13.561 4.39635C13.7621 4.1953 13.8626 4.09477 13.9788 4.05792C14.0772 4.02675 14.1827 4.02675 14.281 4.05792C14.3973 4.09477 14.4978 4.1953 14.6989 4.39635C14.8999 4.59741 15.0004 4.69794 15.0373 4.81418C15.0685 4.91249 15.0685 5.01804 15.0373 5.11636C15.0004 5.2326 14.8999 5.33313 14.6989 5.53418C14.4978 5.73524 14.3973 5.83577 14.281 5.87262C14.1827 5.90378 14.0772 5.90378 13.9788 5.87262C13.8626 5.83577 13.7621 5.73524 13.561 5.53418C13.36 5.33313 13.2594 5.2326 13.2226 5.11636C13.1914 5.01804 13.1914 4.91249 13.2226 4.81418C13.2594 4.69794 13.36 4.59741 13.561 4.39635Z" fill="#1C274C"/>
</g>
<path d="M19.4682 7.46822C19.7136 7.22283 19.8363 7.10014 19.9747 7.04681C20.1367 6.9844 20.3161 6.9844 20.4781 7.04681C20.6165 7.10014 20.7392 7.22283 20.9846 7.46822C21.23 7.71362 21.3527 7.83631 21.406 7.97472C21.4684 8.1367 21.4684 8.31609 21.406 8.47807C21.3527 8.61649 21.23 8.73918 20.9846 8.98457C20.7392 9.22996 20.6165 9.35266 20.4781 9.40599C20.3161 9.4684 20.1367 9.4684 19.9747 9.40599C19.8363 9.35266 19.7136 9.22996 19.4682 8.98457C19.2228 8.73918 19.1001 8.61649 19.0468 8.47807C18.9844 8.31609 18.9844 8.1367 19.0468 7.97472C19.1001 7.83631 19.2228 7.71362 19.4682 7.46822Z" fill="#1C274C"/>
<g opacity="0.5">
<path d="M6.92761 3.94079C7.13708 3.73132 7.47669 3.73132 7.68616 3.94079C7.89563 4.15026 7.89563 4.48988 7.68616 4.69935C7.47669 4.90882 7.13708 4.90882 6.92761 4.69935C6.71814 4.48988 6.71814 4.15026 6.92761 3.94079Z" fill="#1C274C"/>
</g>
<path opacity="0.5" d="M19.0585 15.3134C19.2679 15.1039 19.6076 15.1039 19.817 15.3134C20.0265 15.5228 20.0265 15.8624 19.817 16.0719C19.6076 16.2814 19.2679 16.2814 19.0585 16.0719C18.849 15.8624 18.849 15.5228 19.0585 15.3134Z" fill="#1C274C"/>
<g opacity="0.5">
<path d="M17.5 9.74145C17.7095 9.53198 18.0491 9.53198 18.2586 9.74145C18.468 9.95092 18.468 10.2905 18.2586 10.5C18.0491 10.7095 17.7095 10.7095 17.5 10.5C17.2905 10.2905 17.2905 9.95092 17.5 9.74145Z" fill="#1C274C"/>
</g>
</svg>
