<svg width="24" height="24" viewBox="0 0 24 24" fill="none" xmlns="http://www.w3.org/2000/svg">
<path d="M4.01207 15.7618L5.70156 10.6933C6.46758 8.39525 6.85059 7.24623 7.75684 7.03229C8.6631 6.81835 9.51953 7.67478 11.2324 9.38764L14.6114 12.7666C16.3242 14.4795 17.1807 15.3359 16.9667 16.2422C16.7528 17.1484 15.6038 17.5314 13.3057 18.2975L8.23724 19.987C5.47183 20.9088 4.08912 21.3697 3.35924 20.6398C2.62936 19.9099 3.09026 18.5272 4.01207 15.7618Z" stroke="#1C274C" stroke-width="1.5" stroke-linecap="round"/>
<path opacity="0.5" d="M12.2356 18.3462C12.2356 18.3462 11.4774 16.0651 11.4774 14.5553C11.4774 13.0456 12.2356 10.7644 12.2356 10.7644M8.06566 19.4834C8.06566 19.4834 7.42533 16.7316 7.30749 14.9344C7.11278 11.9652 8.06566 7.35266 8.06566 7.35266" stroke="#1C274C" stroke-width="1.5" stroke-linecap="round"/>
<path d="M14.5098 10.0061L14.6538 9.28614C14.7991 8.55924 15.3229 7.96597 16.0261 7.73155C16.7294 7.49714 17.2531 6.90387 17.3985 6.17697L17.5425 5.45703" stroke="#1C274C" stroke-width="1.5" stroke-linecap="round"/>
<path d="M17.5693 13.2533L17.7822 13.3762C18.4393 13.7556 19.2655 13.6719 19.8332 13.1685C20.3473 12.7126 21.0794 12.597 21.709 12.8723L22.0005 12.9997" stroke="#1C274C" stroke-width="1.5" stroke-linecap="round"/>
<path d="M9.79538 2.77915C9.45789 3.33121 9.54247 4.04259 10 4.50012L10.0979 4.598C10.491 4.99116 10.636 5.56874 10.4751 6.10097" stroke="#1C274C" stroke-width="1.5" stroke-linecap="round"/>
<g opacity="0.5">
<path d="M6.92761 3.94079C7.13708 3.73132 7.47669 3.73132 7.68616 3.94079C7.89563 4.15026 7.89563 4.48988 7.68616 4.69935C7.47669 4.90882 7.13708 4.90882 6.92761 4.69935C6.71814 4.48988 6.71814 4.15026 6.92761 3.94079Z" fill="#1C274C"/>
</g>
<g opacity="0.5">
<path d="M12.1571 7.1571C12.3666 6.94763 12.7062 6.94763 12.9157 7.1571C13.1251 7.36657 13.1251 7.70619 12.9157 7.91566C12.7062 8.12512 12.3666 8.12512 12.1571 7.91566C11.9476 7.70619 11.9476 7.36657 12.1571 7.1571Z" fill="#1C274C"/>
</g>
<g opacity="0.5">
<path d="M17.1571 10.1571C17.3666 9.94763 17.7062 9.94763 17.9157 10.1571C18.1251 10.3666 18.1251 10.7062 17.9157 10.9157C17.7062 11.1251 17.3666 11.1251 17.1571 10.9157C16.9476 10.7062 16.9476 10.3666 17.1571 10.1571Z" fill="#1C274C"/>
</g>
<path opacity="0.5" d="M19.0585 15.3134C19.2679 15.1039 19.6076 15.1039 19.817 15.3134C20.0265 15.5228 20.0265 15.8624 19.817 16.0719C19.6076 16.2814 19.2679 16.2814 19.0585 16.0719C18.849 15.8624 18.849 15.5228 19.0585 15.3134Z" fill="#1C274C"/>
<path d="M19.172 10.3279L18.6866 10.448L18.7591 10.7408L19.0519 10.8132L19.172 10.3279ZM21 8.49988L20.5 8.49854C20.4996 8.63161 20.5524 8.75934 20.6464 8.85343C20.7405 8.94753 20.8683 9.00023 21.0013 8.99988L21 8.49988ZM19.172 10.3279C19.6573 10.2078 19.6574 10.2079 19.6574 10.2079C19.6574 10.208 19.6574 10.208 19.6574 10.2081C19.6574 10.2081 19.6574 10.2082 19.6574 10.2082C19.6575 10.2082 19.6574 10.2081 19.6574 10.2079C19.6573 10.2075 19.6571 10.2066 19.6568 10.2053C19.6561 10.2027 19.6551 10.1983 19.6537 10.1923C19.6508 10.1802 19.6466 10.1614 19.6412 10.1368C19.6305 10.0875 19.6155 10.015 19.5994 9.92534C19.567 9.74502 19.5309 9.50086 19.5143 9.24047C19.4974 8.97709 19.5017 8.71513 19.5412 8.49294C19.582 8.26331 19.6506 8.13205 19.7148 8.06779L19.0077 7.36069C18.7368 7.63157 18.6141 7.99458 18.5566 8.31784C18.4978 8.64855 18.4967 8.99811 18.5163 9.30435C18.5361 9.6136 18.5783 9.89717 18.6152 10.1022C18.6337 10.2052 18.6511 10.2898 18.6641 10.3493C18.6705 10.3792 18.6759 10.4028 18.6798 10.4195C18.6818 10.4279 18.6834 10.4345 18.6845 10.4393C18.6851 10.4416 18.6855 10.4436 18.6859 10.445C18.6861 10.4458 18.6862 10.4464 18.6864 10.4469C18.6864 10.4471 18.6865 10.4474 18.6865 10.4475C18.6865 10.4476 18.6866 10.4478 18.6866 10.4478C18.6866 10.4479 18.6866 10.448 19.172 10.3279ZM19.7148 8.06779C19.9576 7.82504 20.1496 7.8436 20.2383 7.88457C20.3347 7.92909 20.5011 8.08874 20.5 8.49854L21.5 8.50121C21.5018 7.81717 21.2038 7.22905 20.6576 6.97674C20.1037 6.72089 19.4748 6.89355 19.0077 7.36069L19.7148 8.06779ZM19.172 10.3279C19.0519 10.8132 19.052 10.8133 19.0521 10.8133C19.0521 10.8133 19.0522 10.8133 19.0523 10.8134C19.0525 10.8134 19.0527 10.8135 19.053 10.8135C19.0535 10.8136 19.0541 10.8138 19.0548 10.814C19.0563 10.8143 19.0582 10.8148 19.0606 10.8154C19.0654 10.8165 19.072 10.8181 19.0804 10.82C19.0971 10.8239 19.1207 10.8293 19.1505 10.8358C19.2101 10.8488 19.2946 10.8662 19.3977 10.8847C19.6027 10.9215 19.8863 10.9638 20.1955 10.9836C20.5018 11.0032 20.8513 11.002 21.182 10.9432C21.5053 10.8857 21.8683 10.763 22.1392 10.4922L21.4321 9.78505C21.3678 9.84931 21.2366 9.91784 21.0069 9.95868C20.7847 9.9982 20.5228 10.0025 20.2594 9.98562C19.999 9.96896 19.7549 9.93286 19.5745 9.90045C19.4849 9.88435 19.4124 9.8694 19.3631 9.85867C19.3384 9.85332 19.3197 9.84903 19.3076 9.84621C19.3015 9.8448 19.2972 9.84375 19.2945 9.84312C19.2932 9.84281 19.2924 9.8426 19.292 9.8425C19.2918 9.84245 19.2917 9.84243 19.2917 9.84243C19.2917 9.84243 19.2917 9.84244 19.2918 9.84246C19.2919 9.84247 19.2919 9.84249 19.2919 9.84249C19.292 9.84251 19.2921 9.84254 19.172 10.3279ZM22.1392 10.4922C22.6063 10.025 22.779 9.39618 22.5231 8.84227C22.2708 8.29604 21.6827 7.99805 20.9987 7.99988L21.0013 8.99988C21.4111 8.99878 21.5708 9.16522 21.6153 9.2616C21.6563 9.35032 21.6748 9.5423 21.4321 9.78505L22.1392 10.4922Z" fill="#1C274C"/>
<path opacity="0.5" d="M15.1886 3.41748L15.161 3.51459C15.1307 3.62126 15.1155 3.67459 15.1227 3.72695C15.1299 3.77931 15.1586 3.82476 15.2159 3.91567L15.2681 3.99844C15.47 4.31836 15.5709 4.47831 15.5022 4.60915C15.4334 4.73998 15.2405 4.75504 14.8547 4.78517L14.7548 4.79296C14.6452 4.80152 14.5904 4.8058 14.5424 4.83099C14.4945 4.85618 14.4589 4.89943 14.3877 4.98592L14.3229 5.06467C14.0723 5.36905 13.947 5.52124 13.804 5.50167C13.6611 5.4821 13.5952 5.30373 13.4634 4.94699L13.4293 4.85469C13.3919 4.75332 13.3731 4.70263 13.3363 4.66584C13.2995 4.62905 13.2489 4.61033 13.1475 4.57287L13.0552 4.53878C12.6985 4.40698 12.5201 4.34108 12.5005 4.19815C12.4809 4.05522 12.6331 3.92992 12.9375 3.67932L13.0163 3.61448C13.1028 3.54327 13.146 3.50767 13.1712 3.45974C13.1964 3.41181 13.2007 3.35699 13.2092 3.24735L13.217 3.14753C13.2471 2.76169 13.2622 2.56877 13.393 2.50001C13.5239 2.43124 13.6838 2.53217 14.0037 2.73403L14.0865 2.78626C14.1774 2.84362 14.2229 2.8723 14.2752 2.87947C14.3276 2.88664 14.3809 2.87148 14.4876 2.84117L14.5847 2.81358C14.9601 2.70692 15.1477 2.65359 15.2482 2.75402C15.3486 2.85445 15.2953 3.04213 15.1886 3.41748Z" stroke="#1C274C"/>
</svg>
