<svg width="24" height="24" viewBox="0 0 24 24" fill="none" xmlns="http://www.w3.org/2000/svg">
<path d="M22 5.8147V6.50451C22 7.54236 22 8.06128 21.7404 8.49146C21.4808 8.92163 21.0065 9.18862 20.058 9.72258L17.145 11.3624C16.5085 11.7207 16.1903 11.8998 15.9625 12.0976C15.488 12.5095 15.1959 12.9935 15.0636 13.5872C15 13.8723 15 14.2058 15 14.873V17.5425C15 19.4519 15 20.4066 14.3321 20.8244C13.6641 21.2422 12.7248 20.875 10.8462 20.1406C9.95128 19.7908 9.50385 19.6159 9.25192 19.2613C9 18.9068 9 18.452 9 17.5425L9 14.873C9 14.2058 9 13.8723 8.93644 13.5872C8.80408 12.9936 8.51199 12.5095 8.03751 12.0976C7.80967 11.8998 7.49146 11.7207 6.85504 11.3624L3.94202 9.72258C2.99347 9.18862 2.5192 8.92163 2.2596 8.49146C2 8.06128 2 7.54236 2 6.50451V5.8147" stroke="#1C274C" stroke-width="1.5"/>
<path opacity="0.5" d="M22 5.81466C22 4.48782 22 3.8244 21.5607 3.4122C21.1213 3 20.4142 3 19 3H5C3.58579 3 2.87868 3 2.43934 3.4122C2 3.8244 2 4.48782 2 5.81466" stroke="#1C274C" stroke-width="1.5"/>
</svg>
