<svg width="24" height="24" viewBox="0 0 24 24" fill="none" xmlns="http://www.w3.org/2000/svg">
<path d="M13.6313 8.22382L13.2649 7.85744C11.7348 6.32736 10.9698 5.56232 10.1404 5.56299C9.86946 5.56321 9.6014 5.61847 9.35248 5.72542C8.59046 6.05283 8.19038 7.05807 7.39023 9.06855L7.33232 9.21406C7.10547 9.78403 6.99205 10.069 6.80991 10.2989C6.67173 10.4733 6.50541 10.6235 6.3178 10.7431C6.07051 10.9009 5.77544 10.9846 5.18529 11.1521C4.27018 11.4118 3.81262 11.5417 3.60956 11.8186C3.45866 12.0244 3.39216 12.2802 3.42367 12.5334C3.46608 12.8742 3.80241 13.2105 4.47505 13.8832L7.60554 17.0137C8.27818 17.6863 8.61451 18.0226 8.95529 18.065C9.20854 18.0966 9.46427 18.03 9.67008 17.8791C9.94703 17.6761 10.0769 17.2185 10.3366 16.3034C10.5041 15.7133 10.5879 15.4182 10.7456 15.1709C10.8653 14.9833 11.0154 14.817 11.1898 14.6788C11.4197 14.4967 11.7047 14.3832 12.2747 14.1564L12.4202 14.0985C14.4306 13.2983 15.4359 12.8982 15.7633 12.1362C15.8702 11.8873 15.9255 11.6192 15.9257 11.3483C15.9264 10.5189 15.1614 9.7539 13.6313 8.22382Z" stroke="#1C274C" stroke-width="1.5"/>
<path opacity="0.5" d="M3.34728 18.142L6.04102 15.4482" stroke="#1C274C" stroke-width="1.5" stroke-linecap="round"/>
<path opacity="0.5" d="M22 8H17" stroke="#1C274C" stroke-width="1.5" stroke-linecap="round"/>
<path opacity="0.5" d="M22 12.5H18" stroke="#1C274C" stroke-width="1.5" stroke-linecap="round"/>
<path opacity="0.5" d="M22 17H13" stroke="#1C274C" stroke-width="1.5" stroke-linecap="round"/>
</svg>
