<svg width="24" height="24" viewBox="0 0 24 24" fill="none" xmlns="http://www.w3.org/2000/svg">
<path d="M3.79375 12.0291C4.33092 9.34329 4.5995 8.00036 5.48697 7.13543C5.651 6.97557 5.82845 6.8301 6.01737 6.70061C7.03956 6 8.40907 6 11.1481 6H12.851C15.5901 6 16.9596 6 17.9818 6.70061C18.1707 6.8301 18.3482 6.97557 18.5122 7.13543C19.3996 8.00036 19.6682 9.34329 20.2054 12.0291C20.9766 15.8851 21.3622 17.8131 20.4745 19.1793C20.3138 19.4267 20.1262 19.6555 19.9152 19.8616C18.7496 21 16.7834 21 12.851 21H11.1481C7.21574 21 5.24955 21 4.08398 19.8616C3.87293 19.6555 3.68534 19.4267 3.52461 19.1793C2.63695 17.8131 3.02255 15.8851 3.79375 12.0291Z" stroke="#1C274C" stroke-width="1.5"/>
<path d="M9 6V5C9 3.34315 10.3431 2 12 2C13.6569 2 15 3.34315 15 5V6" stroke="#1C274C" stroke-width="1.5" stroke-linecap="round"/>
<path d="M9.1709 15C9.58273 16.1652 10.694 17 12.0002 17C13.3064 17 14.4177 16.1652 14.8295 15" stroke="#1C274C" stroke-width="1.5" stroke-linecap="round"/>
</svg>
