<svg width="24" height="24" viewBox="0 0 24 24" fill="none" xmlns="http://www.w3.org/2000/svg">
<path d="M3.79375 14.9709C4.33092 17.6567 4.5995 18.9996 5.48697 19.8646C5.651 20.0244 5.82845 20.1699 6.01737 20.2994C7.03956 21 8.40907 21 11.1481 21H12.851C15.5901 21 16.9596 21 17.9818 20.2994C18.1707 20.1699 18.3482 20.0244 18.5122 19.8646C19.3996 18.9996 19.6682 17.6567 20.2054 14.9709C20.9766 11.1149 21.3622 9.18686 20.4745 7.82067C20.3138 7.5733 20.1262 7.34447 19.9152 7.13836C18.7496 6 16.7834 6 12.851 6H11.1481C7.21574 6 5.24955 6 4.08398 7.13836C3.87293 7.34447 3.68534 7.5733 3.52461 7.82067C2.63695 9.18686 3.02255 11.1149 3.79375 14.9709Z" stroke="#1C274C" stroke-width="1.5"/>
<circle cx="15" cy="10" r="1" fill="#1C274C"/>
<circle cx="9" cy="10" r="1" fill="#1C274C"/>
<path d="M9 6V5C9 3.34315 10.3431 2 12 2C13.6569 2 15 3.34315 15 5V6" stroke="#1C274C" stroke-width="1.5" stroke-linecap="round"/>
</svg>
