<svg width="24" height="24" viewBox="0 0 24 24" fill="none" xmlns="http://www.w3.org/2000/svg">
<path d="M3.74132 20.5545C4.94094 22 7.17365 22 11.6391 22H12.3602C16.8257 22 19.0584 22 20.258 20.5545M3.74132 20.5545C2.5417 19.1091 2.95316 16.9146 3.77608 12.5257C4.3613 9.40452 4.65392 7.84393 5.76481 6.92196M3.74132 20.5545C3.74132 20.5545 3.74132 20.5545 3.74132 20.5545ZM20.258 20.5545C21.4576 19.1091 21.0461 16.9146 20.2232 12.5257C19.638 9.40452 19.3454 7.84393 18.2345 6.92196M20.258 20.5545C20.258 20.5545 20.258 20.5545 20.258 20.5545ZM18.2345 6.92196C17.1236 6 15.5358 6 12.3602 6H11.6391C8.4635 6 6.87571 6 5.76481 6.92196M18.2345 6.92196C18.2345 6.92196 18.2345 6.92196 18.2345 6.92196ZM5.76481 6.92196C5.76481 6.92196 5.76482 6.92196 5.76481 6.92196Z" stroke="#1C274C" stroke-width="1.5"/>
<path d="M10 14.3C10.5207 14.7686 10.8126 15.0314 11.3333 15.5L14 12.5" stroke="#1C274C" stroke-width="1.5" stroke-linecap="round" stroke-linejoin="round"/>
<path d="M9 6V5C9 3.34315 10.3431 2 12 2C13.6569 2 15 3.34315 15 5V6" stroke="#1C274C" stroke-width="1.5" stroke-linecap="round"/>
</svg>
