<svg width="24" height="24" viewBox="0 0 24 24" fill="none" xmlns="http://www.w3.org/2000/svg">
<path d="M3.86425 16.4552C3.0063 13.0234 2.57733 11.3075 3.47816 10.1538C4.37899 9 6.14769 9 9.6851 9H14.3158C17.8532 9 19.6219 9 20.5227 10.1538C21.4236 11.3075 20.9946 13.0234 20.1366 16.4552C19.591 18.6379 19.3181 19.7292 18.5044 20.3646C17.6906 21 16.5656 21 14.3158 21H9.6851C7.43525 21 6.31032 21 5.49654 20.3646C4.68275 19.7292 4.40992 18.6379 3.86425 16.4552Z" stroke="#1C274C" stroke-width="1.5"/>
<path d="M19.5 9.5L18.7896 6.89465C18.5157 5.89005 18.3787 5.38775 18.0978 5.00946C17.818 4.63273 17.4378 4.34234 17.0008 4.17152C16.5619 4 16.0413 4 15 4M4.5 9.5L5.2104 6.89465C5.48432 5.89005 5.62128 5.38775 5.90221 5.00946C6.18199 4.63273 6.56216 4.34234 6.99922 4.17152C7.43808 4 7.95872 4 9 4" stroke="#1C274C" stroke-width="1.5"/>
<path d="M9 4C9 3.44772 9.44772 3 10 3H14C14.5523 3 15 3.44772 15 4C15 4.55228 14.5523 5 14 5H10C9.44772 5 9 4.55228 9 4Z" stroke="#1C274C" stroke-width="1.5"/>
<path d="M4.5 18L12 9M19.5 18L12.5 9.5M4.5 10L12 21L19.5 10" stroke="#1C274C" stroke-width="1.5" stroke-linecap="round" stroke-linejoin="round"/>
</svg>
