<svg width="24" height="24" viewBox="0 0 24 24" fill="none" xmlns="http://www.w3.org/2000/svg">
<path d="M19 19L17.5 17.5" stroke="#1C274C" stroke-width="1.5" stroke-linecap="round"/>
<path d="M19 5L17.5 6.5" stroke="#1C274C" stroke-width="1.5" stroke-linecap="round"/>
<path d="M5 19L6.5 17.5" stroke="#1C274C" stroke-width="1.5" stroke-linecap="round"/>
<path d="M5 5L6.5 6.5" stroke="#1C274C" stroke-width="1.5" stroke-linecap="round"/>
<path d="M2 12H4" stroke="#1C274C" stroke-width="1.5" stroke-linecap="round"/>
<path d="M19.9998 12L21.9998 12" stroke="#1C274C" stroke-width="1.5" stroke-linecap="round"/>
<path d="M12 4.00021L12 2.00021" stroke="#1C274C" stroke-width="1.5" stroke-linecap="round"/>
<path d="M13.7783 14.3638C14.9499 13.1922 14.9499 11.2927 13.7783 10.1211C12.6068 8.94954 10.7073 8.94954 9.5357 10.1211C9.09005 10.5668 8.77881 11.4919 8.56421 12.4672C8.24329 13.9257 8.08283 14.655 8.66363 15.2358C9.24444 15.8166 9.9737 15.6562 11.4322 15.3352C12.4076 15.1206 13.3327 14.8094 13.7783 14.3638Z" stroke="#1C274C" stroke-width="1.5"/>
<path d="M9 21.5422C4.94289 20.2679 2 16.4776 2 12C2 6.47715 6.47715 2 12 2C17.5228 2 22 6.47715 22 12C22 16.4776 19.0571 20.2679 15 21.5422" stroke="#1C274C" stroke-width="1.5" stroke-linecap="round"/>
</svg>
