<svg width="24" height="24" viewBox="0 0 24 24" fill="none" xmlns="http://www.w3.org/2000/svg">
<path fill-rule="evenodd" clip-rule="evenodd" d="M22.2954 6.31064C22.6761 6.4738 22.8524 6.91471 22.6893 7.29543L21.9999 6.99999C22.6893 7.29543 22.6894 7.29526 22.6893 7.29543L22.6886 7.29711L22.6875 7.2996L22.6843 7.30696L22.6736 7.33103C22.6646 7.35117 22.6518 7.37938 22.6352 7.41507C22.6019 7.48642 22.5533 7.58774 22.4888 7.71415C22.3599 7.9668 22.1675 8.32067 21.9084 8.73646C21.4828 9.4195 20.8724 10.2776 20.0619 11.1302L21.0303 12.0985C21.3231 12.3914 21.3231 12.8663 21.0303 13.1592C20.7374 13.4521 20.2625 13.4521 19.9696 13.1592L18.969 12.1586C18.3093 12.7113 17.5528 13.23 16.695 13.6562L17.6286 15.091C17.8545 15.4381 17.7562 15.9027 17.409 16.1286C17.0618 16.3545 16.5972 16.2562 16.3713 15.909L15.2821 14.2351C14.5028 14.4896 13.659 14.6626 12.7499 14.7246V16.5C12.7499 16.9142 12.4141 17.25 11.9999 17.25C11.5857 17.25 11.2499 16.9142 11.2499 16.5V14.7246C10.3689 14.6645 9.54909 14.5002 8.78982 14.2584L7.71575 15.9091C7.48984 16.2563 7.02526 16.3546 6.67807 16.1287C6.33089 15.9028 6.23257 15.4382 6.45847 15.091L7.37089 13.6888C6.5065 13.2666 5.74381 12.7502 5.07842 12.1983L4.11744 13.1592C3.82455 13.4521 3.34968 13.4521 3.05678 13.1592C2.76389 12.8663 2.76389 12.3915 3.05678 12.0986L3.98055 11.1748C3.15599 10.3151 2.53525 9.44655 2.10277 8.75466C1.83984 8.33403 1.6446 7.97564 1.51388 7.71968C1.44848 7.59162 1.3991 7.48894 1.36537 7.41663C1.3485 7.38047 1.33553 7.35188 1.32641 7.33148L1.31562 7.30709L1.31238 7.29964L1.31129 7.29713L1.31088 7.29618C1.31081 7.296 1.31056 7.29543 1.99992 6.99999L1.31088 7.29618C1.14772 6.91546 1.32376 6.4738 1.70448 6.31064C2.08489 6.1476 2.52539 6.32354 2.68888 6.70361C2.68882 6.70348 2.68894 6.70375 2.68888 6.70361L2.68983 6.70581L2.69591 6.71952C2.7018 6.73271 2.7114 6.7539 2.72472 6.78247C2.75139 6.83963 2.79296 6.92624 2.84976 7.03747C2.96345 7.26009 3.13762 7.58027 3.37472 7.95959C3.85033 8.72047 4.57157 9.70708 5.55561 10.6216C6.42151 11.4263 7.48259 12.1676 8.75165 12.6558C9.70614 13.023 10.7854 13.25 11.9999 13.25C13.2416 13.25 14.342 13.0128 15.3124 12.6308C16.5738 12.1343 17.6277 11.3882 18.4866 10.582C19.4562 9.67196 20.1668 8.69515 20.6354 7.9432C20.869 7.5683 21.0405 7.25226 21.1525 7.03266C21.2085 6.92295 21.2494 6.83756 21.2757 6.78124C21.2888 6.75309 21.2983 6.73222 21.3041 6.71923L21.31 6.70575L21.3106 6.70455C21.3105 6.70465 21.3106 6.70446 21.3106 6.70455M22.2954 6.31064C21.9147 6.14751 21.4738 6.32404 21.3106 6.70455L22.2954 6.31064ZM2.68888 6.70361C2.68882 6.70348 2.68894 6.70375 2.68888 6.70361V6.70361Z" fill="#1C274C"/>
</svg>
