<svg width="24" height="24" viewBox="0 0 24 24" fill="none" xmlns="http://www.w3.org/2000/svg">
<path d="M7.62442 4.4489C9.50121 3.69796 10.6208 3.25 12 3.25C13.3792 3.25 14.4988 3.69796 16.3756 4.4489L19.3451 5.6367C20.2996 6.01851 21.0728 6.32776 21.6035 6.60601C21.8721 6.74683 22.1323 6.90648 22.333 7.09894C22.5392 7.29668 22.75 7.59658 22.75 8C22.75 8.40342 22.5392 8.70332 22.333 8.90106C22.1323 9.09352 21.8721 9.25317 21.6035 9.39399C21.0728 9.67223 20.2996 9.98148 19.3451 10.3633L16.3756 11.5511C14.4988 12.302 13.3792 12.75 12 12.75C10.6208 12.75 9.50121 12.302 7.62443 11.5511L4.65495 10.3633C3.70037 9.98149 2.9272 9.67223 2.39647 9.39399C2.12786 9.25317 1.86765 9.09352 1.66701 8.90106C1.46085 8.70332 1.25 8.40342 1.25 8C1.25 7.59658 1.46085 7.29668 1.66701 7.09894C1.86765 6.90648 2.12786 6.74683 2.39647 6.60601C2.92721 6.32776 3.70037 6.01851 4.65496 5.63669L7.62442 4.4489Z" fill="#1C274C"/>
<path opacity="0.7" d="M2.50248 11.4432L2.49899 11.4402C2.19062 11.1654 1.71762 11.1915 1.44158 11.4992C1.16499 11.8075 1.19103 12.282 1.49936 12.5586C1.49936 12.5586 1.49905 12.5583 1.99987 12L1.49936 12.5586L1.50044 12.5595L1.5022 12.5611L1.50682 12.5652L1.52052 12.5772C1.53164 12.5868 1.54671 12.5997 1.56573 12.6155C1.60379 12.6473 1.65768 12.6911 1.72743 12.745C1.86692 12.8528 2.06992 13.001 2.33649 13.1739C2.86958 13.5196 3.65745 13.9644 4.70015 14.3814L7.50862 15.5048L7.62429 15.5511C9.50108 16.302 10.6206 16.75 11.9999 16.75C13.3791 16.75 14.4987 16.302 16.3754 15.5511L16.4911 15.5048L19.2996 14.3814C20.3423 13.9644 21.1302 13.5196 21.6632 13.1739C21.9298 13.001 22.1328 12.8528 22.2723 12.745C22.3421 12.6911 22.3959 12.6473 22.434 12.6155C22.453 12.5997 22.4681 12.5868 22.4792 12.5772L22.4929 12.5652L22.4975 12.5611L22.4993 12.5595L22.5007 12.5583C22.809 12.2817 22.8347 11.8075 22.5582 11.4992C22.2821 11.1915 21.8093 11.1652 21.501 11.44L21.4993 11.4415L21.4973 11.4432C21.4929 11.4471 21.4846 11.4541 21.4726 11.4641C21.4486 11.4842 21.4094 11.5161 21.3551 11.5581C21.2463 11.6422 21.077 11.7663 20.8471 11.9154C20.3872 12.2136 19.6857 12.6115 18.7425 12.9887L15.934 14.1121C13.9092 14.922 13.0603 15.25 11.9999 15.25C10.9395 15.25 10.0905 14.922 8.06571 14.1121L5.25724 12.9887C4.31406 12.6115 3.61251 12.2136 3.15267 11.9154C2.92276 11.7663 2.7534 11.6422 2.64465 11.5581C2.59029 11.5161 2.5511 11.4842 2.52709 11.4641C2.51509 11.4541 2.50689 11.4471 2.50248 11.4432Z" fill="#1C274C"/>
<path opacity="0.4" d="M2.49883 15.4987C2.19045 15.2238 1.71762 15.2501 1.44158 15.5578C1.16499 15.8661 1.19103 16.3406 1.49936 16.6172L1.50044 16.6181L1.5022 16.6197L1.50682 16.6238L1.52052 16.6358C1.53164 16.6454 1.54671 16.6583 1.56573 16.6741C1.60379 16.7059 1.65768 16.7497 1.72743 16.8036C1.86692 16.9114 2.06992 17.0596 2.33649 17.2325C2.86958 17.5782 3.65745 18.023 4.70015 18.44L7.50862 19.5634L7.62429 19.6097C9.50108 20.3606 10.6206 20.8086 11.9999 20.8086C13.3791 20.8086 14.4987 20.3606 16.3754 19.6097L16.4911 19.5634L19.2996 18.44C20.3423 18.023 21.1302 17.5782 21.6632 17.2325C21.9298 17.0596 22.1328 16.9114 22.2723 16.8036C22.3421 16.7497 22.3959 16.7059 22.434 16.6741C22.453 16.6583 22.4681 16.6454 22.4792 16.6358L22.4929 16.6238L22.4975 16.6197L22.4993 16.6181L22.5007 16.6169C22.809 16.3403 22.8347 15.8661 22.5582 15.5578C22.2821 15.2501 21.8093 15.2238 21.501 15.4986L21.4993 15.5001L21.4973 15.5018C21.4929 15.5057 21.4846 15.5127 21.4726 15.5227C21.4486 15.5428 21.4094 15.5747 21.3551 15.6167C21.2463 15.7008 21.077 15.8249 20.8471 15.974C20.3872 16.2722 19.6857 16.67 18.7425 17.0473L15.934 18.1707C13.9092 18.9806 13.0603 19.3086 11.9999 19.3086C10.9395 19.3086 10.0905 18.9806 8.06571 18.1707L5.25724 17.0473C4.31406 16.67 3.61251 16.2722 3.15267 15.974C2.92276 15.8249 2.7534 15.7008 2.64465 15.6167C2.59029 15.5747 2.5511 15.5428 2.52709 15.5227C2.51509 15.5127 2.50689 15.5057 2.50248 15.5018L2.49883 15.4987Z" fill="#1C274C"/>
</svg>
