<svg width="24" height="24" viewBox="0 0 24 24" fill="none" xmlns="http://www.w3.org/2000/svg">
<path d="M12.0003 1.25C12.4145 1.25 12.7503 1.58579 12.7503 2V5C12.7503 5.41421 12.4145 5.75 12.0003 5.75C11.5861 5.75 11.2503 5.41421 11.2503 5V2C11.2503 1.58579 11.5861 1.25 12.0003 1.25Z" fill="#1C274C"/>
<path fill-rule="evenodd" clip-rule="evenodd" d="M5.95556 7.25H18.0451C18.4779 7.24995 18.8747 7.24991 19.1975 7.29331C19.553 7.3411 19.9287 7.45355 20.2377 7.76257C20.5468 8.07159 20.6592 8.44732 20.707 8.8028C20.7504 9.12561 20.7504 9.52244 20.7503 9.95526L20.7503 10.1716L20.7505 10.2516C20.7514 10.5773 20.7524 10.9288 20.6171 11.2555C20.4818 11.5822 20.2325 11.83 20.0016 12.0596L19.9449 12.1161L16.7022 15.3588C16.0809 15.9801 15.9273 16.1524 15.8455 16.3501C15.7636 16.5477 15.7503 16.7782 15.7503 17.6569V22C15.7503 22.4142 15.4145 22.75 15.0003 22.75C14.5861 22.75 14.2503 22.4142 14.2503 22L14.2502 17.536C14.25 17.2522 14.2497 16.9925 14.2636 16.75H9.73699C9.75091 16.9925 9.75066 17.2522 9.75039 17.536L9.75031 22C9.75031 22.4142 9.41453 22.75 9.00031 22.75C8.5861 22.75 8.25031 22.4142 8.25031 22V17.6569C8.25031 16.7782 8.23704 16.5477 8.15516 16.3501C8.07329 16.1524 7.91974 15.9801 7.29841 15.3588L4.05577 12.1161L3.99905 12.0596C3.7681 11.83 3.51885 11.5822 3.38352 11.2555C3.2482 10.9288 3.24922 10.5773 3.25016 10.2516L3.25031 10.1716L3.25031 9.95526C3.25026 9.52244 3.25021 9.12561 3.29361 8.8028C3.34141 8.44732 3.45385 8.07159 3.76288 7.76257C4.0719 7.45355 4.44762 7.3411 4.8031 7.29331C5.12592 7.24991 5.52275 7.24995 5.95556 7.25ZM15.556 14.3835C15.2441 14.6948 14.9733 14.9652 14.7629 15.25H9.23773C9.02737 14.9652 8.75649 14.6948 8.44458 14.3835L5.81097 11.75H18.1897L15.556 14.3835ZM19.2503 10.25L19.2503 10C19.2503 9.5074 19.2487 9.21339 19.2204 9.00267C19.2074 8.90611 19.1921 8.85775 19.1832 8.83597L19.1806 8.83004L19.1785 8.82568L19.1771 8.82324L19.1746 8.82187L19.1704 8.8198L19.1643 8.81717C19.1426 8.80821 19.0942 8.79291 18.9976 8.77993C18.7869 8.7516 18.4929 8.75001 18.0003 8.75001H6.00031C5.50771 8.75001 5.2137 8.7516 5.00298 8.77993C4.90642 8.79291 4.85806 8.80821 4.83628 8.81717C4.83123 8.81924 4.82792 8.82086 4.82598 8.82187L4.82355 8.82324L4.82217 8.82568C4.82116 8.82761 4.81955 8.83093 4.81747 8.83597C4.80851 8.85775 4.79322 8.90611 4.78024 9.00267C4.75191 9.21339 4.75031 9.5074 4.75031 10L4.75035 10.25H19.2503Z" fill="#1C274C"/>
<path d="M6.53064 2.46967C6.23774 2.17678 5.76287 2.17678 5.46997 2.46967C5.17708 2.76256 5.17708 3.23744 5.46997 3.53033L7.46997 5.53033C7.76287 5.82322 8.23774 5.82322 8.53064 5.53033C8.82353 5.23744 8.82353 4.76256 8.53064 4.46967L6.53064 2.46967Z" fill="#1C274C"/>
<path d="M18.5306 2.46967C18.2377 2.17678 17.7629 2.17678 17.47 2.46967L15.47 4.46967C15.1771 4.76256 15.1771 5.23744 15.47 5.53033C15.7629 5.82322 16.2377 5.82322 16.5306 5.53033L18.5306 3.53033C18.8235 3.23744 18.8235 2.76256 18.5306 2.46967Z" fill="#1C274C"/>
<path d="M12.7503 19C12.7503 18.5858 12.4145 18.25 12.0003 18.25C11.5861 18.25 11.2503 18.5858 11.2503 19V21C11.2503 21.4142 11.5861 21.75 12.0003 21.75C12.4145 21.75 12.7503 21.4142 12.7503 21V19Z" fill="#1C274C"/>
</svg>
