<svg width="24" height="24" viewBox="0 0 24 24" fill="none" xmlns="http://www.w3.org/2000/svg">
<path fill-rule="evenodd" clip-rule="evenodd" d="M15.0919 1.25H8.90739C7.33812 1.24998 6.07983 1.24996 5.10529 1.38767C4.09753 1.53007 3.25931 1.83575 2.64169 2.55292C2.02408 3.27008 1.84612 4.14438 1.85479 5.1621C1.86317 6.1463 2.04984 7.39066 2.28265 8.94256L3.49888 17.0508C3.67538 18.2275 3.8183 19.1804 4.028 19.9262C4.24634 20.7027 4.55997 21.3453 5.13613 21.8415C5.7123 22.3377 6.39436 22.5525 7.19464 22.6533C7.96328 22.75 8.92684 22.75 10.1168 22.75H13.8826C15.0725 22.75 16.036 22.75 16.8047 22.6533C17.605 22.5525 18.287 22.3377 18.8632 21.8415C19.4394 21.3453 19.753 20.7027 19.9713 19.9262C20.181 19.1805 20.3239 18.2276 20.5004 17.0509L21.7167 8.94253C21.9495 7.39065 22.1361 6.14629 22.1445 5.1621C22.1532 4.14438 21.9752 3.27008 21.3576 2.55292C20.74 1.83575 19.9018 1.53007 18.894 1.38767C17.9195 1.24996 16.6612 1.24998 15.0919 1.25ZM3.7783 3.53175C4.05833 3.20658 4.47879 2.9911 5.31516 2.87292C6.17247 2.75177 7.32431 2.75 8.96678 2.75H15.0325C16.675 2.75 17.8268 2.75177 18.6842 2.87292C19.5205 2.9911 19.941 3.20658 20.221 3.53175C20.501 3.85692 20.6518 4.30468 20.6446 5.14933C20.6443 5.18248 20.6438 5.21604 20.643 5.25H20.5C20.4998 5.25 20.5002 5.25 20.5 5.25H6.99996C6.99976 5.25 7.00016 5.25 6.99996 5.25H3.35629C3.35554 5.21603 3.35502 5.18248 3.35474 5.14933C3.34754 4.30468 3.49827 3.85692 3.7783 3.53175ZM5.189 6.75H3.48498C3.53638 7.15852 3.60112 7.61096 3.67582 8.1155L3.74966 8.18934L5.189 6.75ZM4.04964 10.6106L4.66811 14.7338L6.3755 12.9365L4.04964 10.6106ZM5.1561 17.9593C5.17226 18.0594 5.18823 18.1563 5.20414 18.25H5.39838L5.1561 17.9593ZM6.99478 19.75C6.9983 19.75 7.00183 19.75 7.00535 19.75H13.9967C13.9986 19.75 14.0004 19.75 14.0022 19.75H18.4572C18.2985 20.2287 18.1171 20.5044 17.8843 20.7049C17.6166 20.9355 17.2605 21.0841 16.6173 21.165C15.9533 21.2486 15.0844 21.25 13.8325 21.25H10.1668C8.91489 21.25 8.04602 21.2486 7.38198 21.165C6.73885 21.0841 6.38273 20.9355 6.11497 20.7049C5.88217 20.5044 5.70078 20.2287 5.54207 19.75H6.99478ZM15.7127 18.25H18.189L16.9013 16.9623L15.7127 18.25ZM19.0003 16.9399C19.0082 16.8869 19.0163 16.8332 19.0244 16.7788L19.4035 14.2515L17.9195 15.8592L19.0003 16.9399ZM19.8555 11.2381L20.2244 8.77879C20.3193 8.14673 20.4028 7.5881 20.4699 7.09045L18.1595 9.40079L19.8555 11.2381ZM18.689 6.75H15.7127L17.1413 8.2977L18.689 6.75ZM12.2527 6.75H8.81032L10.5756 8.51531L12.2527 6.75ZM11.689 18.25H9.31032L10.4997 17.0607L11.689 18.25ZM7.40897 11.8486L4.81032 9.25L6.99966 7.06066L9.54217 9.60317L7.40897 11.8486ZM8.46998 12.9097L10.6032 10.6642L12.689 12.75L10.4997 14.9393L8.46998 12.9097ZM11.5603 16L13.7497 13.8107L15.8398 15.9008L13.738 18.1777L11.5603 16ZM14.8103 12.75L16.858 14.7977L18.979 12.5L17.098 10.4623L14.8103 12.75ZM13.7497 11.6893L16.0798 9.35921L13.9918 7.09721L11.6366 9.57632L13.7497 11.6893ZM7.43651 13.9975L9.439 16L7.27734 18.1617L5.50314 16.0326L7.43651 13.9975Z" fill="#1C274C"/>
</svg>
