<svg width="24" height="24" viewBox="0 0 24 24" fill="none" xmlns="http://www.w3.org/2000/svg">
<path d="M13.3057 18.2975L8.23724 19.987C5.47183 20.9088 4.08912 21.3697 3.35924 20.6398C2.62936 19.9099 3.09026 18.5272 4.01207 15.7618L5.70156 10.6933C6.46758 8.39525 6.85059 7.24623 7.75684 7.03229C8.6631 6.81835 9.51953 7.67478 11.2324 9.38764L14.6114 12.7666C16.3242 14.4795 17.1807 15.3359 16.9667 16.2422" stroke="#1C274C" stroke-width="1.5" stroke-linecap="round"/>
<path d="M12.2351 18.3462C12.2351 18.3462 11.477 16.0651 11.477 14.5554C11.477 13.0456 12.2351 10.7645 12.2351 10.7645M8.06517 19.4835C8.06517 19.4835 7.42484 16.7316 7.307 14.9345C7.11229 11.9652 8.06517 7.35272 8.06517 7.35272" stroke="#1C274C" stroke-width="1.5" stroke-linecap="round"/>
<path d="M14.5093 10.0061L14.6533 9.28614C14.7986 8.55924 15.3224 7.96597 16.0256 7.73155C16.7289 7.49714 17.2526 6.90387 17.398 6.17697L17.542 5.45703" stroke="#1C274C" stroke-width="1.5" stroke-linecap="round"/>
<path d="M17.5693 13.2533L17.7822 13.3762C18.4393 13.7556 19.2655 13.6719 19.8332 13.1685C20.3473 12.7126 21.0794 12.597 21.709 12.8723L22.0005 12.9997" stroke="#1C274C" stroke-width="1.5" stroke-linecap="round"/>
<path d="M9.79489 2.77919C9.4574 3.33125 9.54198 4.04264 9.99951 4.50017L10.0974 4.59805C10.4906 4.99121 10.6355 5.56879 10.4746 6.10101" stroke="#1C274C" stroke-width="1.5" stroke-linecap="round"/>
<path d="M6.92761 3.94079C7.13708 3.73132 7.47669 3.73132 7.68616 3.94079C7.89563 4.15026 7.89563 4.48988 7.68616 4.69935C7.47669 4.90882 7.13708 4.90882 6.92761 4.69935C6.71814 4.48988 6.71814 4.15026 6.92761 3.94079Z" fill="#1C274C"/>
<path d="M12.1571 7.1571C12.3666 6.94763 12.7062 6.94763 12.9157 7.1571C13.1251 7.36657 13.1251 7.70619 12.9157 7.91566C12.7062 8.12512 12.3666 8.12512 12.1571 7.91566C11.9476 7.70619 11.9476 7.36657 12.1571 7.1571Z" fill="#1C274C"/>
<path d="M17.1571 10.1571C17.3666 9.94763 17.7062 9.94763 17.9157 10.1571C18.1251 10.3666 18.1251 10.7062 17.9157 10.9157C17.7062 11.1251 17.3666 11.1251 17.1571 10.9157C16.9476 10.7062 16.9476 10.3666 17.1571 10.1571Z" fill="#1C274C"/>
<path d="M19.058 15.3134C19.2674 15.1039 19.6071 15.1039 19.8165 15.3134C20.026 15.5228 20.026 15.8624 19.8165 16.0719C19.6071 16.2814 19.2674 16.2814 19.058 16.0719C18.8485 15.8624 18.8485 15.5228 19.058 15.3134Z" fill="#1C274C"/>
<path d="M19.3618 7.7142C18.6915 8.38446 19.1725 10.3278 19.1725 10.3278C19.1725 10.3278 21.1158 10.8088 21.7861 10.1386C22.496 9.42867 22.0943 8.49691 21.0005 8.49983C21.0034 7.40598 20.0716 7.0043 19.3618 7.7142Z" stroke="#1C274C" stroke-linejoin="round"/>
<path d="M15.1881 3.41742L15.1605 3.51453C15.1302 3.6212 15.1151 3.67453 15.1222 3.72689C15.1294 3.77925 15.1581 3.8247 15.2154 3.91561L15.2677 3.99838C15.4695 4.31829 15.5704 4.47825 15.5017 4.60909C15.4329 4.73992 15.24 4.75498 14.8542 4.7851L14.7543 4.7929C14.6447 4.80146 14.5899 4.80574 14.542 4.83093C14.494 4.85612 14.4584 4.89937 14.3872 4.98586L14.3224 5.06461C14.0718 5.36899 13.9465 5.52118 13.8035 5.50161C13.6606 5.48204 13.5947 5.30367 13.4629 4.94693L13.4288 4.85463C13.3914 4.75326 13.3726 4.70257 13.3358 4.66578C13.2991 4.62899 13.2484 4.61027 13.147 4.57281L13.0547 4.53871C12.698 4.40691 12.5196 4.34101 12.5 4.19809C12.4805 4.05516 12.6326 3.92986 12.937 3.67926L13.0158 3.61442C13.1023 3.54321 13.1455 3.5076 13.1707 3.45968C13.1959 3.41175 13.2002 3.35693 13.2087 3.24729L13.2165 3.14747C13.2466 2.76163 13.2617 2.56871 13.3925 2.49995C13.5234 2.43118 13.6833 2.53211 14.0033 2.73397L14.086 2.7862C14.1769 2.84356 14.2224 2.87224 14.2747 2.87941C14.3271 2.88658 14.3804 2.87142 14.4871 2.84111L14.5842 2.81352C14.9596 2.70686 15.1472 2.65353 15.2477 2.75396C15.3481 2.85439 15.2948 3.04207 15.1881 3.41742Z" stroke="#1C274C"/>
</svg>
