<svg width="24" height="24" viewBox="0 0 24 24" fill="none" xmlns="http://www.w3.org/2000/svg">
<path d="M21 7.00002V6.71889C21 4.52898 21 3.43402 20.2927 2.83489C19.5855 2.23576 18.5045 2.41593 16.3424 2.77627L15.288 2.95201C13.6477 3.22538 12.8276 3.36207 12 3.36207C11.1724 3.36207 10.3523 3.22538 8.71202 2.95201L7.6576 2.77627C5.49553 2.41593 4.4145 2.23576 3.70725 2.83489C3 3.43402 3 4.52898 3 6.71889V12C3 17.4903 7.23896 20.1547 9.89856 21.286C10.62 21.5929 10.9807 21.7464 12 21.7464C13.0193 21.7464 13.38 21.5929 14.1014 21.286C16.761 20.1547 21 17.4903 21 12V11" stroke="#1C274C" stroke-width="1.5" stroke-linecap="round"/>
<path d="M6.5 9C6.79112 8.4174 7.57665 8 8.5 8C9.42335 8 10.2089 8.4174 10.5 9" stroke="#1C274C" stroke-width="1.5" stroke-linecap="round"/>
<path d="M13.5 9C13.7911 8.4174 14.5766 8 15.5 8C16.4234 8 17.2089 8.4174 17.5 9" stroke="#1C274C" stroke-width="1.5" stroke-linecap="round"/>
<path d="M8.5 14C8.5 14 9.55 15 12 15C14.45 15 15.5 14 15.5 14" stroke="#1C274C" stroke-width="1.5" stroke-linecap="round"/>
</svg>
