<svg width="24" height="24" viewBox="0 0 24 24" fill="none" xmlns="http://www.w3.org/2000/svg">
<path d="M21 11V12C21 17.4903 16.761 20.1547 14.1014 21.286C13.38 21.5929 13.0193 21.7464 12 21.7464C10.9807 21.7464 10.62 21.5929 9.89856 21.286C7.23896 20.1547 3 17.4903 3 12V6.71889C3 4.52898 3 3.43402 3.70725 2.83489C4.4145 2.23576 5.49553 2.41593 7.6576 2.77627L8.71202 2.95201C10.3523 3.22538 11.1724 3.36207 12 3.36207C12.8276 3.36207 13.6477 3.22538 15.288 2.95201L16.3424 2.77627C18.5045 2.41593 19.5855 2.23576 20.2927 2.83489C21 3.43402 21 4.52898 21 6.71889V7.00002" stroke="#1C274C" stroke-width="1.5" stroke-linecap="round"/>
<path d="M6.5 9C6.79112 8.4174 7.57665 8 8.5 8C9.42335 8 10.2089 8.4174 10.5 9" stroke="#1C274C" stroke-width="1.5" stroke-linecap="round"/>
<path d="M13.5 9C13.7911 8.4174 14.5766 8 15.5 8C16.4234 8 17.2089 8.4174 17.5 9" stroke="#1C274C" stroke-width="1.5" stroke-linecap="round"/>
<path d="M8.5 15C8.5 15 9.55 14 12 14C14.45 14 15.5 15 15.5 15" stroke="#1C274C" stroke-width="1.5" stroke-linecap="round"/>
</svg>
