<svg width="24" height="24" viewBox="0 0 24 24" fill="none" xmlns="http://www.w3.org/2000/svg">
<path d="M18 8C18 11.3137 15.3137 14 12 14C8.68629 14 6 11.3137 6 8C6 4.68629 8.68629 2 12 2C15.3137 2 18 4.68629 18 8Z" fill="#1C274C"/>
<path d="M5.03349 10.7832C3.22163 11.8158 2 13.7651 2 15.9997C2 19.3134 4.68629 21.9997 8 21.9997C11.3137 21.9997 14 19.3134 14 15.9997C14 15.7434 13.9839 15.4909 13.9527 15.243C13.3301 15.4104 12.6755 15.4997 12 15.4997C8.84139 15.4997 6.13882 13.5472 5.03349 10.7832Z" fill="#1C274C"/>
<path d="M15.3866 14.6934C15.4611 15.1176 15.5 15.5541 15.5 15.9997C15.5 18.0904 14.6446 19.9812 13.2646 21.3414C14.0849 21.7622 15.0147 21.9997 16 21.9997C19.3137 21.9997 22 19.3134 22 15.9997C22 13.7651 20.7783 11.8158 18.9665 10.7832C18.2876 12.4808 17.0062 13.8724 15.3866 14.6934Z" fill="#1C274C"/>
</svg>
