<svg width="24" height="24" viewBox="0 0 24 24" fill="none" xmlns="http://www.w3.org/2000/svg">
<path d="M20.1724 5.86056L20.8839 5.62316L20.8839 5.62316L20.1724 5.86056ZM20.2082 5.96791L19.4968 6.20531L19.4968 6.20531L20.2082 5.96791ZM3.7909 5.96791L4.50234 6.20531V6.20531L3.7909 5.96791ZM3.82673 5.86056L3.11529 5.62316H3.11529L3.82673 5.86056ZM6.99878 18.5795L6.2567 18.6881L6.99878 18.5795ZM17.0004 18.5794L17.7425 18.6881V18.6881L17.0004 18.5794ZM3.48115 7.76195L4.16089 7.44501L4.16089 7.44501L3.48115 7.76195ZM3.69973 8.06533L4.21554 7.52086L4.21553 7.52086L3.69973 8.06533ZM20.518 7.76195L21.1977 8.0789L21.1977 8.07889L20.518 7.76195ZM20.2994 8.06533L19.7836 7.52085L19.7836 7.52086L20.2994 8.06533ZM18.2938 2.44432L18.6866 1.8054L18.6866 1.8054L18.2938 2.44432ZM18.6496 2.70069L18.1679 3.27551V3.27551L18.6496 2.70069ZM7.92031 21.5132L7.42989 22.0806V22.0806L7.92031 21.5132ZM5.70536 2.44432L5.31257 1.8054L5.31257 1.8054L5.70536 2.44432ZM5.34955 2.70069L5.83129 3.27551L5.83129 3.27551L5.34955 2.70069ZM9.18478 2.75H14.8144V1.25H9.18478V2.75ZM19.461 6.09796L19.4968 6.20531L20.9197 5.73052L20.8839 5.62316L19.461 6.09796ZM4.50234 6.20531L4.53816 6.09796L3.11529 5.62316L3.07947 5.73051L4.50234 6.20531ZM10.9566 22.75H13.0426V21.25H10.9566V22.75ZM18.4996 7.58937H5.49957V9.08937H18.4996V7.58937ZM4.75748 8.44801L6.2567 18.6881L7.74087 18.4708L6.24166 8.23072L4.75748 8.44801ZM17.7425 18.6881L19.2417 8.44801L17.7575 8.23072L16.2583 18.4708L17.7425 18.6881ZM13.0426 22.75C13.8474 22.75 14.5212 22.7514 15.0616 22.6833C15.6228 22.6125 16.1332 22.4575 16.5693 22.0806L15.5884 20.9457C15.4612 21.0557 15.2778 21.1441 14.8739 21.195C14.4491 21.2486 13.8864 21.25 13.0426 21.25V22.75ZM16.2583 18.4708C16.136 19.3057 16.0531 19.8623 15.9386 20.2749C15.8297 20.6671 15.7156 20.8358 15.5884 20.9457L16.5693 22.0806C17.0053 21.7038 17.2326 21.2212 17.3839 20.6761C17.5296 20.1513 17.6259 19.4844 17.7425 18.6881L16.2583 18.4708ZM3.07947 5.73051C2.92614 6.19001 2.78864 6.59809 2.71884 6.93604C2.64727 7.28264 2.61696 7.68331 2.8014 8.07889L4.16089 7.44501C4.17695 7.47945 4.14214 7.46074 4.18784 7.23942C4.23534 7.00945 4.33691 6.70108 4.50234 6.20531L3.07947 5.73051ZM5.49957 7.58937C4.97693 7.58937 4.65227 7.58811 4.41909 7.56036C4.19468 7.53366 4.18795 7.49472 4.21554 7.52086L3.18393 8.6098C3.50079 8.90997 3.89045 9.00805 4.24188 9.04986C4.58454 9.09063 5.01517 9.08937 5.49957 9.08937V7.58937ZM2.8014 8.07889C2.8944 8.27834 3.02417 8.45845 3.18393 8.6098L4.21553 7.52086C4.19271 7.49924 4.17417 7.47351 4.16089 7.44501L2.8014 8.07889ZM19.4968 6.20531C19.6622 6.70108 19.7638 7.00945 19.8113 7.23942C19.857 7.46074 19.8222 7.47946 19.8383 7.44501L21.1977 8.07889C21.3822 7.68331 21.3519 7.28264 21.2803 6.93604C21.2105 6.59809 21.073 6.19001 20.9197 5.73051L19.4968 6.20531ZM18.4996 9.08937C18.984 9.08937 19.4146 9.09063 19.7573 9.04986C20.1087 9.00805 20.4984 8.90997 20.8152 8.6098L19.7836 7.52086C19.8112 7.49472 19.8045 7.53367 19.5801 7.56036C19.3469 7.58811 19.0222 7.58937 18.4996 7.58937V9.08937ZM19.8383 7.44501C19.825 7.47351 19.8064 7.49924 19.7836 7.52085L20.8152 8.6098C20.975 8.45845 21.1047 8.27833 21.1977 8.0789L19.8383 7.44501ZM14.8144 2.75C15.7484 2.75 16.3934 2.75089 16.8968 2.80174C17.3845 2.851 17.6714 2.9421 17.901 3.08324L18.6866 1.8054C18.1934 1.50222 17.6595 1.37116 17.0476 1.30934C16.4514 1.24911 15.7181 1.25 14.8144 1.25V2.75ZM20.8839 5.62316C20.5978 4.76589 20.3665 4.06998 20.1207 3.52355C19.8683 2.96264 19.575 2.4977 19.1313 2.12586L18.1679 3.27551C18.3744 3.44861 18.5516 3.69197 18.7527 4.13895C18.9603 4.6004 19.1653 5.21196 19.461 6.09796L20.8839 5.62316ZM17.901 3.08324C17.9945 3.14073 18.0837 3.205 18.1679 3.27551L19.1313 2.12586C18.9911 2.00833 18.8424 1.90122 18.6866 1.8054L17.901 3.08324ZM10.9566 21.25C10.1128 21.25 9.55007 21.2486 9.12526 21.195C8.72138 21.1441 8.53794 21.0557 8.41072 20.9457L7.42989 22.0806C7.86596 22.4575 8.37632 22.6125 8.9376 22.6833C9.47794 22.7514 10.1518 22.75 10.9566 22.75V21.25ZM6.2567 18.6881C6.37328 19.4844 6.46952 20.1513 6.61521 20.6761C6.76655 21.2212 6.99383 21.7038 7.42989 22.0806L8.41072 20.9457C8.28351 20.8358 8.16944 20.6671 8.06054 20.2749C7.946 19.8623 7.86311 19.3057 7.74087 18.4708L6.2567 18.6881ZM9.18478 1.25C8.28103 1.25 7.5477 1.24911 6.95155 1.30934C6.33961 1.37116 5.80574 1.50222 5.31257 1.8054L6.09815 3.08324C6.32773 2.9421 6.61467 2.851 7.10231 2.80174C7.60574 2.75089 8.25075 2.75 9.18478 2.75V1.25ZM4.53816 6.09796C4.83381 5.21195 5.03882 4.60039 5.24641 4.13895C5.4475 3.69197 5.62474 3.44861 5.83129 3.27551L4.86781 2.12586C4.42412 2.4977 4.1308 2.96264 3.87847 3.52354C3.63264 4.06997 3.40136 4.76588 3.11529 5.62316L4.53816 6.09796ZM5.31257 1.8054C5.1567 1.90122 5.00805 2.00833 4.86781 2.12586L5.83129 3.27551C5.91543 3.205 6.00462 3.14073 6.09815 3.08324L5.31257 1.8054Z" fill="#1C274C"/>
<path opacity="0.4" d="M6.5 12H17.5" stroke="#1C274C" stroke-width="1.5" stroke-linecap="round"/>
<path opacity="0.4" d="M7 17H17" stroke="#1C274C" stroke-width="1.5" stroke-linecap="round"/>
</svg>
