<svg width="24" height="24" viewBox="0 0 24 24" fill="none" xmlns="http://www.w3.org/2000/svg">
<path opacity="0.5" d="M2 5.68421C2 3.64948 3.64948 2 5.68421 2C7.71894 2 9.36842 3.64948 9.36842 5.68421V15" stroke="#1C274C" stroke-width="1.5" stroke-linecap="round"/>
<path d="M21.9997 14.5V15.6842C21.9997 19.1723 19.1721 22 15.684 22C12.1958 22 9.36816 19.1723 9.36816 15.6842V14.6316M21.9997 14.5C21.9997 15.8807 19.0537 17 15.9997 17C12.9458 17 9.36816 16.0123 9.36816 14.6316M21.9997 14.5C21.9997 13.1193 19.0537 12 15.9997 12C12.9458 12 9.36816 13.2509 9.36816 14.6316" stroke="#1C274C" stroke-width="1.5"/>
</svg>
