<svg width="24" height="24" viewBox="0 0 24 24" fill="none" xmlns="http://www.w3.org/2000/svg">
<path d="M13.157 17.0128L17.0128 13.157C18.4669 11.7029 19.194 10.9759 19.194 10.0724C19.194 9.4671 18.8676 8.94097 18.2149 8.22232C17.8933 7.86834 17.4927 7.46766 17.0128 6.98779C16.533 6.50795 16.1322 6.10724 15.7783 5.78574C15.0596 5.13301 14.5335 4.80664 13.9282 4.80664C13.0247 4.80664 12.2977 5.53369 10.8436 6.98779L6.98779 10.8436C5.53369 12.2977 4.80664 13.0247 4.80664 13.9282C4.80664 14.5335 5.13301 15.0596 5.78574 15.7783C6.10724 16.1322 6.50795 16.533 6.98779 17.0128C7.46766 17.4927 7.86834 17.8933 8.22232 18.2149C8.94097 18.8676 9.4671 19.194 10.0724 19.194C10.9759 19.194 11.7029 18.4669 13.157 17.0128Z" stroke="#1C274C" stroke-width="1.5"/>
<path opacity="0.5" d="M8.22202 18.2146L6.25875 20.9631C6.17836 21.0757 6.13817 21.132 6.10347 21.1756C5.32058 22.161 3.86848 22.2812 2.93424 21.4379C2.89286 21.4006 2.84385 21.3516 2.74615 21.2539C2.64836 21.1561 2.59946 21.1072 2.56209 21.0658C1.71881 20.1315 1.83899 18.6794 2.82438 17.8965C2.86803 17.8619 2.92445 17.8215 3.03686 17.7413L5.78545 15.778M18.2146 8.22202L20.9631 6.25875C21.0757 6.17836 21.132 6.13817 21.1756 6.10347C22.161 5.32058 22.2812 3.86848 21.4379 2.93424C21.4006 2.89286 21.3516 2.84385 21.2539 2.74615C21.1561 2.64836 21.1072 2.59946 21.0658 2.56209C20.1315 1.71881 18.6794 1.83899 17.8965 2.82438C17.8619 2.86803 17.8215 2.92445 17.7413 3.03686L15.778 5.78545" stroke="#1C274C" stroke-width="1.5"/>
</svg>
