<svg width="24" height="24" viewBox="0 0 24 24" fill="none" xmlns="http://www.w3.org/2000/svg">
<path d="M19.8155 12.236C22.3729 9.67866 22.7716 5.67503 20.5481 3.45154C18.3245 1.22806 14.3207 1.62672 11.7633 4.18408C9.20583 6.74143 7.85664 11.6956 10.0802 13.9191C12.3038 16.1425 17.258 14.7934 19.8155 12.236Z" stroke="#1C274C" stroke-width="1.5"/>
<path opacity="0.5" d="M12.8991 15.1266L6.85994 21.1655C5.74816 22.2773 3.94561 22.2773 2.83383 21.1655C1.72206 20.0538 1.72206 18.2513 2.83383 17.1395L8.87299 11.1006" stroke="#1C274C" stroke-width="1.5"/>
<path opacity="0.5" d="M20.5482 3.45095C21.7563 4.65902 19.0982 8.12231 17.3276 9.89278C15.5571 11.6633 11.2885 15.1265 10.0804 13.9185C8.87225 12.7104 12.3362 8.44248 14.1067 6.672C15.8773 4.90153 19.3401 2.24288 20.5482 3.45095Z" stroke="#1C274C" stroke-width="1.5"/>
</svg>
