<svg width="24" height="24" viewBox="0 0 24 24" fill="none" xmlns="http://www.w3.org/2000/svg">
<path d="M19.9927 11.643C20.2751 11.3899 20.5384 11.1389 20.7811 10.8912C21.5349 10.1218 22.1239 9.35067 22.4532 8.62306C22.7772 7.90702 22.9117 7.07875 22.4654 6.36546C22.0456 5.69443 21.2802 5.40411 20.5099 5.30066C19.7189 5.19444 18.7598 5.25995 17.7129 5.45331L16.8246 5.61757C15.4834 4.60229 13.8123 4 12.0005 4C7.58221 4 4.00049 7.58172 4.00049 12C4.00049 12.0867 4.00187 12.173 4.0046 12.259L3.47735 12.8522C2.63793 13.6693 1.98012 14.4875 1.60511 15.2551C1.23908 16.0043 1.06472 16.882 1.53552 17.6345C1.96828 18.3262 2.7678 18.614 3.56794 18.709C4.39246 18.807 5.39512 18.7249 6.49064 18.5079C6.70594 18.4652 6.92635 18.417 7.1514 18.3634C6.66763 17.9942 6.2272 17.5711 5.8391 17.103C4.98673 17.2488 4.27967 17.283 3.7449 17.2195C3.11219 17.1443 2.87997 16.9553 2.80714 16.8389C2.74467 16.7391 2.67562 16.481 2.95285 15.9136C3.19387 15.4203 3.64087 14.822 4.29424 14.1555C4.59996 15.2508 5.13292 16.2513 5.8391 17.103C5.95637 17.083 6.07639 17.0608 6.19909 17.0365C8.22011 16.636 10.8123 15.685 13.4787 14.2644C16.1443 12.8443 18.3272 11.2515 19.7067 9.84443C19.401 8.74914 18.868 7.74864 18.1618 6.89695C19.0464 6.74568 19.7718 6.715 20.3102 6.78731C20.9047 6.86715 21.1236 7.04882 21.1938 7.16105C21.2531 7.25586 21.3192 7.4905 21.0866 8.00467C20.8591 8.50726 20.4032 9.13359 19.7097 9.84143L19.7067 9.84443C19.8675 10.4204 19.9654 11.0225 19.9927 11.643Z" fill="#1C274C"/>
<path d="M12.0005 20C16.4188 20 20.0005 16.4183 20.0005 12C20.0005 11.8804 19.9979 11.7614 19.9927 11.643C18.5112 12.9704 16.503 14.3528 14.184 15.5883C11.6924 16.9158 9.22501 17.8695 7.1514 18.3634C8.49677 19.3902 10.1774 20 12.0005 20Z" fill="#1C274C"/>
</svg>
