<svg width="24" height="24" viewBox="0 0 24 24" fill="none" xmlns="http://www.w3.org/2000/svg">
<path d="M10.2768 16.5153C10.2815 16.4054 10.4634 16.3618 10.5174 16.4576C10.7707 16.9073 11.2029 17.5687 11.6932 17.8694C12.1836 18.1701 12.969 18.2554 13.4847 18.2773C13.5945 18.282 13.6381 18.4639 13.5423 18.5179C13.0926 18.7712 12.4313 19.2034 12.1306 19.6937C11.8299 20.1841 11.7446 20.9695 11.7227 21.4851C11.718 21.595 11.536 21.6386 11.4821 21.5428C11.2287 21.0931 10.7966 20.4318 10.3062 20.1311C9.81588 19.8304 9.03048 19.745 8.51481 19.7232C8.40495 19.7185 8.36133 19.5365 8.45713 19.4825C8.90682 19.2292 9.56818 18.7971 9.86889 18.3067C10.1696 17.8164 10.2549 17.031 10.2768 16.5153Z" fill="#1C274C"/>
<path d="M18.4919 15.5152C18.4834 15.4056 18.2916 15.3596 18.2343 15.4535C18.062 15.736 17.8135 16.0769 17.5374 16.2463C17.2612 16.4157 16.8446 16.4825 16.5147 16.508C16.4051 16.5165 16.3591 16.7083 16.453 16.7656C16.7355 16.9379 17.0764 17.1863 17.2458 17.4625C17.4152 17.7387 17.482 18.1552 17.5075 18.4852C17.516 18.5948 17.7078 18.6408 17.7651 18.5469C17.9374 18.2644 18.1858 17.9234 18.462 17.7541C18.7382 17.5847 19.1548 17.5178 19.4847 17.4924C19.5943 17.4839 19.6403 17.292 19.5464 17.2348C19.2639 17.0625 18.923 16.814 18.7536 16.5379C18.5842 16.2617 18.5174 15.8451 18.4919 15.5152Z" fill="#1C274C"/>
<path d="M14.7034 4.00181L14.4611 3.69574C13.5245 2.51266 13.0561 1.92112 12.5113 2.00845C11.9665 2.09577 11.7059 2.80412 11.1849 4.22083L11.0501 4.58735C10.902 4.98993 10.828 5.19122 10.686 5.33897C10.544 5.48671 10.3501 5.56417 9.96242 5.71911L9.60942 5.86016L9.36156 5.95933C8.16204 6.4406 7.55761 6.71331 7.48044 7.24324C7.39813 7.80849 7.97023 8.29205 9.11443 9.25915L9.41045 9.50935C9.7356 9.78417 9.89817 9.92158 9.99137 10.1089C10.0846 10.2962 10.0978 10.5121 10.1244 10.9441L10.1485 11.3373C10.2419 12.8574 10.2886 13.6174 10.7826 13.8794C11.2765 14.1414 11.8906 13.7319 13.1188 12.9129L13.1188 12.9129L13.4366 12.701C13.7856 12.4683 13.9601 12.3519 14.1597 12.32C14.3593 12.288 14.5613 12.344 14.9655 12.456L15.3334 12.558C16.7555 12.9522 17.4666 13.1493 17.8542 12.746C18.2418 12.3427 18.0493 11.6061 17.6641 10.1328L17.5645 9.75163C17.4551 9.33297 17.4003 9.12364 17.4305 8.91657C17.4606 8.70951 17.5723 8.52816 17.7955 8.16546L17.7955 8.16544L17.9987 7.83522C18.7843 6.55883 19.1771 5.92063 18.9227 5.40935C18.6682 4.89806 17.9351 4.85229 16.4689 4.76076L16.0896 4.73708C15.6729 4.71107 15.4646 4.69807 15.2836 4.60208C15.1027 4.5061 14.9696 4.338 14.7034 4.00181L14.7034 4.00181Z" fill="#1C274C"/>
<path d="M8.835 13.326C6.69772 14.3702 4.91931 16.024 4.24844 18.0002C3.49589 13.2926 4.53976 10.2526 6.21308 8.36328C6.35728 8.658 6.54466 8.902 6.71297 9.09269C7.06286 9.48911 7.56518 9.91347 8.07523 10.3444L8.44225 10.6545C8.51184 10.7134 8.56597 10.7592 8.61197 10.7989C8.61665 10.8632 8.62129 10.9383 8.62727 11.0357L8.65708 11.5212C8.69717 12.1761 8.7363 12.8155 8.835 13.326Z" fill="#1C274C"/>
</svg>
