<svg width="24" height="24" viewBox="0 0 24 24" fill="none" xmlns="http://www.w3.org/2000/svg">
<path d="M16.2738 19.4499C16.9032 19.6961 17.4884 19.8839 18.0211 20.0155L18.0284 20.0173C18.982 20.2521 19.7395 20.2995 20.2778 20.2031C20.4299 20.1758 20.558 20.1389 20.666 20.0943C20.9295 19.9837 21.0743 19.8265 21.1507 19.6637C21.2384 19.4768 21.279 19.2057 21.228 18.837C21.2007 18.6392 21.1469 18.4129 21.0597 18.1559C21.0464 18.1167 21.0324 18.0772 21.0178 18.0372C20.8994 17.7141 20.7368 17.3647 20.5308 16.9936L20.5197 16.9738C20.4901 16.9207 20.4596 16.8672 20.4282 16.8133C20.1536 16.3411 19.8121 15.8373 19.4064 15.3108L19.4021 15.3051C18.0054 13.4939 15.912 11.4961 13.397 9.70961C10.7313 7.81595 8.15091 6.55663 6.15331 6.02888C6.0959 6.01372 6.03916 5.9992 5.98307 5.98533L5.97256 5.98282C5.01899 5.748 4.26149 5.70061 3.72312 5.797C3.50762 5.83558 3.3403 5.89367 3.21026 5.96535C3.02512 6.06755 2.91557 6.19723 2.85031 6.33631C2.73784 6.57599 2.70881 6.9437 2.8264 7.44706C2.86329 7.60436 2.91476 7.77605 2.98321 7.96284C3.05911 8.16999 3.15307 8.38762 3.26475 8.61453C3.28071 8.64693 3.29709 8.67966 3.31389 8.71269L3.34311 8.7696C3.3772 8.83542 3.41267 8.90188 3.4495 8.96894C3.74278 9.50281 4.12579 10.081 4.59459 10.6894L4.59741 10.6931C5.10128 11.3467 5.6992 12.0288 6.38071 12.7207C6.53546 12.8778 6.67922 13.0224 6.81273 13.1555L6.8368 12.8473C6.93721 11.5612 6.98741 10.9181 7.42352 10.6889C7.85964 10.4597 8.39283 10.7961 9.45922 11.469L9.73511 11.6431C10.0381 11.8343 10.1897 11.9299 10.3642 11.9538C10.5387 11.9777 10.7165 11.9272 11.072 11.8261L11.3957 11.7342C12.6469 11.3786 13.2725 11.2009 13.6073 11.5356C13.942 11.8704 13.7643 12.496 13.4087 13.7472L13.3168 14.0709C13.2157 14.4264 13.1652 14.6042 13.1891 14.7787C13.213 14.9532 13.3086 15.1048 13.4998 15.4078L13.6739 15.6837C14.3468 16.7501 14.6832 17.2833 14.454 17.7194C14.2248 18.1555 13.5817 18.2057 12.2956 18.3061L11.9629 18.3321C11.5974 18.3606 11.4146 18.3749 11.2549 18.4589C11.0951 18.5428 10.9764 18.687 10.7391 18.9753L10.523 19.2378C9.68762 20.2524 9.26995 20.7597 8.79352 20.6944C8.3171 20.6292 8.09743 20.0346 7.6581 18.8455L7.54444 18.5379C7.41959 18.2 7.35717 18.031 7.23454 17.9084C7.11191 17.7857 6.94295 17.7233 6.60503 17.5985L6.29739 17.4848C5.10827 17.0455 4.51369 16.8258 4.44846 16.3494C4.38322 15.873 4.89052 15.4553 5.90512 14.62L6.04433 14.5053C5.82915 14.2942 5.58625 14.0516 5.3121 13.7733C4.48032 12.9289 3.74851 12.08 3.14394 11.256C3.02158 11.0893 2.90443 10.9235 2.79272 10.7591C2.6737 10.5839 2.56086 10.4101 2.45446 10.2381C2.39905 10.1485 2.34539 10.0594 2.29352 9.97077C2.19253 9.79828 2.09832 9.62774 2.01116 9.45946C1.97809 9.39562 1.94578 9.33159 1.91429 9.26742C1.78259 8.99908 1.66892 8.73581 1.57479 8.47893C1.49174 8.25229 1.42142 8.02357 1.3677 7.79538C1.19163 7.0491 1.19749 6.32756 1.49238 5.69911C1.74039 5.17057 2.14516 4.80813 2.63145 4.57836C2.91172 4.44593 3.21907 4.35757 3.5391 4.30688C4.3993 4.17062 5.43027 4.2864 6.53645 4.57864C8.75895 5.16581 11.503 6.52419 14.2657 8.48675C17.0315 10.4515 19.3459 12.6877 20.8498 14.7341C21.3474 15.4113 21.765 16.0795 22.0807 16.7204C22.1816 16.9252 22.272 17.1273 22.3514 17.3259C22.3982 17.4431 22.4412 17.5591 22.4801 17.6738C22.7863 18.576 22.8802 19.5091 22.5086 20.3009C22.2363 20.8812 21.7822 21.2568 21.2379 21.4799C21.0184 21.5706 20.7843 21.6362 20.5422 21.6796C20.3362 21.7165 20.1202 21.7384 19.8956 21.7464C19.8608 21.7477 19.8259 21.7486 19.791 21.7492C19.6451 21.7517 19.495 21.7485 19.3412 21.7398C19.0407 21.723 18.7258 21.6852 18.3986 21.6281C17.5741 21.484 16.6717 21.2163 15.7272 20.8467C15.3415 20.6958 15.1511 20.2608 15.302 19.875C15.453 19.4893 15.888 19.2989 16.2738 19.4499Z" fill="#1C274C"/>
<path fill-rule="evenodd" clip-rule="evenodd" d="M19.6658 2.40887C19.9923 2.66377 20.0503 3.13509 19.7954 3.46158L19.6841 3.60419C19.8079 4.26218 20.1097 4.871 20.5548 5.35951C20.8338 5.66567 20.8118 6.14003 20.5057 6.41902C20.1995 6.69802 19.7251 6.676 19.4461 6.36983C18.9957 5.87554 18.6503 5.29762 18.4252 4.67251C18.3208 4.73491 18.2151 4.79175 18.1055 4.84354C17.9857 4.90014 17.8644 4.94919 17.739 4.99298C18.064 5.58426 18.2708 6.23955 18.3434 6.9205C18.3874 7.33238 18.0891 7.70188 17.6772 7.7458C17.2653 7.78973 16.8958 7.49144 16.8519 7.07956C16.781 6.41466 16.5302 5.78795 16.1334 5.26875L15.9753 5.26343C15.5613 5.2495 15.237 4.90261 15.2509 4.48863C15.2648 4.07465 15.6117 3.75035 16.0257 3.76428L16.433 3.77798C16.9591 3.67412 17.2306 3.59791 17.4647 3.48731C17.6998 3.37622 17.9343 3.21283 18.3557 2.86811L18.6131 2.53849C18.868 2.212 19.3393 2.15396 19.6658 2.40887Z" fill="#1C274C"/>
</svg>
