<svg width="24" height="24" viewBox="0 0 24 24" fill="none" xmlns="http://www.w3.org/2000/svg">
<path d="M21 10V14C21 17.7712 21 19.6569 19.8284 20.8284C18.6569 22 16.7712 22 13 22H11C7.22876 22 5.34315 22 4.17157 20.8284C3 19.6569 3 17.7712 3 14V10C3 6.22876 3 4.34315 4.17157 3.17157C5.34315 2 7.22876 2 11 2H13C16.7712 2 18.6569 2 19.8284 3.17157C20.4816 3.82475 20.7706 4.69989 20.8985 6" stroke="#1C274C" stroke-width="1.5" stroke-linecap="round"/>
<path d="M8 18H16" stroke="#1C274C" stroke-width="1.5" stroke-linecap="round"/>
<path d="M15.1233 5.52027L15.5487 5.59118C16.8081 5.80108 17.5511 7.12128 17.0769 8.30674L16.4113 9.97082C16.1755 10.5602 15.5406 10.8849 14.9247 10.7309C13.0043 10.2508 10.9952 10.2508 9.07474 10.7309C8.45887 10.8849 7.82394 10.5602 7.58818 9.97082L6.92255 8.30675C6.44836 7.12128 7.19129 5.80108 8.4507 5.59118L8.87614 5.52027C9.58018 5.40293 10.2892 5.32554 10.9998 5.28809" stroke="#1C274C" stroke-width="1.5" stroke-linecap="round"/>
<path d="M10.1798 9.92856L9.50488 8.0459" stroke="#1C274C" stroke-width="1.5" stroke-linecap="round"/>
</svg>
