<svg width="24" height="24" viewBox="0 0 24 24" fill="none" xmlns="http://www.w3.org/2000/svg">
<path opacity="0.6" fill-rule="evenodd" clip-rule="evenodd" d="M3.46447 20.5352C4.92893 21.9996 7.28595 21.9996 12 21.9996C16.714 21.9996 19.0711 21.9996 20.5355 20.5352C22 19.0707 22 16.7137 22 11.9996C22 11.3313 22 10.7104 21.9958 10.1326C21.9938 9.85363 21.9928 9.71414 21.9394 9.49146C21.8861 9.26878 21.8562 9.20894 21.7964 9.08924C21.7932 9.08286 21.79 9.0765 21.7868 9.07016C21.3793 8.27047 20.7291 7.6203 19.9295 7.21284C19.518 7.00321 19.0103 6.87958 18.2229 6.81525C18.0734 6.80303 17.9161 6.79309 17.75 6.78499L16.25 6.75195V10.8072C16.25 11.3039 16.2497 11.6439 16.2351 11.8972C16.22 12.1597 16.1923 12.2404 16.1854 12.2559C16.0383 12.5872 15.6753 12.7658 15.323 12.6803C15.3066 12.6763 15.2257 12.6489 15.0085 12.5008C14.7989 12.3578 14.5294 12.1507 14.1358 11.8476L14.0688 11.796C13.6986 11.5106 13.4101 11.2881 13.0958 11.1516C12.3968 10.8479 11.6032 10.8479 10.9042 11.1516C10.5899 11.2881 10.3014 11.5106 9.9312 11.796L9.86419 11.8476C9.47062 12.1507 9.20112 12.3578 8.99148 12.5008C8.77428 12.6489 8.69342 12.6763 8.67695 12.6803C8.32471 12.7658 7.96171 12.5872 7.81457 12.2559C7.80769 12.2404 7.78003 12.1597 7.7649 11.8972C7.7503 11.6439 7.75 11.3039 7.75 10.8072V6.75195L6.25 6.78499C6.08387 6.79309 5.92663 6.80303 5.77708 6.81525C4.9897 6.87958 4.48197 7.00321 4.07054 7.21284C3.27085 7.6203 2.62068 8.27047 2.21322 9.07016C2.20999 9.0765 2.20679 9.08286 2.2036 9.08924C2.14382 9.20893 2.11393 9.26878 2.06056 9.49146C2.0072 9.71414 2.00619 9.85363 2.00417 10.1326C2 10.7103 2 11.3313 2 11.9996C2 16.7137 2 19.0707 3.46447 20.5352Z" fill="#1C274D"/>
<path d="M7.75 6.75195V10.8072C7.75 11.3039 7.7503 11.6439 7.7649 11.8972C7.78003 12.1597 7.80769 12.2404 7.81457 12.2559C7.96171 12.5872 8.32471 12.7658 8.67695 12.6803C8.69342 12.6763 8.77428 12.6489 8.99148 12.5008C9.20112 12.3578 9.47062 12.1507 9.86419 11.8476L9.9312 11.796C10.3014 11.5106 10.5899 11.2881 10.9042 11.1516C11.6032 10.8479 12.3968 10.8479 13.0958 11.1516C13.4101 11.2881 13.6986 11.5106 14.0688 11.796L14.1358 11.8476C14.5294 12.1507 14.7989 12.3578 15.0085 12.5008C15.2257 12.6489 15.3066 12.6763 15.323 12.6803C15.6753 12.7658 16.0383 12.5872 16.1854 12.2559C16.1923 12.2404 16.22 12.1597 16.2351 11.8972C16.2497 11.6439 16.25 11.3039 16.25 10.8072V6.75195H7.75Z" fill="#1C274D"/>
<g opacity="0.4">
<path d="M20.5351 3.46447C19.0706 2 16.7136 2 11.9996 2C7.28551 2 4.92849 2 3.46402 3.46447C2.6948 4.23369 2.32962 5.24918 2.15625 6.72315L2.03715 9.60194C2.04355 9.56702 2.05126 9.53074 2.06056 9.49195C2.11393 9.26927 2.14382 9.20942 2.2036 9.08973L2.21322 9.07065C2.62068 8.27096 3.27085 7.62079 4.07054 7.21333C4.48197 7.0037 4.9897 6.88007 5.77708 6.81574C5.92663 6.80352 6.08387 6.79358 6.25 6.78548L7.75 6.75244V10.5H16.25V6.75244L17.75 6.78548C17.9161 6.79358 18.0734 6.80352 18.2229 6.81574C19.0103 6.88007 19.518 7.0037 19.9295 7.21333C20.7291 7.62079 21.3793 8.27096 21.7868 9.07065L21.7964 9.08973C21.814 9.12503 21.8291 9.15513 21.8429 9.18573V6.72315C21.6695 5.24918 21.3043 4.23369 20.5351 3.46447Z" fill="#1C274D"/>
<path d="M2.00207 10.5C2.00215 10.4812 2.00224 10.4625 2.00233 10.4437L2 10.5H2.00207Z" fill="#1C274D"/>
</g>
</svg>
