<svg width="24" height="24" viewBox="0 0 24 24" fill="none" xmlns="http://www.w3.org/2000/svg">
<path opacity="0.5" d="M2 9C2 5.22876 2 3.34315 3.17157 2.17157C4.34315 1 6.22876 1 10 1H14C17.7712 1 19.6569 1 20.8284 2.17157C22 3.34315 22 5.22876 22 9V13C22 16.7712 22 18.6569 20.8284 19.8284C19.6569 21 17.7712 21 14 21H10C6.22876 21 4.34315 21 3.17157 19.8284C2 18.6569 2 16.7712 2 13V9Z" fill="#1C274D"/>
<path d="M6 12.9103V7.496C6 6.67202 6.66539 6.00025 7.48717 6.06042C7.99967 6.09795 8.55592 6.1618 9 6.2703C9.8239 6.47161 10.851 6.97061 11.4646 7.29269C11.4763 7.29884 11.4881 7.30476 11.5 7.31046V15.7257C11.4975 15.7244 11.495 15.7231 11.4926 15.7218C10.8826 15.4004 9.83655 14.8891 9 14.6847C8.56248 14.5778 8.01608 14.5142 7.50991 14.4765C6.67934 14.4146 6 13.7432 6 12.9103Z" fill="#1C274D"/>
<path d="M12.5 15.7257C12.5025 15.7244 12.505 15.7231 12.5074 15.7218C13.1174 15.4004 14.1634 14.8891 15 14.6847C15.4375 14.5778 15.9839 14.5142 16.4901 14.4765C17.3207 14.4146 18 13.7432 18 12.9103V7.45105C18 6.64494 17.3619 5.98167 16.5568 6.02121C15.9405 6.05148 15.2404 6.1205 14.7 6.2703C13.9685 6.47307 13.0752 6.94978 12.5219 7.26993C12.5147 7.27414 12.5073 7.27825 12.5 7.28228V15.7257Z" fill="#1C274D"/>
</svg>
