<svg width="24" height="24" viewBox="0 0 24 24" fill="none" xmlns="http://www.w3.org/2000/svg">
<path d="M21.0367 3.94464C21.3296 3.65174 21.3296 3.17687 21.0367 2.88398C20.7438 2.59108 20.2689 2.59108 19.976 2.88398L21.0367 3.94464ZM12.1979 5.00537C11.905 5.29827 11.905 5.77314 12.1979 6.06603C12.4908 6.35893 12.9656 6.35893 13.2585 6.06603L12.1979 5.00537ZM18.3851 11.1926L17.8547 11.7229C17.9954 11.8635 18.1861 11.9426 18.385 11.9426C18.584 11.9426 18.7747 11.8635 18.9154 11.7229L18.3851 11.1926ZM3.57976 12.9793L4.22051 12.5895L3.57976 12.9793ZM2.91289 11.883L2.24488 12.224L2.2576 12.2489L2.27214 12.2728L2.91289 11.883ZM4.40797 7.01115L4.75815 7.67438V7.67438L4.40797 7.01115ZM7.16958 5.8601L7.37573 6.58121V6.58121L7.16958 5.8601ZM12.535 5.34237L13.0653 4.81204L12.8818 4.6285L12.624 4.59767L12.535 5.34237ZM10.9412 20.3407L11.331 19.6999H11.331L10.9412 20.3407ZM12.0375 21.0076L11.6477 21.6484L11.6716 21.6629L11.6965 21.6757L12.0375 21.0076ZM16.9094 19.5126L16.2462 19.1624V19.1624L16.9094 19.5126ZM18.0604 16.751L18.7815 16.9571V16.9571L18.0604 16.751ZM18.984 16.1659C19.0756 15.7619 18.8224 15.3602 18.4184 15.2686C18.0145 15.177 17.6127 15.4302 17.5211 15.8341L18.984 16.1659ZM19.976 2.88398L17.8547 5.0053L18.9153 6.06596L21.0367 3.94464L19.976 2.88398ZM13.2585 6.06603C14.5278 4.79681 16.5855 4.79677 17.8547 6.06596L18.9153 5.0053C17.0603 3.15029 14.0528 3.1504 12.1979 5.00537L13.2585 6.06603ZM17.8547 6.06596C19.1239 7.33517 19.1239 9.39303 17.8547 10.6622L18.9154 11.7229C20.7704 9.86789 20.7703 6.86028 18.9153 5.0053L17.8547 6.06596ZM4.22051 12.5895L3.55364 11.4932L2.27214 12.2728L2.93901 13.3691L4.22051 12.5895ZM4.75815 7.67438C5.58509 7.23776 6.49185 6.83388 7.37573 6.58121L6.96343 5.13898C5.94555 5.42997 4.93847 5.88293 4.05779 6.34792L4.75815 7.67438ZM7.37573 6.58121C8.72929 6.19426 10.0053 6.07043 10.9454 6.0444C11.4141 6.03141 11.7959 6.04283 12.0577 6.05718C12.1885 6.06435 12.289 6.07224 12.3552 6.07813C12.3883 6.08107 12.4127 6.08352 12.428 6.08512C12.4356 6.08592 12.441 6.08651 12.444 6.08685C12.4455 6.08702 12.4464 6.08712 12.4468 6.08716C12.4469 6.08718 12.4469 6.08718 12.4468 6.08716C12.4467 6.08715 12.4466 6.08714 12.4465 6.08712C12.4464 6.08712 12.4462 6.0871 12.4462 6.08709C12.4461 6.08708 12.4459 6.08706 12.535 5.34237C12.624 4.59767 12.6239 4.59765 12.6237 4.59763C12.6236 4.59762 12.6234 4.5976 12.6233 4.59758C12.623 4.59755 12.6226 4.59751 12.6223 4.59746C12.6215 4.59737 12.6206 4.59727 12.6195 4.59715C12.6174 4.5969 12.6147 4.59659 12.6114 4.59622C12.6047 4.59547 12.5957 4.59448 12.5843 4.59328C12.5615 4.59089 12.5293 4.58769 12.4882 4.58404C12.4062 4.57673 12.2886 4.56759 12.1398 4.55943C11.8424 4.54313 11.419 4.5307 10.9038 4.54497C9.87609 4.57343 8.46937 4.70847 6.96343 5.13898L7.37573 6.58121ZM3.5809 11.5421C2.87979 10.1685 3.34345 8.42133 4.75815 7.67438L4.05779 6.34792C1.85869 7.50904 1.20189 10.1807 2.24488 12.224L3.5809 11.5421ZM10.5514 20.9814L11.6477 21.6484L12.4273 20.3669L11.331 19.6999L10.5514 20.9814ZM17.5726 19.8627C18.0376 18.9821 18.4906 17.975 18.7815 16.9571L17.3393 16.5448C17.0866 17.4287 16.6828 18.3354 16.2462 19.1624L17.5726 19.8627ZM11.6965 21.6757C13.7398 22.7186 16.4115 22.0618 17.5726 19.8627L16.2462 19.1624C15.4992 20.5771 13.752 21.0407 12.3785 20.3396L11.6965 21.6757ZM12.0046 5.87269L17.8547 11.7229L18.9154 10.6622L13.0653 4.81204L12.0046 5.87269ZM2.93901 13.3691C4.8309 16.479 7.44144 19.0895 10.5514 20.9814L11.331 19.6999C8.42608 17.9328 5.98766 15.4944 4.22051 12.5895L2.93901 13.3691ZM18.7815 16.9571C18.858 16.6895 18.9252 16.4252 18.984 16.1659L17.5211 15.8341C17.4681 16.0678 17.4078 16.3052 17.3393 16.5448L18.7815 16.9571Z" fill="#1C274C"/>
</svg>
