<svg width="24" height="24" viewBox="0 0 24 24" fill="none" xmlns="http://www.w3.org/2000/svg">
<path d="M13.3057 18.2975L8.23724 19.987C5.47183 20.9088 4.08912 21.3697 3.35924 20.6398C2.62936 19.9099 3.09026 18.5272 4.01207 15.7618L5.70156 10.6933C6.46758 8.39525 6.85059 7.24623 7.75684 7.03229C8.6631 6.81835 9.51953 7.67478 11.2324 9.38764L14.6114 12.7666C16.3242 14.4795 17.1807 15.3359 16.9667 16.2422" stroke="#1C274C" stroke-width="1.5" stroke-linecap="round"/>
<path d="M12.2351 18.3462C12.2351 18.3462 11.477 16.0651 11.477 14.5554C11.477 13.0456 12.2351 10.7645 12.2351 10.7645M8.06517 19.4835C8.06517 19.4835 7.42484 16.7316 7.307 14.9345C7.11229 11.9652 8.06517 7.35272 8.06517 7.35272" stroke="#1C274C" stroke-width="1.5" stroke-linecap="round"/>
<path d="M14.5093 10.0061L14.6533 9.28614C14.7986 8.55924 15.3224 7.96597 16.0256 7.73155C16.7289 7.49714 17.2526 6.90387 17.398 6.17697L17.542 5.45703" stroke="#1C274C" stroke-width="1.5" stroke-linecap="round"/>
<path d="M17.5688 12.2536L17.7817 12.3764C18.4388 12.7558 19.265 12.6722 19.8327 12.1687C20.3468 11.7129 21.0789 11.5972 21.7085 11.8725L22 12" stroke="#1C274C" stroke-width="1.5" stroke-linecap="round"/>
<path d="M10.5352 3C10.1977 3.55206 10.2823 4.26344 10.7399 4.72097L10.8377 4.81885C11.2309 5.21201 11.3759 5.78959 11.215 6.32182" stroke="#1C274C" stroke-width="1.5" stroke-linecap="round"/>
<path d="M13.561 4.39631C13.7621 4.19525 13.8626 4.09472 13.9788 4.05788C14.0772 4.02671 14.1827 4.02671 14.281 4.05788C14.3973 4.09472 14.4978 4.19525 14.6989 4.39631C14.8999 4.59737 15.0004 4.69789 15.0373 4.81413C15.0685 4.91245 15.0685 5.018 15.0373 5.11632C15.0004 5.23255 14.8999 5.33308 14.6989 5.53414C14.4978 5.7352 14.3973 5.83572 14.281 5.87257C14.1827 5.90374 14.0772 5.90374 13.9788 5.87257C13.8626 5.83572 13.7621 5.7352 13.561 5.53414C13.36 5.33308 13.2594 5.23255 13.2226 5.11632C13.1914 5.018 13.1914 4.91245 13.2226 4.81413C13.2594 4.69789 13.36 4.59737 13.561 4.39631Z" fill="#1C274C"/>
<path d="M19.4682 7.46822C19.7136 7.22283 19.8363 7.10014 19.9747 7.04681C20.1367 6.9844 20.3161 6.9844 20.4781 7.04681C20.6165 7.10014 20.7392 7.22283 20.9846 7.46822C21.23 7.71362 21.3527 7.83631 21.406 7.97472C21.4684 8.1367 21.4684 8.31609 21.406 8.47807C21.3527 8.61649 21.23 8.73918 20.9846 8.98457C20.7392 9.22996 20.6165 9.35266 20.4781 9.40599C20.3161 9.4684 20.1367 9.4684 19.9747 9.40599C19.8363 9.35266 19.7136 9.22996 19.4682 8.98457C19.2228 8.73918 19.1001 8.61649 19.0468 8.47807C18.9844 8.31609 18.9844 8.1367 19.0468 7.97472C19.1001 7.83631 19.2228 7.71362 19.4682 7.46822Z" fill="#1C274C"/>
<path d="M6.92712 3.94079C7.13659 3.73132 7.47621 3.73132 7.68567 3.94079C7.89514 4.15026 7.89514 4.48988 7.68567 4.69935C7.47621 4.90882 7.13659 4.90882 6.92712 4.69935C6.71765 4.48988 6.71765 4.15026 6.92712 3.94079Z" fill="#1C274C"/>
<path d="M19.058 15.3134C19.2674 15.1039 19.6071 15.1039 19.8165 15.3134C20.026 15.5228 20.026 15.8624 19.8165 16.0719C19.6071 16.2814 19.2674 16.2814 19.058 16.0719C18.8485 15.8624 18.8485 15.5228 19.058 15.3134Z" fill="#1C274C"/>
<path d="M17.5 9.74145C17.7095 9.53198 18.0491 9.53198 18.2586 9.74145C18.468 9.95092 18.468 10.2905 18.2586 10.5C18.0491 10.7095 17.7095 10.7095 17.5 10.5C17.2905 10.2905 17.2905 9.95092 17.5 9.74145Z" fill="#1C274C"/>
</svg>
