<svg width="24" height="24" viewBox="0 0 24 24" fill="none" xmlns="http://www.w3.org/2000/svg">
<path d="M16.5003 17.221C17.5578 16.7652 18.6142 16.0672 19.4318 15M7.3877 8.10846L8.08722 5.37926C8.52779 3.66038 8.74807 2.80094 9.32331 2.36888C9.51616 2.22403 9.73232 2.11656 9.9615 2.05159C10.6451 1.85777 11.4221 2.22163 12.9761 2.94934C14.1268 3.48822 14.7022 3.75765 15.3025 3.94822C15.5113 4.01448 15.722 4.07352 15.9345 4.12524C16.5456 4.27402 17.1727 4.34142 18.427 4.47622C20.1208 4.65827 20.9677 4.74929 21.4671 5.27447C21.6345 5.45054 21.7703 5.6566 21.868 5.88284C22.1595 6.55769 21.9393 7.41713 21.4987 9.13602L21.0209 11" stroke="#1C274C" stroke-width="1.5" stroke-linecap="round"/>
<path d="M2.46673 13C2.04961 11.3713 1.84853 10.5397 2.13226 9.88284C2.22999 9.6566 2.36579 9.45054 2.53319 9.27447C3.03253 8.74929 3.87945 8.65827 5.57328 8.47622C6.82756 8.34142 7.4547 8.27402 8.06578 8.12524C8.27824 8.07352 8.48901 8.01448 8.69774 7.94822C9.29811 7.75765 9.87347 7.48822 11.0242 6.94934C12.5782 6.22163 13.3551 5.85777 14.0388 6.05159C14.268 6.11656 14.4841 6.22403 14.677 6.36888C15.2522 6.80094 15.4725 7.66038 15.9131 9.37926L16.7582 12.6766C17.7517 16.5526 15.4742 19.335 13.7324 20.8219C13.201 21.2755 12.9353 21.5023 11.907 21.7903C10.8787 22.0784 10.5401 22.0208 9.86292 21.9058C7.75527 21.5476 4.67076 20.4302 3.51432 17" stroke="#1C274C" stroke-width="1.5" stroke-linecap="round"/>
<path d="M5.25882 13.2955C5.31893 12.6763 5.77997 12.1206 6.44889 11.9414C7.11781 11.7621 7.79491 12.0128 8.1566 12.5191" stroke="#1C274C" stroke-width="1.5" stroke-linecap="round"/>
<path d="M19.1797 8.93565C19.1195 8.3164 18.6585 7.76073 17.9896 7.5815C17.3207 7.40226 16.6436 7.65296 16.2819 8.1592" stroke="#1C274C" stroke-width="1.5" stroke-linecap="round"/>
<path d="M11.0547 11.7423C11.1148 11.123 11.5759 10.5674 12.2448 10.3881C12.9137 10.2089 13.5908 10.4596 13.9525 10.9658" stroke="#1C274C" stroke-width="1.5" stroke-linecap="round"/>
<path d="M11.096 7.04197C10.8552 7.379 10.3868 7.45701 10.0498 7.21621C9.71275 6.97541 9.63474 6.50699 9.87554 6.16996L11.096 7.04197ZM11.9994 6.75271C11.6207 6.65124 11.2689 6.79998 11.096 7.04197L9.87554 6.16996C10.426 5.39949 11.4285 5.04683 12.3876 5.30382L11.9994 6.75271ZM12.4779 7.06554C12.3673 6.92288 12.2038 6.80749 11.9994 6.75271L12.3876 5.30382C12.9122 5.44438 13.3543 5.74787 13.6633 6.14639L12.4779 7.06554Z" fill="#1C274C"/>
<path d="M13.2007 16.2309C13.2007 16.2309 12.1758 15.4703 10.3884 15.9492C8.60094 16.4281 8.09372 17.5993 8.09372 17.5993" stroke="#1C274C" stroke-width="1.5" stroke-linecap="round"/>
</svg>
