<svg width="24" height="24" viewBox="0 0 24 24" fill="none" xmlns="http://www.w3.org/2000/svg">
<path d="M8.5 12.5L10.5 14.5L15.5 9.5" stroke="#1C274C" stroke-width="1.5" stroke-linecap="round" stroke-linejoin="round"/>
<path d="M3.02956 13.0776C2.70369 12.3958 2.70369 11.6032 3.02956 10.9214C3.17045 10.6266 3.41072 10.3447 3.89125 9.78084C4.0825 9.55642 4.17813 9.44421 4.25845 9.32437C4.44257 9.04965 4.57037 8.74114 4.63442 8.41669C4.66236 8.27515 4.67409 8.12819 4.69755 7.83426C4.75648 7.09576 4.78595 6.72651 4.89476 6.41844C5.14643 5.70591 5.70689 5.14546 6.41942 4.89378C6.72748 4.78497 7.09674 4.7555 7.83524 4.69657C8.12917 4.67312 8.27613 4.66139 8.41767 4.63344C8.74211 4.56939 9.05063 4.4416 9.32534 4.25747C9.44518 4.17715 9.5574 4.08152 9.78182 3.89027C10.3457 3.40974 10.6276 3.16948 10.9224 3.02859C11.6042 2.70271 12.3968 2.70271 13.0786 3.02859C13.3734 3.16948 13.6553 3.40974 14.2192 3.89027C14.4436 4.08152 14.5558 4.17715 14.6757 4.25747C14.9504 4.4416 15.2589 4.56939 15.5833 4.63344C15.7249 4.66139 15.8718 4.67312 16.1658 4.69657C16.9043 4.7555 17.2735 4.78497 17.5816 4.89378C18.2941 5.14546 18.8546 5.70591 19.1062 6.41844M4.89476 17.5806C5.14643 18.2931 5.70689 18.8536 6.41942 19.1053C6.72748 19.2141 7.09673 19.2435 7.83524 19.3025C8.12917 19.3259 8.27613 19.3377 8.41767 19.3656C8.74211 19.4297 9.05063 19.5574 9.32534 19.7416C9.44518 19.8219 9.55739 19.9175 9.78182 20.1088C10.3457 20.5893 10.6276 20.8296 10.9224 20.9705C11.6042 21.2963 12.3968 21.2963 13.0786 20.9705C13.3734 20.8296 13.6553 20.5893 14.2192 20.1088C14.4436 19.9175 14.5558 19.8219 14.6757 19.7416C14.9504 19.5574 15.2589 19.4297 15.5833 19.3656C15.7249 19.3377 15.8718 19.3259 16.1658 19.3025C16.9043 19.2435 17.2735 19.2141 17.5816 19.1053C18.2941 18.8536 18.8546 18.2931 19.1062 17.5806C19.2151 17.2725 19.2445 16.9033 19.3035 16.1648C19.3269 15.8709 19.3386 15.7239 19.3666 15.5824C19.4306 15.2579 19.5584 14.9494 19.7426 14.6747C19.8229 14.5548 19.9185 14.4426 20.1098 14.2182C20.5903 13.6543 20.8305 13.3724 20.9714 13.0776C21.2973 12.3958 21.2973 11.6032 20.9714 10.9214" stroke="#1C274C" stroke-width="1.5" stroke-linecap="round"/>
</svg>
