<svg width="24" height="24" viewBox="0 0 24 24" fill="none" xmlns="http://www.w3.org/2000/svg">
<path d="M19 19L17.5 17.5" stroke="#1C274C" stroke-width="1.5" stroke-linecap="round"/>
<path d="M19 5L17.5 6.5" stroke="#1C274C" stroke-width="1.5" stroke-linecap="round"/>
<path d="M5 19L6.5 17.5" stroke="#1C274C" stroke-width="1.5" stroke-linecap="round"/>
<path d="M5 5L6.5 6.5" stroke="#1C274C" stroke-width="1.5" stroke-linecap="round"/>
<path d="M2 12H4" stroke="#1C274C" stroke-width="1.5" stroke-linecap="round"/>
<path d="M19.9998 12L21.9998 12" stroke="#1C274C" stroke-width="1.5" stroke-linecap="round"/>
<path d="M12 4.00021L12 2.00021" stroke="#1C274C" stroke-width="1.5" stroke-linecap="round"/>
<path d="M10.1209 14.3638C8.94929 13.1922 8.94929 11.2927 10.1209 10.1211C11.2924 8.94954 13.1919 8.94954 14.3635 10.1211C14.8092 10.5668 15.1204 11.4919 15.335 12.4672C15.6559 13.9257 15.8164 14.655 15.2356 15.2358C14.6548 15.8166 13.9255 15.6562 12.467 15.3352C11.4916 15.1206 10.5665 14.8094 10.1209 14.3638Z" stroke="#1C274C" stroke-width="1.5"/>
<path d="M9 21.5422C4.94289 20.2679 2 16.4776 2 12C2 6.47715 6.47715 2 12 2C17.5228 2 22 6.47715 22 12C22 16.4776 19.0571 20.2679 15 21.5422" stroke="#1C274C" stroke-width="1.5" stroke-linecap="round"/>
</svg>
