<svg width="24" height="24" viewBox="0 0 24 24" fill="none" xmlns="http://www.w3.org/2000/svg">
<path d="M20.9994 10.7307C21 10.772 21 10.8186 21 10.9116V16.3755C21 18.4935 19.529 20.3273 17.4615 20.7867C13.8644 21.5861 10.1356 21.5861 6.53853 20.7867C4.47101 20.3273 3 18.4935 3 16.3755V10.9116C3 10.8186 3 10.772 3.00057 10.7307C3.0385 7.98057 4.94139 5.6084 7.61778 4.9748C7.65803 4.96527 7.70344 4.95518 7.79425 4.935C7.87787 4.91641 7.91968 4.90712 7.96109 4.89811C10.6226 4.31912 13.3774 4.31912 16.0389 4.89811C16.0803 4.90712 16.1221 4.91641 16.2057 4.935C16.2966 4.95518 16.342 4.96527 16.3822 4.9748C17.6946 5.28548 18.821 6.01418 19.6327 7.00049" stroke="#1C274D" stroke-width="1.5" stroke-linecap="round"/>
<path d="M17.5 15.5V17" stroke="#1C274D" stroke-width="1.5" stroke-linecap="round"/>
<path d="M15.9581 4.5C15.72 3.08114 14.486 2 12.9995 2H10.9995C9.51304 2 8.27905 3.08114 8.04102 4.5" stroke="#1C274D" stroke-width="1.5" stroke-linecap="round"/>
<path d="M3 14C4.6144 14.7175 6.29316 15.2329 8 15.546M21 14C18.1351 15.2733 15.0676 15.9099 12 15.9099" stroke="#1C274D" stroke-width="1.5" stroke-linecap="round"/>
<path d="M10 13H14" stroke="#1C274D" stroke-width="1.5" stroke-linecap="round"/>
</svg>
