<svg width="24" height="24" viewBox="0 0 24 24" fill="none" xmlns="http://www.w3.org/2000/svg">
<path d="M21.6613 8.71973C18.6515 10.6761 17.1465 11.6543 15.56 12.1472C13.2411 12.8677 10.7581 12.8677 8.43915 12.1472C6.85265 11.6543 5.34773 10.6761 2.33789 8.71973" stroke="#1C274D" stroke-width="1.5" stroke-linecap="round"/>
<path d="M8 11V13" stroke="#1C274D" stroke-width="1.5" stroke-linecap="round"/>
<path d="M16 11V13" stroke="#1C274D" stroke-width="1.5" stroke-linecap="round"/>
<path d="M9.1709 4C9.58273 2.83481 10.694 2 12.0002 2C13.3064 2 14.4177 2.83481 14.8295 4" stroke="#1C274D" stroke-width="1.5" stroke-linecap="round"/>
<path d="M22 14C22 10.2288 22 8.34315 20.8284 7.17157C20.0781 6.42122 19.0348 6.15144 17.3909 6.05445C16.468 6 15.3559 6 14 6H10C8.64413 6 7.53199 6 6.60915 6.05445C4.96519 6.15144 3.92193 6.42122 3.17157 7.17157C2 8.34315 2 10.2288 2 14C2 17.7712 2 19.6569 3.17157 20.8284C4.34315 22 6.22876 22 10 22H14C17.7712 22 19.6569 22 20.8284 20.8284C21.4816 20.1752 21.7706 19.3001 21.8985 18" stroke="#1C274D" stroke-width="1.5" stroke-linecap="round"/>
</svg>
