<svg width="24" height="24" viewBox="0 0 24 24" fill="none" xmlns="http://www.w3.org/2000/svg">
<path d="M16.5568 7.02121L16.52 6.27212V6.27212L16.5568 7.02121ZM14.7 7.2703L14.4997 6.54755V6.54755L14.7 7.2703ZM12.5219 8.26993L12.1463 7.62076V7.62076L12.5219 8.26993ZM7.48717 7.06042L7.4324 7.80842L7.48717 7.06042ZM9 7.2703L8.82199 7.99887V7.99887L9 7.2703ZM11.4646 8.29269L11.116 8.95677V8.95677L11.4646 8.29269ZM12.5074 16.7218L12.857 17.3853V17.3853L12.5074 16.7218ZM15 15.6847L14.822 14.9561V14.9561L15 15.6847ZM16.4901 15.4765L16.5459 16.2244H16.5459L16.4901 15.4765ZM11.4926 16.7218L11.143 17.3853V17.3853L11.4926 16.7218ZM9 15.6847L9.17801 14.9561V14.9561L9 15.6847ZM7.50991 15.4765L7.45414 16.2244H7.45414L7.50991 15.4765ZM6.75 13.9103V8.496H5.25V13.9103H6.75ZM18.75 13.9103V8.45105H17.25V13.9103H18.75ZM16.52 6.27212C15.8904 6.30304 15.1227 6.37486 14.4997 6.54755L14.9003 7.99305C15.3582 7.86614 15.9907 7.79992 16.5935 7.77031L16.52 6.27212ZM14.4997 6.54755C13.6675 6.77824 12.7018 7.29935 12.1463 7.62076L12.8975 8.9191C13.4487 8.60021 14.2696 8.1679 14.9003 7.99305L14.4997 6.54755ZM7.4324 7.80842C7.9319 7.84499 8.43898 7.90529 8.82199 7.99887L9.17801 6.54173C8.67286 6.4183 8.06744 6.3509 7.54194 6.31242L7.4324 7.80842ZM8.82199 7.99887C9.54804 8.17627 10.5035 8.63525 11.116 8.95677L11.8132 7.62861C11.1985 7.30597 10.0998 6.76695 9.17801 6.54173L8.82199 7.99887ZM12.857 17.3853C13.4666 17.0642 14.4402 16.5935 15.178 16.4133L14.822 14.9561C13.8867 15.1847 12.7683 15.7366 12.1578 16.0583L12.857 17.3853ZM15.178 16.4133C15.5551 16.3211 16.0529 16.2612 16.5459 16.2244L16.4343 14.7286C15.9149 14.7673 15.3199 14.8345 14.822 14.9561L15.178 16.4133ZM11.8422 16.0583C11.2317 15.7366 10.1133 15.1847 9.17801 14.9561L8.82199 16.4133C9.55979 16.5935 10.5334 17.0642 11.143 17.3853L11.8422 16.0583ZM9.17801 14.9561C8.68009 14.8345 8.08508 14.7673 7.56568 14.7286L7.45414 16.2244C7.94707 16.2612 8.44487 16.3211 8.82199 16.4133L9.17801 14.9561ZM17.25 13.9103C17.25 14.3152 16.9097 14.6931 16.4343 14.7286L16.5459 16.2244C17.7316 16.136 18.75 15.1711 18.75 13.9103H17.25ZM18.75 8.45105C18.75 7.25646 17.7923 6.20962 16.52 6.27212L16.5935 7.77031C16.9314 7.75371 17.25 8.03342 17.25 8.45105H18.75ZM5.25 13.9103C5.25 15.1711 6.26836 16.136 7.45414 16.2244L7.56568 14.7286C7.09031 14.6931 6.75 14.3152 6.75 13.9103H5.25ZM12.1578 16.0583C12.0598 16.1099 11.9402 16.1099 11.8422 16.0583L11.143 17.3853C11.6786 17.6676 12.3214 17.6676 12.857 17.3853L12.1578 16.0583ZM12.1463 7.62076C12.0434 7.68029 11.9157 7.68241 11.8132 7.62861L11.116 8.95677C11.6772 9.25131 12.3517 9.23493 12.8975 8.9191L12.1463 7.62076ZM6.75 8.496C6.75 8.06926 7.08277 7.78282 7.4324 7.80842L7.54194 6.31242C6.248 6.21768 5.25 7.27479 5.25 8.496H6.75Z" fill="#1C274D"/>
<path d="M12 8.58594V17.0003" stroke="#1C274D" stroke-width="1.5"/>
<path d="M22 12C22 16.714 22 19.0711 20.5355 20.5355C19.0711 22 16.714 22 12 22C7.28595 22 4.92893 22 3.46447 20.5355C2 19.0711 2 16.714 2 12C2 7.28595 2 4.92893 3.46447 3.46447C4.92893 2 7.28595 2 12 2C16.714 2 19.0711 2 20.5355 3.46447C21.5093 4.43821 21.8356 5.80655 21.9449 8" stroke="#1C274D" stroke-width="1.5" stroke-linecap="round"/>
</svg>
