<svg width="24" height="24" viewBox="0 0 24 24" fill="none" xmlns="http://www.w3.org/2000/svg">
<path fill-rule="evenodd" clip-rule="evenodd" d="M10.5308 1.46967C10.8237 1.76256 10.8237 2.23744 10.5308 2.53033C10.2714 2.78972 10.2714 3.21028 10.5308 3.46967C11.376 4.31485 11.376 5.68515 10.5308 6.53033C10.2379 6.82322 9.76301 6.82322 9.47011 6.53033C9.17722 6.23744 9.17722 5.76256 9.47011 5.46967C9.72951 5.21028 9.72951 4.78972 9.47011 4.53033C8.62494 3.68515 8.62494 2.31485 9.47011 1.46967C9.76301 1.17678 10.2379 1.17678 10.5308 1.46967ZM6.03062 2.96967C6.32352 3.26256 6.32352 3.73744 6.03062 4.03033L5.91451 4.14645C5.67126 4.3897 5.64389 4.77479 5.85029 5.05C6.50458 5.92239 6.41783 7.14313 5.64674 7.91421L5.53062 8.03033C5.23773 8.32322 4.76286 8.32322 4.46996 8.03033C4.17707 7.73744 4.17707 7.26256 4.46996 6.96967L4.58608 6.85355C4.82933 6.6103 4.8567 6.22521 4.65029 5.95C3.996 5.07761 4.08276 3.85687 4.85385 3.08579L4.96996 2.96967C5.26286 2.67678 5.73773 2.67678 6.03062 2.96967ZM15.5306 2.96967C15.8235 3.26256 15.8235 3.73744 15.5306 4.03033L15.4145 4.14645C15.1713 4.3897 15.1439 4.77479 15.3503 5.05C16.0046 5.92239 15.9178 7.14313 15.1467 7.91421L15.0306 8.03033C14.7377 8.32322 14.2629 8.32322 13.97 8.03033C13.6771 7.73744 13.6771 7.26256 13.97 6.96967L14.0861 6.85355C14.3293 6.6103 14.3567 6.22521 14.1503 5.95C13.496 5.07761 13.5828 3.85687 14.3538 3.08579L14.47 2.96967C14.7629 2.67678 15.2377 2.67678 15.5306 2.96967ZM4.6477 9.24998C4.67028 9.24999 4.69319 9.25 4.71644 9.25H15.2841C15.3074 9.25 15.3303 9.24999 15.3529 9.24998C15.7155 9.24982 15.9938 9.24969 16.2343 9.29246C16.896 9.4101 17.4694 9.75939 17.8742 10.25H19.0003C21.0714 10.25 22.7503 11.9289 22.7503 14C22.7503 16.0711 21.0714 17.75 19.0003 17.75H17.648C17.21 18.8798 16.449 19.8697 15.4438 20.5864C14.3823 21.3432 13.111 21.75 11.8072 21.75H8.19335C6.8896 21.75 5.61832 21.3432 4.55675 20.5864C3.11595 19.5591 2.1768 17.9704 1.97137 16.2129L1.57069 12.7849C1.56799 12.7618 1.56532 12.739 1.56269 12.7166C1.52043 12.3564 1.488 12.0801 1.50256 11.8362C1.5783 10.5669 2.51437 9.51505 3.76629 9.29246C4.00683 9.24969 4.28504 9.24982 4.6477 9.24998ZM16.4686 16.4711C16.3337 16.6067 16.2503 16.7936 16.2503 17C16.2503 17.0551 16.2562 17.1088 16.2675 17.1605C15.9374 18.0395 15.3515 18.81 14.5731 19.365C13.7657 19.9406 12.7988 20.25 11.8072 20.25H8.19335C7.20178 20.25 6.23492 19.9406 5.42754 19.365C4.33174 18.5837 3.61747 17.3755 3.46123 16.0388L3.06055 12.6107C3.00672 12.1502 2.99434 12.0187 2.99989 11.9255C3.03432 11.3486 3.45981 10.8705 4.02886 10.7693C4.12072 10.753 4.25281 10.75 4.71644 10.75H15.2841C15.7478 10.75 15.8799 10.753 15.9717 10.7693C16.5408 10.8705 16.9663 11.3486 17.0007 11.9255C17.0062 12.0187 16.9939 12.1502 16.94 12.6107L16.5394 16.0388C16.5223 16.1845 16.4986 16.3288 16.4686 16.4711ZM18.0248 16.25H19.0003C20.2429 16.25 21.2503 15.2426 21.2503 14C21.2503 12.7574 20.2429 11.75 19.0003 11.75H18.4915C18.4941 11.7786 18.4963 11.8073 18.498 11.8362C18.5126 12.0801 18.4802 12.3564 18.4379 12.7166C18.4353 12.739 18.4326 12.7618 18.4299 12.7849L18.0292 16.2129C18.0278 16.2253 18.0263 16.2376 18.0248 16.25Z" fill="#1C274C"/>
</svg>
