<svg width="24" height="24" viewBox="0 0 24 24" fill="none" xmlns="http://www.w3.org/2000/svg">
<path d="M20.2237 12.5257C19.6385 9.40452 19.3459 7.84393 18.235 6.92196C17.1241 6 15.5363 6 12.3607 6H11.6395C8.46398 6 6.8762 6 5.7653 6.92196C4.65441 7.84393 4.36179 9.40452 3.77657 12.5257C2.95365 16.9146 2.54219 19.1091 3.74181 20.5545C4.94143 22 7.17414 22 11.6395 22H12.3607C16.8261 22 19.0589 22 20.2585 20.5545C20.9545 19.7159 21.1082 18.6252 20.9538 17" stroke="#1C274C" stroke-width="1.5" stroke-linecap="round"/>
<path d="M9 6V5C9 3.34315 10.3431 2 12 2C13.6569 2 15 3.34315 15 5V6" stroke="#1C274C" stroke-width="1.5" stroke-linecap="round"/>
</svg>
