<svg width="24" height="24" viewBox="0 0 24 24" fill="none" xmlns="http://www.w3.org/2000/svg">
<path d="M6.5 9.50075H14.0385C15.4063 9.50075 16.0902 9.50075 16.5859 9.82122C16.8235 9.97487 17.0259 10.1772 17.1795 10.4148C17.5 10.9105 17.5 11.5944 17.5 12.9623C17.5 14.3301 17.5 15.0141 17.1795 15.5097C17.0259 15.7474 16.8235 15.9497 16.5859 16.1034C16.0902 16.4238 15.4063 16.4238 14.0385 16.4238H9.5M6.5 9.50075L8.75 7.42383M6.5 9.50075L8.75 11.5777" stroke="#1C274C" stroke-width="1.5" stroke-linecap="round" stroke-linejoin="round"/>
<path d="M2 12C2 7.28595 2 4.92893 3.46447 3.46447C4.92893 2 7.28595 2 12 2C16.714 2 19.0711 2 20.5355 3.46447C22 4.92893 22 7.28595 22 12C22 16.714 22 19.0711 20.5355 20.5355C19.0711 22 16.714 22 12 22C7.28595 22 4.92893 22 3.46447 20.5355C2 19.0711 2 16.714 2 12Z" stroke="#1C274C" stroke-width="1.5"/>
</svg>
