<svg width="24" height="24" viewBox="0 0 24 24" fill="none" xmlns="http://www.w3.org/2000/svg">
<path d="M3.33946 17.0002C6.10089 21.7831 12.2168 23.4219 16.9997 20.6605C18.9493 19.5349 20.3765 17.8519 21.1962 15.929C22.3875 13.1346 22.2958 9.83352 20.66 7.00021C19.0242 4.16689 16.2112 2.43691 13.1955 2.07137C11.1204 1.81984 8.94932 2.21434 6.99972 3.33995C2.21679 6.10137 0.578039 12.2173 3.33946 17.0002Z" stroke="#1C274C" stroke-width="1.5"/>
<path d="M13.196 2.07129C13.196 2.07129 12.0983 6.17 14.5983 10.5001C17.0983 14.8303 21.1967 15.929 21.1967 15.929M2.80371 8.07129C2.80371 8.07129 6.90215 9.17 9.40215 13.5001C11.9022 17.8303 10.8044 21.929 10.8044 21.929" stroke="#1C274C" stroke-width="1.5" stroke-dasharray="1.5 2"/>
</svg>
