<svg width="24" height="24" viewBox="0 0 24 24" fill="none" xmlns="http://www.w3.org/2000/svg">
<path d="M6.09079 7.31123L6.18109 6.56668V6.56668L6.09079 7.31123ZM8.93087 7.65568L8.84057 8.40023L8.93087 7.65568ZM10.5133 11.0597L11.1519 11.4531L10.5133 11.0597ZM8.02242 11.5898L8.11273 10.8453C7.70662 10.796 7.33596 11.0813 7.27958 11.4865L8.02242 11.5898ZM9.64493 11.684L9.46174 10.9567L9.46174 10.9567L9.64493 11.684ZM10.1703 7.90862L10.525 7.24783L10.525 7.24783L10.1703 7.90862ZM10.839 8.71931L10.1184 8.92753L10.1184 8.92753L10.839 8.71931ZM3.95494 7.88439L3.31636 7.49104V7.49104L3.95494 7.88439ZM4.8233 7.26012L4.64012 6.53283L4.64012 6.53283L4.8233 7.26012ZM3.62926 10.2248L2.90874 10.433L2.90874 10.433L3.62926 10.2248ZM5.89236 11.3315L6.6352 11.4349C6.66293 11.2356 6.60943 11.0335 6.48673 10.8741C6.36402 10.7146 6.18239 10.6112 5.98266 10.587L5.89236 11.3315ZM4.29794 11.0355L4.65271 10.3747L4.65271 10.3747L4.29794 11.0355ZM6.97078 21.7416L6.88048 22.4862V22.4862L6.97078 21.7416ZM4.13069 21.3972L4.22099 20.6526V20.6526L4.13069 21.3972ZM9.37756 20.0114L10.1204 20.1147L9.37756 20.0114ZM9.10663 21.1685L8.46805 20.7751L8.46805 20.7751L9.10663 21.1685ZM8.23827 21.7927L8.42145 22.52H8.42145L8.23827 21.7927ZM7.16921 17.7214L6.42636 17.618C6.39863 17.8173 6.45213 18.0193 6.57484 18.1788C6.69755 18.3382 6.87917 18.4417 7.07891 18.4659L7.16921 17.7214ZM8.76362 18.0174L9.11839 17.3566L9.11839 17.3566L8.76362 18.0174ZM9.4323 18.8281L8.71178 19.0363L8.71178 19.0363L9.4323 18.8281ZM2.27735 19.1502L3.02019 19.2536L2.27735 19.1502ZM2.54828 17.9931L1.90971 17.5998H1.90971L2.54828 17.9931ZM5.03914 17.463L4.94884 18.2076C5.35494 18.2568 5.7256 17.9716 5.78198 17.5664L5.03914 17.463ZM3.41664 17.3689L3.23346 16.6416H3.23346L3.41664 17.3689ZM2.22261 20.3335L1.50209 20.5418L2.22261 20.3335ZM2.89129 21.1442L2.53652 21.805H2.53652L2.89129 21.1442ZM6.00049 8.05577L8.84057 8.40023L9.02117 6.91114L6.18109 6.56668L6.00049 8.05577ZM10.0414 9.79926C9.99689 10.1189 9.96859 10.319 9.93639 10.4693C9.90588 10.6118 9.88255 10.6537 9.87471 10.6664L11.1519 11.4531C11.286 11.2353 11.3552 11.0074 11.4031 10.7834C11.4494 10.5673 11.4856 10.304 11.5271 10.006L10.0414 9.79926ZM7.93212 12.3344C8.25837 12.374 8.6129 12.4171 8.92122 12.4408C9.19158 12.4616 9.5533 12.4805 9.82811 12.4113L9.46174 10.9567C9.48141 10.9518 9.45875 10.9592 9.36388 10.9598C9.27941 10.9603 9.16991 10.9555 9.03612 10.9452C8.76735 10.9245 8.44813 10.886 8.11273 10.8453L7.93212 12.3344ZM9.87471 10.6664C9.79315 10.7988 9.64888 10.9096 9.46174 10.9567L9.82811 12.4113C10.3743 12.2737 10.8548 11.9354 11.1519 11.4531L9.87471 10.6664ZM8.84057 8.40023C9.18096 8.44151 9.40125 8.46859 9.5685 8.4998C9.73022 8.52999 9.78922 8.55529 9.81552 8.56941L10.525 7.24783C10.3044 7.12939 10.0745 7.06835 9.8437 7.02526C9.61838 6.98321 9.34243 6.9501 9.02117 6.91114L8.84057 8.40023ZM11.5271 10.006C11.5685 9.70804 11.6056 9.4448 11.62 9.22462C11.635 8.99693 11.6308 8.75774 11.5595 8.5111L10.1184 8.92753C10.1214 8.93763 10.1328 8.98124 10.1232 9.1266C10.1132 9.27947 10.0859 9.47952 10.0414 9.79926L11.5271 10.006ZM9.81551 8.56941C9.97656 8.65587 10.0785 8.78944 10.1184 8.92753L11.5595 8.5111C11.4015 7.96454 11.0225 7.51488 10.525 7.24783L9.81551 8.56941ZM4.42685 9.14486C4.47133 8.82518 4.49963 8.62515 4.53183 8.47478C4.56234 8.3323 4.58567 8.29047 4.59351 8.27774L3.31636 7.49104C3.18221 7.70884 3.11305 7.9367 3.06508 8.1607C3.0188 8.37683 2.98264 8.64008 2.94116 8.93812L4.42685 9.14486ZM6.18109 6.56668C5.85977 6.52771 5.584 6.49391 5.35479 6.48082C5.11953 6.4674 4.88247 6.47179 4.64012 6.53283L5.00648 7.9874C5.03913 7.97918 5.10499 7.96901 5.26931 7.97839C5.43969 7.98811 5.66016 8.01449 6.00049 8.05577L6.18109 6.56668ZM4.59351 8.27774C4.67508 8.14533 4.81934 8.03454 5.00648 7.9874L4.64012 6.53283C4.09391 6.6704 3.61346 7.00873 3.31636 7.49104L4.59351 8.27774ZM2.94116 8.93812C2.8997 9.23609 2.8626 9.49933 2.84818 9.7195C2.83327 9.94719 2.83747 10.1864 2.90874 10.433L4.34978 10.0166C4.34686 10.0065 4.33546 9.96287 4.34498 9.81752C4.35499 9.66466 4.38235 9.46461 4.42685 9.14486L2.94116 8.93812ZM5.98266 10.587C5.64723 10.5463 5.32808 10.5074 5.06265 10.4633C4.9305 10.4413 4.82351 10.4199 4.74232 10.3993C4.65059 10.3761 4.63249 10.3639 4.65271 10.3747L3.94318 11.6963C4.19347 11.8307 4.55081 11.8988 4.8166 11.943C5.12123 11.9936 5.47584 12.0365 5.80206 12.076L5.98266 10.587ZM2.90874 10.433C3.06669 10.9796 3.44577 11.4292 3.94318 11.6963L4.65271 10.3747C4.49167 10.2882 4.38969 10.1547 4.34978 10.0166L2.90874 10.433ZM7.06108 20.9971L4.22099 20.6526L4.04039 22.1417L6.88048 22.4862L7.06108 20.9971ZM8.63472 19.908C8.59023 20.2277 8.56193 20.4277 8.52973 20.5781C8.49922 20.7206 8.47589 20.7624 8.46805 20.7751L9.7452 21.5618C9.87936 21.344 9.94852 21.1162 9.99648 20.8922C10.0428 20.676 10.0789 20.4128 10.1204 20.1147L8.63472 19.908ZM6.88048 22.4862C7.2018 22.5252 7.47757 22.559 7.70678 22.572C7.94204 22.5855 8.17909 22.5811 8.42145 22.52L8.05509 21.0655C8.02244 21.0737 7.95657 21.0839 7.79226 21.0745C7.62188 21.0648 7.40141 21.0384 7.06108 20.9971L6.88048 22.4862ZM8.46805 20.7751C8.38649 20.9075 8.24223 21.0183 8.05509 21.0655L8.42145 22.52C8.96766 22.3825 9.44811 22.0441 9.7452 21.5618L8.46805 20.7751ZM7.07891 18.4659C7.41434 18.5066 7.73348 18.5455 7.99891 18.5896C8.13106 18.6116 8.23806 18.633 8.31925 18.6535C8.41098 18.6768 8.42907 18.689 8.40886 18.6782L9.11839 17.3566C8.8681 17.2222 8.51076 17.1541 8.24497 17.1099C7.94033 17.0593 7.58573 17.0164 7.25951 16.9768L7.07891 18.4659ZM10.1204 20.1147C10.1619 19.8168 10.199 19.5535 10.2134 19.3334C10.2283 19.1057 10.2241 18.8665 10.1528 18.6198L8.71178 19.0363C8.7147 19.0464 8.72611 19.09 8.71659 19.2353C8.70658 19.3882 8.67921 19.5883 8.63472 19.908L10.1204 20.1147ZM8.40886 18.6782C8.5699 18.7646 8.67188 18.8982 8.71178 19.0363L10.1528 18.6198C9.99488 18.0733 9.6158 17.6236 9.11839 17.3566L8.40886 18.6782ZM3.02019 19.2536C3.06468 18.9339 3.09298 18.7339 3.12517 18.5835C3.15568 18.441 3.17902 18.3992 3.18686 18.3865L1.90971 17.5998C1.77555 17.8176 1.70639 18.0454 1.65843 18.2694C1.61215 18.4856 1.57598 18.7488 1.53451 19.0469L3.02019 19.2536ZM5.12944 16.7185C4.80319 16.6789 4.44867 16.6358 4.14035 16.6121C3.86999 16.5913 3.50827 16.5724 3.23346 16.6416L3.59982 18.0961C3.58016 18.1011 3.60281 18.0936 3.69768 18.0931C3.78215 18.0925 3.89166 18.0974 4.02545 18.1077C4.29421 18.1283 4.61343 18.1669 4.94884 18.2076L5.12944 16.7185ZM3.18686 18.3865C3.26842 18.2541 3.41268 18.1433 3.59982 18.0961L3.23346 16.6416C2.68725 16.7791 2.2068 17.1175 1.90971 17.5998L3.18686 18.3865ZM1.53451 19.0469C1.49304 19.3448 1.45594 19.6081 1.44152 19.8282C1.42661 20.0559 1.43081 20.2951 1.50209 20.5418L2.94313 20.1253C2.94021 20.1152 2.9288 20.0716 2.93832 19.9263C2.94833 19.7734 2.9757 19.5734 3.02019 19.2536L1.53451 19.0469ZM4.22099 20.6526C3.8806 20.6114 3.66031 20.5843 3.49306 20.5531C3.33134 20.5229 3.27236 20.4976 3.24605 20.4835L2.53652 21.805C2.75714 21.9235 2.98703 21.9845 3.21786 22.0276C3.44318 22.0697 3.71913 22.1028 4.04039 22.1417L4.22099 20.6526ZM1.50209 20.5418C1.66003 21.0883 2.03911 21.538 2.53652 21.805L3.24605 20.4835C3.08501 20.397 2.98303 20.2634 2.94313 20.1253L1.50209 20.5418ZM5.78198 17.5664L6.6352 11.4349L5.14952 11.2281L4.2963 17.3597L5.78198 17.5664ZM7.27958 11.4865L6.42636 17.618L7.91205 17.8247L8.76527 11.6932L7.27958 11.4865Z" fill="#1C274C"/>
<path d="M21.0125 12.6696L21.5919 12.1934V12.1934L21.0125 12.6696ZM18.4684 12.4516L17.7475 12.6585C17.859 13.047 18.2583 13.2773 18.6504 13.1792L18.4684 12.4516ZM20.0634 12.158L20.1548 11.4136V11.4136L20.0634 12.158ZM19.7441 15.5115C19.3423 15.6121 19.098 16.0193 19.1985 16.4211C19.299 16.823 19.7063 17.0672 20.1081 16.9667L19.7441 15.5115ZM21.1188 15.8354L21.5556 16.4451V16.4451L21.1188 15.8354ZM21.6668 14.9493L22.4094 15.054V15.054L21.6668 14.9493ZM14.9615 16.6266L14.3821 17.1029H14.3821L14.9615 16.6266ZM15.8191 17.8826C16.2302 17.9332 16.6045 17.6409 16.655 17.2297C16.7055 16.8186 16.4132 16.4444 16.0021 16.3939L15.8191 17.8826ZM14.3072 14.347L13.5645 14.2423V14.2423L14.3072 14.347ZM16.3937 12.9707L16.5757 13.6982C16.773 13.6489 16.9418 13.5215 17.0434 13.3453C17.145 13.1691 17.1707 12.9592 17.1146 12.7637L16.3937 12.9707ZM14.8552 13.4609L15.2919 14.0706L14.8552 13.4609ZM15.9882 2.51879L16.1702 3.24637V3.24637L15.9882 2.51879ZM13.2219 3.21081L13.0399 2.48323L13.0399 2.48323L13.2219 3.21081ZM18.1865 2.82327L17.6071 3.29949V3.29949L18.1865 2.82327ZM17.2374 2.31167L17.3289 1.56727V1.56727L17.2374 2.31167ZM16.7543 6.47926L16.5723 5.75168C16.375 5.80104 16.2062 5.92841 16.1046 6.1046C16.003 6.28078 15.9773 6.49068 16.0334 6.68617L16.7543 6.47926ZM18.2928 5.98905L17.856 5.37935V5.37935L18.2928 5.98905ZM18.8408 5.10293L18.0981 4.9982V4.9982L18.8408 5.10293ZM12.1355 6.7803L12.7149 6.30408H12.7149L12.1355 6.7803ZM14.6795 6.99828L15.4004 6.79138C15.2889 6.40288 14.8896 6.17261 14.4975 6.2707L14.6795 6.99828ZM13.0846 7.2919L13.1761 6.5475H13.1761L13.0846 7.2919ZM11.4812 4.50064L12.2238 4.60537L11.4812 4.50064ZM12.0292 3.61452L12.4659 4.22422V4.22422L12.0292 3.61452ZM22.1658 13.5762C22.0825 13.2858 22.0094 13.0297 21.9331 12.8216C21.854 12.6058 21.7539 12.3904 21.5919 12.1934L20.4331 13.1458C20.4446 13.1598 20.4743 13.2003 20.5249 13.3381C20.5782 13.4836 20.6347 13.6788 20.724 13.99L22.1658 13.5762ZM18.6504 13.1792C18.9772 13.0975 19.288 13.0199 19.5513 12.9663C19.6824 12.9396 19.7901 12.9213 19.8738 12.9114C19.9676 12.9003 19.9914 12.9048 19.9719 12.9024L20.1548 11.4136C19.8734 11.379 19.5176 11.4424 19.252 11.4964C18.9496 11.558 18.6042 11.6446 18.2864 11.7241L18.6504 13.1792ZM21.5919 12.1934C21.233 11.7567 20.7136 11.4823 20.1548 11.4136L19.9719 12.9024C20.1662 12.9263 20.3297 13.02 20.4331 13.1458L21.5919 12.1934ZM20.1081 16.9667C20.4209 16.8884 20.6901 16.8215 20.9078 16.7519C21.1307 16.6806 21.3516 16.5912 21.5556 16.4451L20.682 15.2257C20.66 15.2414 20.6068 15.2733 20.451 15.3231C20.29 15.3746 20.0758 15.4286 19.7441 15.5115L20.1081 16.9667ZM20.724 13.99C20.8134 14.3014 20.869 14.4966 20.9006 14.6472C20.9308 14.7907 20.9255 14.8352 20.9241 14.8446L22.4094 15.054C22.4453 14.7997 22.4154 14.5619 22.3685 14.3388C22.3231 14.1226 22.2492 13.8665 22.1658 13.5762L20.724 13.99ZM21.5556 16.4451C22.0153 16.1157 22.3299 15.6184 22.4094 15.054L20.9241 14.8446C20.9046 14.9832 20.8249 15.1234 20.682 15.2257L21.5556 16.4451ZM13.8081 15.7201C13.8915 16.0105 13.9645 16.2666 14.0409 16.4747C14.12 16.6904 14.2201 16.9058 14.3821 17.1029L15.5409 16.1504C15.5294 16.1365 15.4997 16.096 15.4491 15.9581C15.3957 15.8127 15.3393 15.6175 15.2499 15.3063L13.8081 15.7201ZM14.3821 17.1029C14.741 17.5396 15.2604 17.814 15.8191 17.8826L16.0021 16.3939C15.8077 16.37 15.6443 16.2763 15.5409 16.1504L14.3821 17.1029ZM15.2499 15.3063C15.1606 14.9949 15.105 14.7997 15.0734 14.6491C15.0432 14.5055 15.0485 14.4611 15.0498 14.4517L13.5645 14.2423C13.5287 14.4965 13.5585 14.7343 13.6054 14.9575C13.6508 15.1737 13.7248 15.4297 13.8081 15.7201L15.2499 15.3063ZM16.2117 12.2431C15.894 12.3225 15.5484 12.4088 15.2534 12.4967C14.9969 12.5731 14.65 12.6852 14.4184 12.8512L15.2919 14.0706C15.2717 14.0851 15.2864 14.0712 15.374 14.0369C15.4511 14.0067 15.5538 13.9724 15.6816 13.9343C15.9382 13.8578 16.2489 13.78 16.5757 13.6982L16.2117 12.2431ZM15.0498 14.4517C15.0694 14.3131 15.1491 14.1729 15.2919 14.0706L14.4184 12.8512C13.9586 13.1805 13.6441 13.6778 13.5645 14.2423L15.0498 14.4517ZM15.8062 1.79121L13.0399 2.48323L13.4039 3.93839L16.1702 3.24637L15.8062 1.79121ZM19.3398 3.72986C19.2565 3.43941 19.1834 3.18332 19.1071 2.97523C19.028 2.75947 18.9279 2.54407 18.7659 2.34705L17.6071 3.29949C17.6186 3.31344 17.6483 3.35394 17.6989 3.49177C17.7522 3.63727 17.8087 3.83244 17.898 4.14367L19.3398 3.72986ZM16.1702 3.24637C16.5018 3.16343 16.7164 3.11012 16.8837 3.07949C17.0447 3.05 17.1116 3.05185 17.1459 3.05607L17.3289 1.56727C17.0808 1.53678 16.8453 1.56157 16.6135 1.60402C16.3879 1.64532 16.1191 1.71293 15.8062 1.79121L16.1702 3.24637ZM18.7659 2.34705C18.407 1.91032 17.8876 1.63594 17.3289 1.56727L17.1459 3.05607C17.3402 3.07996 17.5037 3.17364 17.6071 3.29949L18.7659 2.34705ZM16.9363 7.20685C17.254 7.12737 17.5996 7.04107 17.8946 6.95319C18.1511 6.87679 18.4979 6.76468 18.7296 6.59875L17.856 5.37935C17.8763 5.36483 17.8615 5.37869 17.774 5.41299C17.6969 5.44323 17.5941 5.47756 17.4664 5.51562C17.2097 5.59207 16.8991 5.66994 16.5723 5.75168L16.9363 7.20685ZM17.898 4.14367C17.9874 4.45503 18.043 4.65024 18.0746 4.80081C18.1048 4.94438 18.0995 4.98884 18.0981 4.9982L19.5834 5.20766C19.6193 4.95338 19.5894 4.71559 19.5425 4.49241C19.4971 4.27623 19.4232 4.02017 19.3398 3.72986L17.898 4.14367ZM18.7296 6.59875C19.1893 6.26938 19.5039 5.77208 19.5834 5.20766L18.0981 4.9982C18.0786 5.13684 17.9989 5.27703 17.856 5.37935L18.7296 6.59875ZM10.9821 5.87371C11.0655 6.16417 11.1385 6.42026 11.2149 6.62834C11.294 6.8441 11.3941 7.0595 11.5561 7.25652L12.7149 6.30408C12.7034 6.29013 12.6737 6.24963 12.6231 6.1118C12.5697 5.9663 12.5133 5.77113 12.4239 5.4599L10.9821 5.87371ZM14.4975 6.2707C14.1708 6.35243 13.86 6.43003 13.5967 6.48364C13.4656 6.51032 13.3579 6.52863 13.2742 6.53854C13.1803 6.54964 13.1566 6.5451 13.1761 6.5475L12.9931 8.0363C13.2746 8.07089 13.6304 8.00755 13.8959 7.95349C14.1983 7.89192 14.5438 7.80535 14.8615 7.72586L14.4975 6.2707ZM11.5561 7.25652C11.915 7.69325 12.4344 7.96763 12.9931 8.0363L13.1761 6.5475C12.9817 6.52361 12.8183 6.42993 12.7149 6.30408L11.5561 7.25652ZM12.4239 5.4599C12.3346 5.14854 12.279 4.95333 12.2474 4.80276C12.2172 4.65919 12.2225 4.61473 12.2238 4.60537L10.7385 4.39591C10.7027 4.65019 10.7325 4.88798 10.7794 5.11116C10.8248 5.32734 10.8988 5.5834 10.9821 5.87371L12.4239 5.4599ZM13.0399 2.48323C12.7271 2.56148 12.4579 2.62843 12.2402 2.69804C12.0173 2.76931 11.7964 2.85869 11.5924 3.00482L12.4659 4.22422C12.4879 4.20847 12.5412 4.17661 12.697 4.1268C12.858 4.07532 13.0722 4.02136 13.4039 3.93839L13.0399 2.48323ZM12.2238 4.60537C12.2434 4.46673 12.3231 4.32654 12.4659 4.22422L11.5924 3.00482C11.1326 3.33419 10.8181 3.83149 10.7385 4.39591L12.2238 4.60537ZM13.9586 7.20518L15.6728 13.1776L17.1146 12.7637L15.4004 6.79138L13.9586 7.20518ZM19.1893 12.2447L17.4752 6.27236L16.0334 6.68617L17.7475 12.6585L19.1893 12.2447Z" fill="#1C274C"/>
</svg>
