<svg width="24" height="24" viewBox="0 0 24 24" fill="none" xmlns="http://www.w3.org/2000/svg">
<path d="M13.196 2.07129C13.196 2.07129 12.0983 6.17 14.5983 10.5001C17.0983 14.8303 21.1967 15.929 21.1967 15.929M2.80371 8.07129C2.80371 8.07129 6.90215 9.17 9.40215 13.5001C11.9022 17.8303 10.8044 21.929 10.8044 21.929" stroke="#1C274C" stroke-width="1.5" stroke-dasharray="1.5 2"/>
<path d="M7 3.33782C8.47087 2.48697 10.1786 2 12 2C17.5228 2 22 6.47715 22 12C22 17.5228 17.5228 22 12 22C6.47715 22 2 17.5228 2 12C2 10.1786 2.48697 8.47087 3.33782 7" stroke="#1C274C" stroke-width="1.5" stroke-linecap="round"/>
</svg>
