<svg width="24" height="24" viewBox="0 0 24 24" fill="none" xmlns="http://www.w3.org/2000/svg">
<path fill-rule="evenodd" clip-rule="evenodd" d="M11.7925 9.87995C12.6662 9.86979 13.5519 10.112 14.3035 10.6187L21.736 15.629C22.6856 16.2692 22.9429 17.3256 22.6125 18.2165C22.2875 19.0928 21.4219 19.75 20.2973 19.75H3.70231C2.58964 19.75 1.72778 19.1049 1.39567 18.2392C1.05806 17.3591 1.29658 16.3086 2.22358 15.6565L9.31927 10.6653C10.0539 10.1486 10.926 9.89002 11.7925 9.87995ZM13.4651 11.8624C12.9825 11.5371 12.3993 11.373 11.81 11.3798C11.2256 11.3866 10.6525 11.5614 10.1823 11.8922L3.08659 16.8834C2.7415 17.1262 2.69597 17.4407 2.79616 17.7019C2.90185 17.9774 3.19965 18.25 3.70231 18.25H20.2973C20.8056 18.25 21.103 17.9729 21.2061 17.6949C21.3038 17.4314 21.2543 17.1133 20.8976 16.8728L13.4651 11.8624Z" fill="#1C274C"/>
<path opacity="0.5" d="M10.2856 6.90909C10.2856 6.34219 10.8236 5.75 11.6596 5.75C12.4957 5.75 13.0336 6.34219 13.0336 6.90909C13.0336 7.22136 12.9223 7.49112 12.7401 7.68925C12.6272 7.81206 12.5028 7.93485 12.3609 8.07483L12.2797 8.15509C12.1111 8.32181 11.9231 8.51074 11.7513 8.71278C11.4859 9.02484 11.1983 9.43662 11.0929 9.94276C11.3247 9.9037 11.5588 9.88291 11.7925 9.88019C12.0918 9.87671 12.3925 9.90285 12.6888 9.95908C12.7395 9.87811 12.8066 9.78729 12.8939 9.68456C13.0201 9.53616 13.1675 9.38672 13.3346 9.22141L13.4085 9.14851C13.5495 9.00943 13.7044 8.85667 13.8444 8.7044C14.2865 8.22354 14.5336 7.58928 14.5336 6.90909C14.5336 5.36727 13.1697 4.25 11.6596 4.25C10.1496 4.25 8.78564 5.36727 8.78564 6.90909C8.78564 7.3233 9.12143 7.65909 9.53564 7.65909C9.94986 7.65909 10.2856 7.3233 10.2856 6.90909Z" fill="#1C274C"/>
</svg>
