<svg width="24" height="24" viewBox="0 0 24 24" fill="none" xmlns="http://www.w3.org/2000/svg">
<path opacity="0.5" fill-rule="evenodd" clip-rule="evenodd" d="M12 22C17.5228 22 22 17.5228 22 12C22 6.47715 17.5228 2 12 2C6.47715 2 2 6.47715 2 12C2 17.5228 6.47715 22 12 22ZM12 16C14.2091 16 16 14.2091 16 12C16 9.79086 14.2091 8 12 8C9.79086 8 8 9.79086 8 12C8 14.2091 9.79086 16 12 16Z" fill="#1C274C"/>
<path d="M5.47924 19.5816L9.75198 15.3089C9.33529 15.0253 8.97496 14.665 8.69128 14.2483L4.41856 18.521C4.7452 18.9004 5.09982 19.255 5.47924 19.5816Z" fill="#1C274C"/>
<path d="M4.41846 5.479L8.69119 9.75172C8.97485 9.33504 9.33516 8.97473 9.75185 8.69106L5.47912 4.41833C5.09971 4.74496 4.74509 5.09959 4.41846 5.479Z" fill="#1C274C"/>
<path d="M14.2484 8.69116L18.5211 4.41844C18.9005 4.74507 19.2551 5.0997 19.5818 5.47912L15.309 9.75186C15.0254 9.33517 14.6651 8.97484 14.2484 8.69116Z" fill="#1C274C"/>
<path d="M19.5817 18.5209L15.3089 14.2482C15.0253 14.6648 14.665 15.0252 14.2483 15.3088L18.521 19.5815C18.9004 19.2549 19.255 18.9003 19.5817 18.5209Z" fill="#1C274C"/>
</svg>
