<svg width="24" height="24" viewBox="0 0 24 24" fill="none" xmlns="http://www.w3.org/2000/svg">
<path fill-rule="evenodd" clip-rule="evenodd" d="M9.85922 10.835L9.81116 10.8047C9.31941 10.4943 8.87832 10.2159 8.50375 10.0531C8.1031 9.87898 7.59164 9.75344 7.07437 10.0253C6.56469 10.2932 6.36956 10.7798 6.27272 11.2058C6.19583 11.544 6.15443 11.969 6.11574 12.4478C5.54329 11.8496 5.0349 11.2606 4.59741 10.6931L4.59459 10.6894C4.12579 10.081 3.74278 9.50282 3.4495 8.96894C3.41267 8.90188 3.3772 8.83542 3.34311 8.7696L3.31389 8.71269C3.29709 8.67966 3.28071 8.64694 3.26475 8.61453C3.15307 8.38762 3.05911 8.16999 2.98321 7.96284C2.91476 7.77605 2.86329 7.60436 2.8264 7.44706C2.70881 6.9437 2.73784 6.57599 2.85031 6.33631C2.91557 6.19723 3.02512 6.06755 3.21026 5.96535C3.3403 5.89367 3.50762 5.83558 3.72312 5.797C4.26149 5.70061 5.01899 5.74801 5.97256 5.98283L5.98307 5.98534C6.03916 5.99921 6.0959 6.01372 6.15331 6.02889C8.15091 6.55663 10.7313 7.81595 13.397 9.70961C15.912 11.4961 18.0054 13.4939 19.4021 15.3051L19.4064 15.3108C19.8121 15.8373 20.1536 16.3411 20.4282 16.8133C20.4596 16.8672 20.4901 16.9207 20.5197 16.9738L20.5308 16.9936C20.7368 17.3647 20.8994 17.7141 21.0178 18.0372C21.0324 18.0772 21.0464 18.1167 21.0597 18.1559C21.1469 18.4129 21.2007 18.6392 21.228 18.837C21.279 19.2057 21.2384 19.4768 21.1507 19.6637C21.0743 19.8265 20.9295 19.9837 20.666 20.0943C20.558 20.1389 20.4299 20.1758 20.2778 20.2031C19.7395 20.2995 18.982 20.2521 18.0284 20.0173L18.0211 20.0155C17.4884 19.8839 16.9032 19.6961 16.2738 19.4499C15.888 19.2989 15.453 19.4893 15.302 19.875C15.1511 20.2608 15.3415 20.6958 15.7272 20.8467C16.6717 21.2163 17.5741 21.484 18.3986 21.6281C18.7258 21.6852 19.0407 21.723 19.3412 21.7398C19.495 21.7485 19.6451 21.7517 19.791 21.7492C19.8259 21.7486 19.8608 21.7477 19.8956 21.7464C20.1202 21.7384 20.3362 21.7165 20.5422 21.6796C20.7843 21.6362 21.0184 21.5706 21.2379 21.4799C21.7822 21.2568 22.2363 20.8812 22.5086 20.3009C22.8802 19.5091 22.7863 18.576 22.4801 17.6738C22.4412 17.5591 22.3982 17.4431 22.3514 17.3259C22.272 17.1273 22.1816 16.9252 22.0807 16.7204C21.765 16.0795 21.3474 15.4113 20.8498 14.7341C19.3459 12.6877 17.0315 10.4515 14.2657 8.48675C11.503 6.52419 8.75895 5.16581 6.53645 4.57864C5.43027 4.2864 4.3993 4.17062 3.5391 4.30688C3.21907 4.35757 2.91172 4.44593 2.63145 4.57836C2.14516 4.80813 1.74039 5.17057 1.49238 5.69911C1.19749 6.32756 1.19163 7.0491 1.3677 7.79538C1.42142 8.02357 1.49174 8.25229 1.57479 8.47893C1.66892 8.73581 1.78259 8.99908 1.91429 9.26742C1.94578 9.33159 1.97809 9.39562 2.01116 9.45946C2.09832 9.62774 2.19253 9.79828 2.29352 9.97077C2.34539 10.0594 2.39905 10.1485 2.45446 10.2381C2.56085 10.4101 2.6737 10.5839 2.79272 10.7591C2.90443 10.9235 3.02158 11.0893 3.14394 11.256C3.74851 12.08 4.48032 12.9289 5.3121 13.7733C5.38584 13.8482 5.47143 13.9043 5.56294 13.9416L5.42819 14.0412L5.38628 14.0757C4.91495 14.4637 4.49997 14.8053 4.21823 15.1133C3.92731 15.4314 3.62618 15.8745 3.70517 16.4514C3.78624 17.0435 4.21086 17.3783 4.5875 17.5872C4.94377 17.7848 5.43521 17.9663 5.98347 18.1687L6.03725 18.1886L6.34489 18.3023C6.52514 18.3689 6.61802 18.4038 6.68334 18.4343L6.70045 18.4425L6.7087 18.4596C6.73916 18.525 6.7741 18.6178 6.84069 18.7981L6.95435 19.1057L6.97422 19.1595C7.17671 19.7078 7.35821 20.1992 7.55579 20.5555C7.76466 20.9321 8.09945 21.3567 8.69156 21.4378C9.26844 21.5168 9.71159 21.2157 10.0296 20.9247C10.3377 20.643 10.6792 20.228 11.0672 19.7567L11.3179 19.4523C11.4436 19.2996 11.5119 19.2174 11.5668 19.1603C11.5848 19.1415 11.5968 19.1304 11.6037 19.1244C11.612 19.1224 11.6263 19.1193 11.6488 19.1157C11.7241 19.1038 11.8269 19.0952 12.021 19.0801L12.4085 19.0498C13.0045 19.0034 13.5329 18.9622 13.9372 18.8703C14.3631 18.7734 14.8498 18.5783 15.1177 18.0686C15.3895 17.5513 15.264 17.0399 15.0898 16.6392C14.9271 16.2647 14.6487 15.8236 14.3383 15.3318L14.308 15.2837L14.1339 15.0079C14.0319 14.8462 13.9799 14.7627 13.9468 14.6991C13.9417 14.6892 13.9378 14.6814 13.935 14.6754C13.9362 14.6672 13.9381 14.6559 13.9411 14.6409C13.9563 14.5656 13.9843 14.4649 14.038 14.2762L14.13 13.9525L14.1452 13.8989C14.3099 13.3194 14.4558 12.806 14.5101 12.3966C14.5662 11.9741 14.5591 11.4273 14.1374 11.0056C13.7157 10.5839 13.1689 10.5768 12.7463 10.6328C12.3369 10.6871 11.8236 10.833 11.2441 10.9978L11.1905 11.013L10.8668 11.105C10.678 11.1586 10.5773 11.1867 10.5021 11.2018C10.4871 11.2048 10.4758 11.2067 10.4676 11.208C10.4616 11.2051 10.4537 11.2013 10.4439 11.1962C10.3803 11.1631 10.2968 11.1111 10.1351 11.0091L9.85922 10.835ZM7.71459 11.3679C7.71459 11.3679 7.71745 11.3672 7.72478 11.3682C7.71852 11.3687 7.71459 11.3679 7.71459 11.3679ZM7.90584 11.4288C7.85104 11.405 7.81006 11.3903 7.78038 11.3813C7.76779 11.4146 7.7521 11.4648 7.73539 11.5383C7.67087 11.8221 7.63643 12.2382 7.5843 12.906L7.55832 13.2387L7.55276 13.3122C7.53133 13.6002 7.50638 13.9354 7.34772 14.2372C7.19054 14.5363 6.92984 14.7494 6.70237 14.9354L6.6441 14.9831L6.38161 15.1992C5.85563 15.6323 5.52596 15.9061 5.32504 16.1257C5.28627 16.1681 5.25802 16.2024 5.23757 16.2295C5.25812 16.2427 5.2836 16.258 5.31498 16.2754C5.55798 16.4102 5.93782 16.5528 6.55709 16.7816L6.86473 16.8952L6.93458 16.9208C7.19707 17.0164 7.52066 17.1343 7.76465 17.3783C8.00863 17.6223 8.12653 17.9459 8.22217 18.2084L8.24774 18.2782L8.3614 18.5859C8.59019 19.2051 8.73281 19.585 8.86757 19.828C8.88497 19.8594 8.90028 19.8848 8.91347 19.9054C8.94052 19.8849 8.97484 19.8567 9.01723 19.8179C9.23688 19.617 9.51068 19.2873 9.94373 18.7614L10.1598 18.4989L10.2076 18.4406C10.3935 18.2131 10.6067 17.9524 10.9057 17.7952C11.2076 17.6366 11.5428 17.6116 11.8308 17.5902L11.9043 17.5846L12.237 17.5587C12.9048 17.5065 13.3209 17.4721 13.6046 17.4076C13.6782 17.3909 13.7284 17.3752 13.7617 17.3626C13.7527 17.3329 13.738 17.2919 13.7142 17.2371C13.6031 16.9816 13.3898 16.6395 13.0394 16.0842L12.8653 15.8083L12.8261 15.7466C12.6758 15.5105 12.4927 15.2231 12.4458 14.8807C12.3997 14.5439 12.4943 14.2159 12.5742 13.9391L12.5951 13.8662L12.6871 13.5425C12.8717 12.8927 12.9851 12.4867 13.0232 12.1994C13.0278 12.1648 13.0308 12.1353 13.0326 12.1103C13.0077 12.1122 12.9782 12.1152 12.9436 12.1198C12.6562 12.1579 12.2502 12.2713 11.6005 12.4559L11.2768 12.5479L11.2039 12.5688C10.9271 12.6486 10.599 12.7433 10.2622 12.6971C9.91987 12.6503 9.63243 12.4672 9.39636 12.3168L9.33467 12.2777L9.05878 12.1036C8.50349 11.7532 8.16134 11.5398 7.90584 11.4288ZM5.15908 16.1689C5.15908 16.1689 5.16157 16.171 5.16469 16.1753C5.16033 16.1711 5.15908 16.1689 5.15908 16.1689ZM5.18927 16.3043C5.18806 16.3088 5.18672 16.3113 5.18672 16.3113C5.18672 16.3113 5.18708 16.3091 5.18927 16.3043ZM8.83166 19.9562C8.83166 19.9562 8.83413 19.9549 8.83864 19.9537C8.83384 19.9559 8.83166 19.9562 8.83166 19.9562ZM8.96764 19.9783C8.97192 19.9814 8.97403 19.9839 8.97403 19.9839C8.97403 19.9839 8.97189 19.9826 8.96764 19.9783ZM13.7751 17.4284C13.7751 17.4284 13.7743 17.4245 13.7748 17.4182C13.7757 17.4255 13.7751 17.4284 13.7751 17.4284ZM13.813 17.3392C13.8173 17.3352 13.8206 17.3336 13.8206 17.3336C13.8206 17.3336 13.8188 17.3357 13.813 17.3392ZM7.80375 11.33C7.80728 11.3242 7.80941 11.3224 7.80941 11.3224C7.80941 11.3224 7.80777 11.3257 7.80375 11.33Z" fill="#1C274C"/>
<path fill-rule="evenodd" clip-rule="evenodd" d="M19.6658 2.40887C19.9923 2.66377 20.0503 3.13509 19.7954 3.46158L19.6841 3.60419C19.8079 4.26218 20.1097 4.871 20.5548 5.35951C20.8338 5.66567 20.8118 6.14003 20.5057 6.41902C20.1995 6.69802 19.7251 6.676 19.4461 6.36983C18.9957 5.87554 18.6503 5.29762 18.4252 4.67251C18.3208 4.73491 18.2151 4.79175 18.1055 4.84354C17.9857 4.90014 17.8644 4.94919 17.739 4.99298C18.064 5.58426 18.2708 6.23955 18.3434 6.9205C18.3874 7.33238 18.0891 7.70188 17.6772 7.7458C17.2653 7.78973 16.8958 7.49144 16.8519 7.07956C16.781 6.41466 16.5302 5.78795 16.1334 5.26875L15.9753 5.26343C15.5613 5.2495 15.237 4.90261 15.2509 4.48863C15.2648 4.07465 15.6117 3.75035 16.0257 3.76428L16.433 3.77798C16.9591 3.67412 17.2306 3.59791 17.4647 3.48731C17.6998 3.37622 17.9343 3.21283 18.3557 2.86811L18.6131 2.53849C18.868 2.212 19.3393 2.15396 19.6658 2.40887Z" fill="#1C274C"/>
</svg>
