<svg width="24" height="24" viewBox="0 0 24 24" fill="none" xmlns="http://www.w3.org/2000/svg">
<path d="M15.0005 11C15.5528 11 16.0005 10.5523 16.0005 10C16.0005 9.44771 15.5528 9 15.0005 9C14.4482 9 14.0005 9.44771 14.0005 10C14.0005 10.5523 14.4482 11 15.0005 11Z" fill="#1C274C"/>
<path d="M10.0005 10C10.0005 10.5523 9.55277 11 9.00049 11C8.4482 11 8.00049 10.5523 8.00049 10C8.00049 9.44771 8.4482 9 9.00049 9C9.55277 9 10.0005 9.44771 10.0005 10Z" fill="#1C274C"/>
<path fill-rule="evenodd" clip-rule="evenodd" d="M8.25049 5.27567V5C8.25049 2.92893 9.92942 1.25 12.0005 1.25C14.0716 1.25 15.7505 2.92893 15.7505 5V5.27567C16.4089 5.29605 16.9952 5.33261 17.5154 5.39818C18.7167 5.54961 19.689 5.8682 20.4402 6.6018C20.6908 6.84656 20.9136 7.1183 21.1044 7.41205C21.6765 8.29247 21.7982 9.30842 21.7111 10.516C21.6258 11.6979 21.3291 13.1818 20.9524 15.0648L20.9333 15.1604C20.672 16.4673 20.4639 17.5074 20.2066 18.3256C19.9415 19.1683 19.603 19.8497 19.0366 20.4017C18.8418 20.5915 18.6311 20.7643 18.4068 20.918C17.7545 21.3651 17.0199 21.5634 16.1416 21.6581C15.2888 21.75 14.2281 21.75 12.8953 21.75H11.1058C9.77298 21.75 8.7123 21.75 7.85953 21.6581C6.98117 21.5634 6.24663 21.3651 5.59433 20.918C5.36999 20.7643 5.15926 20.5915 4.96448 20.4017C4.39815 19.8497 4.05963 19.1683 3.79454 18.3256C3.53716 17.5074 3.32915 16.4673 3.06778 15.1604L3.04871 15.065C2.67207 13.1819 2.37527 11.698 2.29003 10.516C2.20293 9.30842 2.32464 8.29247 2.89668 7.41205C3.08754 7.1183 3.31031 6.84656 3.56093 6.6018C4.31206 5.8682 5.28441 5.54961 6.48567 5.39818C7.00584 5.33261 7.59211 5.29605 8.25049 5.27567ZM9.75049 5C9.75049 3.75736 10.7578 2.75 12.0005 2.75C13.2431 2.75 14.2505 3.75736 14.2505 5V5.2522C13.8263 5.24999 13.3785 5.25 12.906 5.25H11.0951C10.6226 5.25 10.1747 5.24999 9.75049 5.2522V5ZM4.60898 7.67491C5.02342 7.27015 5.61695 7.01956 6.67327 6.88641C7.74417 6.75141 9.16279 6.75 11.1491 6.75H12.852C14.8383 6.75 16.2569 6.75141 17.3278 6.88641C18.3842 7.01956 18.9777 7.27015 19.3921 7.67491C19.5636 7.84238 19.716 8.02831 19.8466 8.2293C20.1622 8.71507 20.2916 9.34622 20.215 10.4081C20.1373 11.4847 19.8605 12.8761 19.4709 14.8238C19.1992 16.1827 19.006 17.1434 18.7757 17.8755C18.5503 18.5919 18.3108 19.0145 17.9897 19.3275C17.8564 19.4573 17.7122 19.5755 17.5587 19.6808C17.1889 19.9343 16.7275 20.0863 15.9808 20.1667C15.2178 20.249 14.2379 20.25 12.852 20.25H11.1491C9.7632 20.25 8.78334 20.249 8.02027 20.1667C7.27356 20.0863 6.81225 19.9343 6.44237 19.6808C6.28887 19.5755 6.14468 19.4573 6.01141 19.3275C5.69027 19.0145 5.45077 18.5919 5.22541 17.8755C4.99512 17.1434 4.80195 16.1828 4.53016 14.8238C4.14062 12.8761 3.86378 11.4847 3.78614 10.4081C3.70955 9.34622 3.83887 8.71507 4.1545 8.2293C4.28508 8.02831 4.43751 7.84238 4.60898 7.67491Z" fill="#1C274C"/>
</svg>
