<svg width="24" height="24" viewBox="0 0 24 24" fill="none" xmlns="http://www.w3.org/2000/svg">
<path fill-rule="evenodd" clip-rule="evenodd" d="M6.97772 1.32697C7.31493 1.56751 7.39331 2.03587 7.15278 2.37309L6.76671 2.91434C7.39253 3.3886 7.53124 4.27785 7.07225 4.92132L6.66163 5.49699C6.4211 5.83421 5.95274 5.91258 5.61552 5.67205C5.2783 5.43151 5.19993 4.96315 5.44046 4.62594L5.82653 4.08469C5.20071 3.61042 5.062 2.72117 5.52098 2.0777L5.9316 1.50203C6.17214 1.16481 6.6405 1.08644 6.97772 1.32697ZM10.9777 1.32697C11.3149 1.56751 11.3933 2.03587 11.1528 2.37309L10.7667 2.91434C11.3925 3.3886 11.5312 4.27785 11.0723 4.92132L10.6616 5.49699C10.4211 5.83421 9.95274 5.91258 9.61552 5.67205C9.2783 5.43151 9.19993 4.96315 9.44046 4.62594L9.82653 4.08469C9.20071 3.61042 9.062 2.72117 9.52098 2.0777L9.9316 1.50203C10.1721 1.16481 10.6405 1.08644 10.9777 1.32697ZM14.9777 1.32697C15.3149 1.56751 15.3933 2.03587 15.1528 2.37309L14.7667 2.91434C15.3925 3.3886 15.5312 4.27785 15.0723 4.92132L14.6616 5.49699C14.4211 5.83421 13.9527 5.91258 13.6155 5.67205C13.2783 5.43151 13.1999 4.96315 13.4405 4.62594L13.8265 4.08469C13.2007 3.61042 13.062 2.72117 13.521 2.0777L13.9316 1.50203C14.1721 1.16481 14.6405 1.08644 14.9777 1.32697ZM7.22186 6.25015H12.7789C13.7346 6.25012 14.529 6.25009 15.1554 6.33637C15.815 6.42723 16.4087 6.62754 16.8708 7.12139C17.1807 7.45267 17.3549 7.8343 17.4501 8.25015H18.0004C20.6237 8.25015 22.7504 10.3768 22.7504 13.0001C22.7504 15.6235 20.6237 17.7501 18.0004 17.7501H17.0309C17.021 17.8758 17.0109 17.9984 17.0004 18.118V18.7502H16.9366C16.8993 19.0698 16.8558 19.364 16.8021 19.6337C16.6337 20.479 16.3472 21.1851 15.7556 21.7386C15.164 22.292 14.4405 22.5309 13.5858 22.6427C12.7638 22.7502 11.7254 22.7502 10.4398 22.7502H9.56094C8.27535 22.7502 7.23691 22.7502 6.41487 22.6427C5.56022 22.5309 4.83667 22.292 4.24508 21.7386C3.65348 21.1851 3.36706 20.479 3.19866 19.6337C3.03669 18.8207 2.96763 17.7845 2.88214 16.5018L2.53283 11.2622C2.46922 10.3085 2.41636 9.51592 2.46078 8.88522C2.50756 8.22103 2.66793 7.61525 3.12995 7.12139C3.59198 6.62754 4.18575 6.42723 4.84536 6.33637C5.47171 6.25009 6.2661 6.25012 7.22186 6.25015ZM17.1354 16.2501H18.0004C19.7953 16.2501 21.2504 14.7951 21.2504 13.0001C21.2504 11.2052 19.7953 9.75015 18.0004 9.75015H17.5513C17.5388 10.1986 17.5052 10.7027 17.4679 11.2622L17.1354 16.2501ZM15.5639 17.2502H4.43686C4.41689 16.9718 4.39684 16.6724 4.37531 16.3494L4.0331 11.2163C3.965 10.1949 3.92077 9.50606 3.95707 8.9906C3.99185 8.49678 4.09456 8.28594 4.22532 8.14617C4.35609 8.00639 4.55963 7.88989 5.05004 7.82234C5.56195 7.75183 6.25216 7.75015 7.2759 7.75015H12.7248C13.7486 7.75015 14.4388 7.75183 14.9507 7.82234C15.4411 7.88989 15.6446 8.00639 15.7754 8.14617C15.9062 8.28594 16.0089 8.49678 16.0436 8.9906C16.08 9.50607 16.0357 10.1949 15.9676 11.2163L15.6254 16.3494C15.6039 16.6724 15.5838 16.9718 15.5639 17.2502ZM4.57514 18.7502H15.4256C15.3979 18.9642 15.3669 19.16 15.331 19.3407C15.1946 20.0251 15.0043 20.3874 14.7309 20.6432C14.4574 20.899 14.0833 21.0648 13.3913 21.1553C12.6779 21.2486 11.7379 21.2502 10.387 21.2502H9.61368C8.26284 21.2502 7.32283 21.2486 6.60943 21.1553C5.91743 21.0648 5.54327 20.899 5.26985 20.6432C4.99644 20.3874 4.80611 20.0251 4.66976 19.3407C4.63377 19.16 4.60281 18.9642 4.57514 18.7502Z" fill="#1C274C"/>
</svg>
