<svg width="24" height="24" viewBox="0 0 24 24" fill="none" xmlns="http://www.w3.org/2000/svg">
<path fill-rule="evenodd" clip-rule="evenodd" d="M9.14605 1.25H14.8531C15.7391 1.24999 16.46 1.24998 17.0476 1.30934C17.6595 1.37116 18.1934 1.50222 18.6866 1.8054C18.8424 1.90123 18.9911 2.00833 19.1313 2.12586C19.575 2.4977 19.8683 2.96264 20.1207 3.52355C20.363 4.06214 20.5911 4.74593 20.8716 5.58633L20.8839 5.62316L20.9331 5.77061C21.081 6.21377 21.2125 6.60796 21.2803 6.93604C21.3519 7.28264 21.3822 7.68331 21.1977 8.07889C21.1047 8.27833 20.975 8.45845 20.8152 8.6098C20.4984 8.90997 20.1087 9.00805 19.7573 9.04986C19.577 9.07131 19.3723 9.08113 19.1483 9.08561L17.7356 18.735C17.622 19.5107 17.5268 20.1617 17.3839 20.6761C17.2326 21.2212 17.0053 21.7038 16.5693 22.0806C16.1332 22.4575 15.6228 22.6125 15.0615 22.6833C14.5318 22.75 13.8739 22.75 13.09 22.75H10.9092C10.1253 22.75 9.4673 22.75 8.93759 22.6833C8.37631 22.6125 7.86595 22.4575 7.42989 22.0806C6.99382 21.7038 6.76654 21.2212 6.61521 20.6761C6.47238 20.1617 6.37709 19.5106 6.26355 18.735L4.85083 9.08561C4.62681 9.08113 4.42217 9.07131 4.24188 9.04986C3.89045 9.00805 3.50078 8.90997 3.18393 8.6098C3.02417 8.45845 2.89439 8.27834 2.8014 8.07889C2.61695 7.68331 2.64726 7.28264 2.71884 6.93604C2.78659 6.60797 2.91816 6.2138 3.06607 5.77065C3.07052 5.75732 3.07498 5.74394 3.07946 5.73051L3.12754 5.58643C3.40798 4.74598 3.63616 4.06215 3.87846 3.52354C4.1308 2.96264 4.42411 2.4977 4.86781 2.12586C5.00804 2.00833 5.15669 1.90123 5.31257 1.8054C5.80573 1.50222 6.33961 1.37116 6.95154 1.30934C7.53916 1.24998 8.26005 1.24999 9.14605 1.25ZM6.36737 9.08937L6.6837 11.25H17.3154L17.6318 9.08937H6.36737ZM17.0958 12.75H6.90331L7.41573 16.25H16.5834L17.0958 12.75ZM16.3638 17.75H7.63534L7.74087 18.4708C7.86311 19.3057 7.946 19.8623 8.06054 20.2749C8.16944 20.6671 8.2835 20.8358 8.41072 20.9457C8.53793 21.0557 8.72138 21.1441 9.12525 21.195C9.55006 21.2486 10.1128 21.25 10.9566 21.25H13.0426C13.8864 21.25 14.4491 21.2486 14.8739 21.195C15.2778 21.1441 15.4612 21.0557 15.5884 20.9457C15.7156 20.8358 15.8297 20.6671 15.9386 20.2749C16.0531 19.8623 16.136 19.3057 16.2583 18.4708L16.3638 17.75ZM7.10231 2.80174C6.61466 2.851 6.32772 2.9421 6.09814 3.08324C6.00462 3.14074 5.91543 3.205 5.83128 3.27551C5.62473 3.44862 5.44749 3.69197 5.24641 4.13895C5.03882 4.60039 4.83381 5.21195 4.53816 6.09796L4.50234 6.20531C4.3369 6.70108 4.23533 7.00945 4.18784 7.23942C4.16011 7.37369 4.16202 7.43339 4.16422 7.45189C4.17606 7.47538 4.19153 7.49685 4.21006 7.51552C4.22691 7.52346 4.28294 7.54417 4.41909 7.56036C4.65227 7.58811 4.97693 7.58937 5.49957 7.58937H18.4996C19.0222 7.58937 19.3469 7.58811 19.58 7.56036C19.7162 7.54417 19.7722 7.52346 19.7891 7.51552C19.8076 7.49686 19.8231 7.47538 19.8349 7.45189C19.8371 7.4334 19.839 7.3737 19.8113 7.23942C19.7638 7.00945 19.6622 6.70108 19.4968 6.20531L19.461 6.09796C19.1653 5.21196 18.9603 4.6004 18.7527 4.13895C18.5516 3.69197 18.3744 3.44861 18.1679 3.27552C18.0837 3.205 17.9945 3.14074 17.901 3.08324C17.6714 2.9421 17.3845 2.851 16.8968 2.80174C16.3934 2.75089 15.7484 2.75 14.8144 2.75H9.18478C8.25075 2.75 7.60574 2.75089 7.10231 2.80174Z" fill="#1C274C"/>
</svg>
