<svg width="24" height="24" viewBox="0 0 24 24" fill="none" xmlns="http://www.w3.org/2000/svg">
<path fill-rule="evenodd" clip-rule="evenodd" d="M2.94714 6.38823C1.43001 4.837 2.54477 2.25 4.70047 2.25H19.2986C21.4543 2.25 22.569 4.83699 21.0519 6.38822L12.7495 14.8772V20.25H16.2434C16.6576 20.25 16.9934 20.5858 16.9934 21C16.9934 21.4142 16.6576 21.75 16.2434 21.75H7.75562C7.34141 21.75 7.00562 21.4142 7.00562 21C7.00562 20.5858 7.34141 20.25 7.75562 20.25H11.2495V14.8772L2.94714 6.38823ZM11.9995 13.4988L14.9324 10.5H9.06666L11.9995 13.4988ZM7.59963 9H16.3994L19.9795 5.33942C20.5548 4.75118 20.1446 3.75 19.2986 3.75H4.70047C3.85443 3.75 3.44421 4.75118 4.01952 5.33942L7.59963 9Z" fill="#1C274C"/>
</svg>
