<svg width="24" height="24" viewBox="0 0 24 24" fill="none" xmlns="http://www.w3.org/2000/svg">
<path fill-rule="evenodd" clip-rule="evenodd" d="M18.0591 4.70802C17.6566 3.89183 16.8021 3.39846 15.894 3.45798C15.7713 3.46603 15.6315 3.49231 15.383 3.55395L14.9371 7.29311L18.0551 6.45764C18.1722 6.42626 18.2419 6.40748 18.2939 6.39161C18.3268 6.38157 18.3408 6.37616 18.3442 6.37479C18.4332 6.33001 18.4872 6.23658 18.4814 6.13708C18.4809 6.13346 18.4786 6.11864 18.4708 6.08511C18.4586 6.03213 18.44 5.96239 18.4086 5.84527C18.2189 5.13731 18.1489 4.89007 18.0591 4.70802ZM13.3766 7.71124L13.823 3.96816L9.10497 5.23234L8.65854 8.97543L13.3766 7.71124ZM7.09804 9.39357L7.54446 5.65051C6.72735 5.86976 6.1433 6.03001 5.69373 6.19522C5.22032 6.36921 4.96638 6.5249 4.79092 6.70037C4.51164 6.97964 4.3108 7.32751 4.20858 7.70901C4.14435 7.9487 4.13649 8.24647 4.22252 8.74344C4.28508 9.10483 4.38959 9.53305 4.5333 10.0808L7.09804 9.39357ZM3.2503 11.0929C3.02448 10.2501 2.8427 9.56656 2.7445 8.99931C2.64065 8.3994 2.61586 7.85755 2.75969 7.32079C2.93006 6.68495 3.2648 6.10517 3.73026 5.63971C4.1232 5.24677 4.60485 4.99731 5.17631 4.78729C5.73076 4.58353 6.43519 4.39478 7.30862 4.16076L8.08936 3.95156C8.17685 3.90813 8.2735 3.88143 8.37465 3.87512L14.3462 2.27506C14.3534 2.27311 14.3607 2.27117 14.3679 2.26923C14.4555 2.22574 14.5523 2.19903 14.6536 2.19276C15.1276 2.06677 15.4745 1.98226 15.7959 1.9612C17.3094 1.862 18.7336 2.68427 19.4044 4.04458C19.5684 4.37708 19.6765 4.78084 19.8351 5.37321C19.8424 5.40074 19.8499 5.42868 19.8575 5.45704C19.8616 5.47246 19.8658 5.48795 19.87 5.50349C19.9173 5.67914 19.9666 5.86192 19.9781 6.037C20.0244 6.74329 19.6407 7.40793 19.0058 7.72098C18.8485 7.79858 18.6656 7.8473 18.4898 7.89412C18.4742 7.89827 18.4587 7.9024 18.4433 7.90653L9.69756 10.2499L16.0523 10.2499C16.9508 10.2499 17.7 10.2499 18.2948 10.3299C18.9226 10.4143 19.4894 10.5999 19.9448 11.0554C20.4003 11.5109 20.586 12.0777 20.6704 12.7055C20.7504 13.3002 20.7503 14.0495 20.7503 14.9479V16.0548C20.7503 17.4224 20.7503 18.5247 20.6338 19.3917C20.5128 20.2918 20.2539 21.0497 19.652 21.6516C19.05 22.2535 18.2922 22.5124 17.3921 22.6334C16.5251 22.75 15.4228 22.75 14.0552 22.7499H9.94543C8.57784 22.75 7.47552 22.75 6.60855 22.6334C5.70845 22.5124 4.95057 22.2535 4.34865 21.6516C3.74674 21.0497 3.48784 20.2918 3.36683 19.3917C3.25027 18.5247 3.25028 17.4224 3.2503 16.0548L3.2503 11.0929ZM4.7503 11.7499V15.9999C4.7503 17.4354 4.7519 18.4365 4.85345 19.1918C4.9521 19.9256 5.13255 20.3142 5.40931 20.5909C5.68608 20.8677 6.07465 21.0481 6.80842 21.1468C7.56378 21.2483 8.56489 21.2499 10.0003 21.2499H14.0003C15.4357 21.2499 16.4368 21.2483 17.1922 21.1468C17.926 21.0481 18.3145 20.8677 18.5913 20.5909C18.8681 20.3142 19.0485 19.9256 19.1472 19.1918C19.2487 18.4365 19.2503 17.4354 19.2503 15.9999V14.9999C19.2503 14.0359 19.2487 13.3884 19.1838 12.9053C19.1217 12.4439 19.0145 12.2464 18.8842 12.1161C18.7539 11.9857 18.5564 11.8785 18.0949 11.8165C17.6119 11.7515 16.9643 11.7499 16.0003 11.7499H4.7503Z" fill="#1C274C"/>
</svg>
