<svg width="24" height="24" viewBox="0 0 24 24" fill="none" xmlns="http://www.w3.org/2000/svg">
<path d="M2.01108 10.0002C1.96736 9.12562 2.04852 8.47345 2.33537 7.87513C2.87583 6.74779 4.02619 6.06252 6.32691 4.69199L7.71175 3.86705C9.80104 2.62247 10.8457 2.00018 12 2.00018C13.1543 2.00018 14.199 2.62247 16.2882 3.86705L17.6731 4.69199C19.9738 6.06252 21.1242 6.74779 21.6646 7.87513C22.2051 9.00247 22.0154 10.321 21.6359 12.9581L21.3572 14.8954C20.8697 18.2828 20.626 19.9766 19.451 20.9884C18.3822 21.9086 16.8599 21.9919 14 21.9994" stroke="#1C274C" stroke-width="1.5" stroke-linecap="round"/>
<path d="M11 22C11 17.0294 6.97056 13 2 13" stroke="#1C274C" stroke-width="1.5" stroke-linecap="round"/>
<path d="M8 22C8 18.6863 5.31371 16 2 16" stroke="#1C274C" stroke-width="1.5" stroke-linecap="round"/>
<path d="M5 22C5 20.3431 3.65685 19 2 19" stroke="#1C274C" stroke-width="1.5" stroke-linecap="round"/>
</svg>
