<svg width="24" height="24" viewBox="0 0 24 24" fill="none" xmlns="http://www.w3.org/2000/svg">
<path d="M13.9999 22.0002C17.7711 22.0002 19.6567 22.0002 20.8283 20.7883C21.9999 19.5765 21.9999 17.626 21.9999 13.7251V12.2041C21.9999 9.91567 21.9999 8.77146 21.4807 7.82292C20.9615 6.87439 20.0129 6.2857 18.1158 5.10831L16.1158 3.86705C14.1105 2.62247 13.1078 2.00018 11.9999 2.00018C10.8919 2.00018 9.88925 2.62247 7.8839 3.86705L5.8839 5.10831C3.98681 6.2857 3.03827 6.87439 2.51907 7.82292C2.20149 8.40311 2.07817 9.05651 2.03027 10.0002" stroke="#1C274C" stroke-width="1.5" stroke-linecap="round"/>
<path d="M11 22C11 17.0294 6.97056 13 2 13" stroke="#1C274C" stroke-width="1.5" stroke-linecap="round"/>
<path d="M8 22C8 18.6863 5.31371 16 2 16" stroke="#1C274C" stroke-width="1.5" stroke-linecap="round"/>
<path d="M5 22C5 20.3431 3.65685 19 2 19" stroke="#1C274C" stroke-width="1.5" stroke-linecap="round"/>
</svg>
