<svg width="24" height="24" viewBox="0 0 24 24" fill="none" xmlns="http://www.w3.org/2000/svg">
<path d="M17 7L12 12M12 12H15.75M12 12V8.25" stroke="#1C274C" stroke-width="1.5" stroke-linecap="round" stroke-linejoin="round"/>
<path d="M2 18C2 16.1144 2 15.1716 2.58579 14.5858C3.17157 14 4.11438 14 6 14C7.88562 14 8.82843 14 9.41421 14.5858C10 15.1716 10 16.1144 10 18C10 19.8856 10 20.8284 9.41421 21.4142C8.82843 22 7.88562 22 6 22C4.11438 22 3.17157 22 2.58579 21.4142C2 20.8284 2 19.8856 2 18Z" stroke="#1C274C" stroke-width="1.5"/>
<path d="M11.9994 2C16.7135 2 19.0705 2 20.535 3.46447C21.9994 4.92893 21.9994 7.28595 21.9994 12C21.9994 16.714 21.9994 19.0711 20.535 20.5355C19.1779 21.8926 17.0545 21.9921 12.9994 21.9994M2 11C2.0073 6.94493 2.10686 4.8215 3.46389 3.46447C4.43764 2.49071 5.80601 2.16443 7.99951 2.0551" stroke="#1C274C" stroke-width="1.5" stroke-linecap="round"/>
</svg>
