<svg width="24" height="24" viewBox="0 0 24 24" fill="none" xmlns="http://www.w3.org/2000/svg">
<path fill-rule="evenodd" clip-rule="evenodd" d="M17.4061 1.25004C17.4524 1.25007 17.4994 1.25009 17.547 1.25009L18.1675 1.25009C19.0391 1.25006 19.7677 1.25004 20.3467 1.32763C20.9583 1.40962 21.5139 1.59037 21.961 2.03612C22.4084 2.48218 22.5901 3.03701 22.6725 3.64789C22.7504 4.22551 22.7503 4.95241 22.7503 5.82101V6.44002C22.7503 6.4877 22.7503 6.53475 22.7503 6.58119C22.7509 7.63124 22.7513 8.36819 22.4711 9.04242C22.1911 9.71642 21.6685 10.2369 20.9234 10.9791C20.8904 11.0119 20.8571 11.0451 20.8233 11.0788L18.1535 13.7406L18.2466 13.8843C18.6402 14.4923 18.9591 14.9848 19.1893 15.4095C19.4278 15.8494 19.5972 16.262 19.6651 16.7185C19.7742 17.4523 19.6756 18.2066 19.3863 18.8996C19.279 19.1566 19.0934 19.4259 18.9031 19.6714C18.7036 19.9286 18.4598 20.2088 18.1979 20.4941C17.6767 21.0621 17.0509 21.686 16.4955 22.2397L16.4044 22.3305C15.6845 23.0483 14.4366 22.8156 14.0526 21.8525C13.825 21.2814 13.7329 21.0538 13.6176 20.8435C13.5107 20.6486 13.388 20.4627 13.2508 20.2876C13.1047 20.1012 12.934 19.9287 12.5107 19.5066L12.0059 19.064C11.9988 19.0578 11.9919 19.0515 11.985 19.0451C11.8916 19.0572 11.7967 19.0634 11.7002 19.0634C11.0687 19.0634 10.5477 18.7998 10.0566 18.4262C9.59207 18.0729 9.07668 17.559 8.46051 16.9446L7.01389 15.5024C6.39775 14.8881 5.88232 14.3743 5.52784 13.911C5.15318 13.4215 4.88789 12.901 4.88789 12.2693C4.88789 12.1547 4.89669 12.0425 4.91378 11.9325L4.08336 11.1046C4.03494 11.0563 4.01555 11.037 3.99642 11.0185C3.62276 10.6559 3.18311 10.3675 2.70096 10.1689C2.67626 10.1587 2.65079 10.1486 2.58716 10.1234L2.20851 9.97334C1.19496 9.57173 0.922129 8.26365 1.69592 7.4922L1.70298 7.48516C2.25841 6.93141 2.88415 6.30756 3.45378 5.78791C3.74001 5.5268 4.02101 5.28373 4.27894 5.08494C4.52524 4.89509 4.79504 4.71029 5.05228 4.60356C5.7465 4.31552 6.50192 4.21738 7.23659 4.32595C7.69349 4.39347 8.10671 4.56205 8.54781 4.79974C8.97369 5.02923 9.46758 5.34711 10.0775 5.73965L10.2251 5.8347L12.8974 3.17043C12.9311 3.13686 12.9643 3.10371 12.9971 3.071C13.7419 2.32769 14.2637 1.80689 14.9391 1.52798C15.6143 1.24915 16.3522 1.24952 17.4061 1.25004ZM9.13783 6.91875C8.57783 6.55864 8.17474 6.30262 7.83627 6.12024C7.47719 5.92675 7.2367 5.84226 7.0173 5.80984C6.55916 5.74213 6.07781 5.80205 5.62714 5.98904C5.55982 6.01697 5.41808 6.10078 5.19465 6.27299C4.98283 6.43625 4.73588 6.6487 4.46471 6.89608C3.92197 7.39119 3.31803 7.9931 2.75497 8.55446C2.75179 8.55763 2.75077 8.55938 2.75069 8.55953C2.75059 8.5597 2.75069 8.55952 2.75069 8.55953C2.75059 8.55988 2.74988 8.56283 2.75082 8.56737C2.75176 8.57191 2.75346 8.5744 2.75392 8.57497C2.7542 8.57517 2.75663 8.57707 2.76108 8.57883L3.1448 8.73088C3.20184 8.75348 3.23717 8.76748 3.27237 8.78198C3.93031 9.05306 4.53056 9.44669 5.04096 9.94193C5.06828 9.96843 5.09518 9.99525 5.13859 10.0385L5.61635 10.5149C5.68174 10.4336 5.75002 10.353 5.82053 10.2725C6.1423 9.90528 6.55571 9.49312 7.03427 9.016L9.13783 6.91875ZM13.4549 18.3396L13.5357 18.4104L13.5873 18.4619C13.9779 18.8513 14.22 19.0926 14.4314 19.3624C14.6189 19.6016 14.7866 19.8557 14.9327 20.1222C15.0924 20.4133 15.2161 20.7203 15.4092 21.2047L15.4294 21.1845C15.9925 20.6231 16.5962 20.021 17.0928 19.4799C17.3409 19.2096 17.5539 18.9634 17.7177 18.7522C17.8904 18.5294 17.9743 18.3884 18.0021 18.3218C18.1893 17.8733 18.2491 17.3946 18.1814 16.9391C18.1491 16.7214 18.0646 16.4822 17.8706 16.1244C17.6874 15.7863 17.43 15.3835 17.0675 14.8233L14.9589 16.9256C14.469 17.414 14.047 17.8348 13.6711 18.1594C13.5994 18.2214 13.5274 18.2816 13.4549 18.3396ZM17.547 2.75009C16.2951 2.75009 15.8776 2.7633 15.5117 2.9144C15.146 3.06541 14.8417 3.35009 13.9565 4.23268L8.10964 10.062C7.6112 10.5589 7.23335 10.9362 6.94869 11.2611C6.66269 11.5874 6.51669 11.8109 6.44571 11.9874C6.40431 12.0903 6.38789 12.1792 6.38789 12.2693C6.38789 12.4398 6.44631 12.643 6.71905 12.9994C7.00497 13.3731 7.44721 13.8162 8.10964 14.4767L8.26678 14.6333L9.79728 13.1074C10.0906 12.815 10.5655 12.8157 10.8579 13.109C11.1504 13.4024 11.1497 13.8772 10.8563 14.1697L9.32904 15.6924L9.48299 15.8459C10.1454 16.5063 10.5899 16.9473 10.9648 17.2324C11.3222 17.5043 11.5271 17.5634 11.7002 17.5634C11.785 17.5634 11.8675 17.5491 11.9599 17.5151C12.1353 17.4505 12.3589 17.3107 12.6907 17.0241C13.0213 16.7387 13.406 16.3557 13.9173 15.8459L19.7642 10.0166C20.6497 9.13374 20.9348 8.83068 21.0859 8.46692C21.237 8.10341 21.2503 7.68861 21.2503 6.44002V5.87287C21.2503 4.93878 21.2487 4.31389 21.1859 3.84835C21.1261 3.40463 21.0234 3.21946 20.9019 3.09837C20.7801 2.97697 20.5935 2.87414 20.1474 2.81434C19.6799 2.75167 19.0526 2.75009 18.1159 2.75009H17.547ZM16.664 7.32353C16.1983 6.85916 15.4422 6.85916 14.9764 7.32353C14.5119 7.78666 14.5119 8.53661 14.9764 8.99974C15.4422 9.46412 16.1983 9.46412 16.664 8.99974C17.1286 8.53661 17.1286 7.78666 16.664 7.32353ZM13.9173 6.26128C14.9685 5.21324 16.6719 5.21324 17.7231 6.26128C18.7755 7.31056 18.7755 9.01271 17.7231 10.062C16.6719 11.11 14.9685 11.11 13.9173 10.062C12.8649 9.01271 12.8649 7.31056 13.9173 6.26128Z" fill="#1C274C"/>
</svg>
