<svg width="24" height="24" viewBox="0 0 24 24" fill="none" xmlns="http://www.w3.org/2000/svg">
<path fill-rule="evenodd" clip-rule="evenodd" d="M12.4223 3.07123C12.0481 3.42653 11.5942 4.00042 10.9209 4.85639L10.5806 5.28906C10.5582 5.31757 10.5359 5.34596 10.5138 5.3742C10.2085 5.76387 9.9267 6.12349 9.53083 6.33471C9.12841 6.54943 8.67748 6.57441 8.20271 6.60071C8.16835 6.60261 8.13386 6.60452 8.09926 6.60651L7.57184 6.63684C6.52604 6.69698 5.8323 6.73909 5.34874 6.84356C4.8828 6.94422 4.81289 7.06139 4.78301 7.12156C4.74745 7.19316 4.6991 7.3445 4.89411 7.81891C5.0927 8.30205 5.46146 8.92913 6.01226 9.86018L6.29082 10.331C6.30831 10.3606 6.32572 10.3899 6.34303 10.4191C6.59763 10.8479 6.82679 11.2338 6.88708 11.6834C6.94688 12.1294 6.83064 12.5663 6.69966 13.0586C6.69075 13.0921 6.68178 13.1258 6.67278 13.1598L6.52985 13.7004C6.24752 14.7681 6.05823 15.491 5.9946 16.0208C5.93095 16.5508 6.02326 16.6697 6.06012 16.7095C6.06065 16.71 6.06121 16.7106 6.0618 16.7113C6.08615 16.7379 6.16737 16.8269 6.63397 16.773C7.08208 16.7213 7.68518 16.5627 8.56247 16.321C8.27762 16.0838 8.03066 15.8642 7.83824 15.6576C7.49827 15.2925 7.17584 14.8085 7.26492 14.1833C7.35466 13.5534 7.804 13.1828 8.23558 12.9345C8.64906 12.6965 9.22421 12.4713 9.88604 12.2122L10.3073 12.0472C10.5196 11.964 10.6378 11.9171 10.7234 11.8754C10.772 11.8517 10.7914 11.8383 10.7971 11.8338C10.8016 11.8279 10.8146 11.8084 10.8372 11.76C10.8774 11.674 10.9222 11.5554 11.0017 11.3421L11.1595 10.9187C11.4072 10.254 11.6225 9.67599 11.8536 9.25903C12.0952 8.82304 12.4584 8.36917 13.086 8.26854C13.7086 8.16874 14.1983 8.48018 14.5707 8.81299C14.9294 9.13357 15.3287 9.61137 15.7904 10.1638L16.0825 10.5134C16.2301 10.6899 16.3137 10.7891 16.382 10.8589C16.4126 10.8901 16.4313 10.9061 16.4417 10.9142C16.4466 10.9181 16.4496 10.9201 16.451 10.921L16.4536 10.9225L16.4562 10.9236C16.4577 10.9241 16.461 10.9253 16.4668 10.9269C16.4792 10.9303 16.5027 10.9357 16.5456 10.9414C16.6416 10.9543 16.77 10.9618 16.9988 10.9742L17.452 10.9987C17.6662 11.0103 17.8718 11.0214 18.0674 11.0339C18.5369 10.6206 18.8499 10.3167 19.0454 10.0614C19.2547 9.78797 19.2569 9.66436 19.2473 9.59255C19.2377 9.52137 19.2056 9.38476 18.7965 9.13466C18.3722 8.87528 17.7293 8.60536 16.7601 8.20206L16.2712 7.99861C16.2393 7.98534 16.2076 7.97219 16.1759 7.9591C15.7347 7.77654 15.3181 7.60418 15.0081 7.26957C14.7034 6.94063 14.5531 6.50962 14.389 6.03919C14.3773 6.0054 14.3654 5.97141 14.3534 5.93724L14.1704 5.41542C13.8084 4.38345 13.563 3.68957 13.3227 3.22878C13.0867 2.7763 12.9602 2.75625 12.9364 2.75248C12.9358 2.75239 12.9353 2.75231 12.9349 2.75224C12.9344 2.75216 12.9339 2.75206 12.9333 2.75194C12.911 2.74774 12.7876 2.72443 12.4223 3.07123ZM19.8918 11.3732C20.0203 11.2376 20.1358 11.1046 20.2364 10.9732C20.5797 10.5248 20.8163 10.0071 20.734 9.3932C20.6357 8.66071 20.1416 8.19889 19.5789 7.85487C19.043 7.52727 18.2899 7.2139 17.395 6.84157L16.8475 6.61374C16.2498 6.36498 16.1674 6.31375 16.1085 6.25016C16.0439 6.18051 15.9921 6.07715 15.7689 5.44077L15.5656 4.86119C15.2292 3.90189 14.9492 3.10367 14.6527 2.53514C14.3514 1.95748 13.9234 1.39902 13.1868 1.27354C12.4479 1.14768 11.861 1.53575 11.3895 1.98345C10.9263 2.42324 10.4053 3.08561 9.78011 3.88049L9.40161 4.36168C8.98583 4.89026 8.90532 4.96829 8.82471 5.01131C8.75109 5.05059 8.6591 5.07184 8.01315 5.10898L7.48573 5.13931C7.46439 5.14054 7.44313 5.14176 7.42195 5.14298C6.45709 5.19842 5.6442 5.24512 5.03199 5.37738C4.38872 5.51636 3.7692 5.79052 3.43953 6.45443C3.11554 7.10689 3.25329 7.77259 3.50674 8.38919C3.75175 8.98524 4.17837 9.70632 4.69066 10.5722L4.99981 11.0948C5.33684 11.6645 5.38582 11.7741 5.40038 11.8828C5.41546 11.9952 5.39539 12.123 5.22262 12.7764L5.0646 13.374C4.80117 14.3701 4.58296 15.1953 4.5053 15.8419C4.42619 16.5007 4.4627 17.1923 4.95976 17.7289C5.47137 18.2811 6.15998 18.3377 6.80595 18.2631C7.42627 18.1915 8.21553 17.9733 9.15285 17.7142L9.28126 17.6787L9.87886 17.3883C9.89432 17.402 9.90847 17.4148 9.9216 17.4271C9.95347 17.4571 9.9698 17.4754 9.97806 17.4856C9.98198 17.4904 9.98402 17.4934 9.9849 17.4947L9.98631 17.497L9.98734 17.4993C9.98787 17.5006 9.98906 17.5037 9.99075 17.5094C9.99431 17.5214 10 17.5446 10.0066 17.587C10.0212 17.6823 10.031 17.81 10.0476 18.038L10.0804 18.49C10.1321 19.2023 10.177 19.8199 10.2815 20.2878C10.3907 20.7768 10.6086 21.3108 11.1709 21.5932C11.7352 21.8766 12.2933 21.7295 12.7487 21.5217C13.1831 21.3234 13.6998 20.9869 14.2942 20.5998L14.6725 20.3536C14.8631 20.2294 14.9697 20.1607 15.0533 20.1154C15.0905 20.0953 15.1117 20.0862 15.1225 20.0822C15.1277 20.0803 15.1304 20.0795 15.1313 20.0792L15.1323 20.079L15.1336 20.0789C15.1348 20.0788 15.1379 20.0787 15.1438 20.0789C15.1562 20.0794 15.1801 20.0815 15.2228 20.089C15.3183 20.1059 15.4435 20.1379 15.6657 20.1958L16.1063 20.3104C16.801 20.4912 17.4026 20.6477 17.8794 20.6995C18.374 20.7533 18.957 20.7215 19.4024 20.2691C19.8484 19.816 19.8698 19.2323 19.8069 18.739C19.7463 18.2639 19.5783 17.6664 19.3846 16.9769L19.2616 16.5393C19.1996 16.3186 19.1654 16.1946 19.1467 16.0999C19.1384 16.0576 19.136 16.034 19.1353 16.0219C19.1349 16.0162 19.135 16.0132 19.135 16.0123C19.135 16.0122 19.1351 16.0113 19.1352 16.011C19.1354 16.0103 19.1361 16.0076 19.1379 16.0026C19.1417 15.9919 19.1502 15.9708 19.1697 15.9334C19.2135 15.8493 19.2804 15.7419 19.4014 15.5494L19.6415 15.1675C20.0185 14.5677 20.3465 14.046 20.5374 13.6089C20.7375 13.1506 20.8755 12.5893 20.5803 12.0298C20.4126 11.712 20.1649 11.5082 19.8918 11.3732ZM13.3019 9.74886C13.3016 9.7482 13.3053 9.74811 13.3135 9.75058C13.3062 9.75075 13.3021 9.74951 13.3019 9.74886ZM13.3261 9.75507C13.3613 9.76932 13.4375 9.81197 13.5712 9.93147C13.838 10.1699 14.167 10.5605 14.6763 11.1699L14.9316 11.4753C14.9497 11.497 14.9678 11.5189 14.9861 11.5408C15.209 11.8091 15.4468 12.0954 15.7805 12.2629C16.1148 12.4308 16.4863 12.4499 16.833 12.4676C16.8614 12.469 16.8897 12.4705 16.9177 12.472L17.3133 12.4934C18.1028 12.5361 18.6094 12.5655 18.9582 12.6365C19.1246 12.6703 19.2063 12.705 19.2428 12.7261C19.2455 12.7277 19.2479 12.7291 19.2499 12.7304C19.2498 12.7315 19.2498 12.7327 19.2497 12.734C19.2465 12.7722 19.2295 12.8557 19.1627 13.0086C19.0226 13.3295 18.7577 13.7547 18.3403 14.4188L18.1314 14.7511C18.1165 14.7749 18.1014 14.7987 18.0862 14.8228C17.9028 15.1125 17.7031 15.4281 17.6501 15.7999C17.5973 16.1701 17.6996 16.5299 17.7942 16.8626C17.8021 16.8903 17.8099 16.9178 17.8176 16.945L17.9248 17.3266C18.1388 18.0884 18.2741 18.5775 18.3189 18.9288C18.3394 19.0888 18.3342 19.1723 18.3273 19.2113C18.2884 19.219 18.2041 19.226 18.0414 19.2083C17.688 19.1699 17.195 19.0437 16.4278 18.8441L16.0434 18.7441C16.016 18.7369 15.9883 18.7297 15.9605 18.7223C15.625 18.634 15.2637 18.5388 14.8948 18.5979C14.5241 18.6574 14.2121 18.8619 13.9248 19.0502C13.901 19.0658 13.8774 19.0813 13.854 19.0965L13.5247 19.3109C12.8669 19.7393 12.4453 20.0113 12.1259 20.1571C11.9737 20.2265 11.8899 20.2452 11.8509 20.2491C11.8486 20.2494 11.8466 20.2495 11.8448 20.2496C11.8434 20.2475 11.8418 20.245 11.8399 20.242C11.8184 20.2064 11.7823 20.126 11.7454 19.9609C11.6681 19.6148 11.6295 19.1104 11.5723 18.3235L11.5436 17.9294C11.5416 17.9014 11.5397 17.8732 11.5377 17.8449C11.5136 17.4996 11.4878 17.1283 11.313 16.7971C11.1388 16.467 10.8474 16.2348 10.5747 16.0175C10.5523 15.9997 10.5301 15.9819 10.508 15.9642L10.1973 15.7152C9.57726 15.2182 9.17977 14.8972 8.93596 14.6353C8.81674 14.5073 8.77205 14.4329 8.75628 14.3974C8.78172 14.3693 8.84367 14.3151 8.98367 14.2346C9.2877 14.0597 9.7552 13.8744 10.4877 13.5875L10.8544 13.4439C10.8806 13.4336 10.9072 13.4233 10.9339 13.4129C11.2539 13.2887 11.6031 13.1533 11.8662 12.886C12.1294 12.6185 12.2591 12.2673 12.3777 11.9458C12.3876 11.9189 12.3975 11.8923 12.4073 11.8659L12.5446 11.4976C12.8188 10.7616 12.9959 10.2922 13.1656 9.98606C13.2451 9.84253 13.2987 9.78011 13.3261 9.75507ZM8.74867 14.3717C8.74933 14.3719 8.75068 14.376 8.75074 14.3833C8.74805 14.3752 8.74801 14.3715 8.74867 14.3717ZM8.7467 14.409C8.74417 14.4166 8.74131 14.4204 8.74051 14.4204C8.73971 14.4205 8.74098 14.4166 8.7467 14.409ZM18.3182 19.2404C18.3178 19.2398 18.3191 19.2354 18.3233 19.229C18.3208 19.2377 18.3187 19.241 18.3182 19.2404ZM18.345 19.2069C18.3512 19.2025 18.3555 19.2012 18.3561 19.2016C18.3566 19.202 18.3535 19.2042 18.345 19.2069ZM13.3362 9.74656C13.3439 9.74068 13.3477 9.73938 13.3477 9.7402C13.3477 9.74102 13.3439 9.74396 13.3362 9.74656Z" fill="#1C274C"/>
</svg>
