<svg width="24" height="24" viewBox="0 0 24 24" fill="none" xmlns="http://www.w3.org/2000/svg">
<path fill-rule="evenodd" clip-rule="evenodd" d="M11.4372 2.87743C11.3023 3.03335 11.1314 3.27092 10.87 3.63821L10.7181 3.85172C10.7069 3.86746 10.6953 3.88398 10.6832 3.90113C10.5571 4.08051 10.3817 4.32995 10.1166 4.48582C9.85178 4.64152 9.5486 4.6737 9.33021 4.69689C9.30931 4.69911 9.28918 4.70124 9.26994 4.7034L9.00905 4.73261C8.56267 4.78258 8.27199 4.81659 8.0698 4.85849C8.17826 5.04045 8.35485 5.28339 8.62859 5.65623L8.78571 5.87022L8.18116 6.31409L8.78571 5.87022C8.79732 5.88604 8.80949 5.90243 8.82209 5.9194C8.95508 6.09853 9.13511 6.34102 9.20265 6.63792C9.27049 6.93612 9.21205 7.2325 9.16919 7.4499C9.16514 7.47044 9.16123 7.49028 9.15757 7.50935L9.108 7.76811C9.0196 8.22962 8.96464 8.5247 8.94656 8.73421C9.14941 8.69019 9.43156 8.59976 9.8718 8.45614L10.1209 8.37488C10.1392 8.3689 10.1583 8.36255 10.1781 8.35596C10.3867 8.28661 10.6747 8.19085 10.9803 8.22239C11.284 8.25373 11.5471 8.40496 11.7395 8.51558C11.7578 8.52612 11.7755 8.5363 11.7925 8.54596L12.0228 8.67668C12.4167 8.90031 12.6752 9.04545 12.8663 9.13187C12.8828 8.92378 12.8806 8.62873 12.8752 8.17824L12.872 7.91402C12.8717 7.8945 12.8714 7.87413 12.871 7.853C12.8671 7.63174 12.8617 7.32786 12.9818 7.04658C13.1025 6.76372 13.3265 6.55822 13.4883 6.40993C13.5037 6.39581 13.5185 6.38221 13.5326 6.36911L13.7245 6.19113C14.0614 5.87861 14.2766 5.67693 14.4134 5.52185C14.2205 5.43608 13.9348 5.34111 13.4877 5.19499L13.2366 5.11295C13.2181 5.1069 13.1988 5.10071 13.1789 5.0943C12.9673 5.0264 12.68 4.9342 12.4519 4.73123C12.2244 4.52882 12.0989 4.25445 12.006 4.05153C11.9973 4.03235 11.9888 4.01381 11.9805 3.99602L11.8689 3.75531C11.6729 3.33281 11.5448 3.0602 11.4372 2.87743ZM11.5902 2.72516C11.5902 2.7252 11.5895 2.72565 11.5883 2.72642C11.5896 2.72551 11.5902 2.72513 11.5902 2.72516ZM11.3166 2.70316C11.3151 2.70193 11.3144 2.70121 11.3144 2.70116C11.3144 2.70111 11.3151 2.70172 11.3166 2.70316ZM14.5928 5.61848C14.5927 5.61849 14.592 5.61789 14.5907 5.61666C14.5922 5.61787 14.5928 5.61848 14.5928 5.61848ZM14.5359 5.3609C14.5365 5.35953 14.5368 5.35882 14.5369 5.35881C14.5369 5.3588 14.5366 5.35948 14.5359 5.3609ZM12.8313 9.35581C12.8313 9.35576 12.8317 9.35485 12.8324 9.3532C12.8317 9.35502 12.8314 9.35585 12.8313 9.35581ZM13.0763 9.20887C13.0781 9.20904 13.0791 9.2092 13.0791 9.20924L13.0763 9.20887ZM8.74665 8.76214C8.74667 8.76211 8.7475 8.76214 8.74904 8.76231L8.74665 8.76214ZM8.94388 8.93292C8.94431 8.93462 8.94446 8.93555 8.94444 8.93559L8.94388 8.93292ZM7.97232 4.66237C7.97237 4.66239 7.97265 4.66338 7.97304 4.66527C7.97247 4.66328 7.97227 4.66234 7.97232 4.66237ZM7.86048 4.91804C7.85913 4.91883 7.85838 4.9192 7.85834 4.91919C7.8583 4.91918 7.85898 4.91878 7.86048 4.91804ZM10.4278 1.75889C10.6768 1.50099 11.0608 1.20325 11.5979 1.25868C12.1298 1.31358 12.4476 1.67808 12.6435 1.97719C12.8294 2.26115 13.0109 2.65246 13.2077 3.07698C13.215 3.09263 13.2223 3.10832 13.2296 3.12405L13.3412 3.36477C13.3726 3.43238 13.3968 3.4845 13.4184 3.52924C13.4339 3.56132 13.4459 3.585 13.4554 3.60294C13.4739 3.61012 13.4983 3.61899 13.5311 3.63029C13.5778 3.64636 13.6321 3.66411 13.7026 3.68716L13.9536 3.7692C13.9702 3.7746 13.9866 3.77998 14.0031 3.78535C14.4455 3.92986 14.8541 4.06335 15.1575 4.21456C15.4791 4.37485 15.8747 4.64761 15.9929 5.16705C16.1119 5.69003 15.869 6.10654 15.6444 6.38793C15.4341 6.6515 15.1206 6.94217 14.7832 7.25507C14.7703 7.26697 14.7575 7.2789 14.7446 7.29087L14.5527 7.46885C14.4987 7.51889 14.4574 7.55726 14.4222 7.59095C14.4008 7.61144 14.3845 7.62759 14.3717 7.64056C14.371 7.65956 14.3706 7.68375 14.3705 7.71516C14.3703 7.76453 14.371 7.82166 14.3719 7.8959L14.3751 8.16011C14.3753 8.17761 14.3755 8.19507 14.3757 8.21248C14.3814 8.67777 14.3867 9.10799 14.3412 9.44306C14.2933 9.79613 14.1617 10.2665 13.6957 10.5405C13.2304 10.814 12.7556 10.7013 12.4236 10.5725C12.1079 10.45 11.7333 10.2373 11.3277 10.0069C11.3126 9.99836 11.2974 9.98976 11.2822 9.98114L11.052 9.85042C10.9873 9.8137 10.9375 9.78543 10.894 9.76166C10.8654 9.74602 10.8434 9.73443 10.8261 9.7257C10.8082 9.73056 10.7856 9.73716 10.7564 9.74618C10.7098 9.76057 10.6561 9.77807 10.5861 9.80091L10.337 9.88217C10.3204 9.88761 10.3037 9.89304 10.2871 9.89846C9.84905 10.0415 9.44243 10.1742 9.10957 10.2301C8.75429 10.2897 8.27331 10.2998 7.87362 9.94408C7.47562 9.58992 7.4274 9.11225 7.44253 8.75277C7.45677 8.41446 7.5376 7.99287 7.62498 7.53709C7.62824 7.52008 7.63151 7.50301 7.63479 7.4859L7.68436 7.22713L8.42097 7.36824L7.68436 7.22713C7.69829 7.15441 7.70898 7.09851 7.71748 7.05005C7.72331 7.0168 7.72726 6.99172 7.72993 6.97233C7.71884 6.95541 7.70397 6.93367 7.68355 6.90495C7.65476 6.86443 7.62074 6.81807 7.57661 6.75796L7.41949 6.54397L7.94582 6.15753L7.41949 6.54397C7.40922 6.52998 7.39897 6.51603 7.38876 6.50211C7.11164 6.12479 6.85622 5.77701 6.6971 5.47728C6.52975 5.16201 6.36279 4.70669 6.57317 4.21364C6.7854 3.71628 7.23359 3.52557 7.57931 3.43348C7.90513 3.34669 8.33092 3.29908 8.78977 3.24778C8.80718 3.24583 8.82464 3.24388 8.84215 3.24192L9.10304 3.21271C9.17638 3.2045 9.23267 3.19818 9.28118 3.19197C9.30985 3.1883 9.33226 3.1851 9.35007 3.18227C9.36109 3.1682 9.37464 3.15033 9.39157 3.12732C9.42049 3.08802 9.45327 3.04199 9.49599 2.98197L9.64794 2.76846C9.65817 2.7541 9.66836 2.73977 9.67853 2.72548C9.94564 2.35004 10.1937 2.00135 10.4278 1.75889ZM22.6474 9.1223C22.8561 9.48008 22.7352 9.93932 22.3774 10.148C16.6657 13.4799 15.2495 18.8591 15.2495 22.0002C15.2495 22.4144 14.9138 22.7502 14.4995 22.7502C14.0853 22.7502 13.7495 22.4144 13.7495 22.0002C13.7495 18.4746 15.3334 12.5205 21.6216 8.85236C21.9794 8.64365 22.4387 8.76451 22.6474 9.1223ZM11.2054 11.2791C11.6037 11.3928 11.8343 11.808 11.7205 12.2062C11.354 13.4889 11.2661 15.3499 11.324 17.2144C11.3813 19.0602 11.5781 20.8297 11.7406 21.8862C11.8036 22.2956 11.5228 22.6785 11.1134 22.7415C10.704 22.8045 10.3211 22.5236 10.2581 22.1142C10.0873 21.004 9.8841 19.1736 9.82473 17.261C9.76594 15.3672 9.84469 13.3115 10.2782 11.7942C10.392 11.3959 10.8071 11.1653 11.2054 11.2791Z" fill="#1C274C"/>
<path d="M4.99963 13.2676C4.99963 13.2676 5.64925 14.0154 6.22221 14.1689C6.79518 14.3225 7.73168 13.9996 7.73168 13.9996C7.73168 13.9996 6.98385 14.6492 6.83033 15.2222C6.6768 15.7952 6.99963 16.7317 6.99963 16.7317C6.99963 16.7317 6.35001 15.9839 5.77704 15.8303C5.20408 15.6768 4.26758 15.9996 4.26758 15.9996C4.26758 15.9996 5.01541 15.35 5.16893 14.777C5.32246 14.2041 4.99963 13.2676 4.99963 13.2676Z" stroke="#1C274C" stroke-linejoin="round"/>
</svg>
