<svg width="24" height="24" viewBox="0 0 24 24" fill="none" xmlns="http://www.w3.org/2000/svg">
<path d="M12.7072 12.7071C12.3167 13.0977 11.6835 13.0977 11.293 12.7071C10.9024 12.3166 10.9024 11.6834 11.293 11.2929C11.6835 10.9024 12.3167 10.9024 12.7072 11.2929C13.0977 11.6834 13.0977 12.3166 12.7072 12.7071Z" fill="#1C274C"/>
<path d="M9.87876 8.4645C9.48824 8.85502 8.85507 8.85502 8.46455 8.4645C8.07402 8.07397 8.07402 7.44081 8.46455 7.05028C8.85507 6.65976 9.48824 6.65976 9.87876 7.05028C10.2693 7.44081 10.2693 8.07397 9.87876 8.4645Z" fill="#1C274C"/>
<path d="M16.9498 15.5356C16.5593 15.9261 15.9261 15.9261 15.5356 15.5356C15.1451 15.145 15.1451 14.5119 15.5356 14.1214C15.9261 13.7308 16.5593 13.7308 16.9498 14.1214C17.3404 14.5119 17.3404 15.145 16.9498 15.5356Z" fill="#1C274C"/>
<path fill-rule="evenodd" clip-rule="evenodd" d="M8.1043 4.31696C7.15369 4.15448 6.58669 4.33195 6.28933 4.62931C6.06627 4.85237 5.91206 5.21872 5.91592 5.7984C5.91981 6.38185 6.08653 7.11932 6.43693 7.97172C7.13638 9.67325 8.50918 11.6909 10.4092 13.5909C12.3092 15.4909 14.3269 16.8637 16.0284 17.5632C16.8808 17.9136 17.6183 18.0803 18.2017 18.0842C18.7814 18.0881 19.1477 17.9338 19.3708 17.7108C19.6682 17.4134 19.8456 16.8464 19.6831 15.8958C19.5567 15.1561 19.2355 14.2749 18.7237 13.3126C18.5175 13.4193 18.2598 13.485 17.9627 13.4317C17.2419 13.3022 15.886 12.704 13.5911 10.409C11.2961 8.11408 10.6979 6.75818 10.5684 6.03741C10.5151 5.74031 10.5808 5.48262 10.6875 5.27643C9.72526 4.76463 8.84404 4.44341 8.1043 4.31696ZM11.8358 4.19751C10.6154 3.49737 9.42237 3.02051 8.35703 2.83841C7.19073 2.63905 6.02368 2.77364 5.22867 3.56865C4.63678 4.16054 4.41034 4.9663 4.41595 5.8084C4.42154 6.64674 4.65442 7.58073 5.04957 8.54202C5.84121 10.4678 7.34329 12.6463 9.34853 14.6516C11.3538 16.6568 13.5323 18.1589 15.4581 18.9505C16.4194 19.3457 17.3534 19.5786 18.1917 19.5842C19.0338 19.5898 19.8396 19.3633 20.4315 18.7714C21.2265 17.9764 21.3611 16.8094 21.1617 15.6431C20.9796 14.5777 20.5027 13.3847 19.8026 12.1643C21.1907 10.0398 20.9519 7.16326 19.0862 5.29754L18.7026 4.91395C16.8369 3.04822 13.9603 2.80941 11.8358 4.19751ZM12.0795 5.91162C12.2072 6.33133 12.7102 7.40683 14.6517 9.34838C16.5933 11.2899 17.6688 11.7929 18.0885 11.9206C19.579 10.3624 19.558 7.89071 18.0255 6.3582L17.6419 5.97461C16.1094 4.44209 13.6378 4.4211 12.0795 5.91162ZM4.75224 10.7626C5.04513 11.0555 5.04513 11.5304 4.75224 11.8233L2.63092 13.9446C2.33802 14.2375 1.86315 14.2375 1.57026 13.9446C1.27736 13.6517 1.27736 13.1768 1.57026 12.8839L3.69158 10.7626C3.98447 10.4697 4.45934 10.4697 4.75224 10.7626ZM8.28777 15.7123C8.58066 16.0052 8.58066 16.4801 8.28777 16.773L4.16645 20.8943C3.87356 21.1872 3.39868 21.1872 3.10579 20.8943C2.8129 20.6014 2.8129 20.1266 3.10579 19.8337L7.22711 15.7123C7.52 15.4195 7.99488 15.4195 8.28777 15.7123ZM13.2375 19.2479C13.5304 19.5408 13.5304 20.0156 13.2375 20.3085L11.1162 22.4299C10.8233 22.7227 10.3484 22.7227 10.0555 22.4299C9.76264 22.137 9.76264 21.6621 10.0555 21.3692L12.1769 19.2479C12.4698 18.955 12.9446 18.955 13.2375 19.2479Z" fill="#1C274C"/>
</svg>
