<svg width="24" height="24" viewBox="0 0 24 24" fill="none" xmlns="http://www.w3.org/2000/svg">
<path d="M22 22L2 22" stroke="#1C274C" stroke-width="1.5" stroke-linecap="round"/>
<path d="M20.9996 22V13M11.0039 5C11.0218 3.76022 11.1138 3.05733 11.5853 2.58579C12.1711 2 13.1139 2 14.9996 2H16.9996C18.8852 2 19.828 2 20.4138 2.58579C20.9996 3.17157 20.9996 4.11438 20.9996 6V9" stroke="#1C274C" stroke-width="1.5" stroke-linecap="round"/>
<path d="M15 22V16M3 22V13M3 9C3 7.11438 3 6.17157 3.58579 5.58579C4.17157 5 5.11438 5 7 5H11C12.8856 5 13.8284 5 14.4142 5.58579C15 6.17157 15 7.11438 15 9V12" stroke="#1C274C" stroke-width="1.5" stroke-linecap="round"/>
<path d="M9 22V19" stroke="#1C274C" stroke-width="1.5" stroke-linecap="round"/>
<path d="M6 8H12" stroke="#1C274C" stroke-width="1.5" stroke-linecap="round"/>
<path d="M6 11H7M12 11H9.5" stroke="#1C274C" stroke-width="1.5" stroke-linecap="round"/>
<path d="M6 14H12" stroke="#1C274C" stroke-width="1.5" stroke-linecap="round"/>
</svg>
