<svg width="24" height="24" viewBox="0 0 24 24" fill="none" xmlns="http://www.w3.org/2000/svg">
<path d="M3.28393 11.2661C3.15064 9.26687 3.084 8.26726 3.6768 7.63363C4.2696 7 5.27142 7 7.27507 7H12.724C14.7276 7 15.7294 7 16.3222 7.63363C16.915 8.26726 16.8484 9.26687 16.7151 11.2661L16.3729 16.3991C16.1959 19.054 16.1074 20.3815 15.2424 21.1907C14.3774 22 13.047 22 10.3862 22H9.61284C6.95204 22 5.62164 22 4.75663 21.1907C3.89162 20.3815 3.80312 19.054 3.62613 16.3991L3.28393 11.2661Z" stroke="#1C274C" stroke-width="1.5"/>
<path d="M17 17H18C20.2091 17 22 15.2091 22 13C22 10.7909 20.2091 9 18 9H17" stroke="#1C274C" stroke-width="1.5"/>
<path d="M16 18H4" stroke="#1C274C" stroke-width="1.5"/>
<path d="M6.05081 5.0614L6.46143 4.48574C6.6882 4.16781 6.61431 3.72623 6.29638 3.49945C5.97845 3.27267 5.90455 2.8311 6.13133 2.51317L6.54195 1.9375M14.0508 5.0614L14.4614 4.48574C14.6882 4.16781 14.6143 3.72623 14.2964 3.49945C13.9784 3.27267 13.9046 2.8311 14.1313 2.51317L14.5419 1.9375M10.0508 5.0614L10.4614 4.48574C10.6882 4.16781 10.6143 3.72623 10.2964 3.49945C9.97845 3.27267 9.90455 2.8311 10.1313 2.51317L10.5419 1.9375" stroke="#1C274C" stroke-width="1.5" stroke-linecap="round"/>
</svg>
