<svg width="24" height="24" viewBox="0 0 24 24" fill="none" xmlns="http://www.w3.org/2000/svg">
<path d="M2.31579 12.6978C2.26585 12.2706 2.24089 12.057 2.25139 11.8809C2.30648 10.9577 2.98726 10.1928 3.89774 10.0309C4.07143 10 4.28649 10 4.71661 10H15.2843C15.7144 10 15.9295 10 16.1032 10.0309C17.0137 10.1928 17.6944 10.9577 17.7495 11.8809C17.76 12.057 17.7351 12.2706 17.6851 12.6978L17.2845 16.1258C17.1036 17.6729 16.2769 19.0714 15.0086 19.9757C14.0741 20.6419 12.9551 21 11.8074 21H8.19352C7.04586 21 5.92679 20.6419 4.99231 19.9757C3.72401 19.0714 2.8973 17.6729 2.71647 16.1258L2.31579 12.6978Z" stroke="#1C274C" stroke-width="1.5"/>
<path d="M17 17H19C20.6569 17 22 15.6569 22 14C22 12.3431 20.6569 11 19 11H17.5" stroke="#1C274C" stroke-width="1.5"/>
<path d="M10.0002 2C9.44787 2.55228 9.44787 3.44772 10.0002 4C10.5524 4.55228 10.5524 5.44772 10.0002 6" stroke="#1C274C" stroke-width="1.5" stroke-linecap="round" stroke-linejoin="round"/>
<path d="M5.00018 7.5L5.1163 7.38388C5.62347 6.87671 5.68053 6.0738 5.25018 5.5C4.81983 4.9262 4.8769 4.12329 5.38407 3.61612L5.50018 3.5" stroke="#1C274C" stroke-width="1.5" stroke-linecap="round" stroke-linejoin="round"/>
<path d="M14.5002 7.5L14.6163 7.38388C15.1235 6.87671 15.1805 6.0738 14.7502 5.5C14.3198 4.9262 14.3769 4.12329 14.8841 3.61612L15.0002 3.5" stroke="#1C274C" stroke-width="1.5" stroke-linecap="round" stroke-linejoin="round"/>
</svg>
