<svg width="24" height="24" viewBox="0 0 24 24" fill="none" xmlns="http://www.w3.org/2000/svg">
<path fill-rule="evenodd" clip-rule="evenodd" d="M2.27683 7.93436C-0.359205 10.5704 -0.359205 14.8443 2.27683 17.4803C3.49894 18.7024 5.07487 19.3583 6.67442 19.4469C7.088 19.4699 7.44184 19.1532 7.46475 18.7396C7.48766 18.326 7.17096 17.9722 6.75738 17.9492C5.51211 17.8803 4.28862 17.3708 3.33749 16.4196C1.28724 14.3694 1.28724 11.0453 3.33749 8.99502L6.16592 6.1666C8.21617 4.11634 11.5403 4.11634 13.5905 6.1666C15.6408 8.21685 15.6408 11.541 13.5905 13.5912L12.1763 15.0054C11.8834 15.2983 11.8834 15.7732 12.1763 16.0661C12.4692 16.359 12.9441 16.359 13.237 16.0661L14.6512 14.6519C17.2872 12.0158 17.2872 7.74197 14.6512 5.10594C12.0152 2.4699 7.7413 2.4699 5.10526 5.10594L2.27683 7.93436Z" fill="#1C274C"/>
<path opacity="0.5" d="M10.4088 17.8338C8.35853 15.7835 8.35853 12.4594 10.4088 10.4091L11.823 8.99493C12.1159 8.70204 12.1159 8.22716 11.823 7.93427C11.5301 7.64138 11.0552 7.64138 10.7623 7.93427L9.34812 9.34848C6.71208 11.9845 6.71208 16.2584 9.34812 18.8944C11.9842 21.5305 16.258 21.5305 18.8941 18.8944L21.7225 16.066C24.3585 13.43 24.3585 9.15609 21.7225 6.52006C20.5004 5.29795 18.9245 4.64202 17.3249 4.55341C16.9113 4.5305 16.5575 4.8472 16.5346 5.26078C16.5117 5.67436 16.8284 6.02821 17.2419 6.05112C18.4872 6.1201 19.7107 6.62959 20.6618 7.58072C22.7121 9.63097 22.7121 12.9551 20.6618 15.0053L17.8334 17.8338C15.7832 19.884 12.459 19.884 10.4088 17.8338Z" fill="#1C274C"/>
</svg>
