<svg width="24" height="24" viewBox="0 0 24 24" fill="none" xmlns="http://www.w3.org/2000/svg">
<g opacity="0.5">
<path d="M19.99 3.9909C18.4373 2.46971 16.3087 2.41169 15.2253 3.47306L11.5252 7.09803C11.2294 7.3879 10.7545 7.38304 10.4646 7.08715C10.1748 6.79127 10.1796 6.31643 10.4755 6.02655L14.1756 2.40158C16.0115 0.602909 19.0893 1.00858 21.0397 2.91943C22.9928 4.83295 23.4181 7.87497 21.5683 9.68728L18.6611 12.5355C18.3652 12.8254 17.8904 12.8205 17.6005 12.5246C17.3106 12.2288 17.3155 11.7539 17.6113 11.464L20.5185 8.61581C21.588 7.56808 21.5399 5.50942 19.99 3.9909Z" fill="#1C274C"/>
<path d="M6.72792 12.5058C7.00738 12.2 6.98606 11.7256 6.68032 11.4462C6.37457 11.1667 5.90018 11.188 5.62073 11.4938L4.35987 12.8733C2.63303 14.7626 3.01021 17.9266 4.86421 19.955C6.72938 21.9956 9.73466 22.4592 11.5192 20.5068L15.554 16.0924C15.8334 15.7866 15.8121 15.3122 15.5064 15.0328C15.2006 14.7533 14.7262 14.7746 14.4468 15.0804L10.412 19.4948C9.41116 20.5898 7.44876 20.5593 5.97141 18.943C4.4829 17.3145 4.40847 15.0434 5.46706 13.8852L6.72792 12.5058Z" fill="#1C274C"/>
</g>
<path d="M6.62424 3.58405C6.39448 3.23941 5.92882 3.14628 5.58418 3.37604C5.23953 3.60581 5.1464 4.07146 5.37617 4.4161L7.37617 7.4161C7.60593 7.76075 8.07158 7.85388 8.41623 7.62412C8.76088 7.39435 8.85401 6.9287 8.62424 6.58405L6.62424 3.58405Z" fill="#1C274C"/>
<path d="M2.23737 7.28857C1.84442 7.15758 1.41968 7.36995 1.28869 7.76291C1.15771 8.15587 1.37008 8.58061 1.76303 8.71159L7.76303 10.7116C8.15599 10.8426 8.58073 10.6302 8.71172 10.2373C8.8427 9.84429 8.63033 9.41955 8.23737 9.28857L2.23737 7.28857Z" fill="#1C274C"/>
</svg>
