<svg width="24" height="24" viewBox="0 0 24 24" fill="none" xmlns="http://www.w3.org/2000/svg">
<path d="M3.67981 11.3333H2.92981V11.3333H3.67981ZM3.67981 13L3.15157 13.5324C3.44398 13.8225 3.91565 13.8225 4.20805 13.5324L3.67981 13ZM5.88787 11.8657C6.18191 11.574 6.18377 11.0991 5.89203 10.8051C5.60029 10.511 5.12542 10.5092 4.83138 10.8009L5.88787 11.8657ZM2.52824 10.8009C2.2342 10.5092 1.75933 10.511 1.46759 10.8051C1.17585 11.0991 1.17772 11.574 1.47176 11.8657L2.52824 10.8009ZM18.6156 7.39279C18.8325 7.74565 19.2944 7.85585 19.6473 7.63892C20.0001 7.42199 20.1103 6.96007 19.8934 6.60721L18.6156 7.39279ZM16.8931 3.60787C16.5403 3.39077 16.0784 3.50074 15.8613 3.8535C15.6442 4.20626 15.7541 4.66822 16.1069 4.88532L16.8931 3.60787ZM12.4633 3.75939C12.877 3.77966 13.2288 3.46071 13.2491 3.047C13.2694 2.63328 12.9504 2.28146 12.5367 2.26119L12.4633 3.75939ZM12.0789 2.25C7.03155 2.25 2.92981 6.3112 2.92981 11.3333H4.42981C4.42981 7.15072 7.84884 3.75 12.0789 3.75V2.25ZM2.92981 11.3333L2.92981 13H4.42981L4.42981 11.3333H2.92981ZM4.20805 13.5324L5.88787 11.8657L4.83138 10.8009L3.15157 12.4676L4.20805 13.5324ZM4.20805 12.4676L2.52824 10.8009L1.47176 11.8657L3.15157 13.5324L4.20805 12.4676ZM19.8934 6.60721C19.1441 5.38846 18.1143 4.35941 16.8931 3.60787L16.1069 4.88532C17.1287 5.51419 17.9899 6.37506 18.6156 7.39279L19.8934 6.60721ZM12.5367 2.26119C12.385 2.25376 12.2323 2.25 12.0789 2.25V3.75C12.2078 3.75 12.336 3.75316 12.4633 3.75939L12.5367 2.26119Z" fill="#1C274C"/>
<path d="M11.8827 21V21.75V21ZM20.3139 12.6667H21.0639H20.3139ZM20.3139 11L20.8411 10.4666C20.549 10.1778 20.0788 10.1778 19.7867 10.4666L20.3139 11ZM18.1004 12.1333C17.8058 12.4244 17.8031 12.8993 18.0942 13.1939C18.3854 13.4885 18.8603 13.4913 19.1549 13.2001L18.1004 12.1333ZM21.4729 13.2001C21.7675 13.4913 22.2424 13.4885 22.5335 13.1939C22.8247 12.8993 22.822 12.4244 22.5274 12.1332L21.4729 13.2001ZM5.31794 16.6061C5.1004 16.2536 4.6383 16.1442 4.28581 16.3618C3.93331 16.5793 3.82391 17.0414 4.04144 17.3939L5.31794 16.6061ZM11.5333 20.2423C11.1195 20.224 10.7692 20.5447 10.751 20.9585C10.7327 21.3723 11.0534 21.7226 11.4672 21.7408L11.5333 20.2423ZM7.11316 20.4296C7.46795 20.6433 7.92886 20.529 8.14264 20.1742C8.35642 19.8195 8.24211 19.3586 7.88733 19.1448L7.11316 20.4296ZM11.8827 21.75C16.9451 21.75 21.0639 17.6915 21.0639 12.6667H19.5639C19.5639 16.8466 16.1332 20.25 11.8827 20.25V21.75ZM21.0639 12.6667V11H19.5639V12.6667H21.0639ZM19.7867 10.4666L18.1004 12.1333L19.1549 13.2001L20.8411 11.5334L19.7867 10.4666ZM19.7867 11.5334L21.4729 13.2001L22.5274 12.1332L20.8411 10.4666L19.7867 11.5334ZM11.4672 21.7408C11.605 21.7469 11.7435 21.75 11.8827 21.75V20.25C11.7656 20.25 11.6491 20.2474 11.5333 20.2423L11.4672 21.7408ZM4.04144 17.3939C4.80594 18.6327 5.86131 19.6752 7.11316 20.4296L7.88733 19.1448C6.83897 18.5131 5.95626 17.6405 5.31794 16.6061L4.04144 17.3939Z" fill="#1C274C"/>
</svg>
