<svg width="24" height="24" viewBox="0 0 24 24" fill="none" xmlns="http://www.w3.org/2000/svg">
<path fill-rule="evenodd" clip-rule="evenodd" d="M20.5274 10.3733C20.1567 9.73139 19.4774 9.52036 18.8289 9.42968C18.1752 9.33827 17.3003 9.3383 16.2421 9.33834L16.1819 9.33834C15.5518 9.33834 15.1398 9.33212 14.8397 9.2904C14.5683 9.25266 14.482 9.1968 14.4452 9.16422C14.4182 9.13611 14.3701 9.07038 14.3374 8.83341C14.2988 8.554 14.2971 8.17086 14.2971 7.55679V7.1823C14.2972 5.59478 14.2972 4.32304 14.175 3.41636C14.0603 2.56529 13.7877 1.60945 12.8435 1.3201C11.9159 1.03584 11.1379 1.64539 10.5332 2.27381C9.88893 2.94325 9.12364 3.9787 8.16547 5.27514L5.02848 9.51945C4.41814 10.3452 3.90935 11.0335 3.6062 11.6027C3.30231 12.1733 3.08115 12.8507 3.41823 13.5265L3.4194 13.529L3.42296 13.5363L3.42699 13.5443L3.43097 13.5519L3.43532 13.5601L3.43974 13.5682L3.44392 13.5758L3.44835 13.5835L3.4524 13.5904L3.45389 13.5929C3.82139 14.2294 4.49776 14.4522 5.15212 14.5521C5.82644 14.655 6.72622 14.6616 7.81746 14.6616C8.45407 14.6616 8.85999 14.6631 9.15811 14.7011C9.42147 14.7347 9.50022 14.7864 9.53399 14.8163C9.56389 14.8475 9.61633 14.9205 9.65331 15.166C9.69563 15.4471 9.70227 15.8361 9.70226 16.4432L9.70226 16.8175C9.70221 18.4051 9.70217 19.6769 9.82434 20.5836C9.93901 21.4346 10.2116 22.3905 11.1558 22.6798C12.0834 22.9641 12.8614 22.3546 13.4662 21.7261C14.1104 21.0567 14.8757 20.0212 15.8339 18.7248L18.9333 14.5314C19.5641 13.678 20.0829 12.965 20.3888 12.3716C20.6882 11.7908 20.8971 11.1094 20.5631 10.4398L20.562 10.4374L20.5584 10.4301L20.5543 10.4221L20.5503 10.4144L20.546 10.4062L20.5415 10.398L20.5373 10.3904L20.5329 10.3827L20.5288 10.3757L20.5274 10.3733ZM11.614 3.31392C11.046 3.90411 10.3383 4.85903 9.33451 6.21708L6.27237 10.3601C5.61468 11.25 5.17464 11.8487 4.93013 12.3078C4.81112 12.5313 4.76644 12.6722 4.75372 12.7576C4.74586 12.8103 4.75066 12.8341 4.75693 12.8493C4.78112 12.885 4.88614 12.9941 5.37851 13.0693C5.91641 13.1514 6.68983 13.1616 7.81746 13.1616L7.86344 13.1616C8.44057 13.1616 8.94344 13.1616 9.34782 13.2131C9.781 13.2684 10.2113 13.3939 10.5676 13.729L10.5734 13.7345L10.5791 13.7401C10.9291 14.0837 11.0714 14.5097 11.1366 14.9427C11.1989 15.3565 11.2023 15.8656 11.2023 16.4432L11.2023 16.7528C11.2022 18.4197 11.2039 19.5892 11.3109 20.3833C11.3642 20.7787 11.4359 21.0106 11.5045 21.1401C11.5559 21.2372 11.5855 21.2435 11.5938 21.2453L11.5953 21.2457L11.5968 21.2462C11.6073 21.2498 11.6441 21.2625 11.7578 21.2053C11.8998 21.1339 12.1027 20.9798 12.3854 20.686C12.9533 20.0958 13.6611 19.1409 14.6649 17.7828L17.727 13.6399C18.381 12.7551 18.8167 12.1476 19.0556 11.6842C19.2603 11.2871 19.238 11.1526 19.2244 11.1169C19.2019 11.0841 19.1011 10.9823 18.6212 10.9152C18.0841 10.8401 17.3156 10.8383 16.1819 10.8383C15.5791 10.8383 15.0562 10.8349 14.6332 10.7761C14.1963 10.7154 13.765 10.5839 13.4118 10.2517L13.406 10.2462L13.4003 10.2406C13.0471 9.89394 12.9109 9.46849 12.8515 9.03862C12.797 8.6443 12.7971 8.15598 12.7971 7.60514L12.7971 7.24709C12.7971 5.5802 12.7954 4.41074 12.6884 3.61668C12.6352 3.22128 12.5635 2.98935 12.4949 2.85983C12.4434 2.76277 12.4138 2.75641 12.4055 2.75463L12.404 2.75427L12.4025 2.75377C12.392 2.75015 12.3552 2.73743 12.2415 2.79463C12.0995 2.86608 11.8967 3.02017 11.614 3.31392Z" fill="#1C274C"/>
</svg>
