<svg width="24" height="24" viewBox="0 0 24 24" fill="none" xmlns="http://www.w3.org/2000/svg">
<path fill-rule="evenodd" clip-rule="evenodd" d="M21.0362 2.88398C21.3291 3.17687 21.3291 3.65174 21.0362 3.94464L19.4036 5.57726C20.6347 7.27255 20.6064 9.59817 19.3185 11.2644L19.3224 11.2965L19.2906 11.3003C19.2905 11.3004 19.2906 11.3002 19.2906 11.3003C19.3226 11.2965 19.3224 11.2964 19.3224 11.2965L19.3229 11.301L19.3238 11.3091L19.3268 11.3363C19.3292 11.3591 19.3324 11.3913 19.336 11.4323C19.3433 11.5144 19.3525 11.6319 19.3606 11.7807C19.3769 12.0782 19.3893 12.5016 19.3751 13.0167C19.3466 14.0444 19.2116 15.4512 18.7811 16.9571C18.4901 17.975 18.0371 18.9821 17.5721 19.8627C16.411 22.0618 13.7394 22.7186 11.696 21.6757L11.6711 21.6629L10.5509 20.9814C7.44096 19.0895 4.83042 16.479 2.93853 13.3691L2.25712 12.2489L2.2444 12.224C1.2014 10.1807 1.85821 7.50904 4.05731 6.34792C4.93799 5.88293 5.94507 5.42997 6.96295 5.13898C8.46888 4.70847 9.87561 4.57343 10.9033 4.54497C11.4185 4.5307 11.8419 4.54313 12.1393 4.55943C12.2881 4.56759 12.4057 4.57673 12.4878 4.58404C12.5288 4.58769 12.561 4.59089 12.5838 4.59328L12.6109 4.59622L12.6191 4.59715L12.6218 4.59746L12.6228 4.59758C12.6229 4.59759 12.6233 4.59764 12.6195 4.63008C12.6194 4.63013 12.6196 4.63003 12.6195 4.63008L12.6228 4.59758L12.656 4.60156C14.3223 3.31392 16.6477 3.28555 18.3429 4.5166L19.9755 2.88398C20.2684 2.59108 20.7433 2.59108 21.0362 2.88398ZM12.1973 6.06581C12.1554 6.06293 12.1087 6.06 12.0572 6.05718C11.7954 6.04283 11.4136 6.03141 10.9449 6.0444C10.0048 6.07043 8.7288 6.19426 7.37524 6.58121C6.49137 6.83389 5.58461 7.23776 4.75767 7.67438C3.35105 8.41707 2.88464 10.1486 3.56852 11.5185L4.22003 12.5895C5.98718 15.4944 8.4256 17.9328 11.3305 19.6999L12.4016 20.3515C13.7714 21.0354 15.503 20.569 16.2457 19.1624C16.6823 18.3354 17.0862 17.4287 17.3388 16.5448C17.7258 15.1912 17.8496 13.9153 17.8757 12.9752C17.8886 12.5064 17.8772 12.1246 17.8629 11.8628C17.8601 11.8114 17.8571 11.7646 17.8542 11.7228L12.1973 6.06581ZM18.3231 10.0703L13.8499 5.59715C15.1029 4.82305 16.7676 4.97932 17.8542 6.06596C18.9409 7.15262 19.0972 8.81738 18.3231 10.0703Z" fill="#1C274C"/>
</svg>
