<svg width="24" height="24" viewBox="0 0 24 24" fill="none" xmlns="http://www.w3.org/2000/svg">
<path d="M10.926 2.36009C11.2794 2.57613 11.3907 3.03777 11.1747 3.39117C11.0179 3.64763 11.0572 3.97809 11.2697 4.19063L11.3676 4.28851C11.9563 4.87716 12.1733 5.74194 11.9325 6.53882C11.8126 6.93531 11.394 7.15957 10.9975 7.03972C10.601 6.91987 10.3768 6.50129 10.4966 6.10479C10.5775 5.83721 10.5046 5.54683 10.307 5.34917L10.2091 5.25129C9.50655 4.54877 9.37668 3.45646 9.89488 2.6088C10.1109 2.25539 10.5726 2.14404 10.926 2.36009Z" fill="#1C274C"/>
<path d="M17.6887 4.72158C18.0949 4.80282 18.3583 5.19793 18.2771 5.6041L18.1331 6.32404C17.9349 7.31485 17.221 8.12352 16.2625 8.44305C15.8145 8.59236 15.481 8.97023 15.3884 9.43321L15.2444 10.1531C15.1631 10.5593 14.768 10.8227 14.3619 10.7415C13.9557 10.6603 13.6923 10.2651 13.7735 9.85897L13.9175 9.13904C14.1157 8.14822 14.8295 7.33955 15.7881 7.02003C16.236 6.87072 16.5696 6.49285 16.6622 6.02987L16.8062 5.30993C16.8874 4.90376 17.2826 4.64035 17.6887 4.72158Z" fill="#1C274C"/>
<path fill-rule="evenodd" clip-rule="evenodd" d="M11.718 8.81296C10.8994 7.99427 10.2248 7.31964 9.63847 6.88493C9.0327 6.43581 8.35947 6.11932 7.58417 6.30234C6.80887 6.48537 6.34826 7.06952 6.0073 7.74214C5.67728 8.39317 5.37562 9.29823 5.00953 10.3966L3.27949 15.5867C2.83615 16.9167 2.47638 17.9959 2.32751 18.8327C2.1773 19.6771 2.19245 20.534 2.82856 21.1701C3.46466 21.8062 4.32152 21.8214 5.16592 21.6712C6.00274 21.5223 7.08192 21.1625 8.41179 20.7192L13.602 18.9891C14.7004 18.6231 15.6055 18.3214 16.2565 17.9914C16.9291 17.6504 17.5133 17.1898 17.6963 16.4145C17.8793 15.6392 17.5629 14.966 17.1137 14.3602C16.679 13.7739 16.0044 13.0993 15.1857 12.2806L11.718 8.81296ZM8.69373 8.05238C8.7105 8.06442 8.72762 8.07692 8.7451 8.08988C9.23121 8.45028 9.82753 9.04378 10.7017 9.91796L11.4615 10.6777C11.4464 10.7171 11.4298 10.7615 11.4118 10.8107C11.3348 11.0219 11.2334 11.3227 11.1325 11.6907C10.9316 12.4228 10.7267 13.4401 10.7267 14.5554C10.7267 15.6175 10.9325 16.635 11.1315 17.3748C11.2144 17.6829 11.2974 17.9476 11.3666 18.1531L8.73194 19.0314C8.72108 18.9821 8.70906 18.9271 8.69604 18.8669C8.63512 18.5852 8.55264 18.191 8.46659 17.7418C8.29285 16.8347 8.11083 15.7353 8.0551 14.8854C7.96305 13.4816 8.14288 11.6497 8.3555 10.1343C8.4608 9.38393 8.57215 8.72443 8.65715 8.25282C8.66999 8.18157 8.68222 8.11465 8.69373 8.05238ZM6.95384 9.35351C6.79551 9.78389 6.62169 10.3036 6.41272 10.9305L4.72323 15.9989C4.25425 17.4059 3.93158 18.3801 3.80432 19.0955C3.67611 19.8162 3.79544 20.0157 3.88922 20.1094C3.983 20.2032 4.18243 20.3226 4.90321 20.1943C5.4936 20.0893 6.26037 19.8512 7.30119 19.5075C7.28333 19.428 7.25898 19.3182 7.22994 19.184C7.16712 18.8935 7.08214 18.4874 6.99338 18.024C6.8175 17.1058 6.62043 15.9308 6.55831 14.9835C6.45566 13.4181 6.65492 11.4591 6.87006 9.92589C6.89777 9.72838 6.92588 9.53704 6.95384 9.35351ZM12.7897 17.6788L13.0682 17.5859C14.241 17.195 15.0386 16.9271 15.5783 16.6534C16.1082 16.3848 16.2055 16.2008 16.2364 16.0699C16.2674 15.9389 16.2626 15.7308 15.9088 15.2536C15.5484 14.7675 14.9549 14.1711 14.0807 13.297L12.6441 11.8604C12.6227 11.9322 12.6009 12.008 12.579 12.0876C12.4008 12.7371 12.2267 13.6152 12.2267 14.5554C12.2267 15.174 12.3118 15.7903 12.4247 16.3342C12.4729 16.5662 12.5262 16.785 12.58 16.9852C12.6544 17.2618 12.7287 17.4982 12.7897 17.6788Z" fill="#1C274C"/>
<path d="M20.3301 12.7299C20.6255 12.4679 21.0461 12.4015 21.4078 12.5597L21.6993 12.6871C22.0788 12.8531 22.521 12.6799 22.6869 12.3004C22.8529 11.9209 22.6797 11.4787 22.3002 11.3127L22.0087 11.1853C21.1113 10.7929 20.0677 10.9577 19.3349 11.6076C19.0087 11.8968 18.534 11.9449 18.1565 11.7269L17.9436 11.604C17.5849 11.3969 17.1262 11.5198 16.9191 11.8785C16.712 12.2372 16.8349 12.6959 17.1936 12.903L17.4065 13.0259C18.3432 13.5667 19.5208 13.4475 20.3301 12.7299Z" fill="#1C274C"/>
<path d="M13.9784 4.05788C13.8622 4.09472 13.7617 4.19525 13.5606 4.39631C13.3595 4.59737 13.259 4.69789 13.2222 4.81413C13.191 4.91245 13.191 5.018 13.2222 5.11632C13.259 5.23255 13.3595 5.33308 13.5606 5.53414C13.7617 5.7352 13.8622 5.83572 13.9784 5.87257C14.0767 5.90374 14.1823 5.90374 14.2806 5.87257C14.3968 5.83572 14.4974 5.7352 14.6984 5.53414C14.8995 5.33308 15 5.23255 15.0369 5.11632C15.068 5.018 15.068 4.91245 15.0369 4.81413C15 4.69789 14.8995 4.59737 14.6984 4.39631C14.4974 4.19525 14.3968 4.09472 14.2806 4.05788C14.1823 4.02671 14.0767 4.02671 13.9784 4.05788Z" fill="#1C274C"/>
<path d="M19.4679 7.46821C19.7132 7.22282 19.8359 7.10012 19.9744 7.04679C20.1363 6.98438 20.3157 6.98438 20.4777 7.04679C20.6161 7.10012 20.7388 7.22282 20.9842 7.46821C21.2296 7.7136 21.3523 7.8363 21.4056 7.97471C21.468 8.13669 21.468 8.31608 21.4056 8.47806C21.3523 8.61647 21.2296 8.73917 20.9842 8.98456C20.7388 9.22995 20.6161 9.35264 20.4777 9.40598C20.3157 9.46839 20.1363 9.46839 19.9744 9.40598C19.8359 9.35264 19.7132 9.22995 19.4679 8.98456C19.2225 8.73917 19.0998 8.61647 19.0464 8.47806C18.984 8.31608 18.984 8.13669 19.0464 7.97471C19.0998 7.8363 19.2225 7.7136 19.4679 7.46821Z" fill="#1C274C"/>
<path d="M7.68555 3.94078C7.47608 3.73131 7.13647 3.73131 6.927 3.94078C6.71753 4.15025 6.71753 4.48986 6.927 4.69933C7.13647 4.9088 7.47608 4.9088 7.68555 4.69933C7.89502 4.48986 7.89502 4.15025 7.68555 3.94078Z" fill="#1C274C"/>
<path d="M19.0579 15.3133C19.2673 15.1039 19.6069 15.1039 19.8164 15.3133C20.0259 15.5228 20.0259 15.8624 19.8164 16.0719C19.6069 16.2814 19.2673 16.2814 19.0579 16.0719C18.8484 15.8624 18.8484 15.5228 19.0579 15.3133Z" fill="#1C274C"/>
<path d="M18.2582 9.74143C18.0487 9.53196 17.7091 9.53196 17.4996 9.74143C17.2902 9.9509 17.2902 10.2905 17.4996 10.5C17.7091 10.7095 18.0487 10.7095 18.2582 10.5C18.4677 10.2905 18.4677 9.9509 18.2582 9.74143Z" fill="#1C274C"/>
</svg>
