<svg width="24" height="24" viewBox="0 0 24 24" fill="none" xmlns="http://www.w3.org/2000/svg">
<path fill-rule="evenodd" clip-rule="evenodd" d="M10.7064 1.24992C9.61863 1.2494 8.86268 1.24904 8.1713 1.53542C7.47993 1.8218 6.94564 2.35659 6.17684 3.12613L3.12625 6.17672C2.35671 6.94552 1.82192 7.47981 1.53554 8.17118C1.24916 8.86256 1.24952 9.61851 1.25004 10.7063V13.2937C1.24952 14.3814 1.24916 15.1374 1.53554 15.8288C1.82192 16.5201 2.35671 17.0544 3.12624 17.8232L6.17683 20.8738C6.94564 21.6433 7.47992 22.1781 8.1713 22.4645C8.86268 22.7509 9.61863 22.7505 10.7064 22.75H13.2938C14.3815 22.7505 15.1375 22.7509 15.8289 22.4645C16.5202 22.1781 17.0545 21.6434 17.8233 20.8738L20.8739 17.8232C21.6435 17.0544 22.1783 16.5201 22.4646 15.8288C22.751 15.1374 22.7507 14.3814 22.7501 13.2937V10.7063C22.7507 9.61851 22.751 8.86256 22.4646 8.17118C22.1783 7.4798 21.6435 6.94552 20.8739 6.17672L17.8233 3.12612C17.0545 2.35659 16.5202 1.82179 15.8289 1.53542C15.1375 1.24904 14.3815 1.2494 13.2938 1.24992H10.7064ZM8.74533 2.92124C9.12676 2.76324 9.56156 2.74997 10.849 2.74997H13.1512C14.4386 2.74997 14.8734 2.76324 15.2549 2.92124C15.6363 3.07923 15.9531 3.37729 16.8635 4.28766L17.7576 5.18179L5.1818 17.7574L4.28778 16.8634C3.37742 15.953 3.07936 15.6362 2.92136 15.2547C2.76336 14.8733 2.75009 14.4385 2.75009 13.151V10.8489C2.75009 9.56144 2.76336 9.12664 2.92136 8.74521C3.07936 8.36377 3.37742 8.04694 4.28778 7.13657L7.1367 4.28766C8.04706 3.37729 8.36389 3.07923 8.74533 2.92124ZM6.24246 18.818L7.1367 19.7123C8.04706 20.6226 8.36389 20.9207 8.74533 21.0787C9.12676 21.2367 9.56156 21.25 10.849 21.25H13.1512C14.4386 21.25 14.8734 21.2367 15.2549 21.0787C15.6363 20.9207 15.9531 20.6226 16.8635 19.7123L19.7124 16.8634C20.6228 15.953 20.9208 15.6362 21.0788 15.2547C21.2368 14.8733 21.2501 14.4385 21.2501 13.151V10.8489C21.2501 9.56144 21.2368 9.12664 21.0788 8.74521C20.9208 8.36377 20.6228 8.04694 19.7124 7.13657L18.8183 6.24245L6.24246 18.818Z" fill="#1C274C"/>
</svg>
