<svg width="24" height="24" viewBox="0 0 24 24" fill="none" xmlns="http://www.w3.org/2000/svg">
<path fill-rule="evenodd" clip-rule="evenodd" d="M11.9506 10.25H12.0494C12.7142 10.25 13.2871 10.25 13.7458 10.3117C13.9888 10.3443 14.2268 10.3972 14.4515 10.4885C14.4574 10.4822 14.4635 10.4759 14.4697 10.4697L15.4697 9.46972C15.7626 9.17682 16.2374 9.17682 16.5303 9.46972C16.8232 9.76261 16.8232 10.2375 16.5303 10.5304L15.5303 11.5304C15.5241 11.5366 15.5179 11.5426 15.5115 11.5486C15.6028 11.7733 15.6557 12.0113 15.6884 12.2542C15.7501 12.713 15.75 13.2858 15.75 13.9507V14.0494C15.75 14.7143 15.7501 15.2871 15.6884 15.7459C15.6557 15.9888 15.6028 16.2268 15.5115 16.4515C15.5179 16.4575 15.5241 16.4635 15.5303 16.4697L16.5303 17.4697C16.8232 17.7626 16.8232 18.2375 16.5303 18.5304C16.2374 18.8233 15.7626 18.8233 15.4697 18.5304L14.4697 17.5304L14.4626 17.5232L14.4515 17.5115C14.2268 17.6029 13.9888 17.6558 13.7458 17.6884C13.2871 17.7501 12.7142 17.7501 12.0494 17.7501H11.9506C11.2858 17.7501 10.7129 17.7501 10.2542 17.6884C10.0112 17.6558 9.77323 17.6029 9.54852 17.5115C9.54258 17.5179 9.53652 17.5242 9.53033 17.5304L8.53033 18.5304C8.23744 18.8233 7.76256 18.8233 7.46967 18.5304C7.17678 18.2375 7.17678 17.7626 7.46967 17.4697L8.46967 16.4697C8.47587 16.4635 8.48214 16.4575 8.4885 16.4515C8.39719 16.2268 8.34427 15.9888 8.31161 15.7459C8.24993 15.2872 8.24996 14.7143 8.25 14.0494V13.9507C8.24996 13.2858 8.24993 12.7129 8.31161 12.2542C8.34427 12.0113 8.39719 11.7733 8.4885 11.5486C8.48214 11.5426 8.47587 11.5366 8.46967 11.5304L7.46967 10.5304C7.17678 10.2375 7.17678 9.76261 7.46967 9.46972C7.76256 9.17682 8.23744 9.17682 8.53033 9.46972L9.53033 10.4697C9.53653 10.4759 9.54259 10.4822 9.54852 10.4885C9.77324 10.3972 10.0112 10.3443 10.2542 10.3117C10.7129 10.25 11.2858 10.25 11.9506 10.25ZM10.454 11.7983C10.1287 11.842 10.0268 11.9126 9.96967 11.9697C9.91258 12.0268 9.84197 12.1288 9.79823 12.4541C9.75159 12.801 9.75 13.2717 9.75 14C9.75 14.7284 9.75159 15.1991 9.79823 15.546C9.84197 15.8713 9.91258 15.9733 9.96967 16.0304C10.0268 16.0875 10.1287 16.1581 10.454 16.2018C10.8009 16.2485 11.2717 16.25 12 16.25C12.7283 16.25 13.1991 16.2485 13.546 16.2018C13.8713 16.1581 13.9732 16.0875 14.0303 16.0304C14.0874 15.9733 14.158 15.8713 14.2018 15.546C14.2484 15.1991 14.25 14.7284 14.25 14C14.25 13.2717 14.2484 12.801 14.2018 12.4541C14.158 12.1288 14.0874 12.0268 14.0303 11.9697C13.9732 11.9126 13.8713 11.842 13.546 11.7983C13.1991 11.7516 12.7283 11.75 12 11.75C11.2717 11.75 10.8009 11.7516 10.454 11.7983Z" fill="#1C274C"/>
<path fill-rule="evenodd" clip-rule="evenodd" d="M18.1215 2.37824C19.2746 2.15124 20.2973 2.18477 21.1755 2.8199C22.0497 3.4522 22.4147 4.41646 22.5843 5.59325C22.75 6.7428 22.75 8.25938 22.75 10.1692V15.9375C22.75 17.3333 22.75 18.4554 22.6337 19.3373C22.5133 20.2507 22.2561 21.0185 21.6567 21.6295C21.0554 22.2425 20.2964 22.5074 19.3937 22.6311C18.5257 22.7501 17.4226 22.7501 16.0558 22.75H7.94423C6.57742 22.7501 5.47426 22.7501 4.60634 22.6311C3.70357 22.5074 2.94457 22.2425 2.34327 21.6295C1.74394 21.0185 1.48674 20.2507 1.36627 19.3373C1.24997 18.4554 1.24998 17.3333 1.25 15.9375V13.044C1.24999 12.0323 1.24997 11.2114 1.32373 10.5465C1.40054 9.85408 1.56346 9.25676 1.93766 8.71908C2.31266 8.18024 2.81458 7.82377 3.43435 7.51913C3.67957 7.3986 3.95362 7.28144 4.25685 7.16189C4.25233 7.12861 4.25 7.09465 4.25 7.06013L4.25 7.01926C4.24998 6.40163 4.24996 5.87729 4.29681 5.45339C4.34625 5.00601 4.4555 4.57881 4.7388 4.20221C4.86504 4.03439 5.01262 3.88376 5.17795 3.75436C5.55101 3.46236 5.97608 3.34911 6.4199 3.29807C6.83796 3.24999 7.35416 3.25002 7.95798 3.25004L8.90696 3.24999C9.32558 3.24958 9.67679 3.24924 9.98489 3.33345C10.6457 3.51406 11.1854 3.96852 11.4874 4.5659L13.8275 3.73094C15.5932 3.10092 16.9995 2.59911 18.1215 2.37824ZM18.4112 3.84999C17.4122 4.04666 16.1113 4.5087 14.2699 5.16571L6.26994 8.02013C5.28321 8.3722 4.60299 8.61612 4.09604 8.8653C3.60704 9.10566 3.34709 9.3198 3.16885 9.57592C2.9898 9.83319 2.87609 10.1574 2.81459 10.7119C2.75107 11.2845 2.75 12.022 2.75 13.087V15.8834C2.75 17.3459 2.75154 18.3688 2.8534 19.1412C2.95261 19.8934 3.13474 20.2943 3.41409 20.5791C3.69147 20.8619 4.07892 21.0448 4.81003 21.145C5.56422 21.2484 6.56418 21.25 8 21.25H16C17.4358 21.25 18.4358 21.2484 19.19 21.145C19.9211 21.0448 20.3085 20.8619 20.5859 20.5791C20.8653 20.2943 21.0474 19.8934 21.1466 19.1412C21.2485 18.3688 21.25 17.3459 21.25 15.8834V10.2326C21.25 8.2451 21.2481 6.83717 21.0997 5.80728C20.9533 4.79194 20.6862 4.31729 20.2964 4.03532C19.9104 3.75618 19.3921 3.6569 18.4112 3.84999ZM10.0445 5.08073C9.92734 4.93511 9.76844 4.82931 9.58942 4.78038C9.50288 4.75673 9.3746 4.75004 8.81818 4.75004H8C7.34251 4.75004 6.91342 4.7512 6.59127 4.78825C6.28522 4.82344 6.17009 4.88264 6.10247 4.93557C6.04089 4.98377 5.98536 5.04031 5.9375 5.10394C5.88265 5.17685 5.82282 5.30067 5.78773 5.61817C5.75994 5.86963 5.7526 6.18374 5.75068 6.61278L10.0445 5.08073Z" fill="#1C274C"/>
</svg>
