<svg width="24" height="24" viewBox="0 0 24 24" fill="none" xmlns="http://www.w3.org/2000/svg">
<path d="M12.7501 10C12.7501 9.58582 12.4143 9.25003 12.0001 9.25003C11.5859 9.25003 11.2501 9.58582 11.2501 10L11.2501 12.2501H9.00011C8.58589 12.2501 8.25011 12.5858 8.25011 13.0001C8.25011 13.4143 8.58589 13.7501 9.00011 13.7501H11.2501V16C11.2501 16.4142 11.5859 16.75 12.0001 16.75C12.4143 16.75 12.7501 16.4142 12.7501 16L12.7501 13.7501H15.0001C15.4143 13.7501 15.7501 13.4143 15.7501 13.0001C15.7501 12.5858 15.4143 12.2501 15.0001 12.2501H12.7501V10Z" fill="#1C274C"/>
<path fill-rule="evenodd" clip-rule="evenodd" d="M12 1.25024C11.2749 1.25024 10.6134 1.44936 9.88928 1.78735C9.18832 2.11453 8.37772 2.5974 7.36183 3.20257L5.90622 4.06967C4.78711 4.73631 3.89535 5.26751 3.22015 5.77549C2.52314 6.29987 1.99999 6.83985 1.65907 7.55096C1.31799 8.26243 1.22554 9.00704 1.25519 9.87609C1.2839 10.7173 1.43105 11.7399 1.61556 13.0221L1.90792 15.0539C2.14531 16.7038 2.33368 18.0131 2.61512 19.0324C2.90523 20.0832 3.31686 20.9172 4.05965 21.5568C4.80184 22.1958 5.68984 22.4817 6.77634 22.6179C7.83154 22.7503 9.16281 22.7503 10.8423 22.7502H13.1577C14.8372 22.7503 16.1685 22.7503 17.2237 22.6179C18.3102 22.4817 19.1982 22.1958 19.9404 21.5568C20.6831 20.9172 21.0948 20.0832 21.3849 19.0324C21.6663 18.0131 21.8547 16.7038 22.0921 15.054L22.3844 13.0221C22.569 11.7399 22.7161 10.7173 22.7448 9.87609C22.7745 9.00704 22.682 8.26243 22.3409 7.55096C22 6.83985 21.4769 6.29987 20.7799 5.77549C20.1047 5.26751 19.2129 4.73631 18.0938 4.06967L16.6382 3.20257C15.6223 2.5974 14.8117 2.11453 14.1107 1.78735C13.3866 1.44936 12.7251 1.25024 12 1.25024ZM8.09558 4.51146C9.15309 3.88151 9.89923 3.43805 10.5237 3.14658C11.1328 2.86228 11.5708 2.75024 12 2.75024C12.4293 2.75024 12.8672 2.86228 13.4763 3.14658C14.1008 3.43805 14.8469 3.8815 15.9044 4.51145L17.2893 5.33639C18.4536 6.02997 19.2752 6.52058 19.8781 6.97415C20.4665 7.41686 20.7888 7.78319 20.9883 8.19941C21.1877 8.61529 21.2706 9.09361 21.2457 9.82493C21.2201 10.5748 21.0856 11.5166 20.8936 12.8513L20.6148 14.7887C20.3683 16.5018 20.1921 17.7165 19.939 18.6332C19.6916 19.5291 19.3939 20.0479 18.9616 20.4201C18.5287 20.7928 17.9676 21.0129 17.037 21.1296C16.086 21.2489 14.8488 21.2502 13.1061 21.2502H10.8939C9.15124 21.2502 7.91405 21.2489 6.963 21.1296C6.03246 21.0129 5.47129 20.7928 5.03841 20.4201C4.60614 20.0479 4.30838 19.5291 4.06102 18.6332C3.80791 17.7165 3.6317 16.5018 3.3852 14.7886L3.10643 12.8513C2.91437 11.5165 2.77991 10.5748 2.75432 9.82493C2.72937 9.09361 2.81229 8.61529 3.01167 8.19941C3.21121 7.78319 3.53347 7.41686 4.12194 6.97415C4.72482 6.52058 5.54643 6.02997 6.71074 5.33639L8.09558 4.51146Z" fill="#1C274C"/>
</svg>
