<svg width="24" height="24" viewBox="0 0 24 24" fill="none" xmlns="http://www.w3.org/2000/svg">
<path fill-rule="evenodd" clip-rule="evenodd" d="M17.5445 1.49832C16.8282 1.08854 16.0626 1.24479 15.3442 1.54047C14.6383 1.83102 13.7695 2.34555 12.7081 2.97416L12.0809 3.34563C11.3945 3.75213 11.2344 3.82987 11.0789 3.84934C10.929 3.86812 10.7691 3.8349 10.0277 3.60677L9.34784 3.39756C8.20602 3.04616 7.26532 2.75665 6.52152 2.64661C5.75022 2.5325 4.98831 2.57903 4.38127 3.13463C3.77833 3.68648 3.65513 4.44206 3.68543 5.22685C3.71481 5.98791 3.8987 6.96754 4.12283 8.16157L4.25551 8.86849C4.40009 9.63887 4.41825 9.81323 4.38198 9.97239C4.34485 10.1353 4.24776 10.2938 3.78001 10.9428L3.35188 11.5368C2.6249 12.5455 2.03114 13.3693 1.67362 14.0513C1.30975 14.7455 1.08308 15.49 1.40261 16.2434C1.72724 17.0088 2.42652 17.3419 3.17556 17.5271C3.9034 17.7071 4.88891 17.7973 6.08562 17.9068L6.79861 17.972C7.57888 18.0435 7.73685 18.0739 7.85993 18.1443C7.982 18.2142 8.08634 18.3327 8.53903 18.9668L8.95296 19.5467C9.64665 20.5184 10.2187 21.3198 10.7405 21.855C11.2796 22.408 11.9192 22.8381 12.7435 22.7349C13.5535 22.6334 14.0882 22.072 14.5139 21.4112C14.9312 20.7634 15.3543 19.8418 15.8723 18.7135L16.1774 18.0491C16.2873 17.8096 16.3708 17.6313 16.4378 17.4959C16.4482 17.5077 16.459 17.5191 16.4702 17.5303L20.4702 21.5303C20.7631 21.8232 21.2379 21.8232 21.5308 21.5303C21.8237 21.2374 21.8237 20.7626 21.5308 20.4697L17.6864 16.6252C17.7098 16.617 17.7338 16.6086 17.7585 16.5999L18.4415 16.3607C19.598 15.9557 20.5451 15.6241 21.2238 15.2693C21.9211 14.9048 22.5196 14.4232 22.7009 13.6277C22.8844 12.8225 22.5403 12.1399 22.0541 11.534C21.5856 10.9501 20.8618 10.2871 19.9844 9.48345L19.4609 9.00396C18.8897 8.48074 18.7834 8.36207 18.7264 8.22768C18.6674 8.08867 18.6549 7.9168 18.667 7.12281L18.678 6.39753C18.6966 5.17338 18.7119 4.16956 18.6127 3.41727C18.5115 2.64981 18.2634 1.90963 17.5445 1.49832ZM13.4182 4.29692C14.5472 3.62834 15.3222 3.17164 15.9151 2.92758C16.5076 2.68372 16.7024 2.74471 16.7996 2.80029C16.8941 2.85436 17.0429 2.98607 17.1256 3.61337C17.2086 4.24281 17.197 5.1348 17.1772 6.43853L17.1652 7.2197C17.1551 7.82676 17.1465 8.3444 17.3454 8.81337C17.5462 9.28666 17.9248 9.63246 18.3617 10.0314L18.4477 10.1101L18.9229 10.5454C19.8607 11.4044 20.4967 11.9899 20.8842 12.4728C21.2626 12.9444 21.2702 13.1549 21.2384 13.2944C21.2044 13.4437 21.0919 13.6457 20.529 13.94C19.9588 14.238 19.1167 14.5349 17.887 14.9656L17.1543 15.2221C16.5757 15.424 16.0919 15.5927 15.7127 15.9398C15.335 16.2855 15.1207 16.7537 14.8626 17.3177L14.5348 18.0317C13.9848 19.2296 13.6052 20.052 13.2529 20.599C12.902 21.1436 12.6936 21.2294 12.5571 21.2465C12.435 21.2618 12.2383 21.2426 11.8145 20.8079C11.383 20.3653 10.8771 19.6604 10.1356 18.6217L9.75986 18.0953L9.69098 17.9986C9.34806 17.5166 9.0492 17.0966 8.60483 16.8424C8.16141 16.5887 7.64691 16.5424 7.0543 16.4891L6.93534 16.4783L6.28746 16.419C5.00931 16.302 4.13919 16.2202 3.53565 16.071C2.94015 15.9237 2.82855 15.7638 2.78355 15.6577C2.73345 15.5396 2.70079 15.3227 3.00217 14.7477C3.304 14.1719 3.83298 13.4348 4.60487 12.3638L5.06546 11.7249C5.42874 11.2221 5.73095 10.8039 5.84449 10.3057C5.95883 9.80394 5.8638 9.30117 5.75102 8.70448L5.6087 7.94674C5.37011 6.67548 5.2089 5.80578 5.18431 5.16897C5.16014 4.54279 5.27895 4.34645 5.39402 4.24113C5.50498 4.13957 5.69932 4.04129 6.30199 4.13046C6.9188 4.22171 7.74928 4.47506 8.96851 4.85024L9.69709 5.07456C10.2657 5.25041 10.7547 5.40167 11.2654 5.33772C11.7709 5.2744 12.2158 5.01007 12.7427 4.6971L13.4182 4.29692Z" fill="#1C274C"/>
</svg>
