<svg width="24" height="24" viewBox="0 0 24 24" fill="none" xmlns="http://www.w3.org/2000/svg">
<path d="M8.09559 4.51146C9.1531 3.88151 9.89924 3.43805 10.5237 3.14658C11.1328 2.86228 11.5708 2.75024 12 2.75024C12.4293 2.75024 12.8672 2.86228 13.4763 3.14658C14.1008 3.43805 14.8469 3.8815 15.9044 4.51145L17.2893 5.33639C18.4536 6.02997 19.2752 6.52058 19.8781 6.97414C20.4665 7.41686 20.7888 7.78319 20.9883 8.19941C21.1877 8.61529 21.2706 9.09361 21.2457 9.82493C21.2201 10.5748 21.0856 11.5166 20.8936 12.8513L20.6148 14.7887C20.3683 16.5018 20.1921 17.7165 19.939 18.6332C19.6916 19.5291 19.3939 20.0479 18.9616 20.4201C18.5671 20.7598 18.0668 20.972 17.2809 21.0953C16.4753 21.2217 15.4369 21.2457 13.998 21.2495C13.5838 21.2506 13.2489 21.5873 13.25 22.0015C13.2511 22.4157 13.5878 22.7506 14.002 22.7495C15.423 22.7457 16.5758 22.7243 17.5135 22.5772C18.4709 22.4269 19.2661 22.1373 19.9404 21.5568C20.6832 20.9172 21.0948 20.0832 21.3849 19.0324C21.6663 18.0131 21.8547 16.7038 22.0921 15.054L22.3844 13.0222C22.569 11.7399 22.7161 10.7173 22.7448 9.87609C22.7745 9.00704 22.682 8.26243 22.3409 7.55096C22 6.83985 21.4769 6.29987 20.7799 5.77548C20.1047 5.26751 19.2129 4.7363 18.0938 4.06966L16.6382 3.20257C15.6223 2.5974 14.8117 2.11453 14.1107 1.78735C13.3866 1.44936 12.7251 1.25024 12 1.25024C11.275 1.25024 10.6134 1.44936 9.88929 1.78735C9.18833 2.11453 8.37773 2.5974 7.36184 3.20257L5.90625 4.06966C4.78713 4.7363 3.89537 5.26751 3.22016 5.77549C2.52315 6.29987 2 6.83985 1.65908 7.55096C1.29689 8.30646 1.21512 9.0994 1.26203 10.0377C1.28271 10.4514 1.63484 10.77 2.04853 10.7493C2.46223 10.7286 2.78084 10.3765 2.76016 9.9628C2.71962 9.15196 2.80019 8.64056 3.01168 8.19941C3.21122 7.78319 3.53348 7.41686 4.12195 6.97415C4.72483 6.52058 5.54644 6.02997 6.71076 5.33639L8.09559 4.51146Z" fill="#1C274C"/>
<path d="M2.00011 12.25C1.5859 12.25 1.25011 12.5858 1.25011 13C1.25011 13.4142 1.5859 13.75 2.00011 13.75C6.55646 13.75 10.2501 17.4437 10.2501 22C10.2501 22.4142 10.5859 22.75 11.0001 22.75C11.4143 22.75 11.7501 22.4142 11.7501 22C11.7501 16.6153 7.38489 12.25 2.00011 12.25Z" fill="#1C274C"/>
<path d="M1.25011 16C1.25011 15.5858 1.5859 15.25 2.00011 15.25C5.72804 15.25 8.75011 18.2721 8.75011 22C8.75011 22.4142 8.41433 22.75 8.00011 22.75C7.5859 22.75 7.25011 22.4142 7.25011 22C7.25011 19.1005 4.89961 16.75 2.00011 16.75C1.5859 16.75 1.25011 16.4142 1.25011 16Z" fill="#1C274C"/>
<path d="M2.00011 18.25C1.5859 18.25 1.25011 18.5858 1.25011 19C1.25011 19.4142 1.5859 19.75 2.00011 19.75C3.24276 19.75 4.25011 20.7574 4.25011 22C4.25011 22.4142 4.5859 22.75 5.00011 22.75C5.41433 22.75 5.75011 22.4142 5.75011 22C5.75011 19.929 4.07118 18.25 2.00011 18.25Z" fill="#1C274C"/>
</svg>
