<svg width="24" height="24" viewBox="0 0 24 24" fill="none" xmlns="http://www.w3.org/2000/svg">
<path fill-rule="evenodd" clip-rule="evenodd" d="M5.11686 7.75164C5.53016 7.72409 5.88754 8.03679 5.91509 8.45009L6.37503 15.3492C6.46489 16.6971 6.52892 17.6349 6.66948 18.3405C6.80583 19.0249 6.99617 19.3872 7.26958 19.643C7.54299 19.8988 7.91715 20.0646 8.60915 20.1552C9.32255 20.2485 10.2626 20.25 11.6134 20.25H12.3868C13.7376 20.25 14.6776 20.2485 15.391 20.1552C16.083 20.0646 16.4572 19.8988 16.7306 19.643C17.004 19.3872 17.1943 19.0249 17.3307 18.3405C17.4713 17.6349 17.5353 16.6971 17.6251 15.3492L18.0851 8.45009C18.1126 8.03679 18.47 7.72409 18.8833 7.75164C19.2966 7.77919 19.6093 8.13657 19.5818 8.54987L19.1183 15.5016C19.0328 16.7844 18.9638 17.8205 18.8018 18.6336C18.6334 19.4789 18.347 20.1849 17.7554 20.7384C17.1638 21.2919 16.4402 21.5307 15.5856 21.6425C14.7635 21.75 13.7251 21.75 12.4395 21.75H11.5607C10.2751 21.75 9.23664 21.75 8.4146 21.6425C7.55995 21.5307 6.8364 21.2919 6.2448 20.7384C5.65321 20.1849 5.36679 19.4789 5.19839 18.6336C5.03642 17.8205 4.96736 16.7843 4.88186 15.5016L4.41841 8.54987C4.39086 8.13657 4.70357 7.77919 5.11686 7.75164Z" fill="#1C274C"/>
<path fill-rule="evenodd" clip-rule="evenodd" d="M10.3553 2.24998L10.3094 2.24996C10.093 2.24982 9.90445 2.2497 9.72643 2.27813C9.02313 2.39043 8.41453 2.82909 8.08559 3.46078C8.00232 3.62067 7.94282 3.79957 7.87452 4.0049L7.86 4.04852L7.76291 4.33978C7.74392 4.39675 7.73863 4.41245 7.73402 4.42518C7.55891 4.90929 7.10488 5.23653 6.59023 5.24958C6.5767 5.24992 6.56013 5.24998 6.50008 5.24998H3.5C3.08579 5.24998 2.75 5.58576 2.75 5.99998C2.75 6.41419 3.08579 6.74998 3.5 6.74998L6.50865 6.74998L6.52539 6.74998H17.4748L17.4915 6.74998L20.5001 6.74998C20.9143 6.74998 21.2501 6.41419 21.2501 5.99998C21.2501 5.58576 20.9143 5.24998 20.5001 5.24998H17.5001C17.44 5.24998 17.4235 5.24992 17.4099 5.24958C16.8953 5.23653 16.4413 4.90927 16.2661 4.42516C16.2616 4.41252 16.2562 4.39647 16.2373 4.33978L16.1402 4.04852L16.1256 4.00488C16.0573 3.79955 15.9978 3.62067 15.9146 3.46078C15.5856 2.82909 14.977 2.39043 14.2737 2.27813C14.0957 2.2497 13.9072 2.24982 13.6908 2.24996L13.6448 2.24998H10.3553ZM9.14458 4.93542C9.10531 5.04398 9.05966 5.14895 9.00815 5.24998H14.992C14.9405 5.14896 14.8949 5.04399 14.8556 4.93544L14.8169 4.8221L14.7171 4.52286C14.626 4.24934 14.605 4.19357 14.5842 4.15358C14.4745 3.94301 14.2716 3.7968 14.0372 3.75936C13.9927 3.75225 13.9331 3.74998 13.6448 3.74998H10.3553C10.067 3.74998 10.0075 3.75225 9.96296 3.75936C9.72853 3.7968 9.52566 3.94301 9.41601 4.15358C9.39519 4.19357 9.37419 4.24935 9.28302 4.52286L9.18322 4.82228C9.1682 4.86736 9.1565 4.90245 9.14458 4.93542Z" fill="#1C274C"/>
</svg>
