<svg width="24" height="24" viewBox="0 0 24 24" fill="none" xmlns="http://www.w3.org/2000/svg">
<path fill-rule="evenodd" clip-rule="evenodd" d="M8.92062 7.29287C9.31115 7.15483 9.73964 7.35953 9.87768 7.75007C10.1869 8.62497 11.0214 9.25 11.9998 9.25C12.9783 9.25 13.8128 8.62497 14.122 7.75007C14.26 7.35953 14.6885 7.15483 15.0791 7.29287C15.4696 7.43091 15.6743 7.8594 15.5363 8.24993C15.0218 9.70541 13.6338 10.75 11.9998 10.75C10.3659 10.75 8.97786 9.70541 8.46342 8.24993C8.32539 7.8594 8.53008 7.43091 8.92062 7.29287ZM12.3602 5.5H11.6391C10.0133 5.5 8.93116 5.50267 8.11162 5.60393C7.33329 5.70009 6.97453 5.86728 6.72277 6.07623C6.47101 6.28517 6.24056 6.60698 6.00261 7.35425C5.75205 8.14109 5.55001 9.20417 5.25039 10.8021C4.83041 13.042 4.54884 14.5634 4.49882 15.7093C4.45061 16.8139 4.6357 17.2835 4.89558 17.5966C5.15547 17.9097 5.58288 18.1782 6.6774 18.3344C7.81292 18.4964 9.36014 18.5 11.6391 18.5H12.3602C14.6392 18.5 16.1864 18.4964 17.3219 18.3344C18.4164 18.1782 18.8438 17.9097 19.1037 17.5966C19.3636 17.2835 19.5487 16.8139 19.5005 15.7093C19.4505 14.5634 19.1689 13.042 18.7489 10.8021C18.4493 9.20417 18.2473 8.14109 17.9967 7.35425C17.7587 6.60698 17.5283 6.28517 17.2765 6.07623C17.0248 5.86728 16.666 5.70009 15.8877 5.60393C15.0681 5.50267 13.986 5.5 12.3602 5.5ZM5.76481 4.92196C4.65392 5.84393 4.3613 7.40452 3.77608 10.5257C2.95316 14.9146 2.5417 17.1091 3.74132 18.5545C4.94094 20 7.17365 20 11.6391 20H12.3602C16.8257 20 19.0584 20 20.258 18.5545C21.4576 17.1091 21.0461 14.9146 20.2232 10.5257C19.638 7.40452 19.3454 5.84393 18.2345 4.92196C17.1236 4 15.5358 4 12.3602 4H11.6391C8.4635 4 6.87571 4 5.76481 4.92196Z" fill="#1C274C"/>
</svg>
