<svg width="24" height="24" viewBox="0 0 24 24" fill="none" xmlns="http://www.w3.org/2000/svg">
<path fill-rule="evenodd" clip-rule="evenodd" d="M11.9996 2.75C10.757 2.75 9.74963 3.75736 9.74963 5V5.25988C10.3067 5.24999 10.918 5.24999 11.5888 5.25H12.4105C13.0813 5.24999 13.6926 5.24999 14.2496 5.25988V5C14.2496 3.75736 13.2423 2.75 11.9996 2.75ZM15.7496 5.32793V5C15.7496 2.92893 14.0707 1.25 11.9996 1.25C9.92856 1.25 8.24963 2.92893 8.24963 5V5.32793C8.1069 5.34021 7.96898 5.35444 7.8357 5.3709C6.82573 5.49569 5.99311 5.75783 5.28581 6.34483C4.57852 6.93183 4.16743 7.70189 3.85865 8.67156C3.55942 9.61128 3.33291 10.8194 3.04817 12.3381L3.02749 12.4484C2.62569 14.5912 2.30905 16.2799 2.25094 17.6112C2.19138 18.9758 2.39439 20.106 3.16417 21.0335C3.93394 21.961 5.00736 22.3689 6.35956 22.5618C7.67877 22.75 9.39688 22.75 11.577 22.75H12.4222C14.6023 22.75 16.3205 22.75 17.6397 22.5618C18.9919 22.3689 20.0653 21.961 20.8351 21.0335C21.6049 20.106 21.8079 18.9758 21.7483 17.6112C21.6902 16.2799 21.3736 14.5912 20.9718 12.4484L20.9511 12.3381C20.6664 10.8194 20.4398 9.61129 20.1406 8.67156C19.8318 7.70189 19.4207 6.93183 18.7134 6.34483C18.0062 5.75783 17.1735 5.49569 16.1636 5.3709C16.0303 5.35444 15.8924 5.34021 15.7496 5.32793ZM8.01963 6.85959C7.16409 6.96529 6.64737 7.16413 6.24377 7.49909C5.84016 7.83406 5.5495 8.30528 5.28794 9.12669C5.02008 9.96788 4.80933 11.0846 4.51322 12.6639C4.09749 14.8811 3.80241 16.4647 3.74951 17.6766C3.69752 18.8679 3.88858 19.5576 4.31843 20.0756C4.74828 20.5935 5.39102 20.9084 6.57144 21.0768C7.77235 21.2482 9.38322 21.25 11.639 21.25H12.3602C14.616 21.25 16.2269 21.2482 17.4278 21.0768C18.6082 20.9084 19.251 20.5935 19.6808 20.0756C20.1107 19.5576 20.3017 18.8679 20.2497 17.6766C20.1968 16.4647 19.9018 14.8811 19.486 12.6639C19.1899 11.0846 18.9792 9.96788 18.7113 9.12669C18.4498 8.30528 18.1591 7.83406 17.7555 7.49909C17.3519 7.16413 16.8352 6.96529 15.9796 6.85959C15.1035 6.75133 13.967 6.75 12.3602 6.75H11.639C10.0322 6.75 8.89578 6.75133 8.01963 6.85959Z" fill="#1C274C"/>
<path fill-rule="evenodd" clip-rule="evenodd" d="M14.9782 10.3689C14.9701 10.3712 14.9379 10.381 14.8681 10.4114C14.7601 10.4585 14.6179 10.5293 14.3934 10.6416L13.0767 11.2999C12.9809 11.3478 12.9263 11.3753 12.8856 11.3974C12.8602 11.4113 12.8499 11.418 12.8473 11.4197C12.7989 11.4569 12.7658 11.5105 12.7542 11.5704C12.7538 11.5735 12.7524 11.5857 12.7514 11.6146C12.7497 11.6609 12.7496 11.722 12.7496 11.8291C12.7496 12.0801 12.7499 12.2389 12.7561 12.3566C12.7601 12.4326 12.7658 12.4658 12.7672 12.4741C12.8079 12.5767 12.9112 12.6405 13.0211 12.631C13.0291 12.6286 13.0614 12.6189 13.1312 12.5884C13.2392 12.5413 13.3814 12.4705 13.6059 12.3583L14.9226 11.6999C15.0184 11.652 15.073 11.6246 15.1136 11.6025C15.1391 11.5886 15.1494 11.5819 15.1519 11.5801C15.2003 11.543 15.2334 11.4894 15.2451 11.4295C15.2455 11.4264 15.2468 11.4142 15.2479 11.3852C15.2495 11.339 15.2496 11.2779 15.2496 11.1708C15.2496 10.9198 15.2494 10.7609 15.2432 10.6433C15.2392 10.5672 15.2335 10.534 15.232 10.5258C15.1914 10.4232 15.0881 10.3594 14.9782 10.3689ZM14.7969 8.87975C15.6033 8.78569 16.3685 9.25862 16.645 10.022C16.713 10.2098 16.7325 10.4001 16.7411 10.5645C16.7496 10.7264 16.7496 10.9253 16.7496 11.152V11.1708C16.7496 11.1843 16.7496 11.1979 16.7497 11.2116C16.7499 11.3735 16.7501 11.5452 16.7184 11.7109C16.6376 12.1332 16.4041 12.511 16.0626 12.7721C15.9285 12.8746 15.7748 12.9512 15.6299 13.0234C15.6177 13.0295 15.6055 13.0355 15.5934 13.0416L14.26 13.7083C14.0571 13.8097 13.8793 13.8987 13.7306 13.9635C13.5797 14.0292 13.4008 14.097 13.2024 14.1201C13.0489 14.138 12.897 14.1354 12.7496 14.1141V16.9999C12.7496 18.5187 11.5184 19.7499 9.99963 19.7499C8.48085 19.7499 7.24963 18.5187 7.24963 16.9999C7.24963 15.4811 8.48085 14.2499 9.99963 14.2499C10.4497 14.2499 10.8746 14.3581 11.2496 14.5498V11.9999C11.2495 11.9508 11.2496 11.9 11.2496 11.8478V11.8291C11.2496 11.8156 11.2496 11.802 11.2496 11.7883C11.2494 11.6264 11.2491 11.4547 11.2808 11.289C11.3617 10.8667 11.5951 10.4889 11.9367 10.2278C12.0707 10.1253 12.2244 10.0487 12.3693 9.97651C12.3816 9.97041 12.3938 9.96434 12.4059 9.95829L13.7393 9.29156C13.9421 9.19015 14.12 9.10121 14.2687 9.03641C14.4195 8.97064 14.5984 8.9029 14.7969 8.87975ZM11.2496 16.9999C11.2496 16.3096 10.69 15.7499 9.99963 15.7499C9.30927 15.7499 8.74963 16.3096 8.74963 16.9999C8.74963 17.6903 9.30927 18.2499 9.99963 18.2499C10.69 18.2499 11.2496 17.6903 11.2496 16.9999Z" fill="#1C274C"/>
</svg>
