<svg width="24" height="24" viewBox="0 0 24 24" fill="none" xmlns="http://www.w3.org/2000/svg">
<path d="M18 8C18 11.3137 15.3137 14 12 14C8.68629 14 6 11.3137 6 8C6 4.68629 8.68629 2 12 2C15.3137 2 18 4.68629 18 8Z" stroke="#1C274C" stroke-width="1.5"/>
<path d="M6.5 10.1895C3.91216 10.8555 2 13.2047 2 16.0004C2 19.3141 4.68629 22.0004 8 22.0004C11.3137 22.0004 14 19.3141 14 16.0004C14 15.2457 13.8607 14.5236 13.6063 13.8583" stroke="#1C274C" stroke-width="1.5"/>
<path opacity="0.5" d="M12 20.4726C13.0615 21.4227 14.4633 22.0004 16 22.0004C19.3137 22.0004 22 19.3141 22 16.0004C22 13.2047 20.0878 10.8555 17.5 10.1895" stroke="#1C274C" stroke-width="1.5"/>
</svg>
