<svg width="24" height="24" viewBox="0 0 24 24" fill="none" xmlns="http://www.w3.org/2000/svg">
<path fill-rule="evenodd" clip-rule="evenodd" d="M15.6015 2.40043C15.3817 2.18066 15.1052 2.19033 14.9536 2.21044C14.8102 2.22946 14.6385 2.27833 14.4749 2.32489L14.3489 2.36069L14.2464 2.29606C14.1079 2.20853 13.959 2.1145 13.8266 2.05694C13.6772 1.99202 13.4251 1.91816 13.1602 2.05738C12.9004 2.19394 12.8148 2.43841 12.7795 2.59398C12.7473 2.73553 12.7335 2.91255 12.7205 3.08089L12.7105 3.20839L12.7097 3.21902L12.5981 3.31087C12.4648 3.42054 12.3265 3.53435 12.2284 3.6416C12.1244 3.75522 11.9642 3.9687 12.0049 4.26594C12.047 4.57333 12.2696 4.73272 12.4087 4.80986C12.5347 4.87971 12.7004 4.94088 12.855 4.99789L12.9638 5.0381L13.004 5.14696C13.061 5.30146 13.1222 5.46726 13.1921 5.59322C13.2692 5.73232 13.4286 5.95492 13.736 5.99701C14.0332 6.03771 14.2467 5.87748 14.3603 5.77355C14.4676 5.67544 14.5814 5.53711 14.691 5.40381L14.7829 5.29224L14.7935 5.2914L14.921 5.28146C15.0894 5.26838 15.2664 5.25463 15.4079 5.22244C15.5635 5.18707 15.808 5.10156 15.9445 4.84173C16.0838 4.57684 16.0099 4.32472 15.945 4.17536C15.8874 4.04294 15.7934 3.89408 15.7059 3.75551L15.6412 3.65305L15.677 3.52704C15.7236 3.36344 15.7725 3.1917 15.7915 3.04836C15.8116 2.89668 15.8213 2.62019 15.6015 2.40043ZM14.702 3.29995L14.624 3.3221L14.6034 3.32814C14.528 3.35054 14.3709 3.39723 14.2072 3.37481C14.0396 3.35187 13.9009 3.26183 13.8366 3.22013L13.8195 3.20908L13.7185 3.14536L13.7075 3.28623L13.706 3.30775C13.7007 3.38704 13.6899 3.54701 13.6136 3.69232C13.5382 3.83572 13.4139 3.93583 13.3511 3.98647L13.3338 4.00045L13.2431 4.0752L13.3205 4.10382L13.3396 4.11066C13.4113 4.13604 13.5695 4.19206 13.6897 4.31225C13.8099 4.43244 13.8659 4.59064 13.8913 4.66229L13.8981 4.68138L13.9267 4.75886L14.0015 4.66808L14.0154 4.65083C14.0661 4.58798 14.1662 4.46372 14.3096 4.38836C14.4549 4.31198 14.6149 4.30126 14.6942 4.29595L14.7157 4.29444L14.8566 4.28343L14.7928 4.18245L14.7818 4.16528C14.7401 4.10103 14.6501 3.9623 14.6271 3.79474C14.6047 3.63098 14.6514 3.47388 14.6738 3.39848L14.6798 3.37789L14.702 3.29995Z" fill="#1C274C"/>
<path d="M10.4351 3.1704C10.6512 2.81699 10.5398 2.35536 10.1864 2.13931C9.83302 1.92326 9.37139 2.03462 9.15534 2.38802C8.63713 3.23569 8.76701 4.32799 9.46953 5.03051L9.56741 5.12839C9.76508 5.32606 9.83796 5.61644 9.75708 5.88402C9.63723 6.28052 9.86149 6.6991 10.258 6.81895C10.6545 6.9388 11.0731 6.71454 11.1929 6.31804C11.4338 5.52117 11.2167 4.65639 10.6281 4.06773L10.5302 3.96985C10.3177 3.75731 10.2784 3.42685 10.4351 3.1704Z" fill="#1C274C"/>
<path d="M7.68629 3.94081C7.47682 3.73134 7.1372 3.73134 6.92773 3.94081C6.71826 4.15028 6.71826 4.48989 6.92773 4.69936C7.1372 4.90883 7.47682 4.90883 7.68629 4.69936C7.89575 4.48989 7.89575 4.15028 7.68629 3.94081Z" fill="#1C274C"/>
<path d="M18.2776 5.60415C18.3588 5.19798 18.0954 4.80286 17.6892 4.72163C17.283 4.64039 16.8879 4.9038 16.8067 5.30997L16.6627 6.02991C16.5701 6.49289 16.2365 6.87076 15.7886 7.02007C14.83 7.3396 14.1161 8.14827 13.918 9.13908L13.774 9.85902C13.6928 10.2652 13.9562 10.6603 14.3623 10.7415C14.7685 10.8228 15.1636 10.5594 15.2449 10.1532L15.3889 9.43326C15.4814 8.97027 15.815 8.5924 16.2629 8.4431C17.2215 8.12357 17.9354 7.3149 18.1336 6.32408L18.2776 5.60415Z" fill="#1C274C"/>
<path fill-rule="evenodd" clip-rule="evenodd" d="M22.5236 8.84228C22.7795 9.39619 22.6068 10.025 22.1397 10.4922C21.8688 10.7631 21.5058 10.8858 21.1825 10.9432C20.8518 11.0021 20.5022 11.0032 20.196 10.9836C19.8867 10.9638 19.6032 10.9215 19.3981 10.8847C19.2951 10.8662 19.2106 10.8488 19.151 10.8358L19.1047 10.8255L19.0808 10.8201L19.0611 10.8154L19.0553 10.814L19.0534 10.8135C19.0533 10.8135 19.0523 10.8133 19.1724 10.3279L19.0523 10.8133C18.8723 10.7687 18.7316 10.6279 18.687 10.4478L18.6864 10.4451L18.685 10.4393L18.6803 10.4195C18.6764 10.4028 18.671 10.3792 18.6645 10.3494C18.6516 10.2898 18.6342 10.2052 18.6157 10.1022C18.5788 9.89718 18.5366 9.61361 18.5168 9.30437C18.4972 8.99812 18.4983 8.64856 18.5571 8.31786C18.6146 7.99459 18.7373 7.63158 19.0082 7.3607C19.4753 6.89356 20.1042 6.7209 20.6581 6.97675C21.0782 7.17083 21.3515 7.56361 21.4545 8.0459C21.9367 8.14883 22.3295 8.42211 22.5236 8.84228ZM19.5961 9.90423C19.7742 9.93562 20.0095 9.96961 20.2599 9.98564C20.5232 10.0025 20.7852 9.99821 21.0074 9.95869C21.237 9.91785 21.3683 9.84932 21.4325 9.78506C21.6753 9.54231 21.6567 9.35033 21.6158 9.26161C21.5712 9.16523 21.4116 8.99879 21.0018 8.99989C20.8687 9.00024 20.741 8.94754 20.6469 8.85344C20.5528 8.75935 20.5001 8.63162 20.5005 8.49855C20.5016 8.08875 20.3351 7.9291 20.2387 7.88458C20.15 7.84361 19.958 7.82505 19.7153 8.06781C19.651 8.13206 19.5825 8.26332 19.5417 8.49295C19.5021 8.71514 19.4979 8.9771 19.5147 9.24048C19.5307 9.49084 19.5647 9.7262 19.5961 9.90423Z" fill="#1C274C"/>
<path d="M20.3309 13.7297C20.6263 13.4678 21.0469 13.4014 21.4086 13.5595L21.7001 13.687C22.0796 13.8529 22.5218 13.6798 22.6878 13.3002C22.8537 12.9207 22.6806 12.4785 22.3011 12.3126L22.0096 12.1851C21.1122 11.7928 20.0685 11.9576 19.3357 12.6074C19.0095 12.8966 18.5349 12.9447 18.1573 12.7267L17.9445 12.6039C17.5857 12.3967 17.127 12.5197 16.9199 12.8784C16.7128 13.2371 16.8357 13.6958 17.1945 13.9029L17.4073 14.0258C18.344 14.5666 19.5217 14.4473 20.3309 13.7297Z" fill="#1C274C"/>
<path d="M19.0583 15.3134C19.2678 15.1039 19.6074 15.1039 19.8169 15.3134C20.0264 15.5229 20.0264 15.8625 19.8169 16.0719C19.6074 16.2814 19.2678 16.2814 19.0583 16.0719C18.8489 15.8625 18.8489 15.5229 19.0583 15.3134Z" fill="#1C274C"/>
<path d="M12.9158 7.15713C12.7063 6.94766 12.3667 6.94766 12.1572 7.15713C11.9478 7.3666 11.9478 7.70622 12.1572 7.91569C12.3667 8.12515 12.7063 8.12515 12.9158 7.91569C13.1252 7.70622 13.1252 7.3666 12.9158 7.15713Z" fill="#1C274C"/>
<path d="M17.1572 10.1571C17.3667 9.94766 17.7063 9.94766 17.9158 10.1571C18.1252 10.3666 18.1252 10.7062 17.9158 10.9157C17.7063 11.1252 17.3667 11.1252 17.1572 10.9157C16.9478 10.7062 16.9478 10.3666 17.1572 10.1571Z" fill="#1C274C"/>
<path fill-rule="evenodd" clip-rule="evenodd" d="M9.63896 6.88498C10.2253 7.31969 10.8999 7.99431 11.7185 8.813L15.1862 12.2807C16.0049 13.0993 16.6795 13.7739 17.1142 14.3602C17.5633 14.966 17.8798 15.6392 17.6968 16.4145C17.5138 17.1898 16.9296 17.6504 16.257 17.9914C15.606 18.3214 14.7009 18.6231 13.6026 18.9892L8.41228 20.7193C7.08241 21.1626 6.00323 21.5223 5.16641 21.6712C4.322 21.8214 3.46515 21.8063 2.82904 21.1702C2.19294 20.534 2.17779 19.6772 2.328 18.8328C2.47687 17.9959 2.83663 16.9167 3.27998 15.5868L5.01002 10.3967C5.37611 9.29828 5.67776 8.39322 6.00779 7.74218C6.34875 7.06956 6.80936 6.48541 7.58466 6.30239C8.35996 6.11937 9.03319 6.43585 9.63896 6.88498ZM8.74559 8.08993C8.72811 8.07696 8.71099 8.06447 8.69422 8.05243C8.68271 8.11469 8.67047 8.18162 8.65763 8.25286C8.57264 8.72448 8.46128 9.38398 8.35599 10.1344C8.14336 11.6497 7.96353 13.4816 8.05559 14.8854C8.11132 15.7353 8.29333 16.8348 8.46708 17.7418C8.55313 18.1911 8.6356 18.5852 8.69653 18.8669C8.70955 18.9271 8.72157 18.9821 8.73243 19.0314L11.3671 18.1532C11.2979 17.9477 11.2149 17.683 11.132 17.3749C10.933 16.6351 10.7272 15.6175 10.7272 14.5554C10.7272 13.4401 10.9321 12.4229 11.133 11.6907C11.2339 11.3228 11.3352 11.0219 11.4123 10.8108C11.4302 10.7615 11.4469 10.7171 11.462 10.6778L10.7022 9.91801C9.82802 9.04383 9.2317 8.45033 8.74559 8.08993ZM6.41321 10.9305C6.62217 10.3036 6.796 9.78394 6.95433 9.35355C6.92637 9.53709 6.89826 9.72843 6.87054 9.92594C6.65541 11.4592 6.45615 13.4181 6.5588 14.9836C6.62092 15.9308 6.81799 17.1059 6.99387 18.024C7.08263 18.4874 7.1676 18.8936 7.23043 19.184C7.25947 19.3183 7.28382 19.428 7.30168 19.5076C6.26086 19.8512 5.49409 20.0894 4.90369 20.1944C4.18292 20.3226 3.98348 20.2033 3.8897 20.1095C3.79593 20.0157 3.67659 19.8163 3.80481 19.0955C3.93207 18.3802 4.25474 17.4059 4.72371 15.999L6.41321 10.9305ZM13.0687 17.586L12.7901 17.6788C12.7292 17.4983 12.6549 17.2619 12.5805 16.9853C12.5266 16.7851 12.4734 16.5663 12.4252 16.3343C12.3123 15.7904 12.2272 15.174 12.2272 14.5554C12.2272 13.6153 12.4013 12.7371 12.5795 12.0877C12.6013 12.0081 12.6232 11.9322 12.6446 11.8604L14.0812 13.297C14.9554 14.1712 15.5489 14.7675 15.9093 15.2536C16.2631 15.7308 16.2678 15.9389 16.2369 16.0699C16.206 16.2009 16.1087 16.3849 15.5788 16.6535C15.039 16.9271 14.2415 17.195 13.0687 17.586Z" fill="#1C274C"/>
</svg>
