<svg width="24" height="24" viewBox="0 0 24 24" fill="none" xmlns="http://www.w3.org/2000/svg">
<path d="M12.0003 12.25C12.4145 12.25 12.7503 12.5858 12.7503 13V15C12.7503 15.4142 12.4145 15.75 12.0003 15.75C11.5861 15.75 11.2503 15.4142 11.2503 15V13C11.2503 12.5858 11.5861 12.25 12.0003 12.25Z" fill="#1C274C"/>
<path fill-rule="evenodd" clip-rule="evenodd" d="M5.95556 1.25C5.52275 1.24995 5.12592 1.24991 4.8031 1.29331C4.44762 1.3411 4.0719 1.45355 3.76288 1.76257C3.45385 2.07159 3.34141 2.44732 3.29361 2.8028C3.25021 3.12561 3.25026 3.52244 3.25031 3.95526L3.25031 4.17158L3.25016 4.25163C3.24922 4.5773 3.2482 4.92879 3.38352 5.25549C3.51885 5.58218 3.7681 5.83001 3.99905 6.05963L4.05577 6.11612L7.29841 9.35877C7.91974 9.9801 8.07329 10.1524 8.15516 10.3501C8.23704 10.5477 8.25031 10.7782 8.25031 11.6569V19.0253C8.2503 19.4697 8.2503 19.8408 8.27108 20.1454C8.29272 20.4625 8.33936 20.762 8.45964 21.0524C8.73875 21.7262 9.27411 22.2616 9.94793 22.5407C10.2383 22.661 10.5378 22.7076 10.8549 22.7292C11.1596 22.75 11.5306 22.75 11.9751 22.75H12.0256C12.47 22.75 12.8411 22.75 13.1457 22.7292C13.4628 22.7076 13.7623 22.661 14.0527 22.5407C14.7265 22.2616 15.2619 21.7262 15.541 21.0524C15.6613 20.762 15.7079 20.4625 15.7295 20.1454C15.7503 19.8408 15.7503 19.4697 15.7503 19.0253V11.6569C15.7503 10.7782 15.7636 10.5477 15.8455 10.3501C15.9273 10.1524 16.0809 9.9801 16.7022 9.35876L19.9449 6.11612L20.0016 6.05963C20.2325 5.83001 20.4818 5.58218 20.6171 5.25549C20.7524 4.92879 20.7514 4.5773 20.7505 4.25163L20.7503 4.17158L20.7503 3.95526C20.7504 3.52244 20.7504 3.12561 20.707 2.8028C20.6592 2.44732 20.5468 2.07159 20.2377 1.76257C19.9287 1.45355 19.553 1.3411 19.1975 1.29331C18.8747 1.24991 18.4779 1.24995 18.0451 1.25H5.95556ZM4.82598 2.82187L4.82355 2.82324L4.82217 2.82568C4.82116 2.82761 4.81955 2.83093 4.81747 2.83597C4.80851 2.85775 4.79322 2.90611 4.78024 3.00267C4.75191 3.21339 4.75031 3.5074 4.75031 4.00001V4.17158C4.75031 4.19924 4.75032 4.22534 4.75035 4.25H19.2503C19.2503 4.22534 19.2503 4.19924 19.2503 4.17158V4.00001C19.2503 3.5074 19.2487 3.21339 19.2204 3.00267C19.2074 2.90611 19.1921 2.85775 19.1832 2.83597C19.1811 2.83093 19.1795 2.82761 19.1785 2.82568L19.1771 2.82324L19.1746 2.82187C19.1727 2.82086 19.1694 2.81924 19.1643 2.81717C19.1426 2.80821 19.0942 2.79291 18.9976 2.77993C18.7869 2.7516 18.4929 2.75001 18.0003 2.75001H6.00031C5.50771 2.75001 5.2137 2.7516 5.00298 2.77993C4.90642 2.79291 4.85806 2.80821 4.83628 2.81717C4.83123 2.81924 4.82792 2.82086 4.82598 2.82187ZM18.1897 5.75H5.81097L8.44458 8.38351C8.75649 8.69482 9.02737 8.96518 9.23773 9.25H14.7629C14.9732 8.96519 15.2441 8.69485 15.556 8.38355L18.1897 5.75ZM14.2636 10.75H9.73699C9.75091 10.9925 9.75066 11.2522 9.75039 11.536L9.75031 19C9.75031 19.4762 9.75072 19.7958 9.7676 20.0433C9.78403 20.284 9.81351 20.4012 9.84546 20.4784C9.97233 20.7846 10.2157 21.028 10.522 21.1549C10.5991 21.1868 10.7163 21.2163 10.9571 21.2327C11.2045 21.2496 11.5241 21.25 12.0003 21.25C12.4765 21.25 12.7961 21.2496 13.0436 21.2327C13.2843 21.2163 13.4015 21.1868 13.4787 21.1549C13.785 21.028 14.0283 20.7846 14.1552 20.4784C14.1871 20.4012 14.2166 20.284 14.233 20.0433C14.2499 19.7958 14.2503 19.4762 14.2503 19L14.2502 11.536C14.25 11.2522 14.2497 10.9925 14.2636 10.75Z" fill="#1C274C"/>
</svg>
