<svg width="24" height="24" viewBox="0 0 24 24" fill="none" xmlns="http://www.w3.org/2000/svg">
<path fill-rule="evenodd" clip-rule="evenodd" d="M13.0227 4.40996C14.1301 3.70294 14.8909 3.21942 15.4775 2.95394C16.0635 2.68874 16.2665 2.73967 16.3709 2.79341C16.4691 2.84397 16.6222 2.96761 16.7294 3.5831C16.8373 4.20294 16.8609 5.08688 16.8924 6.38137L16.9084 7.03791L16.9112 7.15745V7.15746C16.925 7.75914 16.9368 8.27591 17.1562 8.73578C17.3771 9.19872 17.7716 9.52737 18.2254 9.90547L18.3155 9.98062L18.81 10.3939C19.7859 11.2095 20.4478 11.7655 20.856 12.2294C21.2553 12.6832 21.2674 12.888 21.2422 13.0208C21.2149 13.1651 21.1126 13.3696 20.5564 13.6847C19.9949 14.0029 19.1601 14.3305 17.9421 14.8055L17.3237 15.0467L17.2163 15.0885L17.2163 15.0885C16.6431 15.3112 16.165 15.497 15.7983 15.8556C15.4319 16.2138 15.2346 16.6879 14.9975 17.2574L14.9531 17.3641L14.6965 17.9785C14.1912 19.1884 13.8426 20.0182 13.5107 20.5739C13.1812 21.1254 12.9751 21.221 12.834 21.244C12.7056 21.2649 12.5043 21.2499 12.0627 20.8363C11.6119 20.4141 11.0761 19.7348 10.2903 18.7333L9.89209 18.2258L9.81944 18.133C9.45554 17.6677 9.13881 17.2628 8.6832 17.0283C8.22981 16.7949 7.71383 16.7692 7.11582 16.7393L6.99646 16.7333L6.34337 16.6997C5.05537 16.6335 4.17698 16.5862 3.56372 16.4615C2.95629 16.3379 2.83776 16.1821 2.78948 16.0809C2.73711 15.9711 2.69338 15.7625 2.97317 15.181C3.2533 14.5987 3.75517 13.8475 4.4884 12.7548L4.86072 12.2L4.92646 12.1022C5.27082 11.5904 5.559 11.1622 5.65386 10.6611C5.74951 10.1558 5.63352 9.65783 5.49696 9.07156L5.47093 8.95958L5.32388 8.32443C5.03398 7.07222 4.83808 6.21703 4.78837 5.58763C4.73961 4.9702 4.8505 4.77477 4.96027 4.66743C5.06904 4.56108 5.26396 4.4554 5.87542 4.52065C6.49974 4.58727 7.34498 4.80655 8.58398 5.13111L9.21228 5.2957L9.32371 5.325C9.90285 5.47756 10.3973 5.60783 10.9049 5.52496C11.4078 5.44285 11.8429 5.16429 12.3608 4.83269L12.4605 4.76892L13.0227 4.40996ZM17.0574 1.45969C16.3264 1.0835 15.5685 1.26632 14.8591 1.58737C14.162 1.90285 13.3099 2.44688 12.2682 3.11203L11.6533 3.50463C10.9808 3.93398 10.8214 4.01874 10.6632 4.04456C10.5099 4.06959 10.3448 4.04176 9.59238 3.84465L8.90215 3.66385L8.90214 3.66384C7.7406 3.35954 6.78506 3.1092 6.03458 3.02912C5.25795 2.94625 4.4981 3.02145 3.91159 3.59493C3.32609 4.16743 3.23143 4.92568 3.29303 5.70573C3.35264 6.46059 3.57618 7.42601 3.84819 8.6008L4.00958 9.29789C4.18548 10.0577 4.2095 10.2265 4.18004 10.3821C4.14973 10.5421 4.06007 10.7012 3.61517 11.3642L3.20821 11.9706C2.51809 12.999 1.95395 13.8396 1.62148 14.5307C1.28313 15.2339 1.08243 15.9865 1.43571 16.7269C1.79307 17.4758 2.50846 17.7775 3.26465 17.9313C4.00189 18.0813 4.99452 18.1324 6.2017 18.1944L6.91942 18.2313C7.70508 18.2717 7.86803 18.2957 7.99676 18.362C8.12312 18.427 8.23263 18.5408 8.71199 19.1517L9.15066 19.7108L9.15069 19.7109C9.88574 20.6477 10.492 21.4205 11.0373 21.9312C11.6017 22.4597 12.2582 22.8579 13.0758 22.7244C13.8807 22.593 14.3955 22.0176 14.7984 21.3431C15.1923 20.6837 15.5812 19.7525 16.0568 18.6136L16.0568 18.6136L16.3372 17.9422C16.6432 17.2096 16.7266 17.0458 16.847 16.9281C16.9669 16.8108 17.1313 16.7318 17.8687 16.4442L18.4871 16.203L18.5449 16.1805L18.5449 16.1805C19.691 15.7335 20.6286 15.3679 21.2959 14.9898C21.9796 14.6024 22.5644 14.1011 22.7161 13.2998C22.8699 12.4871 22.4936 11.8198 21.982 11.2384C21.4883 10.6773 20.7352 10.048 19.8222 9.28499L19.2774 8.82967C18.6825 8.33241 18.5718 8.21927 18.51 8.08979C18.4467 7.95702 18.4272 7.79053 18.408 7.00139L18.3904 6.28049C18.3609 5.06638 18.3366 4.06912 18.2071 3.3257C18.0746 2.56484 17.7945 1.83907 17.0574 1.45969ZM19.5308 18.4697C19.2379 18.1768 18.763 18.1768 18.4701 18.4697C18.1772 18.7626 18.1772 19.2374 18.4701 19.5303L20.4701 21.5303C20.763 21.8232 21.2379 21.8232 21.5308 21.5303C21.8237 21.2374 21.8237 20.7626 21.5308 20.4697L19.5308 18.4697Z" fill="#1C274C"/>
</svg>
