<svg width="24" height="24" viewBox="0 0 24 24" fill="none" xmlns="http://www.w3.org/2000/svg">
<path d="M7.57991 15.0077L8.10944 14.4766V14.4766L7.57991 15.0077ZM7.57991 9.53078L7.05038 8.99965H7.05038L7.57991 9.53078ZM14.4467 16.3769L13.9171 15.8458V15.8458L14.4467 16.3769ZM8.95326 16.3769L8.42373 16.9081V16.9081L8.95326 16.3769ZM11.7 18.3133V19.0633V18.3133ZM20.2935 10.5476L20.8231 11.0788L20.2935 10.5476ZM13.4268 3.70146L13.9563 4.23259V4.23259L13.4268 3.70146ZM12.2189 18.2188L12.4781 18.9226V18.9226L12.2189 18.2188ZM5.74966 11.7075L6.44551 11.9873L5.74966 11.7075ZM19.764 10.0165L13.9171 15.8458L14.9762 16.9081L20.8231 11.0788L19.764 10.0165ZM9.48279 15.8458L8.10944 14.4766L7.05037 15.5388L8.42373 16.9081L9.48279 15.8458ZM8.10944 10.0619L13.9563 4.23259L12.8972 3.17034L7.05038 8.99965L8.10944 10.0619ZM17.5468 2.75H18.1157V1.25H17.5468V2.75ZM21.2501 5.87277V6.43993H22.7501V5.87277H21.2501ZM18.1157 2.75C19.0524 2.75 19.6797 2.75158 20.1472 2.81425C20.5933 2.87405 20.7799 2.97688 20.9017 3.09828L21.9608 2.03603C21.5137 1.59027 20.9581 1.40953 20.3465 1.32754C19.7562 1.24842 19.0101 1.25 18.1157 1.25V2.75ZM22.7501 5.87277C22.7501 4.98122 22.7517 4.23688 22.6723 3.6478C22.5899 3.03692 22.4082 2.48209 21.9608 2.03603L20.9017 3.09828C21.0232 3.21937 21.1259 3.40453 21.1857 3.84826C21.2485 4.3138 21.2501 4.93869 21.2501 5.87277H22.7501ZM8.10944 14.4766C7.44701 13.8161 7.00477 13.373 6.71885 12.9994C6.44611 12.643 6.3877 12.4397 6.3877 12.2692H4.8877C4.8877 12.9009 5.15298 13.4214 5.52764 13.911C5.88913 14.3833 6.418 14.9084 7.05037 15.5388L8.10944 14.4766ZM8.42373 16.9081C9.05613 17.5386 9.58271 18.0658 10.0564 18.4262C10.5475 18.7997 11.0685 19.0633 11.7 19.0633V17.5633C11.5269 17.5633 11.322 17.5042 10.9646 17.2323C10.5897 16.9472 10.1452 16.5062 9.48279 15.8458L8.42373 16.9081ZM20.8231 11.0788C21.6216 10.2826 22.1785 9.74613 22.4709 9.04233L21.0857 8.46683C20.9346 8.83059 20.6495 9.13365 19.764 10.0165L20.8231 11.0788ZM21.2501 6.43993C21.2501 7.68852 21.2368 8.10332 21.0857 8.46683L22.4709 9.04233C22.7634 8.33828 22.7501 7.56584 22.7501 6.43993H21.2501ZM13.9563 4.23259C14.8415 3.35 15.1458 3.06532 15.5115 2.91431L14.9389 1.52788C14.2338 1.81908 13.6961 2.3739 12.8972 3.17034L13.9563 4.23259ZM17.5468 1.25C16.4171 1.25 15.6438 1.23679 14.9389 1.52788L15.5115 2.91431C15.8774 2.76321 16.2949 2.75 17.5468 2.75V1.25ZM13.9171 15.8458C13.4058 16.3556 13.0211 16.7386 12.6905 17.0241C12.3587 17.3106 12.1351 17.4504 11.9597 17.515L12.4781 18.9226C12.906 18.765 13.2919 18.4867 13.6709 18.1593C14.0513 17.8308 14.4788 17.404 14.9762 16.9081L13.9171 15.8458ZM11.9597 17.515C11.8673 17.5491 11.7848 17.5633 11.7 17.5633V19.0633C11.9707 19.0633 12.2283 19.0146 12.4781 18.9226L11.9597 17.515ZM7.05038 8.99965C6.5649 9.48367 6.14575 9.90103 5.82033 10.2724C5.49625 10.6423 5.21908 11.0167 5.05382 11.4277L6.44551 11.9873C6.51649 11.8108 6.66249 11.5874 6.94849 11.261C7.23315 10.9361 7.611 10.5588 8.10944 10.0619L7.05038 8.99965ZM5.05382 11.4277C4.94592 11.696 4.8877 11.9743 4.8877 12.2692H6.3877C6.3877 12.1791 6.40412 12.0902 6.44551 11.9873L5.05382 11.4277Z" fill="#1C274C"/>
<path opacity="0.5" d="M5.57332 11.5312L6.10365 11.0008L6.10286 11L5.57332 11.5312ZM9.91958 7.42188C10.2679 7.64606 10.732 7.54543 10.9562 7.19712C11.1803 6.84882 11.0797 6.38473 10.7314 6.16055L9.91958 7.42188ZM9.69627 6.38625L10.1022 5.75558V5.75558L9.69627 6.38625ZM7.12664 5.06773L7.23629 4.32579L7.12664 5.06773ZM2.22514 8.02316L2.75467 8.5543H2.75467L2.22514 8.02316ZM5.33941 5.29613L5.62684 5.98887H5.62684L5.33941 5.29613ZM2.86314 9.42596L2.58685 10.1232H2.58686L2.86314 9.42596ZM2.98636 9.47527L3.27206 8.78182V8.78182L2.98636 9.47527ZM4.61259 10.5733L5.14212 10.0422V10.0422L4.61259 10.5733ZM4.51839 10.48L3.99611 11.0183L4.51839 10.48ZM2.48449 9.27592L2.76078 8.57867L2.76078 8.57867L2.48449 9.27592ZM12.5 18.4999L11.9697 19.0303C11.9813 19.0418 11.9932 19.0531 12.0056 19.0639L12.5 18.4999ZM17.8238 13.2318C17.5987 12.8841 17.1344 12.7847 16.7867 13.0099C16.439 13.235 16.3396 13.6994 16.5647 14.0471L17.8238 13.2318ZM17.6005 14.2668L16.9709 14.6744V14.6744L17.6005 14.2668ZM18.923 16.8287L19.6648 16.7184V16.7184L18.923 16.8287ZM15.9586 21.7155L16.4882 22.2466V22.2466L15.9586 21.7155ZM18.6939 18.6105L19.386 18.8994L18.6939 18.6105ZM14.749 21.5746L15.4457 21.2969V21.2969L14.749 21.5746ZM14.2748 20.4827L14.9324 20.122L14.2748 20.4827ZM13.0229 18.9584L13.5524 18.4272L13.5354 18.4103L13.5173 18.3944L13.0229 18.9584ZM13.8408 19.8248L14.4311 19.3622L13.8408 19.8248ZM15.8746 21.7993L15.3451 21.2681V21.2681L15.8746 21.7993ZM10.7314 6.16055L10.1022 5.75558L9.29036 7.01691L9.91958 7.42188L10.7314 6.16055ZM10.1022 5.75558C9.48075 5.35562 8.97919 5.03219 8.54751 4.79958C8.1064 4.56189 7.69319 4.39331 7.23629 4.32579L7.017 5.80967C7.2364 5.8421 7.47689 5.92658 7.83597 6.12007C8.20447 6.31864 8.64957 6.60449 9.29036 7.01691L10.1022 5.75558ZM2.75467 8.5543C3.31773 7.99294 3.92167 7.39103 4.46441 6.89591C4.73558 6.64854 4.98252 6.43609 5.19434 6.27283C5.41778 6.10061 5.55951 6.0168 5.62684 5.98887L5.05198 4.6034C4.79474 4.71013 4.52494 4.89493 4.27863 5.08477C4.02071 5.28357 3.73971 5.52664 3.45348 5.78775C2.88143 6.3096 2.2528 6.93654 1.69562 7.49203L2.75467 8.5543ZM7.23629 4.32579C6.50162 4.21721 5.7462 4.31535 5.05198 4.6034L5.62684 5.98887C6.07751 5.80188 6.55885 5.74197 7.017 5.80967L7.23629 4.32579ZM2.20821 9.97318L2.58685 10.1232L3.13942 8.7287L2.76078 8.57867L2.20821 9.97318ZM4.08306 11.1044L5.04379 12.0623L6.10286 11L5.14212 10.0422L4.08306 11.1044ZM2.58686 10.1232C2.65049 10.1484 2.67596 10.1585 2.70065 10.1687L3.27206 8.78182C3.23583 8.76689 3.19947 8.7525 3.13942 8.7287L2.58686 10.1232ZM5.14212 10.0422C5.09644 9.99664 5.06877 9.96904 5.04066 9.94176L3.99611 11.0183C4.01525 11.0369 4.03464 11.0562 4.08306 11.1044L5.14212 10.0422ZM2.70065 10.1687C3.18281 10.3674 3.62245 10.6557 3.99611 11.0183L5.04066 9.94176C4.53026 9.44653 3.93001 9.05289 3.27206 8.78182L2.70065 10.1687ZM1.69562 7.49203C0.921826 8.26348 1.19466 9.57157 2.20821 9.97318L2.76078 8.57867C2.75633 8.5769 2.75452 8.57558 2.75424 8.57537C2.75386 8.5751 2.75375 8.57497 2.75362 8.5748C2.75315 8.57424 2.75145 8.57174 2.75051 8.56721C2.74957 8.56267 2.75019 8.55991 2.75028 8.55957C2.75029 8.55954 2.75026 8.55958 2.75038 8.55938C2.75044 8.55928 2.75143 8.55752 2.75467 8.5543L1.69562 7.49203ZM16.5647 14.0471L16.9709 14.6744L18.23 13.8591L17.8238 13.2318L16.5647 14.0471ZM15.4291 21.1843L15.3451 21.2681L16.4041 22.3304L16.4882 22.2466L15.4291 21.1843ZM16.9709 14.6744C17.3846 15.3133 17.6713 15.7569 17.8703 16.1242C18.0643 16.4821 18.1488 16.7212 18.1811 16.939L19.6648 16.7184C19.5969 16.2619 19.4275 15.8493 19.189 15.4093C18.9557 14.9788 18.6312 14.4786 18.23 13.8591L16.9709 14.6744ZM16.4882 22.2466C17.0453 21.6911 17.6742 21.0643 18.1976 20.494C18.4595 20.2086 18.7033 19.9284 18.9028 19.6712C19.0931 19.4257 19.2787 19.1564 19.386 18.8994L18.0018 18.3216C17.974 18.3882 17.8901 18.5293 17.7174 18.7521C17.5536 18.9632 17.3406 19.2094 17.0925 19.4797C16.5959 20.0209 15.9922 20.623 15.4291 21.1843L16.4882 22.2466ZM18.1811 16.939C18.2488 17.3944 18.189 17.8732 18.0018 18.3216L19.386 18.8994C19.6753 18.2065 19.7739 17.4521 19.6648 16.7184L18.1811 16.939ZM13.5173 18.3944L12.9944 17.936L12.0056 19.0639L12.5284 19.5223L13.5173 18.3944ZM15.4457 21.2969C15.231 20.7583 15.102 20.4312 14.9324 20.122L13.6173 20.8434C13.7326 21.0536 13.8247 21.2813 14.0523 21.8523L15.4457 21.2969ZM12.4933 19.4895C12.9291 19.924 13.1025 20.0986 13.2505 20.2875L14.4311 19.3622C14.2136 19.0846 13.9635 18.8371 13.5524 18.4272L12.4933 19.4895ZM14.9324 20.122C14.7863 19.8556 14.6186 19.6015 14.4311 19.3622L13.2505 20.2875C13.3877 20.4626 13.5104 20.6485 13.6173 20.8434L14.9324 20.122ZM15.3451 21.2681C15.3514 21.2618 15.3619 21.2553 15.3735 21.2521C15.3833 21.2493 15.3907 21.2497 15.3959 21.2507C15.401 21.2517 15.4096 21.2546 15.4199 21.2628C15.4316 21.2721 15.441 21.2851 15.4457 21.2969L14.0523 21.8523C14.4363 22.8154 15.6842 23.0481 16.4041 22.3304L15.3451 21.2681ZM13.0303 17.9696L12.7491 17.6884L11.6885 18.749L11.9697 19.0303L13.0303 17.9696ZM5.04299 12.0615L5.21923 12.2377L6.27989 11.1771L6.10365 11.0008L5.04299 12.0615Z" fill="#1C274C"/>
<path opacity="0.5" d="M10.8562 14.1695C11.1495 13.8771 11.1502 13.4022 10.8578 13.1089C10.5653 12.8155 10.0904 12.8148 9.7971 13.1073L10.8562 14.1695ZM8.79613 16.2234L10.8562 14.1695L9.7971 13.1073L7.73707 15.1611L8.79613 16.2234ZM16.6639 8.99959C16.1981 9.46396 15.442 9.46396 14.9762 8.99959L13.9172 10.0618C14.9683 11.1099 16.6717 11.1099 17.7229 10.0618L16.6639 8.99959ZM14.9762 8.99959C14.5117 8.53646 14.5117 7.78651 14.9762 7.32338L13.9172 6.26113C12.8647 7.31041 12.8647 9.01256 13.9172 10.0618L14.9762 8.99959ZM14.9762 7.32338C15.442 6.859 16.1981 6.859 16.6639 7.32338L17.7229 6.26113C16.6717 5.21309 14.9683 5.21309 13.9172 6.26113L14.9762 7.32338ZM16.6639 7.32338C17.1284 7.78651 17.1284 8.53646 16.6639 8.99959L17.7229 10.0618C18.7754 9.01256 18.7754 7.31041 17.7229 6.26113L16.6639 7.32338Z" fill="#1C274C"/>
</svg>
