<svg width="24" height="24" viewBox="0 0 24 24" fill="none" xmlns="http://www.w3.org/2000/svg">
<path d="M18.922 12.1491C20.5253 14.7729 20.9935 17.1486 19.9012 18.241C18.2713 19.8709 13.7841 18.0264 9.8789 14.1212C5.97365 10.2159 4.12913 5.72878 5.75904 4.09887C6.8514 3.00651 9.22714 3.47475 11.851 5.07801" stroke="#1C274C" stroke-width="1.5"/>
<path d="M11.4845 5.4441C13.3312 3.59741 16.3253 3.59741 18.172 5.4441L18.5556 5.82769C20.4023 7.67439 20.4023 10.6685 18.5556 12.5152C18.4302 12.6405 18.2695 12.7246 18.095 12.6933C17.5985 12.6042 16.3767 12.1341 14.1211 9.87854C11.8656 7.62298 11.3955 6.40113 11.3064 5.90468C11.2751 5.73021 11.3592 5.56944 11.4845 5.4441Z" stroke="#8E93A6" stroke-width="1.5"/>
<circle cx="12" cy="12.0002" r="1" transform="rotate(45 12 12.0002)" fill="#8E93A6"/>
<circle cx="9.17139" cy="7.75748" r="1" transform="rotate(45 9.17139 7.75748)" fill="#1C274C"/>
<circle cx="16.2427" cy="14.8283" r="1" transform="rotate(45 16.2427 14.8283)" fill="#1C274C"/>
<path d="M3.636 20.364L7.75732 16.2427" stroke="#1C274C" stroke-width="1.5" stroke-linecap="round"/>
<path d="M9.99976 22.0005L12.7069 19.7782" stroke="#8E93A6" stroke-width="1.5" stroke-linecap="round"/>
<path d="M1.99976 14L4.22168 11.293" stroke="#8E93A6" stroke-width="1.5" stroke-linecap="round"/>
</svg>
