<svg width="24" height="24" viewBox="0 0 24 24" fill="none" xmlns="http://www.w3.org/2000/svg">
<path d="M3.636 20.364L7.75732 16.2427" stroke="#1C274C" stroke-width="1.5" stroke-linecap="round"/>
<path d="M10 21.9995L12.7073 19.7781" stroke="#1C274C" stroke-width="1.5" stroke-linecap="round"/>
<path d="M2 14L4.22168 11.293" stroke="#1C274C" stroke-width="1.5" stroke-linecap="round"/>
<path d="M7.85659 3.99951C9.00569 4.08861 10.4351 4.63583 11.947 5.55976M5.27393 6.58218C5.43914 8.71288 7.17945 11.8075 9.97593 14.6039C13.8823 18.5103 18.3704 20.3558 20.0003 18.7259C20.8258 17.9003 20.7598 16.3416 19.986 14.4966C19.7359 13.9002 19.4119 13.274 19.0201 12.6329M14.2186 10.3615C11.9624 8.10532 11.4921 6.88323 11.4029 6.38668C11.3715 6.21219 11.4556 6.05141 11.581 5.92607C13.4276 4.07937 16.4222 4.07981 18.2694 5.92705L18.6531 6.31075C20.5004 8.15799 20.5008 11.1525 18.6541 12.9992C18.5288 13.1246 18.3676 13.2086 18.1931 13.1772C17.8562 13.1166 17.1857 12.8806 16.0854 12.0314" stroke="#1C274C" stroke-width="1.5" stroke-linecap="round"/>
<path d="M13.0287 13.2712C12.6382 13.6617 12.005 13.6617 11.6145 13.2712C11.224 12.8807 11.224 12.2475 11.6145 11.857C12.005 11.4665 12.6382 11.4665 13.0287 11.857C13.4192 12.2475 13.4192 12.8807 13.0287 13.2712Z" fill="#1C274C"/>
<path d="M10.2003 9.02855C9.80975 9.41907 9.17658 9.41907 8.78606 9.02855C8.39553 8.63802 8.39553 8.00486 8.78606 7.61433C9.17658 7.22381 9.80975 7.22381 10.2003 7.61433C10.5908 8.00486 10.5908 8.63802 10.2003 9.02855Z" fill="#1C274C"/>
<path d="M17.2713 16.0996C16.8808 16.4901 16.2476 16.4901 15.8571 16.0996C15.4666 15.7091 15.4666 15.0759 15.8571 14.6854C16.2476 14.2949 16.8808 14.2949 17.2713 14.6854C17.6619 15.0759 17.6619 15.7091 17.2713 16.0996Z" fill="#1C274C"/>
</svg>
