<svg width="24" height="24" viewBox="0 0 24 24" fill="none" xmlns="http://www.w3.org/2000/svg">
<path opacity="0.5" d="M3.33946 16.9997C6.10089 21.7826 12.2168 23.4214 16.9997 20.66C18.9493 19.5344 20.3765 17.8514 21.1962 15.9286C22.3875 13.1341 22.2958 9.83304 20.66 6.99972C19.0242 4.1664 16.2112 2.43642 13.1955 2.07088C11.1204 1.81935 8.94932 2.21386 6.99972 3.33946C2.21679 6.10089 0.578039 12.2168 3.33946 16.9997Z" fill="#1C274C"/>
<path d="M13.9407 2.18983C13.6942 2.14097 13.4458 2.10132 13.1959 2.07103C12.9452 2.04064 12.693 2.01968 12.44 2.0083C12.4304 2.05107 12.4191 2.10381 12.4067 2.16599C12.3719 2.34046 12.3287 2.58971 12.2913 2.90214C12.2421 3.31341 12.5355 3.68674 12.9468 3.73598C13.3581 3.78522 13.7314 3.49174 13.7807 3.08046C13.8131 2.80977 13.8499 2.59886 13.8778 2.45896C13.8917 2.38904 13.9034 2.33697 13.9111 2.30415C13.9149 2.28774 13.9178 2.27616 13.9194 2.26957L13.9207 2.2644L13.921 2.26328L13.9407 2.18983Z" fill="#1C274C"/>
<path d="M2.53418 8.7752C2.61522 8.53698 2.70524 8.3017 2.80409 8.0699C2.90305 7.83784 3.01087 7.60927 3.12737 7.38477C3.16926 7.39784 3.22065 7.41442 3.28079 7.43482C3.44926 7.49196 3.68672 7.57916 3.97599 7.70298C4.35679 7.86598 4.53336 8.3068 4.37036 8.6876C4.20737 9.0684 3.76654 9.24496 3.38575 9.08197C3.13511 8.97469 2.93404 8.90115 2.79895 8.85533C2.73144 8.83242 2.68051 8.81648 2.64824 8.80674C2.6321 8.80188 2.62064 8.79856 2.61411 8.7967L2.60943 8.79537L2.53418 8.7752Z" fill="#1C274C"/>
<path d="M11.5606 21.9915C11.3077 21.9801 11.0556 21.9592 10.805 21.9288C10.555 21.8985 10.3065 21.8589 10.0599 21.81L10.0796 21.7364L10.0799 21.7353L10.0812 21.7301C10.0829 21.7235 10.0857 21.7119 10.0896 21.6955C10.0973 21.6627 10.1089 21.6106 10.1229 21.5407C10.1507 21.4008 10.1876 21.1899 10.22 20.9192C10.2692 20.5079 10.6425 20.2144 11.0538 20.2637C11.4651 20.3129 11.7586 20.6862 11.7093 21.0975C11.6719 21.41 11.6287 21.6592 11.594 21.8337C11.5816 21.8959 11.5702 21.9487 11.5606 21.9915Z" fill="#1C274C"/>
<path d="M21.4661 15.2244C21.3852 15.4623 21.2953 15.6972 21.1966 15.9287C21.0976 16.1611 20.9896 16.39 20.873 16.6148C20.8311 16.6017 20.7798 16.5852 20.7198 16.5648C20.5514 16.5077 20.3139 16.4205 20.0246 16.2967C19.6438 16.1337 19.4673 15.6929 19.6303 15.3121C19.7933 14.9313 20.2341 14.7547 20.6149 14.9177C20.8655 15.025 21.0666 15.0985 21.2017 15.1443C21.2692 15.1672 21.3201 15.1832 21.3524 15.1929C21.3685 15.1978 21.38 15.2011 21.3865 15.203L21.391 15.2042L21.4661 15.2244Z" fill="#1C274C"/>
<path d="M13.754 5.41443C13.7164 5.00192 13.3516 4.69798 12.9391 4.73555C12.5266 4.77312 12.2226 5.13798 12.2602 5.55048C12.3153 6.15571 12.4176 6.81433 12.5895 7.50804C12.6892 7.91009 13.0959 8.15525 13.4979 8.05562C13.9 7.95598 14.1451 7.54928 14.0455 7.14723C13.8935 6.53373 13.8028 5.9507 13.754 5.41443Z" fill="#1C274C"/>
<path d="M6.28509 9.0002C5.94663 8.76141 5.47868 8.84221 5.23989 9.18066C5.0011 9.51912 5.0819 9.98707 5.42035 10.2259C5.86036 10.5363 6.31997 10.9063 6.77525 11.3447C7.07363 11.632 7.54841 11.6231 7.83573 11.3247C8.12304 11.0263 8.11407 10.5515 7.8157 10.2642C7.30089 9.76848 6.78167 9.35055 6.28509 9.0002Z" fill="#1C274C"/>
<path d="M14.8373 9.34733C14.6579 8.97397 14.2098 8.81673 13.8365 8.99612C13.4631 9.1755 13.3059 9.62358 13.4853 9.99694C13.6251 10.288 13.7792 10.581 13.9489 10.8748C14.1185 11.1687 14.2952 11.4486 14.4774 11.7153C14.711 12.0573 15.1777 12.1452 15.5197 11.9115C15.8617 11.6779 15.9496 11.2112 15.7159 10.8692C15.5548 10.6333 15.3983 10.3854 15.2479 10.1248C15.0975 9.86429 14.961 9.60481 14.8373 9.34733Z" fill="#1C274C"/>
<path d="M9.52329 12.2844C9.28965 11.9424 8.82297 11.8545 8.48094 12.0881C8.13891 12.3218 8.05105 12.7885 8.28469 13.1305C8.44582 13.3664 8.6023 13.6143 8.75272 13.8748C8.90315 14.1354 9.03962 14.3949 9.16333 14.6523C9.34271 15.0257 9.7908 15.1829 10.1642 15.0035C10.5375 14.8242 10.6947 14.3761 10.5154 14.0027C10.3755 13.7117 10.2214 13.4187 10.0518 13.1248C9.88212 12.831 9.70543 12.551 9.52329 12.2844Z" fill="#1C274C"/>
<path d="M17.2254 12.6549C16.927 12.3676 16.4522 12.3766 16.1649 12.675C15.8776 12.9733 15.8866 13.4481 16.1849 13.7354C16.6998 14.2312 17.219 14.6491 17.7155 14.9995C18.054 15.2382 18.522 15.1575 18.7607 14.819C18.9995 14.4805 18.9187 14.0126 18.5803 13.7738C18.1403 13.4634 17.6807 13.0934 17.2254 12.6549Z" fill="#1C274C"/>
<path d="M11.4111 16.4916C11.3115 16.0896 10.9048 15.8444 10.5027 15.944C10.1007 16.0437 9.8555 16.4504 9.95514 16.8524C10.1072 17.4659 10.1978 18.049 10.2466 18.5852C10.2842 18.9977 10.6491 19.3017 11.0616 19.2641C11.4741 19.2265 11.778 18.8617 11.7405 18.4492C11.6853 17.844 11.583 17.1853 11.4111 16.4916Z" fill="#1C274C"/>
</svg>
