<svg width="24" height="24" viewBox="0 0 24 24" fill="none" xmlns="http://www.w3.org/2000/svg">
<path d="M6.07821 13.4174C6.37128 13.1247 6.37157 12.6498 6.07886 12.3567C5.78614 12.0636 5.31127 12.0634 5.0182 12.3561L6.07821 13.4174ZM3.85646 14.5764L3.32646 14.0457V14.0457L3.85646 14.5764ZM2.31852 13.0403L1.78851 12.5097L1.78851 12.5097L2.31852 13.0403ZM3.00232 13.4174C3.29539 13.1247 3.29568 12.6498 3.00297 12.3567C2.71025 12.0636 2.23538 12.0634 1.94231 12.3561L3.00232 13.4174ZM11.6057 18.987C11.8988 18.6943 11.8991 18.2194 11.6063 17.9263C11.3136 17.6332 10.8388 17.633 10.5457 17.9257L11.6057 18.987ZM9.38395 20.146L9.91396 20.6767V20.6767L9.38395 20.146ZM10.9219 21.6821L11.4519 22.2127V22.2127L10.9219 21.6821ZM11.6057 22.0591C11.8988 21.7664 11.8991 21.2915 11.6063 20.9985C11.3136 20.7054 10.8388 20.7051 10.5457 20.9978L11.6057 22.0591ZM10.6328 17.186C10.9257 16.8931 10.9257 16.4182 10.6328 16.1253C10.3399 15.8324 9.86499 15.8324 9.5721 16.1253L10.6328 17.186ZM7.46967 18.2277C7.17678 18.5206 7.17678 18.9955 7.46967 19.2884C7.76256 19.5813 8.23744 19.5813 8.53033 19.2884L7.46967 18.2277ZM7.85705 14.4136C8.14994 14.1207 8.14994 13.6459 7.85705 13.353C7.56415 13.0601 7.08928 13.0601 6.79639 13.353L7.85705 14.4136ZM4.67948 15.4699C4.38659 15.7628 4.38659 16.2376 4.67948 16.5305C4.97238 16.8234 5.44725 16.8234 5.74014 16.5305L4.67948 15.4699ZM7.46042 17.5818C7.75656 17.2921 7.76184 16.8173 7.47223 16.5212C7.18261 16.225 6.70777 16.2197 6.41163 16.5094L7.46042 17.5818ZM4.70206 18.1813C4.40592 18.4709 4.40064 18.9458 4.69026 19.2419C4.97987 19.538 5.45472 19.5433 5.75085 19.2537L4.70206 18.1813ZM5.0182 12.3561L3.32646 14.0457L4.38647 15.1071L6.07821 13.4174L5.0182 12.3561ZM2.84853 13.571L3.00232 13.4174L1.94231 12.3561L1.78851 12.5097L2.84853 13.571ZM2.84853 14.0457C2.71716 13.9145 2.71716 13.7022 2.84853 13.571L1.78851 12.5097C1.0705 13.2268 1.0705 14.3899 1.78851 15.1071L2.84853 14.0457ZM3.32646 14.0457C3.19458 14.1775 2.9804 14.1775 2.84853 14.0457L1.78851 15.1071C2.50602 15.8237 3.66896 15.8237 4.38647 15.1071L3.32646 14.0457ZM10.5457 17.9257L8.85394 19.6154L9.91396 20.6767L11.6057 18.987L10.5457 17.9257ZM11.4519 22.2127L11.6057 22.0591L10.5457 20.9978L10.3919 21.1514L11.4519 22.2127ZM8.85394 22.2127C9.57145 22.9294 10.7344 22.9294 11.4519 22.2127L10.3919 21.1514C10.26 21.2831 10.0458 21.2831 9.91396 21.1514L8.85394 22.2127ZM8.85394 19.6154C8.13593 20.3325 8.13593 21.4956 8.85394 22.2127L9.91396 21.1514C9.78259 21.0202 9.78259 20.8079 9.91396 20.6767L8.85394 19.6154ZM9.5721 16.1253L7.46967 18.2277L8.53033 19.2884L10.6328 17.186L9.5721 16.1253ZM6.79639 13.353L4.67948 15.4699L5.74014 16.5305L7.85705 14.4136L6.79639 13.353ZM6.41163 16.5094L4.70206 18.1813L5.75085 19.2537L7.46042 17.5818L6.41163 16.5094Z" fill="#1C274C"/>
<path d="M9.74268 13.0566L10.2722 12.5254V12.5254L9.74268 13.0566ZM9.74268 8.40116L9.21314 7.87003H9.21314L9.74268 8.40116ZM15.5794 14.2204L16.109 14.7515V14.7515L15.5794 14.2204ZM10.91 14.2204L10.3805 14.7515V14.7515L10.91 14.2204ZM20.5492 9.26548L20.0197 8.73435V8.73435L20.5492 9.26548ZM15.9549 1.49472C15.572 1.65283 15.3899 2.09136 15.548 2.47421C15.7061 2.85706 16.1446 3.03925 16.5275 2.88115L15.9549 1.49472ZM9.79682 13.1073C9.50349 13.3998 9.50277 13.8747 9.79523 14.168C10.0877 14.4613 10.5626 14.4621 10.8559 14.1696L9.79682 13.1073ZM12.6069 12.4238C12.9002 12.1314 12.901 11.6565 12.6085 11.3632C12.316 11.0698 11.8412 11.0691 11.5478 11.3616L12.6069 12.4238ZM13.6858 15.786L13.9451 16.4897V16.4897L13.6858 15.786ZM8.18697 10.2514L7.49112 9.97154L8.18697 10.2514ZM14.4544 4.76267C14.7477 4.47021 14.7484 3.99534 14.456 3.70201C14.1635 3.40868 13.6886 3.40796 13.3953 3.70041L14.4544 4.76267ZM20.0197 8.73435L15.0499 13.6893L16.109 14.7515L21.0788 9.79661L20.0197 8.73435ZM11.4396 13.6893L10.2722 12.5254L9.21314 13.5877L10.3805 14.7515L11.4396 13.6893ZM18.2145 2.75H18.6981V1.25H18.2145V2.75ZM21.2498 5.29186V5.77394H22.7498V5.29186H21.2498ZM18.6981 2.75C19.4975 2.75 20.0218 2.75158 20.4099 2.80361C20.7767 2.85278 20.9077 2.93434 20.9868 3.01321L22.0458 1.95096C21.6414 1.54774 21.1415 1.38826 20.6092 1.31691C20.0982 1.24842 19.4552 1.25 18.6981 1.25V2.75ZM22.7498 5.29186C22.7498 4.53722 22.7514 3.89558 22.6827 3.38559C22.611 2.85381 22.4506 2.35448 22.0458 1.95096L20.9868 3.01321C21.0656 3.09176 21.147 3.22143 21.1961 3.58606C21.2482 3.9725 21.2498 4.49469 21.2498 5.29186H22.7498ZM10.2722 12.5254C9.70689 11.9618 9.33749 11.5913 9.10012 11.2811C8.87593 10.9881 8.8418 10.8391 8.8418 10.7289H7.3418C7.3418 11.3004 7.58281 11.7666 7.90891 12.1927C8.22184 12.6016 8.67788 13.054 9.21314 13.5877L10.2722 12.5254ZM10.3805 14.7515C10.9158 15.2852 11.3695 15.7398 11.7796 16.0518C12.2071 16.3769 12.6736 16.6163 13.2447 16.6163V15.1163C13.132 15.1163 12.9815 15.0814 12.6877 14.8579C12.3766 14.6212 12.0049 14.2529 11.4396 13.6893L10.3805 14.7515ZM21.0788 9.79661C21.751 9.12636 22.2448 8.65287 22.5039 8.02914L21.1187 7.45364C21.0009 7.73733 20.7789 7.97743 20.0197 8.73435L21.0788 9.79661ZM21.2498 5.77394C21.2498 6.84444 21.2365 7.1702 21.1187 7.45364L22.5039 8.02914C22.7632 7.40516 22.7498 6.72176 22.7498 5.77394H21.2498ZM18.2145 1.25C17.2634 1.25 16.5795 1.23679 15.9549 1.49472L16.5275 2.88115C16.813 2.76321 17.1413 2.75 18.2145 2.75V1.25ZM10.8559 14.1696L12.6069 12.4238L11.5478 11.3616L9.79682 13.1073L10.8559 14.1696ZM15.0499 13.6893C14.6142 14.1236 14.2904 14.4459 14.0132 14.6853C13.7347 14.9258 13.5567 15.0343 13.4266 15.0822L13.9451 16.4897C14.3277 16.3488 14.6678 16.1019 14.9936 15.8205C15.3206 15.5381 15.6872 15.172 16.109 14.7515L15.0499 13.6893ZM13.4266 15.0822C13.3598 15.1068 13.3029 15.1163 13.2447 15.1163V16.6163C13.4888 16.6163 13.7209 16.5723 13.9451 16.4897L13.4266 15.0822ZM9.21314 7.87003C8.80146 8.28048 8.44209 8.63824 8.16242 8.9574C7.8841 9.27503 7.63867 9.60463 7.49112 9.97154L8.88282 10.5312C8.93608 10.3987 9.05034 10.2201 9.29058 9.94596C9.52949 9.67332 9.84756 9.35566 10.2722 8.93229L9.21314 7.87003ZM7.49112 9.97154C7.39442 10.212 7.3418 10.4628 7.3418 10.7289H8.8418C8.8418 10.6676 8.85262 10.6063 8.88282 10.5312L7.49112 9.97154ZM10.2722 8.93229L14.4544 4.76267L13.3953 3.70041L9.21314 7.87003L10.2722 8.93229Z" fill="#1C274C"/>
<path d="M8.03732 10.1018L8.56765 9.57148L8.56686 9.57068L8.03732 10.1018ZM11.6708 6.70352C12.0191 6.92769 12.4831 6.82707 12.7073 6.47876C12.9315 6.13045 12.8309 5.66636 12.4826 5.44219L11.6708 6.70352ZM11.5418 5.72863L11.9477 5.09796L11.9477 5.09796L11.5418 5.72863ZM9.35765 4.60789L9.46729 3.86595L9.35765 4.60789ZM5.19137 7.12001L5.7209 7.65114V7.65114L5.19137 7.12001ZM7.8385 4.80203L8.12592 5.49477V5.49477L7.8385 4.80203ZM5.73367 8.31238L5.45738 9.00964L5.45738 9.00964L5.73367 8.31238ZM5.5527 9.04774C5.93568 9.20553 6.37406 9.02298 6.53185 8.64C6.68964 8.25702 6.50709 7.81863 6.12411 7.66084L5.5527 9.04774ZM5.41182 8.18485L5.68811 7.4876L5.6881 7.4876L5.41182 8.18485ZM7.6568 10.7819C7.94969 11.0748 8.42456 11.0748 8.71746 10.7819C9.01035 10.489 9.01035 10.0142 8.71746 9.72128L7.6568 10.7819ZM8.15854 9.1636C7.86521 8.87114 7.39034 8.87186 7.09789 9.16519C6.80543 9.45852 6.80615 9.93339 7.09948 10.2258L8.15854 9.1636ZM12.4826 5.44219L11.9477 5.09796L11.1359 6.35929L11.6708 6.70352L12.4826 5.44219ZM11.9477 5.09796C11.421 4.75893 10.9904 4.48119 10.6187 4.28092C10.2377 4.07557 9.87347 3.92597 9.46729 3.86595L9.248 5.34983C9.41668 5.37476 9.60814 5.44027 9.9072 5.60142C10.2157 5.76764 10.5898 6.0078 11.1359 6.35929L11.9477 5.09796ZM5.7209 7.65114C6.19994 7.17354 6.71143 6.6638 7.17057 6.24495C7.39993 6.03572 7.60728 5.85743 7.78387 5.72132C7.97207 5.57626 8.08295 5.5126 8.12592 5.49477L7.55107 4.10929C7.31817 4.20593 7.07924 4.37058 6.86816 4.53327C6.64547 4.70491 6.40406 4.91382 6.15964 5.13679C5.6712 5.58237 5.13501 6.11714 4.66185 6.58887L5.7209 7.65114ZM9.46729 3.86595C8.82208 3.77059 8.15942 3.85688 7.55107 4.10929L8.12592 5.49477C8.49073 5.34341 8.87932 5.29534 9.248 5.34983L9.46729 3.86595ZM5.13554 8.88211L5.45738 9.00964L6.00995 7.61513L5.68811 7.4876L5.13554 8.88211ZM5.45738 9.00964C5.51174 9.03118 5.53257 9.03945 5.5527 9.04774L6.12411 7.66084C6.09245 7.6478 6.06072 7.63524 6.00995 7.61513L5.45738 9.00964ZM4.66185 6.58887C3.9466 7.30195 4.19893 8.51098 5.13554 8.88211L5.6881 7.4876C5.75268 7.51318 5.77259 7.5996 5.7209 7.65114L4.66185 6.58887ZM7.50699 10.6321L7.6568 10.7819L8.71746 9.72128L8.56765 9.57148L7.50699 10.6321ZM7.09948 10.2258L7.50779 10.6329L8.56686 9.57068L8.15854 9.1636L7.09948 10.2258Z" fill="#1C274C"/>
<path d="M13.9246 16.025L13.3942 16.5553C13.4058 16.5669 13.4178 16.5781 13.4301 16.5889L13.9246 16.025ZM18.5443 11.4859C18.3191 11.1382 17.8548 11.0389 17.5071 11.264C17.1594 11.4891 17.06 11.9535 17.2852 12.3012L18.5443 11.4859ZM18.26 12.4268L17.6304 12.8344L17.6304 12.8344L18.26 12.4268ZM19.3841 14.6044L20.1259 14.4941L19.3841 14.6044ZM16.8644 18.7582L16.3349 18.2271L16.3349 18.2271L16.8644 18.7582ZM19.1894 16.119L18.4972 15.8301V15.8301L19.1894 16.119ZM16.5329 18.3607C16.3796 17.976 15.9433 17.7884 15.5585 17.9418C15.1738 18.0951 14.9862 18.5314 15.1396 18.9162L16.5329 18.3607ZM13.8746 16.9786C14.186 17.2517 14.6599 17.2206 14.933 16.9091C15.206 16.5977 15.1749 16.1238 14.8635 15.8507L13.8746 16.9786ZM16.793 18.8294L17.3225 19.3605L17.3225 19.3605L16.793 18.8294ZM14.2159 15.2556C13.923 14.9627 13.4481 14.9627 13.1552 15.2556C12.8623 15.5485 12.8623 16.0234 13.1552 16.3163L14.2159 15.2556ZM17.2852 12.3012L17.6304 12.8344L18.8895 12.0192L18.5443 11.4859L17.2852 12.3012ZM16.3349 18.2271L16.2634 18.2983L17.3225 19.3605L17.394 19.2893L16.3349 18.2271ZM17.6304 12.8344C17.983 13.379 18.2238 13.7518 18.3905 14.0592C18.552 14.3573 18.6174 14.5475 18.6423 14.7147L20.1259 14.4941C20.0656 14.0882 19.9152 13.7245 19.7092 13.3444C19.5082 12.9737 19.2296 12.5443 18.8895 12.0192L17.6304 12.8344ZM17.394 19.2893C17.8671 18.8176 18.4035 18.283 18.8504 17.796C19.0741 17.5523 19.2836 17.3116 19.4558 17.0895C19.619 16.8791 19.7843 16.6406 19.8815 16.4079L18.4972 15.8301C18.4796 15.8724 18.416 15.9827 18.2704 16.1704C18.1339 16.3464 17.9552 16.5531 17.7453 16.7818C17.3252 17.2395 16.8139 17.7495 16.3349 18.2271L17.394 19.2893ZM18.6423 14.7147C18.6967 15.081 18.6487 15.4672 18.4972 15.8301L19.8815 16.4079C20.135 15.8005 20.2218 15.1387 20.1259 14.4941L18.6423 14.7147ZM14.8635 15.8507L14.419 15.461L13.4301 16.5889L13.8746 16.9786L14.8635 15.8507ZM16.2634 18.2983C16.3072 18.2547 16.3661 18.2444 16.4081 18.2528C16.4504 18.2613 16.5069 18.2955 16.5329 18.3607L15.1396 18.9162C15.4965 19.8115 16.6547 20.0263 17.3225 19.3605L16.2634 18.2983ZM14.4549 15.4946L14.2159 15.2556L13.1552 16.3163L13.3942 16.5553L14.4549 15.4946Z" fill="#1C274C"/>
<path d="M15.0502 9.41414C15.3435 9.7066 15.8184 9.70588 16.1108 9.41255C16.4033 9.11922 16.4026 8.64434 16.1093 8.35189L15.0502 9.41414ZM17.3849 8.35189C17.0916 8.64434 17.0908 9.11922 17.3833 9.41255C17.6757 9.70588 18.1506 9.7066 18.444 9.41414L17.3849 8.35189ZM18.444 6.0242C17.5065 5.08959 15.9876 5.08959 15.0502 6.0242L16.1093 7.08645C16.4613 6.73551 17.0329 6.73551 17.3849 7.08645L18.444 6.0242ZM15.0502 6.0242C14.1115 6.96005 14.1115 8.47829 15.0502 9.41414L16.1093 8.35189C15.7585 8.00219 15.7585 7.43615 16.1093 7.08645L15.0502 6.0242ZM18.444 9.41414C19.3826 8.47829 19.3826 6.96005 18.444 6.0242L17.3849 7.08645C17.7356 7.43615 17.7356 8.00219 17.3849 8.35189L18.444 9.41414Z" fill="#1C274C"/>
</svg>
