<svg width="24" height="24" viewBox="0 0 24 24" fill="none" xmlns="http://www.w3.org/2000/svg">
<path d="M21.6588 14.5877L20.9344 14.3936V14.3936L21.6588 14.5877ZM9.41136 21.6588L9.21725 22.3833V22.3833L9.41136 21.6588ZM2.34029 9.41136L1.61585 9.21725V9.21725L2.34029 9.41136ZM14.5877 2.34029L14.3936 3.06474V3.06474L14.5877 2.34029ZM11.5277 12.5825C11.8497 12.8431 12.3219 12.7934 12.5825 12.4714C12.8431 12.1494 12.7934 11.6772 12.4714 11.4166L11.5277 12.5825ZM5.00148 6.33546L5.47333 5.75248H5.47333L5.00148 6.33546ZM3.6355 6.5135L3.0083 6.10226V6.10226L3.6355 6.5135ZM6.71788 2.63651C6.35712 2.84004 6.22967 3.29749 6.4332 3.65825C6.63673 4.01901 7.09418 4.14647 7.45494 3.94294L6.71788 2.63651ZM9.86538 5.5941C9.47239 5.72498 9.25991 6.14967 9.39079 6.54266C9.52167 6.93565 9.94635 7.14813 10.3393 7.01725L9.86538 5.5941ZM20.9344 14.3936C19.6122 19.3282 14.54 22.2566 9.60548 20.9344L9.21725 22.3833C14.952 23.9199 20.8466 20.5166 22.3833 14.7819L20.9344 14.3936ZM9.60548 20.9344C4.67091 19.6122 1.74253 14.54 3.06474 9.60548L1.61585 9.21725C0.0792249 14.952 3.48249 20.8466 9.21725 22.3833L9.60548 20.9344ZM14.3936 3.06474C19.3282 4.38695 22.2566 9.45907 20.9344 14.3936L22.3833 14.7819C23.9199 9.0471 20.5166 3.15247 14.7819 1.61585L14.3936 3.06474ZM12.4714 11.4166L5.47333 5.75248L4.52964 6.91843L11.5277 12.5825L12.4714 11.4166ZM3.06474 9.60548C3.32718 8.62605 3.7367 7.72696 4.2627 6.92474L3.0083 6.10226C2.39588 7.0363 1.92011 8.08173 1.61585 9.21725L3.06474 9.60548ZM7.45494 3.94294C9.49082 2.79434 11.9582 2.41218 14.3936 3.06474L14.7819 1.61585C11.9521 0.857612 9.08189 1.3028 6.71788 2.63651L7.45494 3.94294ZM5.47333 5.75248C4.74008 5.159 3.5823 5.22681 3.0083 6.10226L4.2627 6.92474C4.28488 6.8909 4.31565 6.87118 4.36107 6.86569C4.41096 6.85966 4.47379 6.87323 4.52964 6.91843L5.47333 5.75248ZM17.2496 11.9996C17.2496 14.899 14.899 17.2496 11.9996 17.2496V18.7496C15.7275 18.7496 18.7496 15.7275 18.7496 11.9996H17.2496ZM11.9996 17.2496C9.10006 17.2496 6.74955 14.899 6.74955 11.9996H5.24955C5.24955 15.7275 8.27163 18.7496 11.9996 18.7496V17.2496ZM11.9996 6.74955C14.899 6.74955 17.2496 9.10006 17.2496 11.9996H18.7496C18.7496 8.27163 15.7275 5.24955 11.9996 5.24955V6.74955ZM6.74955 11.9996C6.74955 10.7308 7.19864 9.569 7.94727 8.6614L6.79012 7.70693C5.82804 8.8733 5.24955 10.3699 5.24955 11.9996H6.74955ZM10.3393 7.01725C10.8602 6.84379 11.4181 6.74955 11.9996 6.74955V5.24955C11.255 5.24955 10.5371 5.37039 9.86538 5.5941L10.3393 7.01725Z" fill="#1C274C"/>
</svg>
