<svg width="24" height="24" viewBox="0 0 24 24" fill="none" xmlns="http://www.w3.org/2000/svg">
<circle cx="5" cy="5" r="3" stroke="#1C274C" stroke-width="1.5"/>
<circle cx="19" cy="19" r="3" stroke="#1C274C" stroke-width="1.5"/>
<path d="M10.9997 4.25C10.5855 4.25 10.2497 4.58579 10.2497 5C10.2497 5.41421 10.5855 5.75 10.9997 5.75V4.25ZM12.9997 19L13.5301 19.5303C13.823 19.2374 13.823 18.7626 13.5301 18.4697L12.9997 19ZM17.2054 8.68732L17.608 9.32007V9.32007L17.2054 8.68732ZM6.7941 15.3127L7.19676 15.9454H7.19676L6.7941 15.3127ZM12.0301 16.9697C11.7372 16.6768 11.2623 16.6768 10.9694 16.9697C10.6765 17.2626 10.6765 17.7374 10.9694 18.0303L12.0301 16.9697ZM10.9694 19.9697C10.6765 20.2626 10.6765 20.7374 10.9694 21.0303C11.2623 21.3232 11.7372 21.3232 12.0301 21.0303L10.9694 19.9697ZM16.1316 4.25H10.9997V5.75H16.1316V4.25ZM12.9997 18.25H7.86784V19.75H12.9997V18.25ZM16.8027 8.05458L6.39144 14.6799L7.19676 15.9454L17.608 9.32007L16.8027 8.05458ZM13.5301 18.4697L12.0301 16.9697L10.9694 18.0303L12.4694 19.5303L13.5301 18.4697ZM12.4694 18.4697L10.9694 19.9697L12.0301 21.0303L13.5301 19.5303L12.4694 18.4697ZM7.86784 18.25C6.61729 18.25 6.1417 16.6168 7.19676 15.9454L6.39144 14.6799C4.07034 16.157 5.11661 19.75 7.86784 19.75V18.25ZM16.1316 5.75C17.3822 5.75 17.8578 7.38318 16.8027 8.05458L17.608 9.32007C19.9291 7.843 18.8828 4.25 16.1316 4.25V5.75Z" fill="#1C274C"/>
</svg>
