<svg width="24" height="24" viewBox="0 0 24 24" fill="none" xmlns="http://www.w3.org/2000/svg">
<path d="M12.75 2C12.75 1.58579 12.4142 1.25 12 1.25C11.5858 1.25 11.25 1.58579 11.25 2H12.75ZM11.25 2V3H12.75V2H11.25Z" fill="#1C274C"/>
<path d="M12.75 11C12.75 10.5858 12.4142 10.25 12 10.25C11.5858 10.25 11.25 10.5858 11.25 11H12.75ZM11.25 11V12H12.75V11H11.25Z" fill="#1C274C"/>
<path d="M12.75 20C12.75 19.5858 12.4142 19.25 12 19.25C11.5858 19.25 11.25 19.5858 11.25 20H12.75ZM11.25 20V22H12.75V20H11.25Z" fill="#1C274C"/>
<path d="M14 22H10" stroke="#1C274C" stroke-width="1.5" stroke-linecap="round"/>
<path d="M9 7H15" stroke="#1C274C" stroke-width="1.5" stroke-linecap="round"/>
<path d="M9 16L15 16" stroke="#1C274C" stroke-width="1.5" stroke-linecap="round"/>
<path d="M6.7035 3.5H17.4995C18.904 3.5 19.6062 3.5 20.1106 3.83706C20.329 3.98298 20.5165 4.17048 20.6624 4.38886C20.9995 4.89331 20.9995 5.59554 20.9995 7C20.9995 8.40446 20.9995 9.10669 20.6624 9.61114C20.5165 9.82952 20.329 10.017 20.1106 10.1629C19.6062 10.5 18.904 10.5 17.4995 10.5H6.7035C6.04593 10.5 5.71715 10.5 5.41544 10.4018C5.28233 10.3585 5.15414 10.3013 5.03298 10.2312C4.75833 10.0723 4.53866 9.8277 4.09933 9.33844C3.24863 8.39107 2.82327 7.91738 2.72087 7.36381C2.67638 7.12331 2.67638 6.87669 2.72087 6.63619C2.82327 6.08262 3.24862 5.60894 4.09933 4.66156C4.53866 4.1723 4.75833 3.92767 5.03298 3.76879C5.15414 3.6987 5.28233 3.64152 5.41544 3.5982C5.71715 3.5 6.04593 3.5 6.7035 3.5Z" stroke="#1C274C" stroke-width="1.5"/>
<path d="M17.296 12.5H6.5C5.09554 12.5 4.39331 12.5 3.88886 12.8371C3.67048 12.983 3.48298 13.1705 3.33706 13.3889C3 13.8933 3 14.5955 3 16C3 17.4045 3 18.1067 3.33706 18.6111C3.48298 18.8295 3.67048 19.017 3.88886 19.1629C4.39331 19.5 5.09554 19.5 6.5 19.5H17.296C17.9536 19.5 18.2824 19.5 18.5841 19.4018C18.7172 19.3585 18.8454 19.3013 18.9665 19.2312C19.2412 19.0723 19.4608 18.8277 19.9002 18.3384C20.7509 17.3911 21.1762 16.9174 21.2786 16.3638C21.3231 16.1233 21.3231 15.8767 21.2786 15.6362C21.1762 15.0826 20.7509 14.6089 19.9002 13.6616C19.4608 13.1723 19.2412 12.9277 18.9665 12.7688C18.8454 12.6987 18.7172 12.6415 18.5841 12.5982C18.2824 12.5 17.9536 12.5 17.296 12.5Z" stroke="#1C274C" stroke-width="1.5"/>
</svg>
