<svg width="24" height="24" viewBox="0 0 24 24" fill="none" xmlns="http://www.w3.org/2000/svg">
<path fill-rule="evenodd" clip-rule="evenodd" d="M13.1096 13.5004C12.4704 12.9556 11.5302 12.9556 10.891 13.5004C10.617 13.7338 10.2764 13.8749 9.91767 13.9035C9.08046 13.9703 8.41564 14.6351 8.34883 15.4724C8.3202 15.8311 8.17912 16.1717 7.94568 16.4457C7.40092 17.0849 7.40092 18.0251 7.94568 18.6643C8.17912 18.9383 8.3202 19.2789 8.34883 19.6376C8.41564 20.4748 9.08046 21.1397 9.91767 21.2065C10.2764 21.2351 10.617 21.3762 10.891 21.6096C11.5302 22.1544 12.4704 22.1544 13.1096 21.6096C13.3836 21.3762 13.7242 21.2351 14.0829 21.2065C14.9202 21.1397 15.585 20.4748 15.6518 19.6376C15.6804 19.2789 15.8215 18.9383 16.0549 18.6643C16.5997 18.0251 16.5997 17.0849 16.0549 16.4457C15.8215 16.1717 15.6804 15.8311 15.6518 15.4724C15.585 14.6351 14.9202 13.9703 14.0829 13.9035C13.7242 13.8749 13.3836 13.7338 13.1096 13.5004ZM14.0122 17.1035C14.315 16.8208 14.3314 16.3463 14.0488 16.0434C13.7662 15.7406 13.2916 15.7243 12.9888 16.0069L11.3576 17.5293L11.0122 17.2069C10.7094 16.9243 10.2348 16.9406 9.9522 17.2434C9.66957 17.5463 9.68594 18.0208 9.98875 18.3035L10.8459 19.1035C11.1341 19.3724 11.5812 19.3724 11.8694 19.1035L14.0122 17.1035Z" fill="#1C274D"/>
<path opacity="0.5" d="M2 12V8C2 5.17157 2 3.75736 2.87868 2.87868C3.75736 2 5.17157 2 8 2H16C18.8284 2 20.2426 2 21.1213 2.87868C22 3.75736 22 5.17157 22 8V12C22 14.8284 22 16.2426 21.1213 17.1213C20.2855 17.9571 18.9652 17.9979 16.4042 17.9999C16.5467 17.4702 16.4302 16.8862 16.0544 16.4453C15.821 16.1714 15.6799 15.8308 15.6513 15.472C15.5845 14.6348 14.9197 13.97 14.0824 13.9031C13.7237 13.8745 13.3831 13.7334 13.1092 13.5C12.4699 12.9552 11.5297 12.9552 10.8905 13.5C10.6165 13.7334 10.276 13.8745 9.91719 13.9031C9.07997 13.97 8.41515 14.6348 8.34834 15.472C8.31971 15.8308 8.17863 16.1714 7.94519 16.4453C7.56948 16.8862 7.4529 17.4702 7.59543 17.9999C5.03465 17.9979 3.71443 17.9571 2.87868 17.1213C2 16.2426 2 14.8284 2 12Z" fill="#1C274D"/>
<path d="M8.25 6C8.25 5.58579 8.58579 5.25 9 5.25H15C15.4142 5.25 15.75 5.58579 15.75 6C15.75 6.41421 15.4142 6.75 15 6.75H9C8.58579 6.75 8.25 6.41421 8.25 6Z" fill="#1C274D"/>
<path d="M7 8.75C6.58579 8.75 6.25 9.08579 6.25 9.5C6.25 9.91421 6.58579 10.25 7 10.25H17C17.4142 10.25 17.75 9.91421 17.75 9.5C17.75 9.08579 17.4142 8.75 17 8.75H7Z" fill="#1C274D"/>
</svg>
