<svg width="24" height="24" viewBox="0 0 24 24" fill="none" xmlns="http://www.w3.org/2000/svg">
<path fill-rule="evenodd" clip-rule="evenodd" d="M12.9386 4.73591C13.3511 4.69834 13.716 5.00228 13.7535 5.41479C13.8024 5.95107 13.893 6.5341 14.045 7.1476C14.1447 7.54965 13.8995 7.95635 13.4974 8.05598C13.0954 8.15561 12.6887 7.91045 12.5891 7.5084C12.4172 6.81469 12.3148 6.15607 12.2597 5.55085C12.2221 5.13834 12.5261 4.77348 12.9386 4.73591ZM5.23942 9.18103C5.47821 8.84257 5.94616 8.76178 6.28461 9.00057C6.78119 9.35092 7.30041 9.76885 7.81522 10.2646C8.1136 10.5519 8.12256 11.0267 7.83525 11.3251C7.54794 11.6234 7.07315 11.6324 6.77478 11.3451C6.31949 10.9067 5.85988 10.5367 5.41988 10.2262C5.08142 9.98743 5.00063 9.51948 5.23942 9.18103ZM13.836 8.99648C14.2094 8.81709 14.6574 8.97434 14.8368 9.34769C14.9605 9.60517 15.097 9.86465 15.2474 10.1252C15.3979 10.3857 15.5543 10.6337 15.7155 10.8695C15.9491 11.2116 15.8612 11.6782 15.5192 11.9119C15.1772 12.1455 14.7105 12.0577 14.4769 11.7156C14.2947 11.449 14.118 11.169 13.9484 10.8752C13.7788 10.5814 13.6246 10.2884 13.4848 9.9973C13.3054 9.62395 13.4627 9.17586 13.836 8.99648ZM8.48046 12.0885C8.82249 11.8549 9.28917 11.9427 9.52281 12.2848C9.70496 12.5514 9.88164 12.8314 10.0513 13.1252C10.2209 13.419 10.375 13.712 10.5149 14.0031C10.6943 14.3764 10.537 14.8245 10.1637 15.0039C9.79032 15.1833 9.34223 15.026 9.16285 14.6527C9.03914 14.3952 8.90267 14.1357 8.75225 13.8752C8.60182 13.6147 8.44534 13.3667 8.28421 13.1308C8.05057 12.7888 8.13843 12.3221 8.48046 12.0885ZM16.1644 12.6753C16.4517 12.377 16.9265 12.368 17.2249 12.6553C17.6802 13.0937 18.1398 13.4637 18.5798 13.7742C18.9183 14.013 18.9991 14.4809 18.7603 14.8194C18.5215 15.1578 18.0535 15.2386 17.7151 14.9998C17.2185 14.6495 16.6993 14.2315 16.1845 13.7358C15.8861 13.4485 15.8771 12.9737 16.1644 12.6753ZM10.5022 15.9444C10.9043 15.8448 11.311 16.0899 11.4106 16.492C11.5825 17.1857 11.6849 17.8443 11.74 18.4495C11.7776 18.862 11.4736 19.2269 11.0611 19.2645C10.6486 19.302 10.2837 18.9981 10.2462 18.5856C10.1973 18.0493 10.1067 17.4663 9.95466 16.8528C9.85502 16.4507 10.1002 16.044 10.5022 15.9444Z" fill="#1C274C"/>
<path fill-rule="evenodd" clip-rule="evenodd" d="M13.2859 1.32681C11.0551 1.0564 8.71992 1.48083 6.62484 2.69042C1.4832 5.65895 -0.278462 12.2335 2.69007 17.3752C5.6586 22.5168 12.2332 24.2785 17.3748 21.31C19.4699 20.1004 21.0051 18.2903 21.8863 16.2231C23.1661 13.2211 23.0684 9.67143 21.3096 6.62519C19.5509 3.57896 16.5256 1.71951 13.2859 1.32681ZM13.7802 3.08082C13.7309 3.4921 13.3576 3.78559 12.9463 3.73634C12.5351 3.6871 12.2416 3.31378 12.2908 2.9025C12.297 2.8513 12.3032 2.80179 12.3096 2.75403C10.638 2.69628 8.93097 3.09103 7.37484 3.98946C5.81951 4.88743 4.62362 6.16888 3.83764 7.64543C3.88216 7.66377 3.92814 7.68307 3.97552 7.70335C4.35631 7.86634 4.53288 8.30717 4.36989 8.68796C4.20689 9.06876 3.76606 9.24533 3.38527 9.08233C3.33556 9.06106 3.2878 9.04111 3.24212 9.02244C2.41524 11.4575 2.60225 14.2231 3.98911 16.6252C5.37596 19.0273 7.67752 20.572 10.1998 21.0735C10.2065 21.0246 10.2131 20.9733 10.2195 20.9196C10.2687 20.5083 10.6421 20.2148 11.0533 20.264C11.4646 20.3133 11.7581 20.6866 11.7089 21.0979C11.7027 21.1491 11.6965 21.1985 11.6901 21.2463C13.3618 21.3039 15.0695 20.9089 16.6248 20.0109C18.181 19.1125 19.3764 17.8315 20.1621 16.355C20.1176 16.3366 20.0716 16.3173 20.0242 16.297C19.6434 16.134 19.4668 15.6932 19.6298 15.3124C19.7928 14.9316 20.2336 14.7551 20.6144 14.9181C20.6641 14.9393 20.7119 14.9593 20.7576 14.978C21.5849 12.5416 21.3972 9.77688 20.0106 7.37519C18.624 4.97351 16.3236 3.42857 13.7999 2.92688C13.7932 2.97578 13.7866 3.02713 13.7802 3.08082Z" fill="#1C274C"/>
</svg>
