<svg width="24" height="24" viewBox="0 0 24 24" fill="none" xmlns="http://www.w3.org/2000/svg">
<path fill-rule="evenodd" clip-rule="evenodd" d="M15.9925 2.01606C15.927 2.11432 15.861 2.23365 15.7998 2.34428L15.4773 2.92717L12.6497 4.31687C12.5735 4.35431 12.5266 4.37734 12.4819 4.40033C10.856 5.23521 9.71047 6.80401 9.36562 8.63327C9.35611 8.6837 9.34708 8.73636 9.33217 8.82329L9.33094 8.83049C9.31501 8.92336 9.30798 8.96428 9.30076 9.00377C9.03456 10.4594 8.3439 11.7879 7.32835 12.8097C7.30083 12.8374 7.27207 12.8657 7.20619 12.9304L6.4018 13.7214C5.89777 14.217 5.49146 14.6165 5.18768 14.9601C4.87759 15.311 4.62758 15.654 4.47734 16.0485C4.07618 17.1018 4.21118 18.2956 4.84068 19.2287C5.07679 19.5786 5.39871 19.8542 5.7799 20.1224C6.15313 20.3849 6.63864 20.6774 7.24012 21.0397L7.95314 21.4692C8.55438 21.8314 9.03997 22.124 9.44477 22.3301C9.85683 22.5399 10.2515 22.6961 10.6702 22.7354C11.7877 22.8403 12.8691 22.3503 13.5501 21.4515C13.8038 21.1167 13.9627 20.7199 14.0978 20.2677C14.2308 19.8226 14.359 19.2569 14.5185 18.5527L14.7726 17.4316C14.7934 17.3398 14.8025 17.2993 14.8118 17.2603C15.1543 15.8228 15.9137 14.5369 16.9809 13.5757C17.0098 13.5496 17.04 13.5231 17.1092 13.4621L17.1147 13.4573C17.1793 13.4005 17.2187 13.3658 17.2562 13.3316C18.614 12.0945 19.3318 10.2773 19.2136 8.41784C19.2103 8.3666 19.206 8.3133 19.199 8.22531L18.9373 4.95823L19.2924 4.31639C19.3496 4.21313 19.4119 4.10062 19.4581 3.9986C19.5106 3.88267 19.5692 3.72469 19.5779 3.5319C19.5895 3.27447 19.5213 3.01973 19.3826 2.80256C19.2787 2.63992 19.149 2.53236 19.0456 2.45816C18.9547 2.39287 18.8445 2.32652 18.7434 2.26564L17.928 1.77446C17.8197 1.70921 17.7029 1.63882 17.5971 1.58645C17.4778 1.52742 17.3127 1.45977 17.109 1.44756C16.8392 1.43137 16.5715 1.50306 16.3459 1.65188C16.1756 1.76421 16.0663 1.90532 15.9925 2.01606ZM15.983 4.34999L17.4548 5.23658L17.7032 8.33766C17.7083 8.4016 17.7115 8.44095 17.7137 8.47104L16.6585 8.82274C16.0296 9.03238 15.3373 8.90891 14.8196 8.49478C13.7675 7.65308 12.322 7.49995 11.1169 8.10251L11.0572 8.13235C11.4489 7.0888 12.1998 6.23138 13.1671 5.73469C13.1987 5.71845 13.2331 5.70152 13.3182 5.65968L15.983 4.34999Z" fill="#1C274C"/>
</svg>
