<svg width="24" height="24" viewBox="0 0 24 24" fill="none" xmlns="http://www.w3.org/2000/svg">
<path fill-rule="evenodd" clip-rule="evenodd" d="M11.9996 2.75C10.7569 2.75 9.74958 3.75736 9.74958 5V5.25447C10.1671 5.24999 10.6178 5.25 11.1048 5.25H12.8943C13.3814 5.25 13.8321 5.24999 14.2496 5.25447V5C14.2496 3.75736 13.2422 2.75 11.9996 2.75ZM15.7496 5.30694V5C15.7496 2.92893 14.0706 1.25 11.9996 1.25C9.92851 1.25 8.24958 2.92893 8.24958 5V5.30694C8.11458 5.31679 7.9843 5.32834 7.85855 5.34189C6.98019 5.43657 6.24565 5.63489 5.59336 6.08197C5.36901 6.23574 5.15829 6.40849 4.96351 6.59833C4.39718 7.15027 4.05865 7.83166 3.79356 8.67439C3.53619 9.49258 3.32818 10.5327 3.0668 11.8396L3.04773 11.935C2.67109 13.8181 2.37429 15.302 2.28905 16.484C2.20195 17.6916 2.32366 18.7075 2.8957 19.588C3.08656 19.8817 3.30933 20.1534 3.55995 20.3982C4.31108 21.1318 5.28343 21.4504 6.48469 21.6018C7.66038 21.75 9.17369 21.75 11.0941 21.75H12.905C14.8255 21.75 16.3388 21.75 17.5145 21.6018C18.7157 21.4504 19.6881 21.1318 20.4392 20.3982C20.6898 20.1534 20.9126 19.8817 21.1035 19.588C21.6755 18.7075 21.7972 17.6916 21.7101 16.484C21.6249 15.3021 21.3281 13.8182 20.9514 11.9351L20.9324 11.8396C20.671 10.5327 20.463 9.49259 20.2056 8.67439C19.9405 7.83166 19.602 7.15027 19.0356 6.59833C18.8409 6.40849 18.6301 6.23574 18.4058 6.08197C17.7535 5.63489 17.019 5.43657 16.1406 5.34189C16.0148 5.32834 15.8846 5.31679 15.7496 5.30694ZM8.01929 6.83326C7.27258 6.91374 6.81128 7.06572 6.44139 7.31924C6.28789 7.42445 6.14371 7.54265 6.01044 7.67254C5.6893 7.98552 5.4498 8.40807 5.22444 9.12449C4.99414 9.85661 4.80098 10.8172 4.52919 12.1762C4.13964 14.1239 3.86281 15.5153 3.78516 16.5919C3.70858 17.6538 3.83789 18.2849 4.15352 18.7707C4.28411 18.9717 4.43653 19.1576 4.608 19.3251C5.02245 19.7298 5.61597 19.9804 6.6723 20.1136C7.74319 20.2486 9.16181 20.25 11.1481 20.25H12.851C14.8373 20.25 16.256 20.2486 17.3269 20.1136C18.3832 19.9804 18.9767 19.7298 19.3911 19.3251C19.5626 19.1576 19.715 18.9717 19.8456 18.7707C20.1613 18.2849 20.2906 17.6538 20.214 16.5919C20.1363 15.5153 19.8595 14.1239 19.47 12.1762C19.1982 10.8173 19.005 9.85661 18.7747 9.12449C18.5494 8.40807 18.3099 7.98552 17.9887 7.67254C17.8554 7.54265 17.7113 7.42445 17.5578 7.31924C17.1879 7.06572 16.7266 6.91374 15.9799 6.83326C15.2168 6.75101 14.2369 6.75 12.851 6.75H11.1481C9.76223 6.75 8.78236 6.75101 8.01929 6.83326ZM8.92054 14.2929C9.31108 14.1548 9.73957 14.3595 9.8776 14.7501C10.1868 15.625 11.0213 16.25 11.9998 16.25C12.9783 16.25 13.8127 15.625 14.1219 14.7501C14.26 14.3595 14.6885 14.1548 15.079 14.2929C15.4695 14.4309 15.6742 14.8594 15.5362 15.2499C15.0218 16.7054 13.6337 17.75 11.9998 17.75C10.3658 17.75 8.97778 16.7054 8.46334 15.2499C8.32531 14.8594 8.53 14.4309 8.92054 14.2929Z" fill="#1C274C"/>
</svg>
