<svg width="24" height="24" viewBox="0 0 24 24" fill="none" xmlns="http://www.w3.org/2000/svg">
<path fill-rule="evenodd" clip-rule="evenodd" d="M8.41839 3.25077C8.6991 2.65912 9.30195 2.25 10.0003 2.25H14.0003C14.6987 2.25 15.3016 2.65912 15.5823 3.25077C16.2658 3.25574 16.7986 3.28712 17.2741 3.47298C17.8423 3.69505 18.3365 4.07255 18.7003 4.5623C19.0672 5.05639 19.2394 5.68968 19.4765 6.56133C19.4887 6.60604 19.501 6.65137 19.5135 6.69735L20.1044 8.86428C20.4919 9.06271 20.8309 9.32993 21.1138 9.6922C21.7358 10.4888 21.8459 11.4377 21.7353 12.5261C21.6279 13.5822 21.2954 14.9122 20.8792 16.577L20.8528 16.6824C20.5896 17.7352 20.376 18.59 20.1218 19.2572C19.8568 19.9527 19.5204 20.5227 18.9658 20.9558C18.4112 21.3888 17.7766 21.5769 17.0375 21.6653C16.3287 21.75 15.4477 21.75 14.3625 21.75H9.6382C8.55303 21.75 7.67196 21.75 6.96315 21.6653C6.22414 21.5769 5.5895 21.3888 5.03488 20.9558C4.48026 20.5227 4.14386 19.9527 3.87889 19.2572C3.62475 18.5901 3.41107 17.7353 3.14789 16.6825L3.12149 16.5769C2.70527 14.9121 2.37278 13.5822 2.26541 12.5261C2.15476 11.4377 2.26491 10.4888 2.88691 9.6922C3.16976 9.32993 3.50883 9.06271 3.89631 8.86428L4.48716 6.69735C4.4997 6.65137 4.51203 6.60604 4.52419 6.56134C4.76126 5.68968 4.93351 5.05639 5.30044 4.5623C5.66415 4.07255 6.15837 3.69505 6.72656 3.47298C7.20211 3.28712 7.73485 3.25574 8.41839 3.25077ZM8.4198 4.75219C7.75796 4.75888 7.49239 4.78416 7.27259 4.87007C6.96664 4.98964 6.70052 5.19291 6.50468 5.45662C6.32857 5.69376 6.22523 6.02508 5.93433 7.09195L5.58075 8.38869C6.61855 8.24996 7.95835 8.24998 9.62296 8.25H14.3777C16.0423 8.24998 17.3822 8.24996 18.4199 8.38869L18.0664 7.09194C17.7755 6.02508 17.6721 5.69377 17.496 5.45663C17.3002 5.19291 17.0341 4.98964 16.7281 4.87007C16.5083 4.78416 16.2427 4.75888 15.5809 4.75219C15.2996 5.34225 14.6976 5.75 14.0003 5.75H10.0003C9.30311 5.75 8.70111 5.34225 8.4198 4.75219ZM10.0003 3.75C9.86228 3.75 9.75035 3.86193 9.75035 4C9.75035 4.13807 9.86228 4.25 10.0003 4.25H14.0003C14.1384 4.25 14.2503 4.13807 14.2503 4C14.2503 3.86193 14.1384 3.75 14.0003 3.75H10.0003ZM5.70019 9.88649C4.78902 10.0183 4.34805 10.2582 4.06921 10.6153C3.79038 10.9725 3.6646 11.4584 3.75772 12.3744C3.85282 13.3099 4.15705 14.5345 4.59176 16.2733C4.86902 17.3824 5.06212 18.1496 5.28061 18.7231C5.49193 19.2778 5.69884 19.5711 5.958 19.7735C6.21716 19.9758 6.55188 20.1054 7.14125 20.1759C7.75064 20.2488 8.54182 20.25 9.68501 20.25H14.3157C15.4589 20.25 16.2501 20.2488 16.8594 20.1759C17.4488 20.1054 17.7835 19.9758 18.0427 19.7735C18.3019 19.5711 18.5088 19.2778 18.7201 18.7231C18.9386 18.1496 19.1317 17.3824 19.4089 16.2733C19.8436 14.5345 20.1479 13.3099 20.243 12.3744C20.3361 11.4584 20.2103 10.9725 19.9315 10.6153C19.6526 10.2582 19.2117 10.0183 18.3005 9.88649C17.3699 9.75187 16.108 9.75 14.3157 9.75H9.68501C7.89266 9.75 6.63083 9.75187 5.70019 9.88649Z" fill="#1C274C"/>
</svg>
