<svg width="24" height="24" viewBox="0 0 24 24" fill="none" xmlns="http://www.w3.org/2000/svg">
<path fill-rule="evenodd" clip-rule="evenodd" d="M8.55703 4.32787C8.83413 4.63576 8.80917 5.10997 8.50129 5.38707L6.80482 6.91389C6.01694 7.62298 5.48574 8.10338 5.14164 8.51241C4.81139 8.90499 4.73926 9.13417 4.73926 9.3296C4.73926 9.52502 4.81139 9.75421 5.14164 10.1468C5.48574 10.5558 6.01694 11.0362 6.80482 11.7453L8.50129 13.2721C8.80917 13.5492 8.83413 14.0234 8.55703 14.3313C8.27994 14.6392 7.80572 14.6642 7.49784 14.3871L5.76034 12.8233C5.024 12.1607 4.41321 11.611 3.99379 11.1124C3.55276 10.5882 3.23926 10.0249 3.23926 9.3296C3.23926 8.6343 3.55276 8.07104 3.99379 7.54679C4.41321 7.04822 5.02401 6.49853 5.76035 5.83587C5.77398 5.8236 5.78765 5.81129 5.80137 5.79895L7.49784 4.27213C7.80572 3.99503 8.27994 4.01999 8.55703 4.32787ZM14.179 4.27517C14.5793 4.38157 14.8176 4.79234 14.7112 5.19266L10.7244 20.1927C10.618 20.593 10.2072 20.8312 9.80691 20.7248C9.4066 20.6184 9.16833 20.2077 9.27473 19.8074L13.2615 4.80735C13.3679 4.40704 13.7787 4.16877 14.179 4.27517ZM15.4421 10.4983C15.7192 10.1904 16.1934 10.1654 16.5013 10.4425L18.2388 12.0063C18.9751 12.6689 19.5859 13.2186 20.0053 13.7172C20.4464 14.2415 20.7599 14.8047 20.7599 15.5C20.7599 16.1953 20.4464 16.7586 20.0053 17.2828C19.5859 17.7814 18.9751 18.3311 18.2388 18.9937L16.5013 20.5575C16.1934 20.8346 15.7192 20.8096 15.4421 20.5017C15.165 20.1938 15.19 19.7196 15.4978 19.4425L17.1943 17.9157C17.9822 17.2066 18.5134 16.7262 18.8575 16.3172C19.1877 15.9246 19.2599 15.6954 19.2599 15.5C19.2599 15.3046 19.1877 15.0754 18.8575 14.6828C18.5134 14.2738 17.9822 13.7934 17.1943 13.0843L15.4978 11.5575C15.19 11.2804 15.165 10.8062 15.4421 10.4983Z" fill="#1C274C"/>
</svg>
