<svg width="24" height="24" viewBox="0 0 24 24" fill="none" xmlns="http://www.w3.org/2000/svg">
<path d="M8.91211 15.9331C10.1704 16.2485 11.5981 16.2487 13.0346 15.8638C14.4712 15.4788 15.7075 14.7649 16.6395 13.8626" stroke="#1C274C" stroke-width="1.5" stroke-linecap="round"/>
<ellipse cx="14.5094" cy="9.77454" rx="1" ry="1.5" transform="rotate(-15 14.5094 9.77454)" fill="#1C274C"/>
<ellipse cx="8.71353" cy="11.3278" rx="1" ry="1.5" transform="rotate(-15 8.71353 11.3278)" fill="#1C274C"/>
<path d="M13 15.9999L13.478 16.9737C13.8393 17.7099 14.7249 18.0193 15.4661 17.6685C16.2223 17.3105 16.5394 16.403 16.1708 15.6519L15.7115 14.7163" stroke="#1C274C" stroke-width="1.5"/>
<path d="M4.92799 4.92711C6.12852 3.72457 7.65199 2.8122 9.41136 2.34078C14.746 0.911364 20.2294 4.07719 21.6588 9.41185C23.0882 14.7465 19.9224 20.2299 14.5877 21.6593C9.25308 23.0887 3.76971 19.9229 2.34029 14.5882C1.86887 12.8289 1.89727 11.0533 2.33844 9.41235" stroke="#1C274C" stroke-width="1.5" stroke-linecap="round"/>
</svg>
