<svg width="24" height="24" viewBox="0 0 24 24" fill="none" xmlns="http://www.w3.org/2000/svg">
<path d="M15.7281 3.88409C17.1624 2.4442 19.2604 2.41396 20.4219 3.57993C21.5856 4.7481 21.5542 6.85934 20.1189 8.30021L17.6951 10.7335C17.4028 11.0269 17.4037 11.5018 17.6971 11.7941C17.9906 12.0864 18.4655 12.0855 18.7578 11.7921L21.1816 9.35882C23.0929 7.4401 23.3329 4.37677 21.4846 2.52133C19.6342 0.663673 16.5776 0.905786 14.6653 2.82548L9.81768 7.69194C7.90639 9.61066 7.66643 12.674 9.5147 14.5295C9.80702 14.8229 10.2819 14.8238 10.5754 14.5315C10.8688 14.2392 10.8697 13.7643 10.5774 13.4709C9.41376 12.3027 9.4451 10.1914 10.8804 8.75054L15.7281 3.88409Z" fill="#1C274C"/>
<path d="M14.4846 9.47086C14.1923 9.1774 13.7174 9.17648 13.4239 9.46881C13.1305 9.76113 13.1296 10.236 13.4219 10.5295C14.5856 11.6976 14.5542 13.8089 13.1189 15.2497L8.27129 20.1162C6.83696 21.5561 4.73889 21.5864 3.57742 20.4204C2.41376 19.2522 2.4451 17.1409 3.8804 15.7001L6.30424 13.2668C6.59657 12.9733 6.59565 12.4985 6.30219 12.2062C6.00873 11.9138 5.53386 11.9147 5.24153 12.2082L2.81769 14.6415C0.906387 16.5602 0.666428 19.6235 2.5147 21.479C4.36518 23.3367 7.42173 23.0945 9.334 21.1748L14.1816 16.3083C16.0929 14.3896 16.3329 11.3263 14.4846 9.47086Z" fill="#1C274C"/>
</svg>
