<svg width="24" height="24" viewBox="0 0 24 24" fill="none" xmlns="http://www.w3.org/2000/svg">
<path d="M12 20.2832C13.0615 21.2333 14.4633 21.811 16 21.811C19.3137 21.811 22 19.1247 22 15.811C22 13.0152 20.0878 10.6661 17.5 10" stroke="#1C274C" stroke-width="1.5"/>
<path d="M9 2.80269C9.88252 2.29218 10.9071 2 12 2C15.3137 2 18 4.68629 18 8C18 11.3137 15.3137 14 12 14C8.68629 14 6 11.3137 6 8C6 7.29873 6.12031 6.62556 6.34141 6" stroke="#1C274C" stroke-width="1.5" stroke-linecap="round"/>
<path d="M8 22.0004V21.2504V21.2504V22.0004ZM2 16.0004H1.25V16.0004H2ZM2.15349 19.376C2.3609 19.7345 2.81969 19.857 3.17824 19.6496C3.53678 19.4422 3.65931 18.9834 3.4519 18.6249L2.15349 19.376ZM6.24994 20.9519C5.8594 20.8139 5.43091 21.0185 5.29287 21.4091C5.15484 21.7996 5.35953 22.2281 5.75007 22.3661L6.24994 20.9519ZM13.25 16.0004C13.25 18.8999 10.8995 21.2504 8 21.2504V22.7504C11.7279 22.7504 14.75 19.7283 14.75 16.0004H13.25ZM2.75 16.0004C2.75 13.5552 4.42242 11.4986 6.68694 10.9158L6.31306 9.46313C3.4019 10.2124 1.25 12.8542 1.25 16.0004H2.75ZM12.9058 14.1261C13.1279 14.7072 13.25 15.3387 13.25 16.0004H14.75C14.75 15.1528 14.5934 14.3399 14.3069 13.5905L12.9058 14.1261ZM3.4519 18.6249C3.00564 17.8534 2.75 16.9579 2.75 16.0004H1.25C1.25 17.2286 1.57872 18.3824 2.15349 19.376L3.4519 18.6249ZM8 21.2504C7.38505 21.2504 6.79634 21.145 6.24994 20.9519L5.75007 22.3661C6.45478 22.6152 7.21241 22.7504 8 22.7504V21.2504Z" fill="#1C274C"/>
</svg>
