<svg width="24" height="24" viewBox="0 0 24 24" fill="none" xmlns="http://www.w3.org/2000/svg">
<path d="M6.99956 12H5.99956C4.11394 12 3.17113 12 2.58535 12.5858C2.1138 13.0573 2.02184 13.7602 2.00391 15M11.9996 17V18C11.9996 19.8856 11.9996 20.8284 11.4138 21.4142C10.828 22 9.88518 22 7.99956 22H5.99956C4.11394 22 3.17113 22 2.58535 21.4142C2.1138 20.9427 2.02184 20.2398 2.00391 19" stroke="#1C274C" stroke-width="1.5" stroke-linecap="round"/>
<path d="M12 7H11C9.11438 7 8.17157 7 7.58579 7.58579C7 8.17157 7 9.11438 7 11V13C7 14.8856 7 15.8284 7.58579 16.4142C8.17157 17 9.11438 17 11 17H13C14.8856 17 15.8284 17 16.4142 16.4142C17 15.8284 17 14.8856 17 13V12" stroke="#1C274C" stroke-width="1.5"/>
<path d="M15 2.00391C13.7602 2.02184 13.0573 2.1138 12.5858 2.58535C12 3.17113 12 4.11394 12 5.99956V7.99956C12 9.88518 12 10.828 12.5858 11.4138C13.1716 11.9996 14.1144 11.9996 16 11.9996H18C19.8856 11.9996 20.8284 11.9996 21.4142 11.4138C22 10.828 22 9.88518 22 7.99956V5.99956C22 4.11394 22 3.17113 21.4142 2.58535C20.9427 2.1138 20.2398 2.02184 19 2.00391" stroke="#1C274C" stroke-width="1.5" stroke-linecap="round"/>
</svg>
