<svg width="24" height="24" viewBox="0 0 24 24" fill="none" xmlns="http://www.w3.org/2000/svg">
<path fill-rule="evenodd" clip-rule="evenodd" d="M10.6925 4.95069C9.52266 2.85457 6.68752 2.72685 5.00745 4.40692C4.10879 5.30558 3.3103 6.5005 3.25706 7.90469C3.17818 9.98563 3.71556 13.4409 7.13735 16.8626C10.5591 20.2844 14.0144 20.8218 16.0953 20.7429C17.4995 20.6897 18.6944 19.8912 19.5931 18.9925C21.2731 17.3125 21.1454 14.4773 19.0493 13.3075L17.8864 12.6585C16.5176 11.8946 14.7905 12.2201 13.6585 13.3384C13.6381 13.3533 13.5231 13.4323 13.3221 13.4421C13.0656 13.4546 12.4729 13.3633 11.5548 12.4452C10.6364 11.5267 10.5454 10.934 10.5579 10.6776C10.5677 10.4768 10.6467 10.3619 10.6616 10.3415C11.7799 9.20952 12.1054 7.48244 11.3415 6.11362L10.6925 4.95069ZM6.06811 5.46758C7.17394 4.36175 8.78363 4.60834 9.38265 5.68169L10.0317 6.84462C10.4354 7.56803 10.2977 8.58417 9.58435 9.29749C9.51471 9.36714 9.09846 9.81278 9.0597 10.6043C9.02003 11.4146 9.38395 12.3956 10.4942 13.5058C11.604 14.6157 12.5847 14.9797 13.395 14.9403C14.1864 14.9018 14.6322 14.4859 14.7023 14.4158C15.4156 13.7025 16.432 13.5646 17.1554 13.9683L18.3183 14.6173C19.3916 15.2164 19.6382 16.826 18.5324 17.9319C17.7571 18.7072 16.9013 19.2113 16.0385 19.244C14.3031 19.3098 11.2774 18.8814 8.19801 15.802C5.11864 12.7226 4.6902 9.69686 4.75599 7.96152C4.7887 7.09874 5.29276 6.24293 6.06811 5.46758Z" fill="#1C274C"/>
<path d="M16 4.25002C15.5858 4.25002 15.25 4.58581 15.25 5.00002C15.25 5.41423 15.5858 5.75002 16 5.75002H17.1893L14.4696 8.46969C14.1768 8.76258 14.1768 9.23746 14.4696 9.53035C14.7625 9.82324 15.2374 9.82324 15.5303 9.53035L18.25 6.81068V8.00002C18.25 8.41423 18.5858 8.75002 19 8.75002C19.4142 8.75002 19.75 8.41423 19.75 8.00002V5.00002C19.75 4.58581 19.4142 4.25002 19 4.25002H16Z" fill="#1C274C"/>
</svg>
