<svg width="24" height="24" viewBox="0 0 24 24" fill="none" xmlns="http://www.w3.org/2000/svg">
<path d="M11 18H20C21.1046 18 22 17.1046 22 16C22 14.8954 21.1046 14 20 14H4C2.89543 14 2 14.8954 2 16C2 17.1046 2.89543 18 4 18H7" stroke="#1C274C" stroke-width="1.5" stroke-linecap="round"/>
<path d="M4.50042 14L4.42577 13.7014C3.33894 9.35409 2.79552 7.18043 3.86633 5.67821C3.93387 5.58345 4.00553 5.49169 4.08107 5.40317C5.27873 4 7.51929 4 12.0004 4C12.7238 4 13.3888 4 14.0005 4.0059M19.5004 14L19.5751 13.7014C20.6619 9.35409 21.2053 7.18043 20.1345 5.67821C20.067 5.58345 19.9953 5.49169 19.9198 5.40317C19.458 4.86212 18.8411 4.52969 18.0005 4.32545" stroke="#1C274C" stroke-width="1.5" stroke-linecap="round"/>
<path d="M20 20V18M4 20V18" stroke="#1C274C" stroke-width="1.5" stroke-linecap="round"/>
</svg>
