<svg width="24" height="24" viewBox="0 0 24 24" fill="none" xmlns="http://www.w3.org/2000/svg">
<path d="M3.99951 11H15.9995C17.8851 11 18.8279 11 19.4137 11.5858C19.9995 12.1716 19.9995 13.1144 19.9995 15V16C19.9995 18.8284 19.9995 20.2426 19.1208 21.1213C18.2422 22 16.8279 22 13.9995 22H9.99951C7.17108 22 5.75687 22 4.87819 21.1213C3.99951 20.2426 3.99951 18.8284 3.99951 16V11Z" fill="#1C274C"/>
<path d="M13.9179 3.16598L9.14976 4.44361C9.17095 4.52917 9.1773 4.61993 9.16624 4.71262L8.56217 9.77744L13.3415 8.49682C13.3145 8.40322 13.3053 8.30276 13.3176 8.19993L13.9179 3.16598Z" fill="#1C274C"/>
<path d="M14.8407 8.09511L18.2482 7.18208C18.4726 7.12195 18.5848 7.09188 18.6732 7.04832C19.0359 6.86943 19.2552 6.48964 19.2287 6.08604C19.2223 5.98776 19.1922 5.87556 19.1321 5.65114C18.9517 4.97791 18.8615 4.64129 18.7308 4.37629C18.1941 3.28804 17.0548 2.63022 15.844 2.70958C15.7208 2.71766 15.5903 2.73811 15.4309 2.77235C15.45 2.85465 15.4553 2.94159 15.4448 3.0303L14.8407 8.09511Z" fill="#1C274C"/>
<path d="M7.063 10.1791C7.03594 10.0855 7.02678 9.98509 7.03904 9.88225L7.63943 4.84831L7.53633 4.87593C5.73079 5.35973 4.82802 5.60162 4.25961 6.17003C3.88724 6.5424 3.61945 7.00623 3.48316 7.51489C3.2751 8.29135 3.517 9.19412 4.00079 10.9997L7.063 10.1791Z" fill="#1C274C"/>
</svg>
