<svg width="24" height="24" viewBox="0 0 24 24" fill="none" xmlns="http://www.w3.org/2000/svg">
<path d="M7 17.9983C4.82497 17.9862 3.64706 17.8897 2.87868 17.1213C2 16.2426 2 14.8284 2 12L2 8C2 5.17157 2 3.75736 2.87868 2.87868C3.75736 2 5.17157 2 8 2L16 2C18.8284 2 20.2426 2 21.1213 2.87868C21.6112 3.36857 21.828 4.02491 21.9239 5M16.5 17.9983L17.3197 17.9957C19.2921 17.9748 20.3915 17.8512 21.1213 17.1213C22 16.2426 22 14.8284 22 12V9" stroke="#1C274D" stroke-width="1.5" stroke-linecap="round"/>
<path d="M9 6L15 6" stroke="#1C274D" stroke-width="1.5" stroke-linecap="round"/>
<path d="M7 9.5H9M17 9.5H12.5" stroke="#1C274D" stroke-width="1.5" stroke-linecap="round"/>
<path d="M10.891 13.9457C11.5302 13.4009 12.4704 13.4009 13.1096 13.9457C13.3836 14.1791 13.7242 14.3202 14.0829 14.3488C14.9202 14.4156 15.585 15.0805 15.6518 15.9177C15.6804 16.2764 15.8215 16.617 16.0549 16.891C16.5997 17.5302 16.5997 18.4704 16.0549 19.1096C15.8215 19.3836 15.6804 19.7242 15.6518 20.0829C15.585 20.9202 14.9202 21.585 14.0829 21.6518C13.7242 21.6804 13.3836 21.8215 13.1096 22.0549C12.4704 22.5997 11.5302 22.5997 10.891 22.0549C10.617 21.8215 10.2764 21.6804 9.91767 21.6518C9.08046 21.585 8.41564 20.9202 8.34883 20.0829C8.3202 19.7242 8.17912 19.3836 7.94568 19.1096C7.40092 18.4704 7.40092 17.5302 7.94568 16.891C8.17912 16.617 8.3202 16.2764 8.34883 15.9177C8.41564 15.0805 9.08046 14.4156 9.91767 14.3488C10.2764 14.3202 10.617 14.1791 10.891 13.9457Z" stroke="#1C274D" stroke-width="1.5"/>
<path d="M10.5 18.2L11.3571 19L13.5 17" stroke="#1C274D" stroke-width="1.5" stroke-linecap="round" stroke-linejoin="round"/>
</svg>
