<svg width="24" height="24" viewBox="0 0 24 24" fill="none" xmlns="http://www.w3.org/2000/svg">
<path d="M12.0004 2C16.7144 2 19.0715 2 20.5359 3.46447C22.0004 4.92893 22.0004 7.28595 22.0004 12C22.0004 16.714 22.0004 19.0711 20.5359 20.5355C19.1789 21.8926 17.0555 21.9921 13.0004 21.9994M2.00098 11C2.00828 6.94493 2.10783 4.8215 3.46486 3.46447C4.43862 2.49071 5.80699 2.16443 8.00049 2.0551" stroke="#1C274C" stroke-width="1.5" stroke-linecap="round"/>
<path d="M12 12L17 7M17 7H13.25M17 7V10.75" stroke="#1C274C" stroke-width="1.5" stroke-linecap="round" stroke-linejoin="round"/>
<path d="M2 18C2 16.1144 2 15.1716 2.58579 14.5858C3.17157 14 4.11438 14 6 14C7.88562 14 8.82843 14 9.41421 14.5858C10 15.1716 10 16.1144 10 18C10 19.8856 10 20.8284 9.41421 21.4142C8.82843 22 7.88562 22 6 22C4.11438 22 3.17157 22 2.58579 21.4142C2 20.8284 2 19.8856 2 18Z" stroke="#1C274C" stroke-width="1.5"/>
</svg>
