<svg width="24" height="24" viewBox="0 0 24 24" fill="none" xmlns="http://www.w3.org/2000/svg">
<path d="M3.02859 13.0776C2.70271 12.3958 2.70271 11.6032 3.02859 10.9214C3.16948 10.6266 3.40974 10.3447 3.89027 9.78084C4.08152 9.55642 4.17715 9.44421 4.25747 9.32437C4.4416 9.04965 4.56939 8.74114 4.63344 8.41669C4.66139 8.27515 4.67312 8.12819 4.69657 7.83426C4.7555 7.09576 4.78497 6.72651 4.89378 6.41844C5.14546 5.70591 5.70591 5.14546 6.41844 4.89378C6.72651 4.78497 7.09576 4.7555 7.83426 4.69657C8.12819 4.67312 8.27515 4.66139 8.41669 4.63344C8.74114 4.56939 9.04965 4.4416 9.32437 4.25747C9.44421 4.17715 9.55642 4.08152 9.78084 3.89027C10.3447 3.40974 10.6266 3.16948 10.9214 3.02859C11.6032 2.70271 12.3958 2.70271 13.0776 3.02859C13.3724 3.16948 13.6543 3.40974 14.2182 3.89027C14.4426 4.08152 14.5548 4.17715 14.6747 4.25747C14.9494 4.4416 15.2579 4.56939 15.5824 4.63344C15.7239 4.66139 15.8709 4.67312 16.1648 4.69657C16.9033 4.7555 17.2725 4.78497 17.5806 4.89378C18.2931 5.14546 18.8536 5.70591 19.1053 6.41844M4.89378 17.5806C5.14546 18.2931 5.70591 18.8536 6.41844 19.1053C6.72651 19.2141 7.09576 19.2435 7.83426 19.3025C8.12819 19.3259 8.27515 19.3377 8.41669 19.3656C8.74114 19.4297 9.04965 19.5574 9.32437 19.7416C9.44421 19.8219 9.55642 19.9175 9.78084 20.1088C10.3447 20.5893 10.6267 20.8296 10.9214 20.9705C11.6032 21.2963 12.3958 21.2963 13.0776 20.9705C13.3724 20.8296 13.6543 20.5893 14.2182 20.1088C14.4426 19.9175 14.5548 19.8219 14.6747 19.7416C14.9494 19.5574 15.2579 19.4297 15.5824 19.3656C15.7239 19.3377 15.8709 19.3259 16.1648 19.3025C16.9033 19.2435 17.2725 19.2141 17.5806 19.1053C18.2931 18.8536 18.8536 18.2931 19.1053 17.5806C19.2141 17.2725 19.2435 16.9033 19.3025 16.1648C19.3259 15.8709 19.3377 15.7239 19.3656 15.5824C19.4297 15.2579 19.5574 14.9494 19.7416 14.6747C19.8219 14.5548 19.9175 14.4426 20.1088 14.2182C20.5893 13.6543 20.8296 13.3724 20.9705 13.0776C21.2963 12.3958 21.2963 11.6032 20.9705 10.9214" stroke="#1C274C" stroke-width="1.5" stroke-linecap="round"/>
<path d="M9 15L15 9" stroke="#1C274C" stroke-width="1.5" stroke-linecap="round"/>
<path d="M15.5 14.5C15.5 15.0523 15.0523 15.5 14.5 15.5C13.9477 15.5 13.5 15.0523 13.5 14.5C13.5 13.9477 13.9477 13.5 14.5 13.5C15.0523 13.5 15.5 13.9477 15.5 14.5Z" fill="#1C274C"/>
<path d="M10.5 9.5C10.5 10.0523 10.0523 10.5 9.5 10.5C8.94772 10.5 8.5 10.0523 8.5 9.5C8.5 8.94772 8.94772 8.5 9.5 8.5C10.0523 8.5 10.5 8.94772 10.5 9.5Z" fill="#1C274C"/>
</svg>
