<svg width="24" height="24" viewBox="0 0 24 24" fill="none" xmlns="http://www.w3.org/2000/svg">
<path d="M15.9897 4.9502L16.5203 4.42014L16.5203 4.42014L15.9897 4.9502ZM8.7387 19.429L8.2081 19.9591V19.9591L8.7387 19.429ZM4.62201 15.3081L5.15261 14.7781V14.7781L4.62201 15.3081ZM17.5673 14.9943L17.3035 14.2922V14.2922L17.5673 14.9943ZM15.6501 15.7146L15.9139 16.4167V16.4167L15.6501 15.7146ZM8.33252 8.38177L7.6283 8.12375H7.6283L8.33252 8.38177ZM9.02697 6.48636L9.73119 6.74438V6.74438L9.02697 6.48636ZM5.84536 10.6735L6.0447 11.3965H6.0447L5.84536 10.6735ZM7.30199 10.1351L6.86378 9.52646L6.86378 9.52646L7.30199 10.1351ZM7.67614 9.79038L8.24697 10.2768H8.24697L7.67614 9.79038ZM14.2513 16.3805L14.7423 16.9475L14.7423 16.9475L14.2513 16.3805ZM13.3809 18.2012L12.6578 18.0022V18.0022L13.3809 18.2012ZM13.9172 16.7466L13.3079 16.3094L13.3079 16.3094L13.9172 16.7466ZM2.71878 12.7552L1.9688 12.76V12.76L2.71878 12.7552ZM2.93078 11.9521L2.28085 11.5778H2.28085L2.93078 11.9521ZM11.3056 21.3431L11.3067 20.5931H11.3067L11.3056 21.3431ZM12.0936 21.1347L11.7219 20.4833L11.7219 20.4833L12.0936 21.1347ZM21.9655 12.3049L22.6985 12.4634L21.9655 12.3049ZM11.6976 2.03606L11.8592 2.76845V2.76845L11.6976 2.03606ZM22.3555 10.6303C22.1513 10.2699 21.6936 10.1433 21.3332 10.3475C20.9728 10.5516 20.8462 11.0093 21.0504 11.3697L22.3555 10.6303ZM18.0063 8.03006C18.299 8.3231 18.7739 8.32334 19.0669 8.0306C19.36 7.73786 19.3602 7.26298 19.0675 6.96994L18.0063 8.03006ZM9.2693 18.8989L5.15261 14.7781L4.09141 15.8382L8.2081 19.9591L9.2693 18.8989ZM17.3035 14.2922L15.3863 15.0125L15.9139 16.4167L17.831 15.6964L17.3035 14.2922ZM9.03674 8.63979L9.73119 6.74438L8.32275 6.22834L7.6283 8.12375L9.03674 8.63979ZM6.0447 11.3965C6.75615 11.2003 7.29751 11.0625 7.74019 10.7438L6.86378 9.52646C6.69085 9.65097 6.46633 9.72428 5.64602 9.95044L6.0447 11.3965ZM7.6283 8.12375C7.33534 8.92332 7.2437 9.14153 7.10531 9.30391L8.24697 10.2768C8.60073 9.86175 8.78262 9.33337 9.03674 8.63979L7.6283 8.12375ZM7.74019 10.7438C7.92728 10.6091 8.09744 10.4523 8.24697 10.2768L7.10531 9.30391C7.03402 9.38757 6.95292 9.46229 6.86378 9.52646L7.74019 10.7438ZM15.3863 15.0125C14.6973 15.2714 14.172 15.4571 13.7604 15.8135L14.7423 16.9475C14.9031 16.8082 15.1195 16.7152 15.9139 16.4167L15.3863 15.0125ZM14.104 18.4001C14.3293 17.5813 14.4024 17.3569 14.5266 17.1838L13.3079 16.3094C12.9905 16.7517 12.8532 17.2919 12.6578 18.0022L14.104 18.4001ZM13.7604 15.8135C13.5906 15.9605 13.4388 16.1269 13.3079 16.3094L14.5266 17.1838C14.589 17.0968 14.6614 17.0175 14.7423 16.9475L13.7604 15.8135ZM5.15261 14.7781C4.50647 14.1313 4.06831 13.691 3.78398 13.3338C3.49867 12.9753 3.46921 12.8201 3.46877 12.7505L1.9688 12.76C1.97247 13.3422 2.26159 13.8297 2.61034 14.2679C2.96008 14.7073 3.47147 15.2176 4.09141 15.8382L5.15261 14.7781ZM5.64602 9.95044C4.8008 10.1835 4.10428 10.3743 3.58329 10.5835C3.06373 10.792 2.57148 11.0732 2.28085 11.5778L3.5807 12.3264C3.61532 12.2663 3.71725 12.146 4.14212 11.9755C4.56555 11.8055 5.1637 11.6394 6.0447 11.3965L5.64602 9.95044ZM3.46877 12.7505C3.46783 12.6016 3.50648 12.4553 3.5807 12.3264L2.28085 11.5778C2.07386 11.9372 1.96618 12.3452 1.9688 12.76L3.46877 12.7505ZM8.2081 19.9591C8.83196 20.5836 9.34496 21.0987 9.78679 21.4506C10.2273 21.8015 10.7182 22.0922 11.3044 22.0931L11.3067 20.5931C11.2372 20.593 11.0817 20.5644 10.7213 20.2773C10.3621 19.9912 9.91955 19.5499 9.2693 18.8989L8.2081 19.9591ZM12.6578 18.0022C12.4136 18.8897 12.2466 19.4924 12.0754 19.9188C11.9036 20.3467 11.7824 20.4487 11.7219 20.4833L12.4653 21.7861C12.9744 21.4956 13.2576 21.0004 13.4675 20.4775C13.6779 19.9532 13.8697 19.2516 14.104 18.4001L12.6578 18.0022ZM11.3044 22.0931C11.7116 22.0937 12.1117 21.9879 12.4653 21.7861L11.7219 20.4833C11.5953 20.5555 11.4522 20.5933 11.3067 20.5931L11.3044 22.0931ZM17.831 15.6964C19.1924 15.1849 20.2943 14.773 21.0774 14.3384C21.8721 13.8973 22.5087 13.3416 22.6985 12.4634L21.2324 12.1464C21.1783 12.3968 21.0004 12.6655 20.3494 13.0268C19.6868 13.3946 18.7115 13.7632 17.3035 14.2922L17.831 15.6964ZM16.5203 4.42014C15.4844 3.3832 14.6484 2.54353 13.9249 2.00638C13.1912 1.46165 12.4178 1.10912 11.536 1.30367L11.8592 2.76845C12.1089 2.71335 12.4281 2.7633 13.0307 3.21075C13.6436 3.66579 14.3879 4.40801 15.4591 5.48026L16.5203 4.42014ZM9.73119 6.74438C10.2528 5.32075 10.6164 4.33403 10.9815 3.66315C11.3405 3.00338 11.6093 2.82357 11.8592 2.76845L11.536 1.30367C10.6543 1.49819 10.1008 2.14332 9.66394 2.94618C9.2331 3.73793 8.8272 4.85154 8.32275 6.22834L9.73119 6.74438ZM21.0504 11.3697C21.2518 11.7251 21.2747 11.9507 21.2324 12.1464L22.6985 12.4634C22.8406 11.8064 22.6798 11.2027 22.3555 10.6303L21.0504 11.3697ZM15.4591 5.48026L18.0063 8.03006L19.0675 6.96994L16.5203 4.42014L15.4591 5.48026Z" fill="#1C274C"/>
<path d="M1.4694 21.4697C1.17666 21.7627 1.1769 22.2376 1.46994 22.5304C1.76298 22.8231 2.23786 22.8229 2.5306 22.5298L1.4694 21.4697ZM7.18383 17.8719C7.47657 17.5788 7.47633 17.1039 7.18329 16.8112C6.89024 16.5185 6.41537 16.5187 6.12263 16.8117L7.18383 17.8719ZM2.5306 22.5298L7.18383 17.8719L6.12263 16.8117L1.4694 21.4697L2.5306 22.5298Z" fill="#1C274C"/>
</svg>
