<svg width="24" height="24" viewBox="0 0 24 24" fill="none" xmlns="http://www.w3.org/2000/svg">
<path d="M22 12C22 15.7712 22 17.6569 20.8284 18.8284C19.6569 20 17.7712 20 14 20H10C6.22876 20 4.34315 20 3.17157 18.8284C2 17.6569 2 15.7712 2 12C2 8.22877 2 6.34315 3.17157 5.17157C4.23467 4.10848 5.8857 4.01005 9 4.00093M15 4.00093C18.1143 4.01005 19.7653 4.10848 20.8284 5.17157C21.4816 5.82476 21.7706 6.69989 21.8985 8.00002" stroke="#1C274C" stroke-width="1.5" stroke-linecap="round"/>
<path d="M12 5L12 3" stroke="#1C274C" stroke-width="1.5" stroke-linecap="round"/>
<path d="M8 10.5H16" stroke="#1C274C" stroke-width="1.5" stroke-linecap="round"/>
<path d="M8 14H13.5" stroke="#1C274C" stroke-width="1.5" stroke-linecap="round"/>
</svg>
