<svg width="24" height="24" viewBox="0 0 24 24" fill="none" xmlns="http://www.w3.org/2000/svg">
<path d="M22 19H21.5C20.1193 19 19 17.8807 19 16.5L19 7.5C19 6.11929 20.1193 5 21.5 5L22 5" stroke="#1C274C" stroke-width="1.5" stroke-linecap="round"/>
<path d="M2 19H2.5C3.88071 19 5 17.8807 5 16.5L5 7.5C5 6.11929 3.88071 5 2.5 5L2 5" stroke="#1C274C" stroke-width="1.5" stroke-linecap="round"/>
<path d="M15 5.12577C15.3872 5.21007 15.6794 5.35075 15.9142 5.58555C16.5 6.17134 16.5 7.11415 16.5 8.99977L16.5 14.9998C16.5 16.8854 16.5 17.8282 15.9142 18.414C15.3284 18.9998 14.3856 18.9998 12.5 18.9998L11.5 18.9998C9.61438 18.9998 8.67157 18.9998 8.08579 18.414C7.5 17.8282 7.5 16.8854 7.5 14.9998L7.5 8.99977C7.5 7.11415 7.5 6.17134 8.08579 5.58555C8.61733 5.05401 9.44285 5.00479 11 5.00023" stroke="#1C274C" stroke-width="1.5" stroke-linecap="round"/>
</svg>
