<svg width="24" height="24" viewBox="0 0 24 24" fill="none" xmlns="http://www.w3.org/2000/svg">
<path d="M19.682 19.662L20.2163 20.1883L19.682 19.662ZM19.682 4.06491L19.1477 4.59123L19.682 4.06491ZM4.85233 4.59123C5.14301 4.29614 5.13943 3.82128 4.84434 3.5306C4.54925 3.23992 4.07439 3.2435 3.78371 3.53859L4.85233 4.59123ZM8.4 2.77724L7.86567 2.25093C7.5781 2.54289 7.57811 3.01161 7.86569 3.30356L8.4 2.77724ZM9.6161 5.08052C9.90678 5.37562 10.3816 5.37919 10.6767 5.08851C10.9718 4.79783 10.9754 4.32297 10.6847 4.02788L9.6161 5.08052ZM10.6847 1.52646C10.9754 1.23136 10.9718 0.756498 10.6767 0.465828C10.3816 0.175157 9.90675 0.178748 9.61608 0.473848L10.6847 1.52646ZM21.75 12C21.75 11.5858 21.4142 11.25 21 11.25C20.5858 11.25 20.25 11.5858 20.25 12L21.75 12ZM20.1905 8.04321C20.2144 8.45673 20.569 8.77261 20.9825 8.74875C21.396 8.72488 21.7119 8.3703 21.688 7.95678L20.1905 8.04321ZM12 20.25C9.85716 20.25 8.32662 20.2484 7.1637 20.0896C6.02353 19.934 5.34923 19.6401 4.85233 19.1357L3.78371 20.1883C4.60483 21.0219 5.65019 21.397 6.96085 21.5759C8.24876 21.7516 9.9002 21.75 12 21.75V20.25ZM2.25 11.8634C2.25 13.9961 2.24845 15.6699 2.42124 16.9746C2.59674 18.2997 2.96414 19.3563 3.78371 20.1883L4.85233 19.1357C4.35388 18.6296 4.06227 17.9405 3.90826 16.7776C3.75155 15.5943 3.75 14.0378 3.75 11.8634H2.25ZM12 21.75C14.0998 21.75 15.7512 21.7516 17.0391 21.5759C18.3498 21.397 19.3952 21.0219 20.2163 20.1883L19.1477 19.1357C18.6508 19.6401 17.9765 19.934 16.8363 20.0896C15.6734 20.2484 14.1428 20.25 12 20.25V21.75ZM12 3.47689C14.1428 3.47689 15.6734 3.47853 16.8363 3.63725C17.9765 3.79287 18.6508 4.08679 19.1477 4.59123L20.2163 3.53859C19.3952 2.70502 18.3498 2.32992 17.0391 2.15103C15.7512 1.97525 14.0998 1.97689 12 1.97689V3.47689ZM3.75 11.8634C3.75 9.68905 3.75155 8.13258 3.90826 6.94927C4.06227 5.7864 4.35388 5.09724 4.85233 4.59123L3.78371 3.53859C2.96414 4.37059 2.59674 5.4272 2.42124 6.75234C2.24845 8.05704 2.25 9.73084 2.25 11.8634H3.75ZM12 1.97689C10.5848 1.97689 9.38003 1.97668 8.3621 2.02819L8.4379 3.52628C9.40971 3.4771 10.5719 3.47689 12 3.47689V1.97689ZM7.86569 3.30356L9.6161 5.08052L10.6847 4.02788L8.93431 2.25091L7.86569 3.30356ZM8.93432 3.30354L10.6847 1.52646L9.61608 0.473848L7.86567 2.25093L8.93432 3.30354ZM20.25 12C20.2499 14.1277 20.2449 15.6533 20.0868 16.8144C19.9315 17.955 19.6409 18.6349 19.1477 19.1357L20.2163 20.1883C21.0271 19.3652 21.3954 18.3222 21.5731 17.0168C21.748 15.7319 21.7499 14.0884 21.75 12L20.25 12ZM21.688 7.95678C21.5776 6.04375 21.2662 4.60444 20.2163 3.53859L19.1477 4.59123C19.7888 5.24207 20.0836 6.19066 20.1905 8.04321L21.688 7.95678Z" fill="#1C274C"/>
<path d="M8.5 12.5L10.5 14.5L15.5 9.5" stroke="#1C274C" stroke-width="1.5" stroke-linecap="round" stroke-linejoin="round"/>
</svg>
