<svg width="24" height="24" viewBox="0 0 24 24" fill="none" xmlns="http://www.w3.org/2000/svg">
<path d="M21.9999 12.2041V13.7252C21.9999 17.6261 21.9999 19.5765 20.8283 20.7884C19.6567 22.0002 17.7711 22.0002 13.9999 22.0002M21.4807 7.82296C20.9615 6.87442 20.0129 6.28573 18.1158 5.10834L16.1158 3.86708C14.1105 2.6225 13.1078 2.00021 11.9999 2.00021C10.8919 2.00021 9.88925 2.6225 7.8839 3.86708L5.8839 5.10834C3.98681 6.28573 3.03827 6.87442 2.51907 7.82296C2.20149 8.40314 2.07817 9.05654 2.03027 10.0002" stroke="#1C274C" stroke-width="1.5" stroke-linecap="round"/>
<path d="M11 22C11 17.0294 6.97056 13 2 13" stroke="#1C274C" stroke-width="1.5" stroke-linecap="round"/>
<path d="M8 22C8 18.6863 5.31371 16 2 16" stroke="#1C274C" stroke-width="1.5" stroke-linecap="round"/>
<path d="M5 22C5 20.3431 3.65685 19 2 19" stroke="#1C274C" stroke-width="1.5" stroke-linecap="round"/>
</svg>
