<svg width="24" height="24" viewBox="0 0 24 24" fill="none" xmlns="http://www.w3.org/2000/svg">
<path d="M21.6359 12.9581L21.3572 14.8954C20.8697 18.2829 20.626 19.9766 19.451 20.9884C18.3822 21.9087 16.8599 21.9919 14 21.9995M21.6646 7.87516C21.1242 6.74782 19.9738 6.06255 17.6731 4.69202L16.2882 3.86708C14.199 2.6225 13.1543 2.00021 12 2.00021C10.8457 2.00021 9.80104 2.6225 7.71175 3.86708L6.32691 4.69202C4.02619 6.06255 2.87583 6.74782 2.33537 7.87516C2.04852 8.47348 1.96736 9.12565 2.01108 10.0002" stroke="#1C274C" stroke-width="1.5" stroke-linecap="round"/>
<path d="M11 22C11 17.0294 6.97056 13 2 13" stroke="#1C274C" stroke-width="1.5" stroke-linecap="round"/>
<path d="M8 22C8 18.6863 5.31371 16 2 16" stroke="#1C274C" stroke-width="1.5" stroke-linecap="round"/>
<path d="M5 22C5 20.3431 3.65685 19 2 19" stroke="#1C274C" stroke-width="1.5" stroke-linecap="round"/>
</svg>
