<svg width="24" height="24" viewBox="0 0 24 24" fill="none" xmlns="http://www.w3.org/2000/svg">
<path opacity="0.5" fill-rule="evenodd" clip-rule="evenodd" d="M2 12C2 16.714 2 19.0711 3.46447 20.5355L20.5355 3.46447C19.0711 2 16.714 2 12 2C7.28595 2 4.92893 2 3.46447 3.46447C2 4.92893 2 7.28595 2 12Z" fill="#1C274D"/>
<path d="M8 4.75C8.41421 4.75 8.75 5.08579 8.75 5.5L8.75 7.25002H10.5C10.9142 7.25002 11.25 7.58581 11.25 8.00002C11.25 8.41423 10.9142 8.75002 10.5 8.75002H8.75L8.75 10.5C8.75 10.9142 8.41421 11.25 8 11.25C7.58579 11.25 7.25 10.9142 7.25 10.5L7.25 8.75002H5.5C5.08579 8.75002 4.75 8.41423 4.75 8.00002C4.75 7.58581 5.08579 7.25002 5.5 7.25002H7.25V5.5C7.25 5.08579 7.58579 4.75 8 4.75Z" fill="#1C274D"/>
<path fill-rule="evenodd" clip-rule="evenodd" d="M12.0004 22.0004C7.28633 22.0004 4.92931 22.0004 3.46484 20.5359L20.5359 3.46484C22.0004 4.92931 22.0004 7.28633 22.0004 12.0004C22.0004 16.7144 22.0004 19.0714 20.5359 20.5359C19.0714 22.0004 16.7144 22.0004 12.0004 22.0004ZM18.0005 17.7505C18.4147 17.7505 18.7505 17.4147 18.7505 17.0005C18.7505 16.5863 18.4147 16.2505 18.0005 16.2505H13.0005C12.5863 16.2505 12.2505 16.5863 12.2505 17.0005C12.2505 17.4147 12.5863 17.7505 13.0005 17.7505H18.0005Z" fill="#1C274D"/>
</svg>
