<svg width="24" height="24" viewBox="0 0 24 24" fill="none" xmlns="http://www.w3.org/2000/svg">
<path d="M11.942 1.25C9.63365 1.24999 7.82462 1.24998 6.41313 1.43975C4.96839 1.63399 3.82837 2.03933 2.93356 2.93414C2.10514 3.76255 1.69565 4.80193 1.48543 6.10063C1.27877 7.37741 1.25363 8.9835 1.25 10.9986C1.24926 11.4129 1.58444 11.7493 1.99865 11.75C2.41286 11.7507 2.74925 11.4156 2.75 11.0014C2.75367 8.96143 2.78197 7.47827 2.96616 6.34031C3.14681 5.22427 3.4656 4.52341 3.99422 3.9948C4.56388 3.42514 5.3346 3.09825 6.613 2.92637C7.91298 2.75159 9.6212 2.75 11.9994 2.75C14.3776 2.75 16.0859 2.75159 17.3858 2.92637C18.6643 3.09825 19.435 3.42514 20.0046 3.9948C20.5743 4.56445 20.9012 5.33517 21.0731 6.61358C21.2478 7.91356 21.2494 9.62178 21.2494 12C21.2494 14.3782 21.2478 16.0864 21.0731 17.3864C20.9012 18.6648 20.5743 19.4355 20.0046 20.0052C19.476 20.5338 18.7752 20.8526 17.6591 21.0333C16.5212 21.2175 15.038 21.2457 12.9981 21.2494C12.5839 21.2502 12.2487 21.5866 12.2494 22.0008C12.2502 22.415 12.5866 22.7502 13.0008 22.7494C15.0159 22.7458 16.622 22.7207 17.8988 22.514C19.1975 22.3038 20.2369 21.8943 21.0653 21.0659C21.9601 20.1711 22.3654 19.031 22.5597 17.5863C22.7494 16.1748 22.7494 14.3658 22.7494 12.0574V11.9426C22.7494 9.63423 22.7494 7.82519 22.5597 6.41371C22.3654 4.96897 21.9601 3.82895 21.0653 2.93414C20.1705 2.03933 19.0305 1.63399 17.5857 1.43975C16.1742 1.24998 14.3652 1.24999 12.0568 1.25H11.942Z" fill="#1C274C"/>
<path d="M8.99951 21.75C9.41373 21.75 9.74951 21.4142 9.74951 21C9.74951 20.5858 9.41373 20.25 8.99951 20.25H4.81017L11.5298 13.5303C11.8227 13.2374 11.8227 12.7626 11.5298 12.4697C11.2369 12.1768 10.7621 12.1768 10.4692 12.4697L3.74951 19.1893V15C3.74951 14.5858 3.41373 14.25 2.99951 14.25C2.5853 14.25 2.24951 14.5858 2.24951 15V21C2.24951 21.4142 2.5853 21.75 2.99951 21.75H8.99951Z" fill="#1C274C"/>
</svg>
