<svg width="24" height="24" viewBox="0 0 24 24" fill="none" xmlns="http://www.w3.org/2000/svg">
<path d="M3.33946 16.9997C6.10089 21.7826 12.2168 23.4214 16.9997 20.66C18.9493 19.5344 20.3765 17.8514 21.1962 15.9286C22.3875 13.1341 22.2958 9.83304 20.66 6.99972C19.0242 4.1664 16.2112 2.43642 13.1955 2.07088C11.1204 1.81935 8.94932 2.21386 6.99972 3.33946C2.21679 6.10089 0.578039 12.2168 3.33946 16.9997Z" stroke="#1C274C" stroke-width="1.5"/>
<path opacity="0.5" d="M13.196 2.07129C13.196 2.07129 12.9643 5.67 15.4643 10.0001C17.9643 14.3303 21.1967 15.929 21.1967 15.929M2.80371 8.07129C2.80371 8.07129 6.03613 9.67 8.53613 14.0001C11.0361 18.3303 10.8044 21.929 10.8044 21.929" stroke="#1C274C" stroke-width="1.5"/>
</svg>
