<svg width="24" height="24" viewBox="0 0 24 24" fill="none" xmlns="http://www.w3.org/2000/svg">
<path fill-rule="evenodd" clip-rule="evenodd" d="M8.66634 1.25C6.41118 1.25 4.58301 3.07817 4.58301 5.33333C4.58301 6.70965 5.26393 7.92693 6.30727 8.66667C5.26393 9.4064 4.58301 10.6237 4.58301 12C4.58301 13.3763 5.26393 14.5936 6.30728 15.3333C5.26393 16.0731 4.58301 17.2903 4.58301 18.6667C4.58301 20.9218 6.41118 22.75 8.66634 22.75C10.9215 22.75 12.7497 20.9218 12.7497 18.6667V15.1624C13.4535 15.738 14.3529 16.0833 15.333 16.0833C17.5882 16.0833 19.4163 14.2552 19.4163 12C19.4163 10.6237 18.7354 9.4064 17.6921 8.66666C18.7354 7.92693 19.4163 6.70965 19.4163 5.33333C19.4163 3.07817 17.5882 1.25 15.333 1.25H8.66634ZM11.2497 14.5833H8.66634C7.2396 14.5833 6.08301 13.4267 6.08301 12C6.08301 10.5733 7.23961 9.41666 8.66634 9.41667L11.2497 9.41666L11.2497 12L11.2497 14.5833ZM8.66634 7.91667H11.2497V2.75H8.66634C7.23961 2.75 6.08301 3.9066 6.08301 5.33333C6.08301 6.76007 7.2396 7.91667 8.66634 7.91667ZM17.9163 5.33333C17.9163 6.75914 16.7612 7.91517 15.3358 7.91667L14.0427 7.91666L12.7497 7.91666L12.7497 2.75H15.333C16.7597 2.75 17.9163 3.9066 17.9163 5.33333ZM12.7497 11.9968C12.7514 10.5726 13.9056 9.41838 15.3298 9.41667L15.3355 9.41667C16.7611 9.41801 17.9163 10.5741 17.9163 12C17.9163 13.4267 16.7597 14.5833 15.333 14.5833C13.9073 14.5833 12.7514 13.4284 12.7497 12.0032V11.9968ZM8.66634 16.0833C7.2396 16.0833 6.08301 17.2399 6.08301 18.6667C6.08301 20.0934 7.2396 21.25 8.66634 21.25C10.0931 21.25 11.2497 20.0934 11.2497 18.6667V16.0833H8.66634Z" fill="#1C274C"/>
</svg>
