<svg width="24" height="24" viewBox="0 0 24 24" fill="none" xmlns="http://www.w3.org/2000/svg">
<path fill-rule="evenodd" clip-rule="evenodd" d="M6.23717 4.71147C6.63012 4.58049 6.84249 4.15575 6.71151 3.76279C6.58052 3.36983 6.15578 3.15746 5.76282 3.28845L5.20803 3.47338C4.63714 3.66365 4.15321 3.82494 3.76907 4.00053C3.36027 4.18739 3.00244 4.41665 2.7176 4.7763C2.43275 5.13595 2.29154 5.53677 2.20328 5.9775C2.12035 6.39165 2.07418 6.89965 2.01972 7.49895L1.32246 15.1688C1.27528 15.4362 1.25046 15.7112 1.25 15.9919C1.25544 18.6107 3.38 20.75 5.99999 20.75C8.36324 20.75 10.3234 19.0241 10.6889 16.764L10.9079 16.6859C11.6142 16.4339 12.3858 16.4339 13.0921 16.6859L13.3111 16.764C13.6766 19.0241 15.6367 20.75 18 20.75C20.62 20.75 22.7445 18.6106 22.75 15.9919C22.7495 15.7112 22.7247 15.4361 22.6775 15.1688L21.9803 7.49894C21.9258 6.89965 21.8796 6.39164 21.7967 5.9775C21.7084 5.53677 21.5672 5.13595 21.2824 4.7763C20.9975 4.41665 20.6397 4.18739 20.2309 4.00053C19.8468 3.82494 19.3629 3.66365 18.792 3.47338L18.2372 3.28845C17.8442 3.15746 17.4195 3.36983 17.2885 3.76279C17.1575 4.15575 17.3699 4.58049 17.7628 4.71147L18.281 4.8842C18.8984 5.08998 19.3051 5.22661 19.6073 5.36477C19.8931 5.49541 20.0214 5.60008 20.1065 5.7076C20.1917 5.81512 20.2642 5.96391 20.3259 6.27203C20.3912 6.5979 20.431 7.02511 20.4899 7.67318L20.9052 12.2417C20.1021 11.62 19.0943 11.25 18 11.25C15.6549 11.25 13.7067 12.9494 13.3198 15.184C12.4577 14.9346 11.5423 14.9346 10.6802 15.1839C10.2933 12.9494 8.34511 11.25 5.99999 11.25C4.90572 11.25 3.89787 11.62 3.09474 12.2417L3.14309 11.71L3.51007 7.67318C3.56898 7.02511 3.60882 6.5979 3.67408 6.27203C3.73579 5.96391 3.80831 5.81512 3.89347 5.7076C3.97863 5.60008 4.10684 5.49541 4.39264 5.36477C4.69491 5.22661 5.10163 5.08998 5.71898 4.8842L6.23717 4.71147ZM21.1902 15.3762L21.2498 16.0323C21.2325 17.8123 19.7841 19.25 18 19.25C16.2051 19.25 14.75 17.7949 14.75 16C14.75 14.205 16.2051 12.75 18 12.75C19.5816 12.75 20.8993 13.8797 21.1902 15.3762ZM2.8098 15.3762L2.75015 16.0323C2.76749 17.8123 4.21585 19.25 5.99999 19.25C7.79492 19.25 9.24999 17.7949 9.24999 16C9.24999 14.205 7.79492 12.75 5.99999 12.75C4.41842 12.75 3.10071 13.8797 2.8098 15.3762Z" fill="#1C274C"/>
</svg>
