<svg width="24" height="24" viewBox="0 0 24 24" fill="none" xmlns="http://www.w3.org/2000/svg">
<path opacity="0.5" fill-rule="evenodd" clip-rule="evenodd" d="M9.25 11C9.25 9.48122 10.4812 8.25 12 8.25C13.5188 8.25 14.75 9.48122 14.75 11C14.75 12.5188 13.5188 13.75 12 13.75C10.4812 13.75 9.25 12.5188 9.25 11Z" fill="#1C274C"/>
<path d="M9.82112 12.6781L4.84452 21.636C4.64336 21.998 4.77382 22.4546 5.1359 22.6558C5.49799 22.857 5.95459 22.7265 6.15575 22.3644L11.0377 13.577C10.5524 13.3957 10.1321 13.0812 9.82112 12.6781Z" fill="#1C274C"/>
<path d="M12.9626 13.5769L17.8445 22.3644C18.0457 22.7265 18.5023 22.857 18.8644 22.6558C19.2265 22.4546 19.3569 21.998 19.1558 21.636L14.179 12.6779C13.8681 13.081 13.4478 13.3955 12.9626 13.5769Z" fill="#1C274C"/>
<path d="M12 5.25C11.0335 5.25 10.25 4.4665 10.25 3.5C10.25 2.5335 11.0335 1.75 12 1.75C12.9665 1.75 13.75 2.5335 13.75 3.5C13.75 4.4665 12.9665 5.25 12 5.25Z" fill="#1C274C"/>
<path d="M2.75 7.5C2.75 6.5335 3.5335 5.75 4.5 5.75C5.4665 5.75 6.25 6.5335 6.25 7.5C6.25 8.4665 5.4665 9.25 4.5 9.25C3.5335 9.25 2.75 8.4665 2.75 7.5Z" fill="#1C274C"/>
<path d="M19.5 5.75C18.5335 5.75 17.75 6.5335 17.75 7.5C17.75 8.4665 18.5335 9.25 19.5 9.25C20.4665 9.25 21.25 8.4665 21.25 7.5C21.25 6.5335 20.4665 5.75 19.5 5.75Z" fill="#1C274C"/>
<path d="M19.5 14.25C18.5335 14.25 17.75 15.0335 17.75 16C17.75 16.9665 18.5335 17.75 19.5 17.75C20.4665 17.75 21.25 16.9665 21.25 16C21.25 15.0335 20.4665 14.25 19.5 14.25Z" fill="#1C274C"/>
<path d="M4.5 14.25C3.5335 14.25 2.75 15.0335 2.75 16C2.75 16.9665 3.5335 17.75 4.5 17.75C5.4665 17.75 6.25 16.9665 6.25 16C6.25 15.0335 5.4665 14.25 4.5 14.25Z" fill="#1C274C"/>
<path d="M10.25 19.5C10.25 20.4665 11.0335 21.25 12 21.25C12.9665 21.25 13.75 20.4665 13.75 19.5C13.75 18.5335 12.9665 17.75 12 17.75C11.0335 17.75 10.25 18.5335 10.25 19.5Z" fill="#1C274C"/>
<path opacity="0.5" fill-rule="evenodd" clip-rule="evenodd" d="M10.6366 4.59731C10.3948 4.29717 10.25 3.91551 10.25 3.50004C10.25 3.35269 10.2682 3.20959 10.3025 3.07288C10.2695 3.08963 10.2367 3.10689 10.2041 3.12468L5.40984 5.73885C5.32726 5.78388 5.24682 5.83175 5.16861 5.88231C5.66011 6.08567 6.0388 6.5065 6.18471 7.02484L10.6366 4.59731ZM4.95508 9.19029C4.80997 9.22926 4.65741 9.25004 4.5 9.25004C4.10925 9.25004 3.74842 9.12198 3.45718 8.90553C3.45578 8.94731 3.45508 8.98921 3.45508 9.03121V13.9689C3.45508 14.1695 3.4711 14.3678 3.50223 14.5622C3.78526 14.3654 4.12916 14.25 4.5 14.25C4.66724 14.25 4.82901 14.2735 4.98218 14.3173C4.96429 14.2031 4.95508 14.0866 4.95508 13.9689V9.19029ZM6.24997 16.0108C6.24668 16.5575 5.99273 17.0447 5.59726 17.3634L10.2041 19.8754C10.2367 19.8932 10.2695 19.9104 10.3025 19.9272C10.2682 19.7905 10.25 19.6474 10.25 19.5C10.25 19.0846 10.3948 18.7029 10.6367 18.4028L6.24997 16.0108ZM13.3629 18.4022C13.605 18.7025 13.75 19.0843 13.75 19.5C13.75 19.6471 13.7319 19.7899 13.6977 19.9264C13.7302 19.9099 13.7625 19.8929 13.7945 19.8754L18.4022 17.363C18.0068 17.0441 17.7531 16.5568 17.75 16.0101L13.3629 18.4022ZM19.0164 14.3177C19.17 14.2737 19.3322 14.25 19.5 14.25C19.8703 14.25 20.2137 14.3651 20.4965 14.5613C20.5276 14.3672 20.5435 14.1692 20.5435 13.9689V9.03121C20.5435 8.98954 20.5428 8.94799 20.5415 8.90654C20.2505 9.12238 19.8901 9.25004 19.5 9.25004C19.3421 9.25004 19.1891 9.22913 19.0435 9.18992V13.9689C19.0435 14.0868 19.0343 14.2034 19.0164 14.3177ZM17.8151 7.02549C17.9608 6.50716 18.3392 6.08624 18.8305 5.88266C18.7522 5.83197 18.6715 5.78398 18.5888 5.73885L13.7945 3.12468C13.7625 3.10718 13.7302 3.09018 13.6977 3.07368C13.7319 3.21016 13.75 3.35298 13.75 3.50004C13.75 3.91576 13.605 4.29761 13.3629 4.59783L17.8151 7.02549Z" fill="#1C274C"/>
</svg>
