<svg width="24" height="24" viewBox="0 0 24 24" fill="none" xmlns="http://www.w3.org/2000/svg">
<path opacity="0.5" d="M3.75736 17.3938L5.18179 18.8183L6.60647 20.2428C7.47356 21.1099 7.90711 21.5435 8.45842 21.7718C9.00973 22.0002 9.62286 22.0002 10.8491 22.0002H13.1513C14.3775 22.0002 14.9907 22.0002 15.542 21.7718C16.0933 21.5435 16.5268 21.1099 17.3939 20.2428L20.2428 17.3939C21.1099 16.5268 21.5435 16.0933 21.7718 15.542C22.0002 14.9907 22.0002 14.3775 22.0002 13.1513V10.8491C22.0002 9.62287 22.0002 9.00974 21.7718 8.45843C21.5435 7.90712 21.1099 7.47357 20.2428 6.60648L18.8183 5.18202L17.3937 3.75748C16.5266 2.89039 16.0931 2.45684 15.5418 2.22848C14.9905 2.00012 14.3773 2.00012 13.1511 2.00012H10.8489C9.62267 2.00012 9.00954 2.00012 8.45823 2.22848C7.90691 2.45685 7.47337 2.89039 6.60628 3.75748L3.75736 6.6064C2.89027 7.47349 2.45672 7.90704 2.22836 8.45835C2 9.00966 2 9.62279 2 10.849V13.1512C2 14.3775 2 14.9906 2.22836 15.5419C2.45672 16.0932 2.89027 16.5268 3.75736 17.3938Z" fill="#1C274C"/>
<path d="M18.8181 5.18213L5.18164 18.8184" stroke="#1C274C" stroke-width="1.5"/>
</svg>
