<svg width="24" height="24" viewBox="0 0 24 24" fill="none" xmlns="http://www.w3.org/2000/svg">
<path fill-rule="evenodd" clip-rule="evenodd" d="M12.7495 2C12.7495 1.58579 12.4137 1.25 11.9995 1.25C11.5853 1.25 11.2495 1.58579 11.2495 2V2.75L6.60589 2.74995C6.04386 2.74952 5.60071 2.74917 5.18332 2.88503C5.00029 2.9446 4.82403 3.02322 4.65743 3.11959C4.27748 3.33939 3.98165 3.66934 3.60647 4.08781L3.5173 4.18718C3.11237 4.63811 2.77285 5.01618 2.52567 5.35169C2.26592 5.70424 2.06341 6.06715 1.98338 6.49977C1.92221 6.83045 1.92221 7.16955 1.98338 7.50023C2.06341 7.93285 2.26593 8.29576 2.52567 8.64831C2.77285 8.98382 3.11236 9.36189 3.5173 9.81281L3.60646 9.91219C3.98165 10.3307 4.27748 10.6606 4.65743 10.8804C4.82403 10.9768 5.00029 11.0554 5.18332 11.115C5.60071 11.2508 6.04386 11.2505 6.60589 11.25L11.2495 11.25V11.75L6.46117 11.75C5.79159 11.75 5.23286 11.75 4.78053 11.796C4.30706 11.8441 3.86769 11.9489 3.47169 12.2135C3.17142 12.4141 2.91361 12.6719 2.71297 12.9722C2.44837 13.3682 2.34366 13.8075 2.2955 14.281C2.24948 14.7334 2.24949 15.2921 2.24951 15.9617V16.0383C2.24949 16.7079 2.24948 17.2666 2.2955 17.719C2.34366 18.1925 2.44837 18.6318 2.71297 19.0278C2.91361 19.3281 3.17142 19.5859 3.47169 19.7865C3.86769 20.0511 4.30706 20.1559 4.78053 20.204C5.23286 20.25 5.79159 20.25 6.46117 20.25H11.2495V21.25H9.99951C9.5853 21.25 9.24951 21.5858 9.24951 22C9.24951 22.4142 9.5853 22.75 9.99951 22.75H13.9995C14.4137 22.75 14.7495 22.4142 14.7495 22C14.7495 21.5858 14.4137 21.25 13.9995 21.25H12.7495V20.25L17.3931 20.25C17.9552 20.2505 18.3983 20.2508 18.8157 20.115C18.9987 20.0554 19.175 19.9768 19.3416 19.8804C19.7215 19.6606 20.0174 19.3307 20.3925 18.9122L20.4818 18.8128C20.8867 18.3619 21.2262 17.9838 21.4733 17.6483C21.7331 17.2958 21.9356 16.9328 22.0156 16.5002C22.0768 16.1695 22.0768 15.8305 22.0156 15.4998C21.9356 15.0672 21.7331 14.7042 21.4733 14.3517C21.2262 14.0162 20.8866 13.6381 20.4817 13.1872L20.3925 13.0878C20.0174 12.6693 19.7215 12.3394 19.3416 12.1196C19.175 12.0232 18.9987 11.9446 18.8157 11.885C18.3983 11.7492 17.9552 11.7495 17.3931 11.75L12.7495 11.75V11.25L17.5378 11.25C18.2074 11.25 18.7662 11.25 19.2185 11.204C19.692 11.1559 20.1313 11.0511 20.5273 10.7865C20.8276 10.5859 21.0854 10.3281 21.286 10.0278C21.5506 9.63182 21.6554 9.19245 21.7035 8.71898C21.7495 8.26664 21.7495 7.70791 21.7495 7.03832V6.96168C21.7495 6.29209 21.7495 5.73336 21.7035 5.28102C21.6554 4.80755 21.5506 4.36818 21.286 3.97218C21.0854 3.67191 20.8276 3.4141 20.5273 3.21346C20.1313 2.94886 19.692 2.84415 19.2185 2.79598C18.7662 2.74997 18.2074 2.74998 17.5379 2.75L12.7495 2.75V2ZM5.64756 4.31138C5.80972 4.2586 5.99723 4.25 6.7035 4.25H17.4995C18.2173 4.25 18.6993 4.25091 19.0667 4.28828C19.4215 4.32438 19.5855 4.3882 19.694 4.46066C19.8305 4.55186 19.9476 4.66905 20.0388 4.80554C20.1113 4.91399 20.1751 5.07796 20.2112 5.43283C20.2486 5.80023 20.2495 6.28216 20.2495 7C20.2495 7.71784 20.2486 8.19977 20.2112 8.56717C20.1751 8.92204 20.1113 9.08601 20.0388 9.19446C19.9476 9.33095 19.8305 9.44814 19.694 9.53934C19.5855 9.6118 19.4215 9.67562 19.0667 9.71172C18.6993 9.74909 18.2173 9.75 17.4995 9.75H6.7035C5.99723 9.75 5.80972 9.7414 5.64756 9.68862C5.56437 9.66155 5.48425 9.62581 5.40852 9.582C5.26091 9.49661 5.12923 9.36284 4.65736 8.83735C4.22218 8.35271 3.93221 8.02855 3.7333 7.75858C3.54209 7.49905 3.48073 7.34834 3.45835 7.22738C3.43055 7.07707 3.43055 6.92293 3.45835 6.77262C3.48073 6.65166 3.54209 6.50095 3.7333 6.24142C3.9322 5.97145 4.22218 5.64729 4.65736 5.16266C5.12923 4.63716 5.26091 4.50339 5.40852 4.418C5.48425 4.37419 5.56437 4.33845 5.64756 4.31138ZM18.3515 13.3114C18.1893 13.2586 18.0018 13.25 17.2955 13.25H6.49951C5.78167 13.25 5.29974 13.2509 4.93234 13.2883C4.57747 13.3244 4.4135 13.3882 4.30505 13.4607C4.16856 13.5519 4.05137 13.669 3.96018 13.8055C3.88771 13.914 3.82389 14.078 3.78779 14.4328C3.75042 14.8002 3.74951 15.2822 3.74951 16C3.74951 16.7178 3.75042 17.1998 3.78779 17.5672C3.82389 17.922 3.88771 18.086 3.96017 18.1945C4.05137 18.331 4.16856 18.4481 4.30505 18.5393C4.4135 18.6118 4.57747 18.6756 4.93234 18.7117C5.29974 18.7491 5.78167 18.75 6.49951 18.75H17.2955C18.0018 18.75 18.1893 18.7414 18.3515 18.6886C18.4346 18.6615 18.5148 18.6258 18.5905 18.582C18.7381 18.4966 18.8698 18.3628 19.3417 17.8373C19.7768 17.3527 20.0668 17.0286 20.2657 16.7586C20.4569 16.4991 20.5183 16.3483 20.5407 16.2274C20.5685 16.0771 20.5685 15.9229 20.5407 15.7726C20.5183 15.6517 20.4569 15.5009 20.2657 15.2414C20.0668 14.9714 19.7768 14.6473 19.3417 14.1627C18.8698 13.6372 18.7381 13.5034 18.5905 13.418C18.5148 13.3742 18.4346 13.3385 18.3515 13.3114Z" fill="#1C274C"/>
</svg>
