<svg width="24" height="24" viewBox="0 0 24 24" fill="none" xmlns="http://www.w3.org/2000/svg">
<path d="M13.1565 17.0128L17.0123 13.157C18.4664 11.7029 19.1935 10.9759 19.1935 10.0724C19.1935 9.4671 18.8671 8.94097 18.2144 8.22232C17.8929 7.86834 17.4922 7.46766 17.0123 6.98779C16.5325 6.50795 16.1318 6.10724 15.7778 5.78574C15.0591 5.13301 14.533 4.80664 13.9277 4.80664C13.0242 4.80664 12.2972 5.53369 10.8431 6.98779L6.98731 10.8436C5.5332 12.2977 4.80615 13.0247 4.80615 13.9282C4.80615 14.5335 5.13252 15.0596 5.78525 15.7783C6.10675 16.1322 6.50746 16.533 6.98731 17.0128C7.46717 17.4927 7.86785 17.8933 8.22183 18.2149C8.94048 18.8676 9.46661 19.194 10.0719 19.194C10.9754 19.194 11.7024 18.4669 13.1565 17.0128Z" fill="#1C274C"/>
<g opacity="0.5">
<path d="M21.2539 2.74615C21.1561 2.64836 21.1072 2.59946 21.0658 2.56209C20.1315 1.71881 18.6794 1.83899 17.8965 2.82438C17.8619 2.86803 17.8215 2.92445 17.7413 3.03686L15.778 5.78545C16.1319 6.10694 16.5327 6.50765 17.0125 6.9875C17.4924 7.46736 17.8931 7.86805 18.2146 8.22202L20.9631 6.25875C21.0757 6.17836 21.132 6.13817 21.1756 6.10347C22.161 5.32058 22.2812 3.86848 21.4379 2.93424C21.4006 2.89286 21.3516 2.84385 21.2539 2.74615Z" fill="#1C274C"/>
<path d="M2.56209 21.0658C2.59946 21.1072 2.64836 21.1561 2.74615 21.2539C2.84385 21.3516 2.89286 21.4006 2.93424 21.4379C3.86848 22.2812 5.32058 22.161 6.10347 21.1756C6.13817 21.132 6.17836 21.0757 6.25875 20.9631L8.22202 18.2146C7.86805 17.8931 7.46736 17.4924 6.9875 17.0125C6.50765 16.5327 6.10694 16.1319 5.78545 15.778L3.03686 17.7413C2.92445 17.8215 2.86803 17.8619 2.82438 17.8965C1.83899 18.6794 1.71881 20.1315 2.56209 21.0658Z" fill="#1C274C"/>
</g>
</svg>
