<svg width="24" height="24" viewBox="0 0 24 24" fill="none" xmlns="http://www.w3.org/2000/svg">
<path fill-rule="evenodd" clip-rule="evenodd" d="M13.4613 4.04707C14.6647 4.8695 15.8619 5.85967 17.0011 6.99881C18.1402 8.13797 19.1304 9.33518 19.9528 10.5386C20.6539 9.1612 21.0753 7.85689 21.2059 6.72533C21.3705 5.29824 21.0673 4.24382 20.4117 3.58821C19.7561 2.93259 18.7017 2.62936 17.2746 2.79402C16.143 2.92458 14.8387 3.34601 13.4613 4.04707ZM20.8682 12.0004C21.8736 10.2352 22.5137 8.47697 22.696 6.89726C22.891 5.20688 22.5672 3.62239 21.4724 2.52755C20.3775 1.43271 18.793 1.10887 17.1027 1.3039C15.523 1.48617 13.7647 2.12628 11.9996 3.13166C10.2345 2.12634 8.4763 1.48627 6.89664 1.30403C5.20631 1.10902 3.62187 1.43287 2.52706 2.52769C1.43223 3.62252 1.10839 5.20698 1.30341 6.89733C1.48566 8.47702 2.12575 10.2352 3.1311 12.0004C2.12583 13.7654 1.4858 15.5236 1.30359 17.1032C1.1086 18.7935 1.43246 20.3779 2.52725 21.4727C3.62205 22.5675 5.20645 22.8914 6.89674 22.6964C8.47637 22.5142 10.2345 21.8741 11.9996 20.8688C13.7647 21.8742 15.5229 22.5143 17.1026 22.6965C18.7929 22.8915 20.3773 22.5677 21.4722 21.4728C22.567 20.378 22.8908 18.7936 22.6958 17.1033C22.5136 15.5236 21.8735 13.7655 20.8682 12.0004ZM19.119 12.0004C18.282 10.6752 17.2138 9.33286 15.9404 8.05947C14.667 6.78611 13.3247 5.71785 11.9996 4.88093C10.6746 5.71783 9.33231 6.78604 8.05903 8.05933C6.7856 9.33276 5.7173 10.6752 4.88036 12.0004C5.71727 13.3254 6.7855 14.6677 8.05883 15.9411C9.33218 17.2144 10.6745 18.2827 11.9996 19.1196C13.3247 18.2827 14.6672 17.2143 15.9406 15.9409C17.2139 14.6676 18.2821 13.3254 19.119 12.0004ZM13.4613 19.9534C14.6648 19.131 15.8621 18.1408 17.0013 17.0016C18.1403 15.8625 19.1304 14.6654 19.9528 13.4621C20.6538 14.8395 21.0752 16.1437 21.2057 17.2752C21.3703 18.7022 21.0671 19.7566 20.4115 20.4122C19.7559 21.0678 18.7015 21.371 17.2745 21.2064C16.143 21.0758 14.8387 20.6545 13.4613 19.9534ZM10.5378 19.9534C9.33444 19.131 8.13728 18.1408 6.99817 17.0017C5.85908 15.8626 4.86894 14.6655 4.04653 13.4621C3.34558 14.8394 2.92423 16.1436 2.79371 17.2751C2.62909 18.7021 2.93233 19.7565 3.58791 20.4121C4.2435 21.0676 5.29786 21.3709 6.72485 21.2063C7.85632 21.0757 9.16051 20.6544 10.5378 19.9534ZM4.0465 10.5386C4.86895 9.33512 5.85917 8.13787 6.99837 6.99867C8.13743 5.85961 9.33453 4.86949 10.5379 4.04709C9.1605 3.34608 7.85624 2.92469 6.72473 2.79415C5.2977 2.62951 4.24332 2.93274 3.58772 3.58835C2.93211 4.24396 2.62888 5.29836 2.79352 6.72541C2.92407 7.85695 3.34548 9.16122 4.0465 10.5386ZM11.9997 10.2502C11.0332 10.2502 10.2497 11.0337 10.2497 12.0002C10.2497 12.9667 11.0332 13.7502 11.9997 13.7502C12.9662 13.7502 13.7497 12.9667 13.7497 12.0002C13.7497 11.0337 12.9662 10.2502 11.9997 10.2502ZM8.74971 12.0002C8.74971 10.2053 10.2048 8.7502 11.9997 8.7502C13.7946 8.7502 15.2497 10.2053 15.2497 12.0002C15.2497 13.7951 13.7946 15.2502 11.9997 15.2502C10.2048 15.2502 8.74971 13.7951 8.74971 12.0002Z" fill="#1C274C"/>
</svg>
