<svg width="24" height="24" viewBox="0 0 24 24" fill="none" xmlns="http://www.w3.org/2000/svg">
<path fill-rule="evenodd" clip-rule="evenodd" d="M12.0005 4.75C7.99641 4.75 4.75047 7.99594 4.75047 12C4.75047 13.9048 5.48504 15.638 6.68634 16.9318C8.62835 16.4835 11.0221 15.5733 13.4787 14.2645C15.7722 13.0425 17.7084 11.6928 19.083 10.4435C18.3707 7.18746 15.4702 4.75 12.0005 4.75ZM19.2451 12.281C17.8632 13.4073 16.1334 14.5497 14.184 15.5883C12.0627 16.7185 9.95901 17.5778 8.1009 18.113C9.22689 18.8328 10.565 19.25 12.0005 19.25C15.9104 19.25 19.0975 16.1548 19.2451 12.281ZM6.21075 18.5608C7.75348 19.9232 9.78042 20.75 12.0005 20.75C16.833 20.75 20.7505 16.8325 20.7505 12C20.7505 11.6555 20.7306 11.3157 20.6918 10.9815C20.7219 10.9514 20.7516 10.9213 20.7811 10.8912C21.5349 10.1218 22.1239 9.35069 22.4532 8.62308C22.7772 7.90704 22.9117 7.07876 22.4654 6.36547C22.0456 5.69445 21.2802 5.40413 20.5099 5.30068C19.7384 5.19707 18.807 5.25684 17.7902 5.43925C16.2475 4.07679 14.2205 3.25 12.0005 3.25C7.16798 3.25 3.25047 7.16751 3.25047 12C3.25047 12.3445 3.27038 12.6843 3.30911 13.0185C2.55001 13.78 1.95469 14.5396 1.60511 15.2551C1.23908 16.0043 1.06472 16.882 1.53552 17.6345C1.96828 18.3262 2.7678 18.614 3.56794 18.709C4.32171 18.7986 5.22437 18.7377 6.21075 18.5608ZM4.97575 17.2178C4.43464 16.4905 4.00381 15.6762 3.70801 14.7999C3.36496 15.2104 3.11328 15.5852 2.95285 15.9136C2.67562 16.481 2.74467 16.7391 2.80714 16.8389C2.87997 16.9553 3.11219 17.1443 3.7449 17.2195C4.08702 17.2602 4.49966 17.2608 4.97575 17.2178ZM19.0252 6.78221C19.528 6.73681 19.9589 6.74015 20.3102 6.78733C20.9047 6.86717 21.1236 7.04883 21.1938 7.16107C21.2531 7.25588 21.3192 7.49052 21.0866 8.00469C20.9306 8.34948 20.667 8.75251 20.2929 9.20014C19.9971 8.32375 19.5663 7.50953 19.0252 6.78221Z" fill="#1C274C"/>
</svg>
