<svg width="24" height="24" viewBox="0 0 24 24" fill="none" xmlns="http://www.w3.org/2000/svg">
<path fill-rule="evenodd" clip-rule="evenodd" d="M15.014 3.18481L15.2922 3.53617C15.4324 3.71326 15.5114 3.81221 15.5759 3.88167C15.6106 3.91906 15.6289 3.93421 15.6356 3.93913C15.6432 3.94165 15.6637 3.94724 15.7072 3.95359C15.7963 3.96659 15.9167 3.97469 16.137 3.98844L16.5751 4.01579C17.2578 4.05835 17.8556 4.09562 18.3106 4.19474C18.7924 4.29971 19.3165 4.51585 19.5948 5.07513C19.8697 5.6276 19.7356 6.1772 19.5405 6.63138C19.354 7.06534 19.0353 7.58314 18.668 8.17968L18.6382 8.22823L18.4349 8.55845C18.3173 8.74956 18.2521 8.85659 18.2091 8.94062C18.19 8.97803 18.1813 8.99972 18.1772 9.01134C18.1737 9.02126 18.1734 9.02439 18.1734 9.02456C18.1733 9.02477 18.1727 9.02846 18.1732 9.0402C18.1738 9.05373 18.1762 9.07839 18.1839 9.12128C18.2012 9.2169 18.2333 9.34171 18.2908 9.56184L18.3905 9.94299L18.4047 9.99757C18.5851 10.6875 18.7409 11.2831 18.7948 11.7554C18.8504 12.2422 18.8266 12.8172 18.3957 13.2656C17.9556 13.7236 17.378 13.7534 16.8937 13.6957C16.4324 13.6407 15.8529 13.4801 15.1909 13.2965L14.7659 13.1787C14.5522 13.1194 14.435 13.0875 14.3462 13.0706C14.3093 13.0636 14.2888 13.0616 14.2792 13.0611C14.2703 13.0645 14.2513 13.0729 14.2184 13.0911C14.1394 13.1349 14.0379 13.2019 13.8534 13.3249L13.4863 13.5697C12.9146 13.951 12.4142 14.2848 11.9931 14.4812C11.5512 14.6873 10.993 14.8396 10.4318 14.5419C10.0736 14.3518 9.86305 14.0565 9.7325 13.741C7.45952 14.7002 5.60178 16.3478 4.95906 18.241C4.84825 18.5674 4.52917 18.7763 4.18566 18.7472C3.84216 18.7182 3.56269 18.4587 3.50827 18.1183C2.5677 12.2345 4.32464 8.68585 6.84859 6.75178C7.02375 6.35595 7.35561 6.09139 7.68424 5.89784C8.08552 5.66151 8.64187 5.43925 9.27721 5.18544C9.29536 5.17819 9.31357 5.17091 9.33185 5.16361L9.68484 5.02255C9.88982 4.94065 10.0017 4.8953 10.0823 4.8551C10.1219 4.83535 10.1397 4.82358 10.1461 4.81883C10.1509 4.81213 10.1636 4.79201 10.1851 4.74533C10.2247 4.65914 10.2689 4.54042 10.3469 4.32837L10.4817 3.96185C10.4884 3.94373 10.495 3.92567 10.5016 3.90767C10.745 3.24573 10.9561 2.67159 11.1809 2.25796C11.4125 1.83174 11.7678 1.36806 12.3933 1.2678C13.019 1.16752 13.5014 1.49712 13.8544 1.82978C14.1969 2.15254 14.5764 2.63205 15.014 3.18481ZM7.16031 8.4589C5.73716 9.82971 4.64064 12.049 4.75857 15.566C5.92609 14.0988 7.63281 12.9507 9.45702 12.234C9.43768 11.9865 9.42136 11.7206 9.40412 11.4395L9.3765 10.99C9.36255 10.7629 9.35414 10.6342 9.34075 10.538C9.33474 10.4948 9.32925 10.4707 9.32564 10.4576C9.32251 10.4463 9.32071 10.4431 9.32063 10.4429C9.32048 10.4426 9.31911 10.4396 9.31296 10.4316C9.30549 10.4219 9.29045 10.4041 9.26064 10.3745C9.19367 10.3081 9.09836 10.2269 8.92703 10.0821L8.58744 9.79503C8.05266 9.34309 7.5884 8.95074 7.27591 8.5967C7.23677 8.55235 7.19803 8.50643 7.16031 8.4589ZM11.0333 12.8376C11.0502 12.7239 11.0412 12.6045 11.0019 12.4881C10.9953 12.4686 10.988 12.4495 10.98 12.4309C10.9503 12.1345 10.9268 11.7634 10.8978 11.2913L10.8737 10.898C10.872 10.8701 10.8703 10.8421 10.8687 10.8139C10.8485 10.4691 10.827 10.1032 10.6636 9.77466C10.4988 9.44365 10.219 9.2085 9.9586 8.98972C9.93735 8.97187 9.91623 8.95413 9.89532 8.93645L9.5993 8.68625C9.00821 8.18665 8.6311 7.86535 8.40052 7.6041C8.29067 7.47965 8.24684 7.40399 8.23026 7.3653C8.22827 7.36065 8.22681 7.35683 8.22574 7.3538C8.22623 7.3532 8.22676 7.35258 8.22732 7.35192C8.24961 7.32578 8.30799 7.27131 8.44547 7.19033C8.73554 7.0195 9.18207 6.83878 9.88844 6.55652L10.2414 6.41547C10.2667 6.40537 10.2923 6.39524 10.3181 6.38502C10.626 6.26318 10.9691 6.12745 11.2275 5.85856C11.4825 5.59315 11.6092 5.24527 11.7255 4.9261C11.7353 4.89922 11.745 4.87254 11.7547 4.84614L11.8895 4.47962C12.1587 3.7477 12.333 3.27939 12.4989 2.97408C12.5602 2.86136 12.6052 2.79949 12.6335 2.76693C12.6705 2.78902 12.7325 2.83366 12.8256 2.92141C13.0783 3.15957 13.3899 3.54994 13.8738 4.16118L14.1161 4.46726C14.1336 4.48931 14.1511 4.51163 14.1688 4.53412C14.3787 4.80097 14.6077 5.09202 14.9329 5.26454C15.2624 5.43931 15.6307 5.46106 15.9612 5.48057C15.9889 5.48221 16.0164 5.48383 16.0436 5.48553L16.4229 5.50921C17.182 5.5566 17.6625 5.58872 17.9913 5.66036C18.1471 5.69431 18.2194 5.7278 18.2486 5.74559C18.2493 5.74596 18.2498 5.74632 18.2504 5.74667C18.2503 5.74987 18.2501 5.75391 18.2497 5.75888C18.246 5.8009 18.2279 5.88654 18.1623 6.03916C18.0247 6.35949 17.7665 6.78267 17.3607 7.44202L17.1575 7.77224C17.1431 7.79557 17.1286 7.81902 17.114 7.84262C16.9348 8.13187 16.7423 8.44259 16.689 8.80839C16.6362 9.17151 16.7298 9.52581 16.8181 9.85973C16.8254 9.88703 16.8325 9.91419 16.8396 9.94121L16.9392 10.3224C17.138 11.0826 17.2642 11.5729 17.3045 11.9256C17.3229 12.0869 17.3173 12.1729 17.3101 12.2144C17.2718 12.2193 17.1989 12.2215 17.0712 12.2062C16.7378 12.1665 16.2708 12.0393 15.5345 11.8352L15.1665 11.7332C15.1399 11.7258 15.1129 11.7182 15.0857 11.7105C14.7674 11.6211 14.4091 11.5204 14.0417 11.5793C13.6744 11.6382 13.3655 11.8457 13.091 12.0302C13.0675 12.046 13.0442 12.0616 13.0212 12.077L12.7035 12.2888C12.0676 12.7129 11.6635 12.9798 11.3591 13.1217C11.2429 13.1759 11.173 13.1967 11.1351 13.2041C11.1152 13.1668 11.0832 13.0869 11.0506 12.9286C11.0446 12.8994 11.0388 12.8691 11.0333 12.8376ZM11.0973 13.2068C11.0978 13.2061 11.1028 13.2058 11.1109 13.2076C11.1009 13.2083 11.0969 13.2074 11.0973 13.2068ZM11.1478 13.2252C11.153 13.2293 11.1552 13.2324 11.155 13.2329C11.1549 13.2335 11.1523 13.2314 11.1478 13.2252ZM17.3001 12.2477C17.2998 12.2472 17.3009 12.2436 17.3045 12.2381C17.3022 12.2454 17.3004 12.2482 17.3001 12.2477ZM17.3338 12.2102C17.3409 12.2059 17.3458 12.2047 17.3464 12.2052C17.3471 12.2057 17.3435 12.2078 17.3338 12.2102ZM12.6692 2.73408C12.6692 2.73466 12.666 2.73732 12.6597 2.74036C12.666 2.73503 12.6692 2.73351 12.6692 2.73408ZM12.6004 2.74983C12.5934 2.74892 12.5895 2.74737 12.5894 2.74682C12.5892 2.74627 12.5927 2.74672 12.6004 2.74983Z" fill="#1C274C"/>
<path d="M10.2808 16C10.2808 16 10.9135 17.3908 11.6935 17.8692C12.4735 18.3475 14 18.2808 14 18.2808C14 18.2808 12.6092 18.9135 12.1308 19.6935C11.6525 20.4735 11.7192 22 11.7192 22C11.7192 22 11.0865 20.6092 10.3065 20.1308C9.52652 19.6525 8 19.7192 8 19.7192C8 19.7192 9.39082 19.0865 9.86916 18.3065C10.3475 17.5265 10.2808 16 10.2808 16Z" stroke="#1C274C" stroke-linejoin="round"/>
<path d="M18.4795 15C18.4795 15 18.0577 15.9272 17.5377 16.2461C17.0177 16.565 16 16.5205 16 16.5205C16 16.5205 16.9272 16.9423 17.2461 17.4623C17.565 17.9823 17.5205 19 17.5205 19C17.5205 19 17.9423 18.0728 18.4623 17.7539C18.9823 17.435 20 17.4795 20 17.4795C20 17.4795 19.0728 17.0577 18.7539 16.5377C18.435 16.0177 18.4795 15 18.4795 15Z" stroke="#1C274C" stroke-linejoin="round"/>
</svg>
