<svg width="24" height="24" viewBox="0 0 24 24" fill="none" xmlns="http://www.w3.org/2000/svg">
<path fill-rule="evenodd" clip-rule="evenodd" d="M4.41426 17.859C4.77208 17.6504 5.2313 17.7713 5.43996 18.1291C6.26682 19.5471 7.53091 20.6193 9.08979 21.3151C9.46804 21.4839 9.63782 21.9274 9.469 22.3057C9.30018 22.6839 8.8567 22.8537 8.47845 22.6849C6.66693 21.8764 5.14713 20.6046 4.14418 18.8847C3.93552 18.5269 4.05644 18.0677 4.41426 17.859Z" fill="#1C274C"/>
<path fill-rule="evenodd" clip-rule="evenodd" d="M18.9062 3.92194C17.8923 2.88646 16.4464 2.50452 15.0308 2.9073C14.6324 3.02066 14.2176 2.78959 14.1042 2.39119C13.9908 1.99279 14.2219 1.57792 14.6203 1.46456C16.5585 0.913072 18.575 1.43959 19.978 2.8725C20.2678 3.16846 20.2628 3.64331 19.9668 3.9331C19.6709 4.2229 19.196 4.2179 18.9062 3.92194Z" fill="#1C274C"/>
<path fill-rule="evenodd" clip-rule="evenodd" d="M11.1906 3.30839C10.9766 2.94131 10.3527 2.7187 9.71907 3.08085C9.08771 3.44168 8.97667 4.07772 9.187 4.4384L11.7127 8.76952C11.9213 9.12734 11.8004 9.58656 11.4426 9.79522C11.0848 10.0039 10.6255 9.88296 10.4169 9.52514L7.04934 3.75032C6.83528 3.38324 6.21147 3.16063 5.5778 3.52278C4.94644 3.88361 4.8354 4.51965 5.04573 4.88033L8.83422 11.377C9.04288 11.7348 8.92196 12.1941 8.56414 12.4027C8.20632 12.6114 7.7471 12.4905 7.53844 12.1326L5.85467 9.24522C5.64061 8.87814 5.0168 8.65553 4.38313 9.01768C3.75177 9.37851 3.64073 10.0145 3.85106 10.3752L7.63955 16.8719C9.24849 19.631 13.2188 20.5264 16.5858 18.6021C19.9505 16.6792 21.1465 12.8377 19.5413 10.085L17.0156 5.75387C16.8016 5.38679 16.1778 5.16418 15.5441 5.52633C14.9128 5.88716 14.8017 6.5232 15.012 6.88389L16.6958 9.7713C16.7966 9.94411 16.8241 10.15 16.7724 10.3432C16.7206 10.5365 16.5938 10.701 16.4201 10.8003C14.8776 11.6818 14.4049 13.3863 15.0802 14.5443C15.2889 14.9022 15.1679 15.3614 14.8101 15.57C14.4523 15.7787 13.9931 15.6578 13.7844 15.3C12.8717 13.7348 13.2405 11.8501 14.4194 10.5181C14.749 10.1457 14.8618 9.60396 14.6113 9.17438L11.1906 3.30839Z" fill="#1C274C"/>
</svg>
