<svg width="24" height="24" viewBox="0 0 24 24" fill="none" xmlns="http://www.w3.org/2000/svg">
<path d="M12.0261 9.96544C12.6382 9.13578 13 8.11014 13 7C13 4.23858 10.7614 2 8 2C6.88986 2 5.86422 2.36179 5.03456 2.9739L12.0261 9.96544Z" fill="#1C274C"/>
<path d="M10.9654 11.0261C10.1358 11.6382 9.11014 12 8 12C5.23858 12 3 9.76142 3 7C3 5.88986 3.36179 4.86422 3.9739 4.03456L10.9654 11.0261Z" fill="#1C274C"/>
<path d="M21.9442 16.25C21.7903 15.2305 21.3209 14.2495 20.5359 13.4645C18.5833 11.5118 15.4175 11.5118 13.4649 13.4645C12.6799 14.2495 12.2105 15.2305 12.0566 16.25H21.9442Z" fill="#1C274C"/>
<path d="M21.9442 17.75H12.0566C12.2105 18.7695 12.6799 19.7505 13.4649 20.5355C15.4175 22.4882 18.5833 22.4882 20.5359 20.5355C21.3209 19.7505 21.7903 18.7695 21.9442 17.75Z" fill="#1C274C"/>
</svg>
