<svg width="24" height="24" viewBox="0 0 24 24" fill="none" xmlns="http://www.w3.org/2000/svg">
<path fill-rule="evenodd" clip-rule="evenodd" d="M10.9483 1.25H13.0523C13.9508 1.24997 14.7 1.24995 15.2948 1.32991C15.9226 1.41432 16.4894 1.59999 16.9448 2.05546C17.4003 2.51093 17.586 3.07773 17.6704 3.70552C17.7503 4.30031 17.7503 5.04953 17.7503 5.94801L17.7503 7.28108L18.5898 7.73883C19.7947 8.39587 20.5445 9.6587 20.5445 11.0312V15.9688C20.5445 17.3413 19.7947 18.6041 18.5898 19.2612L13.7955 21.8754C12.6765 22.4855 11.3241 22.4855 10.205 21.8754L5.41081 19.2612C4.20583 18.6041 3.45605 17.3413 3.45605 15.9688V11.0312C3.45605 9.6587 4.20583 8.39587 5.41081 7.73883L6.25028 7.28108L6.25028 5.948C6.25025 5.04952 6.25023 4.3003 6.33019 3.70552C6.4146 3.07773 6.60027 2.51093 7.05574 2.05546C7.51121 1.59999 8.07801 1.41432 8.7058 1.32991C9.30058 1.24995 10.0498 1.24997 10.9483 1.25ZM7.75028 6.46317L10.205 5.12465C11.3241 4.51446 12.6765 4.51446 13.7955 5.12465L16.2503 6.46317V6C16.2503 5.03599 16.2487 4.38843 16.1837 3.90539C16.1217 3.44393 16.0145 3.24644 15.8842 3.11612C15.7539 2.9858 15.5564 2.87858 15.0949 2.81654C14.6119 2.7516 13.9643 2.75 13.0003 2.75H11.0003C10.0363 2.75 9.38871 2.7516 8.90568 2.81654C8.44421 2.87858 8.24672 2.9858 8.1164 3.11612C7.98608 3.24644 7.87886 3.44393 7.81682 3.90539C7.75188 4.38843 7.75028 5.03599 7.75028 6V6.46317ZM13.0774 6.44159C12.406 6.07548 11.5946 6.07548 10.9231 6.44159L6.12891 9.05577C5.40592 9.45 4.95605 10.2077 4.95605 11.0312V15.9688C4.95605 16.7923 5.40592 17.55 6.12891 17.9442L10.9231 20.5584C11.5946 20.9245 12.406 20.9245 13.0774 20.5584L17.8717 17.9442C18.5946 17.55 19.0445 16.7923 19.0445 15.9688V11.0312C19.0445 10.2077 18.5946 9.45 17.8717 9.05577L13.0774 6.44159ZM12.0003 11.5346C11.9421 11.6353 11.8775 11.7512 11.8013 11.8878L11.703 12.0642C11.6961 12.0767 11.6886 12.0903 11.6807 12.1048C11.6021 12.2484 11.4721 12.4863 11.2552 12.6509C11.0339 12.8189 10.7676 12.8767 10.6119 12.9106C10.5963 12.9139 10.5818 12.9171 10.5686 12.9201L10.3777 12.9633C10.2025 13.0029 10.0598 13.0353 9.93778 13.0659C10.0171 13.1636 10.1202 13.2849 10.2543 13.4417L10.3845 13.5939C10.3937 13.6047 10.4037 13.6162 10.4144 13.6286C10.5224 13.7529 10.6966 13.9536 10.7772 14.2128C10.8568 14.4688 10.8294 14.7326 10.812 14.899C10.8103 14.9156 10.8087 14.9312 10.8073 14.9458L10.7876 15.1488C10.7694 15.3371 10.7552 15.4873 10.7457 15.6095C10.8499 15.5636 10.9685 15.5091 11.1093 15.4443L11.2881 15.362C11.3004 15.3563 11.3138 15.3499 11.3284 15.3431C11.4719 15.2754 11.7216 15.1576 12.0003 15.1576C12.279 15.1576 12.5286 15.2754 12.6721 15.3431C12.6867 15.3499 12.7002 15.3563 12.7125 15.362L12.8913 15.4443C13.0321 15.5091 13.1506 15.5636 13.2548 15.6095C13.2454 15.4873 13.2312 15.3371 13.213 15.1488L13.1933 14.9458C13.1919 14.9312 13.1902 14.9156 13.1885 14.899C13.1712 14.7326 13.1437 14.4689 13.2234 14.2128C13.3039 13.9536 13.4782 13.7529 13.5861 13.6286C13.5968 13.6162 13.6069 13.6047 13.6161 13.5939L13.7463 13.4417C13.8803 13.2849 13.9834 13.1636 14.0628 13.0659C13.9408 13.0353 13.7981 13.0029 13.6229 12.9633L13.432 12.9201C13.4188 12.9171 13.4043 12.9139 13.3887 12.9106C13.233 12.8767 12.9667 12.8189 12.7453 12.6509C12.5285 12.4863 12.3984 12.2484 12.3199 12.1048C12.3119 12.0902 12.3045 12.0767 12.2975 12.0642L12.1992 11.8878C12.1231 11.7512 12.0584 11.6353 12.0003 11.5346ZM11.0138 10.2998C11.1859 10.075 11.4986 9.75016 12.0003 9.75016C12.502 9.75016 12.8146 10.075 12.9868 10.2998C13.1511 10.5144 13.3166 10.8114 13.4863 11.1159C13.494 11.1298 13.5017 11.1436 13.5094 11.1575L13.6077 11.3339C13.6305 11.3748 13.6485 11.4069 13.6642 11.4345C13.6915 11.4409 13.7233 11.4481 13.763 11.4571L13.9539 11.5003C13.9696 11.5038 13.9852 11.5073 14.0008 11.5109C14.3287 11.5849 14.6544 11.6586 14.9045 11.7571C15.1807 11.8659 15.555 12.0779 15.6992 12.5418C15.8409 12.9975 15.6621 13.3835 15.5059 13.6316C15.3614 13.8612 15.1417 14.118 14.9168 14.3809C14.9066 14.3928 14.8964 14.4047 14.8863 14.4166L14.7561 14.5688C14.7216 14.6091 14.6956 14.6395 14.6737 14.6658C14.6767 14.7022 14.6808 14.7445 14.6863 14.8011L14.706 15.0041C14.7075 15.0196 14.709 15.0351 14.7105 15.0505C14.7446 15.4025 14.7777 15.7426 14.7656 16.0146C14.7528 16.2999 14.6844 16.7317 14.2972 17.0256C13.8978 17.3288 13.4567 17.2627 13.177 17.1826C12.9192 17.1087 12.6147 16.9684 12.308 16.8271C12.2933 16.8203 12.2786 16.8135 12.2639 16.8068L12.0852 16.7245C12.0517 16.7091 12.0242 16.6964 12.0003 16.6856C11.9763 16.6964 11.9488 16.7091 11.9154 16.7245L11.7367 16.8068C11.722 16.8135 11.7073 16.8203 11.6926 16.8271C11.3859 16.9684 11.0813 17.1087 10.8236 17.1826C10.5439 17.2627 10.1028 17.3288 9.70334 17.0256C9.31618 16.7317 9.24772 16.2999 9.23501 16.0146C9.22289 15.7426 9.25592 15.4025 9.29009 15.0506C9.29159 15.0351 9.2931 15.0196 9.2946 15.0041L9.31428 14.8011C9.31976 14.7445 9.32384 14.7022 9.32683 14.6658C9.30493 14.6395 9.27895 14.6091 9.24446 14.5688L9.11431 14.4166C9.10413 14.4047 9.09395 14.3928 9.08379 14.3809C8.85888 14.118 8.63919 13.8612 8.49464 13.6316C8.33846 13.3835 8.15962 12.9975 8.30134 12.5418C8.4456 12.0779 8.8199 11.8659 9.09605 11.7571C9.34613 11.6586 9.67191 11.5849 9.99972 11.5109C10.0154 11.5073 10.031 11.5038 10.0466 11.5003L10.2375 11.4571C10.2773 11.4481 10.3091 11.4409 10.3364 11.4345C10.3521 11.4069 10.37 11.3748 10.3928 11.3339L10.4911 11.1575C10.4989 11.1436 10.5066 11.1298 10.5143 11.1159C10.684 10.8114 10.8495 10.5144 11.0138 10.2998Z" fill="#1C274C"/>
</svg>
