<svg width="24" height="24" viewBox="0 0 24 24" fill="none" xmlns="http://www.w3.org/2000/svg">
<path fill-rule="evenodd" clip-rule="evenodd" d="M11.2915 3.30809C10.8978 3.82224 10.4533 4.61551 9.80778 5.77355L9.48009 6.36141C9.46033 6.39684 9.44083 6.43194 9.42152 6.4667C9.12078 7.0079 8.86696 7.46469 8.45795 7.77518C8.04454 8.08901 7.54057 8.20227 6.95486 8.3339C6.91722 8.34235 6.87924 8.35089 6.84092 8.35956L6.20457 8.50354C4.94925 8.78757 4.09527 8.98299 3.51033 9.21351C2.93953 9.43845 2.81905 9.62275 2.77312 9.77044C2.72465 9.9263 2.72321 10.1647 3.06445 10.7068C3.4108 11.257 3.9951 11.9432 4.84962 12.9425L5.28345 13.4498C5.30866 13.4793 5.33364 13.5084 5.35838 13.5373C5.76139 14.0074 6.09742 14.3993 6.25156 14.895C6.40477 15.3877 6.35399 15.9054 6.29242 16.5331C6.28864 16.5716 6.28483 16.6105 6.28101 16.6499L6.21543 17.3267C6.08633 18.6589 5.99929 19.5762 6.02873 20.2369C6.05811 20.8965 6.19741 21.0788 6.30816 21.1628C6.40667 21.2376 6.58876 21.3204 7.18199 21.1504C7.78486 20.9777 8.5861 20.6111 9.76153 20.0699L10.3573 19.7956C10.394 19.7787 10.4304 19.7619 10.4664 19.7452C11.0112 19.4934 11.4839 19.2748 11.9995 19.2748C12.5152 19.2748 12.9878 19.4934 13.5326 19.7452C13.5687 19.7619 13.605 19.7787 13.6417 19.7956L14.2375 20.0699C15.4129 20.6111 16.2142 20.9777 16.8171 21.1504C17.4103 21.3204 17.5924 21.2376 17.6909 21.1628C17.8016 21.0788 17.9409 20.8965 17.9703 20.2369C17.9998 19.5762 17.9127 18.6589 17.7836 17.3267L17.718 16.6499C17.7142 16.6105 17.7104 16.5716 17.7066 16.5331C17.6451 15.9054 17.5943 15.3877 17.7475 14.895C17.9016 14.3993 18.2377 14.0074 18.6407 13.5372C18.6654 13.5084 18.6904 13.4793 18.7156 13.4498L19.1494 12.9425C20.004 11.9432 20.5883 11.257 20.9346 10.7068C21.2758 10.1647 21.2744 9.9263 21.2259 9.77044C21.18 9.62275 21.0595 9.43845 20.4887 9.21351C19.9038 8.98299 19.0498 8.78757 17.7945 8.50354L17.1581 8.35956C17.1198 8.35089 17.0818 8.34235 17.0442 8.33389C16.4585 8.20227 15.9545 8.08901 15.5411 7.77518C15.1321 7.46469 14.8783 7.0079 14.5775 6.4667C14.5582 6.43194 14.5387 6.39684 14.519 6.36141L14.1913 5.77355C13.5457 4.61551 13.1013 3.82224 12.7076 3.30809C12.3142 2.79443 12.1133 2.75 11.9995 2.75C11.8858 2.75 11.6848 2.79443 11.2915 3.30809ZM10.1006 2.3961C10.5773 1.77363 11.1664 1.25 11.9995 1.25C12.8326 1.25 13.4218 1.77363 13.8985 2.3961C14.3669 3.00773 14.8635 3.89876 15.4706 4.98776L15.8292 5.63106C16.2217 6.33523 16.3221 6.48482 16.4481 6.58044C16.5693 6.67247 16.7257 6.7238 17.4892 6.89654L18.1892 7.05492C19.3648 7.32088 20.3333 7.53999 21.0387 7.81796C21.7709 8.10651 22.4116 8.5318 22.6583 9.32502C22.9024 10.1101 22.628 10.8323 22.204 11.5059C21.792 12.1604 21.134 12.9298 20.3301 13.8698L19.8556 14.4247C19.3386 15.0292 19.2306 15.1772 19.1798 15.3404C19.1281 15.5069 19.1329 15.6992 19.211 16.5052L19.2826 17.2433C19.4043 18.4994 19.5036 19.5236 19.4688 20.3037C19.4335 21.0977 19.2531 21.8601 18.5979 22.3576C17.9303 22.8643 17.1537 22.8072 16.4039 22.5924C15.6769 22.3841 14.7706 21.9667 13.67 21.46L13.0144 21.1581C12.297 20.8278 12.1435 20.7748 11.9995 20.7748C11.8556 20.7748 11.702 20.8278 10.9847 21.1581L10.329 21.46C9.22849 21.9667 8.32216 22.3841 7.59516 22.5924C6.84538 22.8072 6.06871 22.8643 5.40119 22.3576C4.74591 21.8601 4.56558 21.0977 4.53021 20.3037C4.49546 19.5236 4.59474 18.4993 4.71648 17.2433L4.78801 16.5052C4.86611 15.6992 4.87098 15.5069 4.81922 15.3404C4.76845 15.1772 4.66045 15.0292 4.14345 14.4247L3.66896 13.8698C2.86511 12.9299 2.20704 12.1604 1.79504 11.5059C1.37101 10.8323 1.09665 10.1101 1.34078 9.32502C1.58745 8.5318 2.22818 8.10651 2.96037 7.81796C3.66573 7.53999 4.63425 7.32088 5.80989 7.05492L5.87355 7.04052L6.5099 6.89654C7.27334 6.72381 7.42974 6.67247 7.55099 6.58044C7.67694 6.48482 7.77736 6.33523 8.1699 5.63106L8.52851 4.98775C9.13552 3.89876 9.63219 3.00773 10.1006 2.3961Z" fill="#1C274C"/>
</svg>
