<svg width="24" height="24" viewBox="0 0 24 24" fill="none" xmlns="http://www.w3.org/2000/svg">
<path d="M18.357 1.61424C18.5701 1.25906 19.0308 1.14388 19.386 1.35699L19.0001 2.00011C19.386 1.35699 19.3857 1.35679 19.386 1.35699L19.3874 1.35783L19.389 1.35878L19.3927 1.36103L19.4023 1.36695C19.4096 1.37153 19.4189 1.37737 19.4299 1.38448C19.4519 1.39871 19.481 1.41809 19.5162 1.44272C19.5865 1.49194 19.6815 1.56244 19.7928 1.6552C20.0149 1.84029 20.3053 2.11678 20.5946 2.49283C21.1775 3.25057 21.7501 4.40746 21.7501 6.00011C21.7501 7.59277 21.1775 8.74966 20.5946 9.5074C20.3053 9.88345 20.0149 10.1599 19.7928 10.345C19.6815 10.4378 19.5865 10.5083 19.5162 10.5575C19.481 10.5821 19.4519 10.6015 19.4299 10.6157C19.4189 10.6229 19.4096 10.6287 19.4023 10.6333L19.3927 10.6392L19.389 10.6414L19.3874 10.6424C19.3871 10.6426 19.386 10.6432 19.0001 10.0001L19.386 10.6432C19.0308 10.8563 18.5701 10.7412 18.357 10.386C18.1448 10.0323 18.2581 9.57398 18.6098 9.3597L18.6153 9.35616C18.6226 9.35145 18.6365 9.34231 18.656 9.32866C18.695 9.30132 18.7563 9.25619 18.8325 9.1927C18.9854 9.06529 19.1949 8.86678 19.4057 8.59283C19.8228 8.05057 20.2501 7.20746 20.2501 6.00011C20.2501 4.79277 19.8228 3.94966 19.4057 3.4074C19.1949 3.13345 18.9854 2.93494 18.8325 2.80753C18.7563 2.74403 18.695 2.69891 18.656 2.67157C18.6365 2.65792 18.6226 2.64878 18.6153 2.64406L18.6098 2.64053C18.2581 2.42625 18.1448 1.96793 18.357 1.61424Z" fill="#1C274C"/>
<path fill-rule="evenodd" clip-rule="evenodd" d="M10.0001 1.25011C7.37678 1.25011 5.25013 3.37676 5.25013 6.00011C5.25013 8.62347 7.37678 10.7501 10.0001 10.7501C12.6235 10.7501 14.7501 8.62347 14.7501 6.00011C14.7501 3.37676 12.6235 1.25011 10.0001 1.25011ZM6.75013 6.00011C6.75013 4.20519 8.20521 2.75011 10.0001 2.75011C11.7951 2.75011 13.2501 4.20519 13.2501 6.00011C13.2501 7.79504 11.7951 9.25011 10.0001 9.25011C8.20521 9.25011 6.75013 7.79504 6.75013 6.00011Z" fill="#1C274C"/>
<path fill-rule="evenodd" clip-rule="evenodd" d="M10.0001 12.2501C7.68658 12.2501 5.55506 12.776 3.97558 13.6645C2.41962 14.5397 1.25013 15.8662 1.25013 17.5001L1.25007 17.6021C1.24894 18.7639 1.24752 20.2221 2.52655 21.2637C3.15602 21.7763 4.03661 22.1408 5.22634 22.3816C6.4194 22.6231 7.97436 22.7501 10.0001 22.7501C12.0259 22.7501 13.5809 22.6231 14.7739 22.3816C15.9637 22.1408 16.8443 21.7763 17.4737 21.2637C18.7527 20.2221 18.7513 18.7639 18.7502 17.6021L18.7501 17.5001C18.7501 15.8662 17.5807 14.5397 16.0247 13.6645C14.4452 12.776 12.3137 12.2501 10.0001 12.2501ZM2.75013 17.5001C2.75013 16.6488 3.37151 15.7253 4.71098 14.9718C6.02693 14.2316 7.89541 13.7501 10.0001 13.7501C12.1049 13.7501 13.9733 14.2316 15.2893 14.9718C16.6288 15.7253 17.2501 16.6488 17.2501 17.5001C17.2501 18.8079 17.2098 19.5441 16.5265 20.1005C16.156 20.4023 15.5366 20.6968 14.4763 20.9114C13.4194 21.1253 11.9744 21.2501 10.0001 21.2501C8.02591 21.2501 6.58087 21.1253 5.52393 20.9114C4.46366 20.6968 3.84425 20.4023 3.47372 20.1005C2.79045 19.5441 2.75013 18.8079 2.75013 17.5001Z" fill="#1C274C"/>
<path d="M17.386 3.35699C17.0308 3.14388 16.5701 3.25906 16.357 3.61424L16.6052 4.63774L16.613 4.64305C16.6247 4.65125 16.6469 4.66747 16.6762 4.6919C16.7354 4.74119 16.8199 4.82095 16.9057 4.9324C17.0728 5.14966 17.2501 5.49277 17.2501 6.00011C17.2501 6.50746 17.0728 6.85057 16.9057 7.06783C16.8199 7.17928 16.7354 7.25904 16.6762 7.30832C16.6469 7.33276 16.6247 7.34897 16.613 7.35717L16.6052 7.36249C16.2571 7.57794 16.1457 8.03382 16.357 8.38599C16.5701 8.74117 17.0308 8.85634 17.386 8.64323L17.0001 8.00011C17.386 8.64323 17.3857 8.64343 17.386 8.64323L17.3873 8.64243L17.3888 8.64156L17.3919 8.63963L17.3994 8.63504L17.4186 8.62282C17.4333 8.61333 17.4517 8.60108 17.4732 8.58602C17.5162 8.55594 17.5721 8.51435 17.6365 8.46065C17.7649 8.35369 17.9303 8.19594 18.0946 7.9824C18.4275 7.54966 18.7501 6.89277 18.7501 6.00011C18.7501 5.10746 18.4275 4.45057 18.0946 4.01783C17.9303 3.80428 17.7649 3.64654 17.6365 3.53957C17.5721 3.48588 17.5162 3.44428 17.4732 3.4142C17.4517 3.39914 17.4333 3.3869 17.4186 3.3774L17.3994 3.36519L17.3919 3.36059L17.3888 3.35867L17.3873 3.3578C17.387 3.3576 17.386 3.35699 17.0001 4.00011L17.386 3.35699Z" fill="#1C274C"/>
</svg>
