<svg width="24" height="24" viewBox="0 0 24 24" fill="none" xmlns="http://www.w3.org/2000/svg">
<path d="M15.9998 10.4999C15.9998 11.3283 15.5521 11.9999 14.9998 11.9999C14.4475 11.9999 13.9998 11.3283 13.9998 10.4999C13.9998 9.67148 14.4475 8.9999 14.9998 8.9999C15.5521 8.9999 15.9998 9.67148 15.9998 10.4999Z" fill="#1C274C"/>
<path d="M9.99982 10.4999C9.99982 11.3283 9.5521 11.9999 8.99982 11.9999C8.44753 11.9999 7.99982 11.3283 7.99982 10.4999C7.99982 9.67148 8.44753 8.9999 8.99982 8.9999C9.5521 8.9999 9.99982 9.67148 9.99982 10.4999Z" fill="#1C274C"/>
<path fill-rule="evenodd" clip-rule="evenodd" d="M13.2648 2.05067C13.3472 1.64473 13.7431 1.38245 14.149 1.46484C18.3625 2.32007 21.6797 5.63714 22.535 9.85065C22.6173 10.2566 22.3551 10.6525 21.9491 10.7349C21.5432 10.8173 21.1473 10.555 21.0649 10.149C20.3295 6.52593 17.4738 3.67026 13.8506 2.93487C13.4447 2.85247 13.1824 2.4566 13.2648 2.05067ZM10.735 2.05072C10.8174 2.45666 10.5551 2.85253 10.1492 2.93492C6.52602 3.67032 3.67032 6.52598 2.93486 10.1491C2.85246 10.555 2.45659 10.8173 2.05065 10.7349C1.64472 10.6525 1.38244 10.2566 1.46484 9.8507C2.32014 5.6372 5.63726 2.32012 9.85079 1.46489C10.2567 1.3825 10.6526 1.64478 10.735 2.05072ZM2.05081 13.2649C2.45675 13.1825 2.85262 13.4448 2.93502 13.8507C3.67048 17.4738 6.52618 20.3295 10.1493 21.0649C10.5553 21.1473 10.8175 21.5431 10.7351 21.9491C10.6528 22.355 10.2569 22.6173 9.85095 22.5349C5.63742 21.6797 2.3203 18.3626 1.465 14.1491C1.3826 13.7432 1.64488 13.3473 2.05081 13.2649ZM21.9491 13.2649C22.3551 13.3473 22.6173 13.7432 22.535 14.1491C21.6797 18.3626 18.3625 21.6797 14.149 22.5349C13.7431 22.6173 13.3472 22.355 13.2648 21.9491C13.1824 21.5431 13.4447 21.1473 13.8506 21.0649C17.4738 20.3295 20.3295 17.4738 21.0649 13.8507C21.1473 13.4448 21.5432 13.1825 21.9491 13.2649ZM8.39729 15.5533C8.64395 15.2205 9.11366 15.1507 9.44643 15.3974C10.1748 15.9372 11.0539 16.2499 11.9998 16.2499C12.9457 16.2499 13.8249 15.9372 14.5532 15.3974C14.886 15.1507 15.3557 15.2205 15.6023 15.5533C15.849 15.8861 15.7792 16.3558 15.4464 16.6024C14.474 17.3232 13.2848 17.7499 11.9998 17.7499C10.7148 17.7499 9.52562 17.3232 8.55321 16.6024C8.22044 16.3558 8.15063 15.8861 8.39729 15.5533Z" fill="#1C274C"/>
</svg>
