<svg width="24" height="24" viewBox="0 0 24 24" fill="none" xmlns="http://www.w3.org/2000/svg">
<path fill-rule="evenodd" clip-rule="evenodd" d="M11.9996 2.75C10.757 2.75 9.74963 3.75736 9.74963 5V5.25988C10.3067 5.24999 10.918 5.24999 11.5888 5.25H12.4105C13.0813 5.24999 13.6926 5.24999 14.2496 5.25988V5C14.2496 3.75736 13.2423 2.75 11.9996 2.75ZM15.7496 5.32793V5C15.7496 2.92893 14.0707 1.25 11.9996 1.25C9.92856 1.25 8.24963 2.92893 8.24963 5V5.32793C8.1069 5.34021 7.96898 5.35444 7.8357 5.3709C6.82573 5.49569 5.99311 5.75783 5.28581 6.34483C4.57852 6.93183 4.16743 7.70189 3.85865 8.67156C3.55942 9.61128 3.33291 10.8194 3.04817 12.3381L3.02749 12.4484C2.62569 14.5912 2.30905 16.2799 2.25094 17.6112C2.19138 18.9758 2.39439 20.106 3.16417 21.0335C3.93394 21.961 5.00736 22.3689 6.35956 22.5618C7.67877 22.75 9.39688 22.75 11.577 22.75H12.4222C14.6023 22.75 16.3205 22.75 17.6397 22.5618C18.9919 22.3689 20.0653 21.961 20.8351 21.0335C21.6049 20.106 21.8079 18.9758 21.7483 17.6112C21.6902 16.2799 21.3736 14.5912 20.9718 12.4484L20.9511 12.3381C20.6664 10.8194 20.4398 9.61129 20.1406 8.67156C19.8318 7.70189 19.4207 6.93183 18.7134 6.34483C18.0062 5.75783 17.1735 5.49569 16.1636 5.3709C16.0303 5.35444 15.8924 5.34021 15.7496 5.32793ZM8.01963 6.85959C7.16409 6.96529 6.64737 7.16413 6.24377 7.49909C5.84016 7.83406 5.5495 8.30528 5.28794 9.12669C5.02008 9.96788 4.80933 11.0846 4.51322 12.6639C4.09749 14.8811 3.80241 16.4647 3.74951 17.6766C3.69752 18.8679 3.88858 19.5576 4.31843 20.0756C4.74828 20.5935 5.39102 20.9084 6.57144 21.0768C7.77235 21.2482 9.38322 21.25 11.639 21.25H12.3602C14.616 21.25 16.2269 21.2482 17.4278 21.0768C18.6082 20.9084 19.251 20.5935 19.6808 20.0756C20.1107 19.5576 20.3017 18.8679 20.2497 17.6766C20.1968 16.4647 19.9018 14.8811 19.486 12.6639C19.1899 11.0846 18.9792 9.96788 18.7113 9.12669C18.4498 8.30528 18.1591 7.83406 17.7555 7.49909C17.3519 7.16413 16.8352 6.96529 15.9796 6.85959C15.1035 6.75133 13.967 6.75 12.3602 6.75H11.639C10.0322 6.75 8.89578 6.75133 8.01963 6.85959ZM10.2415 12.2896C10.0122 12.37 9.74963 12.6207 9.74963 13.1967C9.74963 13.4113 9.89085 13.7423 10.2591 14.1681C10.6077 14.5712 11.0682 14.9542 11.4862 15.2609C11.7124 15.4269 11.8198 15.5034 11.9057 15.5488C11.9601 15.5775 11.9752 15.5776 11.9996 15.5776C12.0241 15.5776 12.0391 15.5775 12.0935 15.5488C12.1795 15.5034 12.2869 15.4269 12.5131 15.2609C12.9311 14.9542 13.3915 14.5712 13.7402 14.1681C14.1084 13.7423 14.2496 13.4113 14.2496 13.1967C14.2496 12.6207 13.9871 12.37 13.7578 12.2896C13.5074 12.2019 13.0439 12.2299 12.5183 12.7331C12.2283 13.0108 11.771 13.0108 11.4809 12.7331C10.9554 12.2299 10.4918 12.2019 10.2415 12.2896ZM11.9996 11.2343C11.2833 10.7628 10.4746 10.6184 9.74529 10.8741C8.81208 11.2012 8.24963 12.0995 8.24963 13.1967C8.24963 13.9666 8.69083 14.6479 9.12453 15.1493C9.57782 15.6735 10.1388 16.1327 10.5988 16.4703C10.6221 16.4874 10.6456 16.5047 10.6693 16.5223C11.0206 16.782 11.4203 17.0775 11.9996 17.0776C12.5789 17.0776 12.9787 16.782 13.33 16.5223C13.3537 16.5047 13.3771 16.4874 13.4004 16.4703C13.8605 16.1327 14.4214 15.6735 14.8747 15.1493C15.3084 14.6479 15.7496 13.9666 15.7496 13.1967C15.7496 12.0995 15.1872 11.2012 14.254 10.8741C13.5246 10.6184 12.7159 10.7628 11.9996 11.2343Z" fill="#1C274C"/>
</svg>
