<svg width="24" height="24" viewBox="0 0 24 24" fill="none" xmlns="http://www.w3.org/2000/svg">
<path d="M10.0004 13.2502C9.58622 13.2502 9.25044 13.586 9.25044 14.0002C9.25044 14.4144 9.58622 14.7502 10.0004 14.7502H14.0004C14.4146 14.7502 14.7504 14.4144 14.7504 14.0002C14.7504 13.586 14.4146 13.2502 14.0004 13.2502H10.0004Z" fill="#1C274C"/>
<path fill-rule="evenodd" clip-rule="evenodd" d="M14.665 2.32934C15.0355 2.1441 15.486 2.29427 15.6713 2.66475L17.4846 6.29135C17.9121 6.31309 18.302 6.3463 18.6553 6.39702C19.711 6.54861 20.5848 6.87448 21.2058 7.64262C21.8267 8.41077 21.9623 9.33344 21.8893 10.3975C21.8186 11.4287 21.5399 12.729 21.1915 14.3547L20.7401 16.4614C20.5052 17.5578 20.3146 18.4472 20.0748 19.142C19.8248 19.8661 19.4954 20.4616 18.9328 20.9164C18.3701 21.3713 17.7189 21.5686 16.9585 21.6613C16.2289 21.7502 15.3193 21.7502 14.1979 21.7502H9.80301C8.68168 21.7502 7.77208 21.7502 7.04245 21.6613C6.28207 21.5686 5.63082 21.3713 5.06818 20.9164C4.50554 20.4616 4.1761 19.8661 3.92617 19.142C3.68635 18.4472 3.49578 17.5578 3.26084 16.4614L2.80942 14.3547C2.46104 12.7291 2.18237 11.4287 2.11164 10.3975C2.03865 9.33344 2.1742 8.41077 2.79518 7.64262C3.41617 6.87448 4.28995 6.54861 5.34567 6.39702C5.69895 6.3463 6.08881 6.31309 6.51631 6.29135L8.32962 2.66475C8.51486 2.29427 8.96536 2.1441 9.33585 2.32934C9.70633 2.51459 9.8565 2.96509 9.67126 3.33557L8.21293 6.25223C8.57649 6.25015 8.95914 6.25016 9.36125 6.25016H14.6397C15.0417 6.25016 15.4244 6.25015 15.7879 6.25223L14.3296 3.33557C14.1444 2.96509 14.2945 2.51459 14.665 2.32934ZM5.73255 7.85888L5.32962 8.66475C5.14437 9.03524 5.29454 9.48574 5.66503 9.67099C6.03551 9.85623 6.48601 9.70606 6.67126 9.33558L7.45851 7.76107C8.02891 7.7505 8.67835 7.75016 9.42239 7.75016H14.5785C15.3226 7.75016 15.972 7.7505 16.5424 7.76107L17.3296 9.33558C17.5149 9.70606 17.9654 9.85623 18.3358 9.67099C18.7063 9.48574 18.8565 9.03524 18.6713 8.66475L18.2683 7.85887C18.3275 7.86603 18.3854 7.87366 18.4421 7.8818C19.326 8.00871 19.7597 8.23982 20.0393 8.58564C20.3141 8.92563 20.4493 9.38809 20.3957 10.2502H3.6052C3.55161 9.38809 3.68683 8.92563 3.96168 8.58564C4.24125 8.23982 4.67497 8.00871 5.55886 7.8818C5.61549 7.87367 5.67338 7.86604 5.73255 7.85888ZM4.28893 14.1002C4.09194 13.1809 3.92712 12.4092 3.80743 11.7502H20.1935C20.0738 12.4092 19.909 13.1809 19.712 14.1002L19.2834 16.1002C19.036 17.2547 18.8634 18.0543 18.6569 18.6526C18.457 19.2316 18.2522 19.5378 17.9897 19.7499C17.7273 19.9621 17.385 20.0982 16.777 20.1723C16.1487 20.2489 15.3307 20.2502 14.15 20.2502H9.85096C8.67021 20.2502 7.85223 20.2489 7.2239 20.1723C6.61594 20.0982 6.27362 19.9621 6.01119 19.7499C5.74876 19.5378 5.54392 19.2316 5.34409 18.6526C5.13756 18.0543 4.96491 17.2547 4.7175 16.1002L4.28893 14.1002Z" fill="#1C274C"/>
</svg>
