<svg width="24" height="24" viewBox="0 0 24 24" fill="none" xmlns="http://www.w3.org/2000/svg">
<path fill-rule="evenodd" clip-rule="evenodd" d="M9.63823 21.75C8.55305 21.75 7.67197 21.75 6.96315 21.6653C6.22414 21.5769 5.5895 21.3888 5.03488 20.9558C4.48026 20.5227 4.14386 19.9527 3.87889 19.2572C3.62475 18.5901 3.41107 17.7353 3.14789 16.6825L3.12149 16.5769C2.70527 14.9121 2.37278 13.5822 2.26541 12.5261C2.15476 11.4377 2.26491 10.4888 2.88691 9.6922C3.16977 9.32992 3.50885 9.06269 3.89636 8.86426L4.52423 6.56133C4.76131 5.68968 4.93355 5.05639 5.30048 4.5623C5.6642 4.07255 6.15841 3.69505 6.7266 3.47298C7.20215 3.28712 7.73489 3.25574 8.41843 3.25077C8.69914 2.65912 9.30199 2.25 10.0004 2.25H14.0004C14.6988 2.25 15.3016 2.65912 15.5823 3.25077C16.2659 3.25574 16.7986 3.28712 17.2742 3.47298C17.8424 3.69505 18.3366 4.07255 18.7003 4.5623C19.0672 5.05639 19.2395 5.68968 19.4765 6.56133L20.1044 8.86431C20.4919 9.06274 20.8309 9.32995 21.1138 9.6922C21.7358 10.4888 21.8459 11.4377 21.7353 12.5261C21.6279 13.5822 21.2954 14.9121 20.8792 16.5769L20.8528 16.6824C20.5896 17.7352 20.3759 18.5901 20.1218 19.2572C19.8568 19.9527 19.5204 20.5227 18.9658 20.9558C18.4112 21.3888 17.7766 21.5769 17.0375 21.6653C16.3287 21.75 15.4476 21.75 14.3625 21.75H9.63823ZM7.27263 4.87007C7.49243 4.78416 7.75801 4.75888 8.41984 4.75219C8.70115 5.34225 9.30315 5.75 10.0004 5.75H14.0004C14.6976 5.75 15.2996 5.34225 15.5809 4.75219C16.2428 4.75888 16.5084 4.78416 16.7282 4.87007C17.0341 4.98964 17.3002 5.19291 17.4961 5.45663C17.6722 5.69377 17.7755 6.02508 18.0664 7.09194L18.42 8.3887C17.3822 8.24996 16.0424 8.24998 14.3777 8.25L12.0061 8.25C12.0026 8.24997 11.999 8.24997 11.9955 8.25L9.62295 8.25C7.95837 8.24998 6.61858 8.24996 5.58079 8.38868L5.93437 7.09195C6.22527 6.02508 6.32861 5.69376 6.50472 5.45662C6.70057 5.19291 6.96668 4.98964 7.27263 4.87007ZM10.3991 9.75H9.68501C7.89266 9.75 6.63083 9.75187 5.70019 9.88649C5.58226 9.90355 5.4722 9.92243 5.36935 9.94313L7.56032 13.1565L10.3991 9.75ZM4.03925 10.655C3.78147 11.0086 3.66801 11.4919 3.75772 12.3744C3.85282 13.3099 4.15705 14.5345 4.59176 16.2733C4.62126 16.3913 4.64981 16.5054 4.67753 16.6159L6.56181 14.3548L4.03925 10.655ZM5.15997 18.38C5.19977 18.5018 5.23975 18.6159 5.28061 18.7231C5.49193 19.2778 5.69884 19.5711 5.958 19.7735C6.21716 19.9758 6.55188 20.1054 7.14125 20.1759C7.75064 20.2488 8.54182 20.25 9.68501 20.25H10.5813L7.44046 15.6435L5.15997 18.38ZM13.4195 20.25L16.5729 15.625L18.841 18.3791C18.8011 18.5013 18.761 18.6156 18.7201 18.7231C18.5088 19.2778 18.3019 19.5711 18.0427 19.7735C17.7835 19.9758 17.4488 20.1054 16.8594 20.1759C16.2501 20.2488 15.4589 20.25 14.3157 20.25H13.4195ZM19.3253 16.6075C19.3523 16.4997 19.3802 16.3883 19.4089 16.2733C19.8436 14.5345 20.1479 13.3099 20.243 12.3744C20.3327 11.492 20.2192 11.0086 19.9615 10.6551L17.453 14.3341L19.3253 16.6075ZM18.6314 9.94314C18.5285 9.92243 18.4185 9.90356 18.3005 9.88649C17.3699 9.75187 16.108 9.75 14.3157 9.75H13.6779L16.4598 13.1281L18.6314 9.94314ZM10.0004 3.75C9.86232 3.75 9.75039 3.86193 9.75039 4C9.75039 4.13807 9.86232 4.25 10.0004 4.25H14.0004C14.1385 4.25 14.2504 4.13807 14.2504 4C14.2504 3.86193 14.1385 3.75 14.0004 3.75H10.0004ZM12.0414 10.1224L15.5797 14.419L12.0004 19.6686L8.43897 14.4452L12.0414 10.1224Z" fill="#1C274C"/>
</svg>
