<svg width="24" height="24" viewBox="0 0 24 24" fill="none" xmlns="http://www.w3.org/2000/svg">
<path d="M8.5 4H8C5.17157 4 3.75736 4 2.87868 4.87868C2 5.75736 2 7.17157 2 10V14C2 16.8284 2 18.2426 2.87868 19.1213C3.75736 20 5.17157 20 8 20H8.5M15.5 4H16C18.8284 4 20.2426 4 21.1213 4.87868C22 5.75736 22 7.17157 22 10V14C22 16.8284 22 18.2426 21.1213 19.1213C20.2426 20 18.8284 20 16 20H15.5" stroke="#1C274C" stroke-width="1.5" stroke-linecap="round"/>
<path d="M17 4V20" stroke="#1C274C" stroke-width="1.5" stroke-linecap="round"/>
<path d="M7 4V20" stroke="#1C274C" stroke-width="1.5" stroke-linecap="round"/>
<path d="M2.5 9L7 9M21.5 9L17 9" stroke="#1C274C" stroke-width="1.5" stroke-linecap="round"/>
<path d="M2.5 15L7 15M21.5 15L17 15" stroke="#1C274C" stroke-width="1.5" stroke-linecap="round"/>
<path d="M13.1389 2H10.8621C10.4782 2 10.2375 2.41474 10.4279 2.74807L11.5664 4.74029C11.7583 5.07619 12.2427 5.07619 12.4346 4.74029L13.573 2.74807C13.7635 2.41474 13.5228 2 13.1389 2Z" stroke="#1C274C" stroke-width="1.5" stroke-linecap="round"/>
<path d="M13.1389 22H10.8621C10.4782 22 10.2375 21.5853 10.4279 21.252L11.5664 19.2597C11.7583 18.9238 12.2427 18.9238 12.4346 19.2597L13.573 21.252C13.7635 21.5853 13.5228 22 13.1389 22Z" stroke="#1C274C" stroke-width="1.5" stroke-linecap="round"/>
<path d="M12 11.5V12.5" stroke="#1C274C" stroke-width="1.5" stroke-linecap="round"/>
<path d="M12 7.5V8.5" stroke="#1C274C" stroke-width="1.5" stroke-linecap="round"/>
<path d="M12 15.5V16.5" stroke="#1C274C" stroke-width="1.5" stroke-linecap="round"/>
</svg>
