<svg width="24" height="24" viewBox="0 0 24 24" fill="none" xmlns="http://www.w3.org/2000/svg">
<path d="M5 12C5 9.19108 5 7.78661 5.67412 6.77772C5.96596 6.34096 6.34096 5.96596 6.77772 5.67412C7.78661 5 9.19108 5 12 5C14.8089 5 16.2134 5 17.2223 5.67412C17.659 5.96596 18.034 6.34096 18.3259 6.77772C19 7.78661 19 9.19108 19 12C19 14.8089 19 16.2134 18.3259 17.2223C18.034 17.659 17.659 18.034 17.2223 18.3259C16.2134 19 14.8089 19 12 19C9.19108 19 7.78661 19 6.77772 18.3259C6.34096 18.034 5.96596 17.659 5.67412 17.2223C5 16.2134 5 14.8089 5 12Z" stroke="#1C274C" stroke-width="1.5"/>
<path d="M12 8.99998V12.0769L14 14" stroke="#1C274C" stroke-width="1.5" stroke-linecap="round" stroke-linejoin="round"/>
<path d="M16.7782 5.5L16.6965 5.13228C16.3628 3.63065 16.196 2.87983 15.6475 2.43992C15.0991 2 14.33 2 12.7917 2H11.2091C9.67086 2 8.90173 2 8.35332 2.43992C7.80492 2.87983 7.63807 3.63065 7.30437 5.13228L7.22266 5.5" stroke="#1C274C" stroke-width="1.5"/>
<path d="M16.7782 5.5L16.6965 5.13228C16.3628 3.63065 16.196 2.87983 15.6475 2.43992C15.0991 2 14.33 2 12.7917 2H11.2091C9.67086 2 8.90173 2 8.35332 2.43992C7.80492 2.87983 7.63807 3.63065 7.30437 5.13228L7.22266 5.5" stroke="#1C274C" stroke-width="1.5"/>
<path d="M16.7782 18.5L16.6965 18.8677C16.3628 20.3693 16.196 21.1202 15.6475 21.5601C15.0991 22 14.33 22 12.7917 22H11.2091C9.67086 22 8.90173 22 8.35332 21.5601C7.80492 21.1202 7.63807 20.3694 7.30437 18.8677L7.22266 18.5" stroke="#1C274C" stroke-width="1.5"/>
</svg>
