<svg width="24" height="24" viewBox="0 0 24 24" fill="none" xmlns="http://www.w3.org/2000/svg">
<path d="M22 11.9995C22 13.1869 21.0374 14.1495 19.85 14.1495C18.6626 14.1495 17.7 13.1869 17.7 11.9995C17.7 10.8121 18.6626 9.84951 19.85 9.84951C21.0374 9.84951 22 10.8121 22 11.9995Z" fill="#1C274C"/>
<path opacity="0.5" d="M21.3582 10.3849L13.6148 2.64148C12.7595 1.78617 11.3728 1.78617 10.5175 2.64148C9.66215 3.4968 9.66215 4.88353 10.5175 5.73885L18.2609 13.4823C18.4323 13.6537 18.6251 13.7908 18.8307 13.8935C18.1575 13.5303 17.7 12.8186 17.7 12C17.7 10.8126 18.6626 9.85 19.85 9.85C21.0232 9.85 21.9769 10.7896 21.9996 11.9573C22.0057 11.3889 21.7919 10.8186 21.3582 10.3849Z" fill="#1C274C"/>
<path d="M12.5349 10.4042L13.8591 9.08008L14.773 9.994L14.9197 10.1407L13.5955 11.4649C13.4826 11.5779 13.4619 11.7537 13.5457 11.8898L14.1916 12.9395C14.929 14.1378 13.499 15.4885 12.3446 14.684L9.72175 12.8559L7.72702 11.4657L8.98638 13.2726L12.6712 18.5595C13.4816 19.7222 12.1075 21.1565 10.9111 20.3968L4.79546 16.5131L5.4448 17.8839C5.77832 18.588 5.63444 19.426 5.0826 19.9779L2.53033 22.5301C2.23744 22.823 1.76256 22.823 1.46967 22.5301C1.17678 22.2372 1.17678 21.7624 1.46967 21.4695L4.02194 18.9172C4.12458 18.8146 4.15191 18.6585 4.08919 18.5261L3.13994 16.5221C2.58305 15.3464 3.91 14.1739 5.00816 14.8713L5.55239 15.2169L5.55349 15.2176L10.8641 18.59L7.67509 14.0145L5.84814 11.3932C5.01991 10.2049 6.46624 8.75855 7.65457 9.58678L11.1683 12.0358L12.4044 12.8973L12.2682 12.6759C12.0575 12.3336 11.9704 11.9438 12.0001 11.5646C12.0337 11.1379 12.2151 10.724 12.5349 10.4042Z" fill="#1C274C"/>
</svg>
