<svg width="24" height="24" viewBox="0 0 24 24" fill="none" xmlns="http://www.w3.org/2000/svg">
<path fill-rule="evenodd" clip-rule="evenodd" d="M21.0475 22.0126C21.701 21.328 21.9876 20.2449 21.5204 19.1972L14.1579 2.68746C13.3032 0.770992 10.6975 0.770992 9.84285 2.68746L2.48035 19.1972C2.01313 20.2449 2.29971 21.328 2.95325 22.0126C3.6123 22.7029 4.68853 23.0217 5.72049 22.4707L5.36726 21.8091L5.72049 22.4707L11.6242 19.3187L11.271 18.6571L11.6242 19.3187C11.8626 19.1914 12.1381 19.1914 12.3765 19.3187L18.2802 22.4707L18.6335 21.8091L18.2802 22.4707C19.3122 23.0217 20.3884 22.7029 21.0475 22.0126ZM18.9867 21.1475L18.6361 21.8043L18.9867 21.1475L13.083 17.9955C12.4031 17.6325 11.5976 17.6325 10.9177 17.9955L5.01402 21.1475C4.65823 21.3375 4.29996 21.2509 4.03821 20.9768C3.77096 20.6968 3.65045 20.2563 3.8503 19.8081L11.2128 3.29838C11.5388 2.56735 12.4619 2.56735 12.7879 3.29838L20.1504 19.8081C20.3503 20.2563 20.2298 20.6968 19.9625 20.9768C19.7008 21.2509 19.3425 21.3375 18.9867 21.1475Z" fill="#1C274C"/>
</svg>
