<svg width="24" height="24" viewBox="0 0 24 24" fill="none" xmlns="http://www.w3.org/2000/svg">
<path fill-rule="evenodd" clip-rule="evenodd" d="M14.3938 3.06477C11.9584 2.41221 9.49101 2.79438 7.45512 3.94297C7.09436 4.14651 6.63691 4.01905 6.43338 3.65829C6.22985 3.29753 6.35731 2.84008 6.71807 2.63655C9.08208 1.30284 11.9523 0.857647 14.782 1.61589C20.5168 3.15251 23.9201 9.04713 22.3834 14.7819C20.8468 20.5167 14.9522 23.9199 9.21743 22.3833C3.48267 20.8467 0.079411 14.952 1.61604 9.21728C1.9203 8.08176 2.39606 7.03633 3.00848 6.1023C3.58249 5.22684 4.74027 5.15904 5.47352 5.75252L12.4716 11.4166C12.7936 11.6772 12.8433 12.1495 12.5827 12.4714C12.3221 12.7934 11.8499 12.8432 11.5279 12.5826L7.48818 9.31291C7.01903 10.0988 6.74974 11.0171 6.74974 11.9996C6.74974 14.8991 9.10024 17.2496 11.9997 17.2496C14.8992 17.2496 17.2497 14.8991 17.2497 11.9996C17.2497 9.10009 14.8992 6.74959 11.9997 6.74959C11.4183 6.74959 10.8604 6.84383 10.3395 7.01729C9.94654 7.14817 9.52186 6.93569 9.39097 6.5427C9.26009 6.1497 9.47257 5.72502 9.86557 5.59414C10.5373 5.37042 11.2552 5.24959 11.9997 5.24959C15.7277 5.24959 18.7497 8.27167 18.7497 11.9996C18.7497 15.7275 15.7277 18.7496 11.9997 18.7496C8.27182 18.7496 5.24974 15.7275 5.24974 11.9996C5.24974 10.6607 5.6402 9.41167 6.31304 8.36177L4.52982 6.91847C4.47398 6.87327 4.41114 6.85969 4.36126 6.86572C4.31584 6.87121 4.28507 6.89094 4.26289 6.92477C3.73689 7.727 3.32736 8.62608 3.06492 9.60551C1.74271 14.5401 4.6711 19.6122 9.60566 20.9344C14.5402 22.2566 19.6123 19.3282 20.9346 14.3937C22.2568 9.4591 19.3284 4.38699 14.3938 3.06477Z" fill="#1C274C"/>
</svg>
