<svg width="24" height="24" viewBox="0 0 24 24" fill="none" xmlns="http://www.w3.org/2000/svg">
<g clip-path="url(#clip0_3_33091)">
<path d="M19.0708 4.92871C22.4042 8.26204 24.0708 9.92871 24.0708 11.9998C24.0708 14.0708 22.4042 15.7375 19.0708 19.0708C15.7375 22.4042 14.0708 24.0708 11.9998 24.0708C9.92871 24.0708 8.26204 22.4042 4.92871 19.0708C1.59538 15.7375 -0.0712891 14.0708 -0.0712891 11.9998C-0.0712891 9.92871 1.59538 8.26204 4.92871 4.92871C8.26204 1.59538 9.92871 -0.0712891 11.9998 -0.0712891C13.3769 -0.0712887 14.5751 0.665556 16.2035 2.13925" stroke="#1C274C" stroke-width="1.5" stroke-linecap="round"/>
<path d="M16 11.5L13.3333 9M16 11.5L13.3333 14M16 11.5L10.6667 11.5C9.77778 11.5 8 12 8 14" stroke="#1C274C" stroke-width="1.5" stroke-linecap="round" stroke-linejoin="round"/>
</g>
<defs>
<clipPath id="clip0_3_33091">
<rect width="24" height="24" fill="white"/>
</clipPath>
</defs>
</svg>
