<svg width="24" height="24" viewBox="0 0 24 24" fill="none" xmlns="http://www.w3.org/2000/svg">
<path d="M17 21V16M7 21V16" stroke="#1C274C" stroke-width="1.5" stroke-linecap="round"/>
<path d="M15.5003 12H8.50026C6.85034 12 6.02538 12 5.51282 12.5858C5.22693 12.9125 5.1005 13.3503 5.04459 14.0008C4.96714 14.9018 4.92842 15.3523 5.22563 15.6762C5.52283 16 6.01531 16 7.00026 16H17.0003C17.9852 16 18.4777 16 18.7749 15.6762C19.0721 15.3523 19.0334 14.9018 18.9559 14.0008C18.9 13.3503 18.7736 12.9125 18.4877 12.5858C17.9751 12 17.1502 12 15.5003 12Z" stroke="#1C274C" stroke-width="1.5"/>
<path d="M7 8C7 6.13077 7 5.19615 7.40192 4.5C7.66523 4.04394 8.04394 3.66523 8.5 3.40192C9.19615 3 10.1308 3 12 3C13.8692 3 14.8038 3 15.5 3.40192C15.9561 3.66523 16.3348 4.04394 16.5981 4.5C17 5.19615 17 6.13077 17 8V12H7V8Z" stroke="#1C274C" stroke-width="1.5"/>
</svg>
