<svg width="24" height="24" viewBox="0 0 24 24" fill="none" xmlns="http://www.w3.org/2000/svg">
<path d="M4 18H20C21.1046 18 22 17.1046 22 16C22 14.8954 21.1046 14 20 14H4C2.89543 14 2 14.8954 2 16C2 17.1046 2.89543 18 4 18Z" stroke="#1C274C" stroke-width="1.5"/>
<path d="M4.50042 14L4.42577 13.7014C3.33894 9.35409 2.79552 7.18043 3.86633 5.67821C3.93387 5.58345 4.00553 5.49169 4.08107 5.40317C5.27873 4 7.51929 4 12.0004 4C16.4815 4 18.7221 4 19.9198 5.40317C19.9953 5.49169 20.067 5.58345 20.1345 5.67821C21.2053 7.18043 20.6619 9.35409 19.5751 13.7014L19.5004 14" stroke="#1C274C" stroke-width="1.5"/>
<path d="M20 20V18M4 20V18" stroke="#1C274C" stroke-width="1.5" stroke-linecap="round"/>
</svg>
