<svg width="24" height="24" viewBox="0 0 24 24" fill="none" xmlns="http://www.w3.org/2000/svg">
<g opacity="0.5">
<path d="M22 5.88616V18.1134C22 19.8156 22 20.6666 21.4576 20.9458C20.9152 21.2249 20.2226 20.7302 18.8375 19.7409L17.2563 18.6114C16.6404 18.1715 16.3325 17.9516 16.1663 17.6285C16 17.3055 16 16.927 16 16.1702V7.82935C16 7.07252 16 6.69411 16.1662 6.37105C16.3325 6.048 16.6404 5.82805 17.2563 5.38815L18.8375 4.2587C20.2226 3.26934 20.9152 2.77467 21.4576 3.05381C22 3.33294 22 4.18402 22 5.88616Z" fill="#1C274C"/>
<path d="M2 5.88616L2 18.1134C2 19.8156 2 20.6666 2.54242 20.9458C3.08484 21.2249 3.77738 20.7302 5.16248 19.7409L6.74372 18.6114C7.35957 18.1715 7.6675 17.9516 7.83375 17.6285C8 17.3055 8 16.927 8 16.1702L8 7.82935C8 7.07252 8 6.69411 7.83375 6.37105C7.6675 6.048 7.35957 5.82805 6.74372 5.38815L5.16248 4.2587C3.77738 3.26935 3.08484 2.77467 2.54242 3.05381C2 3.33295 2 4.18402 2 5.88616Z" fill="#1C274C"/>
</g>
<path fill-rule="evenodd" clip-rule="evenodd" d="M12 22.75C11.5858 22.75 11.25 22.4142 11.25 22L11.25 18C11.25 17.5858 11.5858 17.25 12 17.25C12.4142 17.25 12.75 17.5858 12.75 18L12.75 22C12.75 22.4142 12.4142 22.75 12 22.75ZM12 14.75C11.5858 14.75 11.25 14.4142 11.25 14L11.25 10C11.25 9.58579 11.5858 9.25 12 9.25C12.4142 9.25 12.75 9.58579 12.75 10L12.75 14C12.75 14.4142 12.4142 14.75 12 14.75ZM12 6.75C11.5858 6.75 11.25 6.41421 11.25 6L11.25 2C11.25 1.58579 11.5858 1.25 12 1.25C12.4142 1.25 12.75 1.58579 12.75 2L12.75 6C12.75 6.41421 12.4142 6.75 12 6.75Z" fill="#1C274C"/>
</svg>
