<svg width="24" height="24" viewBox="0 0 24 24" fill="none" xmlns="http://www.w3.org/2000/svg">
<path opacity="0.5" d="M2 15.6157C2 16.463 2.68179 17.1448 4.04537 18.5083L5.49167 19.9546C6.85525 21.3182 7.53704 22 8.38426 22C9.23148 22 9.91327 21.3182 11.2769 19.9546L19.9546 11.2769C21.3182 9.91327 22 9.23148 22 8.38426C22 7.53704 21.3182 6.85525 19.9546 5.49167L18.5083 4.04537C17.1448 2.68179 16.463 2 15.6157 2C14.8623 2 14.2396 2.53926 13.1519 3.61778L12.1026 4.66595L11.0299 5.73861L9.98125 6.78726L8.90859 7.85993L7.85993 8.90859L6.78727 9.98125L5.73861 11.0299L4.66595 12.1026L3.61778 13.1519C2.53926 14.2396 2 14.8623 2 15.6157Z" fill="#1C274C"/>
<path d="M13.2377 3.69075C13.2107 3.66374 13.1821 3.63922 13.1523 3.61719L12.103 4.66535C12.1251 4.69542 12.1498 4.7242 12.177 4.75142L13.5912 6.16563C13.8841 6.45852 14.359 6.45852 14.6519 6.16563C14.9448 5.87274 14.9448 5.39786 14.6519 5.10497L13.2377 3.69075Z" fill="#1C274C"/>
<path d="M11.1164 5.81207C11.0891 5.78486 11.0604 5.76017 11.0303 5.73802L9.98164 6.78667C10.0038 6.81673 10.0285 6.84552 10.0557 6.87273L12.177 8.99405C12.4699 9.28695 12.9448 9.28695 13.2377 8.99405C13.5306 8.70116 13.5306 8.22629 13.2377 7.93339L11.1164 5.81207Z" fill="#1C274C"/>
<path d="M8.99503 7.9334C8.96782 7.90618 8.93903 7.88149 8.90897 7.85934L7.86031 8.90799C7.88247 8.93806 7.90716 8.96684 7.93437 8.99406L9.34859 10.4083C9.64148 10.7012 10.1164 10.7012 10.4092 10.4083C10.7021 10.1154 10.7021 9.6405 10.4092 9.34761L8.99503 7.9334Z" fill="#1C274C"/>
<path d="M6.87371 10.0547C6.8465 10.0275 6.81771 10.0028 6.78765 9.98066L5.73899 11.0293C5.76115 11.0594 5.78584 11.0882 5.81305 11.1154L7.93437 13.2367C8.22726 13.5296 8.70214 13.5296 8.99503 13.2367C9.28792 12.9438 9.28792 12.4689 8.99503 12.176L6.87371 10.0547Z" fill="#1C274C"/>
<path d="M4.75239 12.176C4.72518 12.1488 4.69639 12.1241 4.66633 12.102L3.61816 13.1513C3.6402 13.1811 3.66472 13.2097 3.69173 13.2367L5.10594 14.6509C5.39884 14.9438 5.87371 14.9438 6.16661 14.6509C6.4595 14.358 6.4595 13.8831 6.16661 13.5902L4.75239 12.176Z" fill="#1C274C"/>
</svg>
